<svg id="Calque_1" data-name="Calque 1" xmlns="http://www.w3.org/2000/svg" viewBox="0 0 1190.55 841.89"><defs><style>.cls-1,.cls-50,.cls-9{font-size:30px;}.cls-1{font-family:GTAmerica-Bold, GT America;font-weight:700;}.cls-2{letter-spacing:0em;}.cls-3{letter-spacing:-0.06em;}.cls-4{letter-spacing:-0.02em;}.cls-5{letter-spacing:0em;}.cls-6{letter-spacing:-0.01em;}.cls-7{letter-spacing:0em;}.cls-8{letter-spacing:-0.01em;}.cls-50,.cls-9{font-family:GTAmerica-Light, GT America;font-weight:300;}.cls-10{letter-spacing:-0.02em;}.cls-11{letter-spacing:0em;}.cls-12{letter-spacing:0em;}.cls-13{letter-spacing:0em;}.cls-14{letter-spacing:0em;}.cls-15{letter-spacing:-0.01em;}.cls-16{letter-spacing:-0.01em;}.cls-17{letter-spacing:0em;}.cls-18,.cls-50{letter-spacing:0em;}.cls-19{letter-spacing:0em;}.cls-20{letter-spacing:-0.01em;}.cls-21{letter-spacing:0.01em;}.cls-22{letter-spacing:0.02em;}.cls-23{letter-spacing:0.01em;}.cls-24{letter-spacing:0em;}.cls-25{letter-spacing:0.01em;}.cls-26{letter-spacing:0.03em;}.cls-27{letter-spacing:0em;}.cls-28{letter-spacing:0.03em;}.cls-29{letter-spacing:0.03em;}.cls-30{letter-spacing:0em;}.cls-31{letter-spacing:0.03em;}.cls-32{letter-spacing:0.01em;}.cls-33{letter-spacing:-0.01em;}.cls-34{letter-spacing:-0.02em;}.cls-35{letter-spacing:-0.04em;}.cls-36{letter-spacing:-0.01em;}.cls-37{letter-spacing:-0.01em;}.cls-38{letter-spacing:-0.03em;}.cls-39{letter-spacing:-0.02em;}.cls-40{letter-spacing:-0.02em;}.cls-41{letter-spacing:-0.02em;}.cls-42{letter-spacing:-0.02em;}.cls-43{letter-spacing:-0.01em;}.cls-44{letter-spacing:-0.01em;}.cls-45{letter-spacing:-0.01em;}.cls-46{letter-spacing:-0.01em;}.cls-47{letter-spacing:-0.01em;}.cls-48{letter-spacing:-0.01em;}.cls-49{letter-spacing:-0.04em;}.cls-51{letter-spacing:-0.01em;}.cls-52{letter-spacing:-0.04em;}.cls-53{letter-spacing:0em;}.cls-54{letter-spacing:0em;}.cls-55{letter-spacing:0em;}.cls-56{letter-spacing:-0.01em;}.cls-57{letter-spacing:0em;}.cls-58{letter-spacing:-0.06em;}.cls-59{letter-spacing:-0.01em;}.cls-60{letter-spacing:0em;}.cls-61{letter-spacing:0em;}.cls-62{letter-spacing:0em;}.cls-63{letter-spacing:0em;}.cls-64{letter-spacing:0em;}.cls-65{letter-spacing:0em;}.cls-66{letter-spacing:-0.02em;}.cls-67{letter-spacing:-0.01em;}.cls-68{letter-spacing:-0.03em;}.cls-69{letter-spacing:-0.03em;}.cls-70{letter-spacing:-0.07em;}.cls-71{letter-spacing:-0.02em;}.cls-72{letter-spacing:-0.03em;}.cls-73{letter-spacing:-0.01em;}.cls-74{letter-spacing:-0.01em;}.cls-75{letter-spacing:-0.02em;}.cls-76{letter-spacing:-0.02em;}.cls-77{letter-spacing:-0.03em;}.cls-78{letter-spacing:-0.02em;}</style></defs><path d="M93.5,56.51A45.06,45.06,0,0,0,101,51c2-2,2.85-3.6,2.85-5.73s-1-3.24-2.7-3.24-2.82,1.2-2.82,3.18a10.13,10.13,0,0,0,.21,1.71l-4.92-.45a8.15,8.15,0,0,1-.18-1.65c0-4,3.06-6.6,8-6.6S109,40.67,109,44.93c0,2.88-1.23,5.31-3.75,7.65a28.91,28.91,0,0,1-5.19,3.63h9.12v3.84H93.5Zm24,3.54h-5.13V55.13h5.13Zm11.34,0V38.75h5.07v21.3Zm9.51-21.3h8.49c6.39,0,10.53,4.26,10.53,10.53s-4.14,10.77-10.59,10.77h-8.43Zm8.22,17.58c3.6,0,5.58-3.24,5.58-7s-1.86-6.81-5.52-6.81h-3.21V56.33Zm28.68,0v3.75H160.43V38.75H175V42.5H165.5v4.8h9V51h-9V56.3Zm3.69-17.55h5.61l6.84,12.15a22.16,22.16,0,0,1,1.29,2.76h.06c0-.84,0-1.71,0-2.73V38.75h4.65v21.3h-5.4l-7.08-12.27a18.35,18.35,0,0,1-1.26-2.61h-.06c0,.87,0,1.77,0,2.82V60.05h-4.65Zm38.28,4H211V60.05h-5V42.77h-6.18v-4h17.43Zm2.4,17.28V38.75h5.07v21.3Zm14.58-17.46v4.92h9v3.78h-9v8.76H229.1V38.75h14.58v3.84Zm12.54,17.46V38.75h5.07v21.3Zm8.16-10.62c0-6.72,4-11.19,10.44-11.19,5.43,0,8.85,3,9.42,7.65l-5.13.9c-.3-2.82-1.86-4.47-4.41-4.47-3.24,0-5.13,2.73-5.13,7.08s1.92,7.05,5.28,7.05c2.37,0,4-1.62,4.38-4.38l5.13,1.11c-1,4.5-4.32,7.38-9.6,7.38C258.5,60.56,254.87,56.15,254.87,49.43Zm34.91,5.64h-7.86l-1.62,5h-5.07L283,38.75h5.79l7.74,21.3h-5.1Zm-1.17-3.57-1.95-5.94a25.65,25.65,0,0,1-.78-3h-.06a20.83,20.83,0,0,1-.78,3l-2,5.94Zm23.19-8.73h-6.21V60.05h-5V42.77h-6.18v-4H311.8Zm2.4,17.28V38.75h5.07v21.3Zm8.16-10.65c0-6.87,4.11-11.16,10.5-11.16s10.5,4.29,10.5,11.16-4.11,11.16-10.5,11.16S322.36,56.24,322.36,49.4Zm15.78,0c0-4.5-1.95-7.2-5.28-7.2s-5.31,2.7-5.31,7.2,2,7.2,5.31,7.2S338.14,53.9,338.14,49.4Zm8.31-10.65h5.61L358.9,50.9a22.16,22.16,0,0,1,1.29,2.76h.06c0-.84,0-1.71,0-2.73V38.75h4.65v21.3h-5.4l-7.08-12.27a18.35,18.35,0,0,1-1.26-2.61h-.06c0,.87,0,1.77,0,2.82V60.05h-4.65Zm30.27,0h8.49c6.39,0,10.53,4.26,10.53,10.53s-4.14,10.77-10.59,10.77h-8.43Zm8.22,17.58c3.6,0,5.58-3.24,5.58-7s-1.86-6.81-5.52-6.81h-3.21V56.33Zm28.68,0v3.75H398.83V38.75h14.58V42.5H403.9v4.8h9V51h-9V56.3Zm1.38-.69L418.75,53a6.17,6.17,0,0,0,5.79,3.66c2,0,3.66-.75,3.66-2.43s-.93-2.19-3.09-2.64l-2.85-.6c-3.72-.81-5.88-2.82-5.88-6.39,0-3.9,3.18-6.33,8.31-6.33,3.78,0,7,1.38,8.46,4.23l-3.3,2.79A6,6,0,0,0,424.36,42c-2,0-3.3.84-3.3,2.19s.84,2.07,3.09,2.58l3.09.66c3.78.84,5.82,2.64,5.82,6.3,0,4.05-3.12,6.84-8.7,6.84C419.77,60.56,416.47,58.61,415,55.61Zm43.89-12.84h-6.21V60.05h-5V42.77h-6.18v-4h17.43Zm20.73,17.28h-5.07V51.2h-8.19v8.85h-5.07V38.75h5.07V47.3h8.19V38.75h5.07Zm19.23-3.75v3.75H484.06V38.75h14.58V42.5h-9.51v4.8h9V51h-9V56.3Zm-9.27-18.84-3.48-3.54h4.17l3,3.54Zm13,1.29h7l3.93,13a14.92,14.92,0,0,1,.51,2.58H514a16.5,16.5,0,0,1,.54-2.64l3.75-13h7.05v21.3h-4.62V45.53a21.43,21.43,0,0,1,.12-2.4h-.09a12.12,12.12,0,0,1-.45,2.07L516,60.05h-4.26L507.28,45.2a10,10,0,0,1-.45-2h-.09c.06.72.12,1.53.12,2.37V60.05h-4.32Zm42,17.55v3.75H529.78V38.75h14.58V42.5h-9.51v4.8h9V51h-9V56.3Zm1.38-.69L549.7,53a6.17,6.17,0,0,0,5.79,3.66c2,0,3.66-.75,3.66-2.43s-.93-2.19-3.09-2.64l-2.85-.6c-3.72-.81-5.88-2.82-5.88-6.39,0-3.9,3.18-6.33,8.31-6.33,3.78,0,7,1.38,8.46,4.23l-3.3,2.79A6,6,0,0,0,555.31,42c-2,0-3.3.84-3.3,2.19s.84,2.07,3.09,2.58l3.09.66c3.78.84,5.82,2.64,5.82,6.3,0,4.05-3.12,6.84-8.7,6.84C550.72,60.56,547.42,58.61,546,55.61Zm43.26.69v3.75H574.42V38.75H589V42.5h-9.51v4.8h9V51h-9V56.3Zm19.23-13.53h-6.21V60.05h-5V42.77H591v-4h17.43ZM633,56.3v3.75H618.25V38.75h14.58V42.5h-9.51v4.8h9V51h-9V56.3Zm3.69-17.55h5.61l6.84,12.15a22.16,22.16,0,0,1,1.29,2.76h.06c0-.84,0-1.71,0-2.73V38.75h4.65v21.3h-5.4l-7.08-12.27a18.35,18.35,0,0,1-1.26-2.61h-.06c0,.87,0,1.77,0,2.82V60.05h-4.65ZM661,60.41a16,16,0,0,1-3.15-.27V56a15.56,15.56,0,0,0,2,.15c1.92,0,3.09-.9,3.09-3.42v-14h5.07v15C668.08,58.37,665.32,60.41,661,60.41ZM687,56.3v3.75H672.16V38.75h14.58V42.5h-9.51v4.8h9V51h-9V56.3Zm8.4-17.55V52.4a4,4,0,1,0,7.92,0V38.75h5.07V52.61c0,4.86-3.36,8-9,8s-9-3.09-9-8V38.75ZM717.22,49l-6.63-10.23h5.61l3.51,6a6.82,6.82,0,0,1,.63,1.35h.06a6.82,6.82,0,0,1,.63-1.35l3.6-6h5.49l-6.6,10.53,7.11,10.77h-5.7l-3.87-6.3a8.37,8.37,0,0,1-.84-1.59h-.06a8.27,8.27,0,0,1-.81,1.65l-3.69,6.24h-5.49Z"/><path d="M93.77,94.22a71,71,0,0,0,7.5-6.36c2.52-2.61,3.48-4.59,3.48-7.17,0-2.85-1.56-4.53-4.2-4.53a4,4,0,0,0-4.29,4.29,10.11,10.11,0,0,0,.24,1.92l-2.22-.21a6.9,6.9,0,0,1-.21-1.74c0-3.78,2.46-6.18,6.6-6.18,4,0,6.39,2.31,6.39,6.42,0,2.94-1.38,5.52-4.38,8.52a44.1,44.1,0,0,1-5.94,4.89h10.65v2H93.77Zm20.1,1.83h-2.82V92.69h2.82ZM128,90.29v5.76h-2.1V90.29h-10V88.76l9.63-14H128v13.8h3.45v1.74ZM126,77h-.06a11.48,11.48,0,0,1-1.29,2.34l-4.74,7a19.66,19.66,0,0,1-1.68,2.28h7.71V79.73C125.9,78.32,125.9,77.93,126,77Zm30.51,17.1v2h-13.2V74.75h13v2H145.58v7.41h10.17v2H145.58v7.95Zm5.13-19.32h2.82L174.29,91a19.23,19.23,0,0,1,1.26,2.46h.06c-.06-.81-.09-1.47-.09-2.61V74.75h2.1v21.3H174.8l-9.87-16.29a16,16,0,0,1-1.26-2.46h-.06c.06.72.09,1.47.09,2.61V96.05h-2.1Zm19.35,0h2.46l5.46,16a24.45,24.45,0,0,1,.87,3h.09a24.45,24.45,0,0,1,.87-3l5.46-16h2.46l-7.56,21.3h-2.55Zm21,21.3V74.75h2.31v21.3ZM217.76,87h-4.89v9.09h-2.31V74.75h7.62c5.49,0,6.93,3.06,6.93,6.09a5.65,5.65,0,0,1-4.89,5.82l5.55,9.39h-2.64Zm-4.89-2H218c3.45,0,4.68-1.83,4.68-4.14s-1.2-4.11-4.68-4.11h-5.1Zm15.26.42c0-6.93,3.78-11.16,9.6-11.16s9.6,4.23,9.6,11.16-3.78,11.16-9.6,11.16S228.13,92.18,228.13,85.4Zm16.77,0c0-5.64-2.67-9.18-7.17-9.18s-7.17,3.54-7.17,9.18,2.7,9.18,7.17,9.18S244.9,91,244.9,85.4ZM252,74.75h2.82L264.67,91a19.23,19.23,0,0,1,1.26,2.46H266c-.06-.81-.09-1.47-.09-2.61V74.75H268v21.3h-2.82l-9.87-16.29a16,16,0,0,1-1.26-2.46H254c.06.72.09,1.47.09,2.61V96.05H252Zm22.32,0h2.82L287,91a19.23,19.23,0,0,1,1.26,2.46h.06c-.06-.81-.09-1.47-.09-2.61V74.75h2.1v21.3H287.5l-9.87-16.29a16,16,0,0,1-1.26-2.46h-.06c.06.72.09,1.47.09,2.61V96.05h-2.1Zm35.52,19.32v2h-13.2V74.75h13v2H298.93v7.41H309.1v2H298.93v7.95ZM315,74.75h3.27l6.21,17a8.19,8.19,0,0,1,.51,1.83H325a8.48,8.48,0,0,1,.54-1.83l6.18-17H335v21.3h-2.16v-17a15.7,15.7,0,0,1,.12-2.13h-.12a19.8,19.8,0,0,1-.6,2.25l-6.15,16.86h-2.25l-6.15-16.86a15.51,15.51,0,0,1-.63-2.25H317c.06.66.09,1.35.09,2.13v17H315Zm39.57,19.32v2h-13.2V74.75h13v2H343.63v7.41H353.8v2H343.63v7.95Zm5.13-19.32h2.82L372.34,91a19.23,19.23,0,0,1,1.26,2.46h.06c-.06-.81-.09-1.47-.09-2.61V74.75h2.1v21.3h-2.82L363,79.76a16,16,0,0,1-1.26-2.46h-.06c.06.72.09,1.47.09,2.61V96.05h-2.1Zm35.55,2h-6.87V96.05H386V76.73h-6.87v-2H395.2Z"/><text class="cls-1" transform="translate(35.99 167.99)">Enjeux li<tspan class="cls-2" x="123.03" y="0">é</tspan><tspan x="139.83" y="0">s à l</tspan><tspan class="cls-3" x="196.29" y="0">’</tspan><tspan x="202.92" y="0">e</tspan><tspan class="cls-4" x="219.78" y="0">n</tspan><tspan x="237.6" y="0">vi</tspan><tspan class="cls-5" x="262.41" y="0">r</tspan><tspan x="274.65" y="0">onneme</tspan><tspan class="cls-6" x="388.92" y="0">n</tspan><tspan x="406.89" y="0">t </tspan><tspan class="cls-7" x="426.18" y="0">b</tspan><tspan class="cls-8" x="444.71" y="0">â</tspan><tspan x="461.63" y="0">ti</tspan></text><text class="cls-9" transform="translate(35.99 239.99)">•</text><text class="cls-9" transform="translate(45.05 239.99)"> </text><text class="cls-9" transform="translate(53.99 239.99)"><tspan class="cls-10">R</tspan><tspan class="cls-11" x="19.26" y="0">éaliser des con</tspan><tspan class="cls-12" x="223.26" y="0">s</tspan><tspan x="238.05" y="0">tru</tspan><tspan class="cls-13" x="276.42" y="0">c</tspan><tspan x="292.13" y="0">tions du</tspan><tspan class="cls-8" x="402.2" y="0">r</tspan><tspan class="cls-14" x="412.61" y="0">ables </tspan><tspan class="cls-15" x="493.37" y="0">(</tspan><tspan x="501.86" y="0">m</tspan><tspan class="cls-2" x="527.06" y="0">a</tspan><tspan class="cls-16" x="543.14" y="0">t</tspan><tspan class="cls-17" x="553.43" y="0">ériaux n</tspan><tspan class="cls-18" x="661.28" y="0">o</tspan><tspan class="cls-19" x="677.9" y="0">t</tspan><tspan x="688.25" y="0">a</tspan><tspan class="cls-13" x="704.39" y="0">m</tspan><tspan x="729.53" y="0">me</tspan><tspan class="cls-20" x="770.75" y="0">n</tspan><tspan class="cls-21" x="787.91" y="0">t</tspan><tspan x="798.59" y="0">)</tspan></text><text class="cls-9" transform="translate(35.99 311.99)">•</text><text class="cls-9" transform="translate(45.05 311.99)"> </text><text class="cls-9" transform="translate(53.99 311.99)"><tspan class="cls-22">G</tspan><tspan class="cls-23" x="22.29" y="0">a</tspan><tspan class="cls-24" x="38.67" y="0">r</tspan><tspan class="cls-23" x="49.32" y="0">a</tspan><tspan class="cls-18" x="65.7" y="0">n</tspan><tspan class="cls-25" x="83.1" y="0">tir</tspan><tspan class="cls-26" x="112.74" y="0"> </tspan><tspan class="cls-23" x="121.74" y="0">que</tspan><tspan class="cls-26" x="173.19" y="0"> </tspan><tspan class="cls-25" x="182.19" y="0">les</tspan><tspan class="cls-26" x="221.94" y="0"> </tspan><tspan class="cls-25" x="230.94" y="0">cha</tspan><tspan class="cls-18" x="281.16" y="0">n</tspan><tspan class="cls-25" x="298.56" y="0">tie</tspan><tspan class="cls-27" x="333.54" y="0">r</tspan><tspan class="cls-23" x="344.33" y="0">s</tspan><tspan class="cls-26" x="359.51" y="0"> </tspan><tspan class="cls-23" x="368.51" y="0">soie</tspan><tspan class="cls-24" x="424.85" y="0">n</tspan><tspan class="cls-25" x="442.25" y="0">t</tspan><tspan class="cls-26" x="452.96" y="0"> </tspan><tspan class="cls-7" x="461.96" y="0">v</tspan><tspan class="cls-25" x="476.09" y="0">e</tspan><tspan class="cls-28" x="492.35" y="0">r</tspan><tspan class="cls-23" x="503.81" y="0">tueux</tspan><tspan class="cls-29" x="580.58" y="0"> </tspan><tspan class="cls-23" x="589.55" y="0">en</tspan><tspan class="cls-26" x="623.48" y="0"> </tspan><tspan class="cls-30" x="632.48" y="0">t</tspan><tspan class="cls-23" x="642.98" y="0">erme</tspan><tspan class="cls-31" x="711.86" y="0"> </tspan><tspan class="cls-23" x="720.83" y="0">de</tspan><tspan class="cls-29" x="754.97" y="0"> </tspan><tspan class="cls-16" x="763.94" y="0">g</tspan><tspan class="cls-23" x="779.72" y="0">e</tspan><tspan class="cls-7" x="795.98" y="0">s</tspan><tspan class="cls-23" x="811.01" y="0">tions</tspan><tspan class="cls-26" x="879.47" y="0"> </tspan><tspan class="cls-23" x="888.47" y="0">des</tspan><tspan class="cls-29" x="937.79" y="0"> </tspan><tspan class="cls-23" x="946.76" y="0">déch</tspan><tspan class="cls-32" x="1014.74" y="0">e</tspan><tspan class="cls-27" x="1030.94" y="0">t</tspan><tspan class="cls-23" x="1041.53" y="0">s</tspan><tspan class="cls-29" x="1056.71" y="0"> </tspan><tspan class="cls-23" x="1065.68" y="0">d</tspan><tspan x="1083.56" y="0">e </tspan></text><text class="cls-9" transform="translate(53.99 347.99)"><tspan class="cls-8">c</tspan><tspan class="cls-33" x="15.51" y="0">ha</tspan><tspan class="cls-34" x="48.63" y="0">n</tspan><tspan class="cls-8" x="65.49" y="0">ti</tspan><tspan class="cls-33" x="83.19" y="0">e</tspan><tspan class="cls-8" x="98.91" y="0">r</tspan><tspan class="cls-35" x="109.32" y="0"> </tspan><tspan class="cls-33" x="116.19" y="0">n</tspan><tspan class="cls-36" x="133.32" y="0">o</tspan><tspan class="cls-15" x="149.64" y="0">t</tspan><tspan class="cls-6" x="159.66" y="0">a</tspan><tspan class="cls-37" x="175.5" y="0">m</tspan><tspan class="cls-20" x="200.34" y="0">m</tspan><tspan class="cls-33" x="225.27" y="0">e</tspan><tspan class="cls-34" x="240.99" y="0">n</tspan><tspan class="cls-33" x="257.85" y="0">t</tspan><tspan class="cls-35" x="268.02" y="0"> </tspan><tspan class="cls-38" x="274.89" y="0">(</tspan><tspan class="cls-6" x="283.08" y="0">m</tspan><tspan class="cls-20" x="307.98" y="0">ais</tspan><tspan class="cls-35" x="346.02" y="0"> </tspan><tspan class="cls-8" x="352.89" y="0">é</tspan><tspan class="cls-39" x="368.64" y="0">g</tspan><tspan class="cls-6" x="383.97" y="0">a</tspan><tspan class="cls-8" x="399.81" y="0">l</tspan><tspan class="cls-6" x="407.6" y="0">e</tspan><tspan class="cls-8" x="423.33" y="0">me</tspan><tspan class="cls-40" x="464" y="0">n</tspan><tspan class="cls-8" x="480.83" y="0">t</tspan><tspan class="cls-35" x="491.03" y="0"> </tspan><tspan class="cls-8" x="497.9" y="0">p</tspan><tspan class="cls-41" x="515.12" y="0">r</tspan><tspan class="cls-36" x="525.26" y="0">o</tspan><tspan class="cls-42" x="541.58" y="0">t</tspan><tspan class="cls-43" x="551.54" y="0">e</tspan><tspan class="cls-44" x="567.26" y="0">c</tspan><tspan class="cls-20" x="582.68" y="0">tion</tspan><tspan class="cls-35" x="633.92" y="0"> </tspan><tspan class="cls-20" x="640.79" y="0">d</tspan><tspan class="cls-6" x="658.16" y="0">e</tspan><tspan class="cls-20" x="673.88" y="0">s</tspan><tspan class="cls-35" x="688.55" y="0"> </tspan><tspan class="cls-45" x="695.42" y="0">eau</tspan><tspan class="cls-46" x="743.99" y="0">x</tspan><tspan class="cls-6" x="758.39" y="0">,</tspan><tspan class="cls-35" x="765.26" y="0"> </tspan><tspan class="cls-47" x="772.13" y="0">l</tspan><tspan class="cls-20" x="779.9" y="0">i</tspan><tspan class="cls-47" x="787.4" y="0">m</tspan><tspan class="cls-20" x="812.3" y="0">i</tspan><tspan class="cls-48" x="819.8" y="0">t</tspan><tspan class="cls-44" x="829.85" y="0">a</tspan><tspan class="cls-20" x="845.63" y="0">tion</tspan><tspan class="cls-35" x="896.87" y="0"> </tspan><tspan class="cls-20" x="903.74" y="0">d</tspan><tspan class="cls-6" x="921.11" y="0">e</tspan><tspan class="cls-20" x="936.83" y="0">s</tspan><tspan class="cls-49" x="951.5" y="0"> </tspan><tspan class="cls-20" x="958.37" y="0">pou</tspan><tspan class="cls-42" x="1008.92" y="0">s</tspan><tspan class="cls-45" x="1023.35" y="0">siè</tspan><tspan class="cls-42" x="1061.27" y="0">r</tspan><tspan class="cls-20" x="1071.44" y="0">e</tspan><tspan x="1087.19" y="0">s </tspan></text><text class="cls-50" transform="translate(53.99 383.99)">e<tspan class="cls-14" x="15.99" y="0">t du bruit, </tspan><tspan class="cls-2" x="156.12" y="0">e</tspan><tspan class="cls-51" x="172.08" y="0">t</tspan><tspan class="cls-33" x="182.37" y="0">c</tspan><tspan class="cls-52" x="197.85" y="0">.</tspan><tspan class="cls-14" x="203.76" y="0">).</tspan></text><text class="cls-9" transform="translate(35.99 455.99)">•</text><text class="cls-9" transform="translate(45.05 455.99)"> </text><text class="cls-9" transform="translate(53.99 455.99)"><tspan class="cls-10">R</tspan><tspan class="cls-11" x="19.26" y="0">éutiliser</tspan><tspan class="cls-53" x="128.22" y="0"> </tspan><tspan x="136.23" y="0">sur</tspan><tspan class="cls-54" x="179.07" y="0"> </tspan><tspan x="187.08" y="0">pl</tspan><tspan class="cls-55" x="212.64" y="0">a</tspan><tspan class="cls-11" x="228.69" y="0">ce</tspan><tspan class="cls-54" x="260.49" y="0"> </tspan><tspan x="268.5" y="0">les</tspan><tspan class="cls-54" x="307.52" y="0"> </tspan><tspan x="315.53" y="0">m</tspan><tspan class="cls-24" x="340.73" y="0">a</tspan><tspan class="cls-51" x="356.84" y="0">t</tspan><tspan x="367.13" y="0">ériaux</tspan><tspan class="cls-53" x="449.6" y="0"> </tspan><tspan class="cls-51" x="457.61" y="0">t</tspan><tspan class="cls-11" x="467.9" y="0">er</tspan><tspan class="cls-56" x="494.6" y="0">r</tspan><tspan x="505.07" y="0">eux</tspan><tspan class="cls-54" x="552.95" y="0"> </tspan><tspan class="cls-48" x="560.96" y="0">(</tspan><tspan x="569.48" y="0">par</tspan><tspan class="cls-54" x="613.79" y="0"> </tspan><tspan class="cls-48" x="621.8" y="0">ex</tspan><tspan x="651.62" y="0">e</tspan><tspan class="cls-18" x="667.64" y="0">m</tspan><tspan x="692.81" y="0">ple</tspan><tspan class="cls-54" x="734.39" y="0"> </tspan><tspan class="cls-19" x="742.4" y="0">av</tspan><tspan class="cls-17" x="772.34" y="0">ec</tspan><tspan class="cls-54" x="804.14" y="0"> </tspan><tspan x="812.15" y="0">des</tspan><tspan class="cls-54" x="860.75" y="0"> </tspan><tspan x="868.76" y="0">ja</tspan><tspan class="cls-56" x="892.55" y="0">r</tspan><tspan class="cls-17" x="903.02" y="0">dins</tspan><tspan class="cls-54" x="960.8" y="0"> </tspan><tspan x="968.81" y="0">colle</tspan><tspan class="cls-57" x="1033.39" y="0">c</tspan><tspan x="1049.14" y="0">ti</tspan><tspan class="cls-56" x="1067.38" y="0">f</tspan><tspan class="cls-48" x="1077.4" y="0">s</tspan><tspan class="cls-17" x="1091.92" y="0">) </tspan></text><text class="cls-9" transform="translate(53.99 491.99)"><tspan class="cls-18">e</tspan><tspan class="cls-14" x="15.99" y="0">t d</tspan><tspan class="cls-58" x="52.05" y="0">’</tspan><tspan class="cls-15" x="57.48" y="0">e</tspan><tspan class="cls-48" x="73.05" y="0">x</tspan><tspan class="cls-11" x="87.27" y="0">c</tspan><tspan class="cls-12" x="103.05" y="0">a</tspan><tspan class="cls-56" x="119.04" y="0">v</tspan><tspan class="cls-24" x="132.87" y="0">a</tspan><tspan class="cls-14" x="148.98" y="0">tion </tspan><tspan class="cls-4" x="209.25" y="0">(</tspan><tspan class="cls-14" x="217.74" y="0">par </tspan><tspan class="cls-4" x="270" y="0">e</tspan><tspan class="cls-48" x="285.57" y="0">x</tspan><tspan x="299.79" y="0">e</tspan><tspan class="cls-24" x="315.81" y="0">m</tspan><tspan x="340.98" y="0">ple par un </tspan><tspan class="cls-59" x="485.36" y="0">r</tspan><tspan x="495.8" y="0">ehau</tspan><tspan class="cls-56" x="562.76" y="0">s</tspan><tspan x="577.49" y="0">seme</tspan><tspan class="cls-20" x="649.67" y="0">n</tspan><tspan x="666.83" y="0">t du </tspan><tspan class="cls-56" x="728.06" y="0">t</tspan><tspan class="cls-17" x="738.32" y="0">er</tspan><tspan class="cls-45" x="765.02" y="0">r</tspan><tspan x="775.43" y="0">ain)</tspan></text><text class="cls-9" transform="translate(35.99 563.99)">•</text><text class="cls-9" transform="translate(45.05 563.99)"> </text><text class="cls-9" transform="translate(53.99 563.99)">Encou<tspan class="cls-33" x="85.41" y="0">r</tspan><tspan class="cls-59" x="95.79" y="0">a</tspan><tspan class="cls-48" x="111.69" y="0">g</tspan><tspan x="127.23" y="0">er</tspan><tspan class="cls-54" x="153.93" y="0"> </tspan><tspan x="161.94" y="0">le</tspan><tspan class="cls-54" x="186.03" y="0"> </tspan><tspan class="cls-56" x="194.04" y="0">r</tspan><tspan x="204.51" y="0">e</tspan><tspan class="cls-60" x="220.53" y="0">cy</tspan><tspan x="250.35" y="0">cl</tspan><tspan class="cls-59" x="274.2" y="0">a</tspan><tspan class="cls-48" x="290.1" y="0">g</tspan><tspan class="cls-11" x="305.64" y="0">e</tspan><tspan class="cls-53" x="321.66" y="0"> </tspan><tspan class="cls-11" x="329.67" y="0">des</tspan><tspan class="cls-61" x="378.27" y="0"> </tspan><tspan x="386.3" y="0">déch</tspan><tspan class="cls-18" x="453.32" y="0">e</tspan><tspan class="cls-62" x="469.31" y="0">t</tspan><tspan class="cls-14" x="479.69" y="0">s</tspan><tspan class="cls-54" x="494.63" y="0"> </tspan><tspan x="502.64" y="0">par</tspan><tspan class="cls-54" x="546.95" y="0"> </tspan><tspan x="554.96" y="0">les</tspan><tspan class="cls-54" x="593.99" y="0"> </tspan><tspan x="602" y="0">habi</tspan><tspan class="cls-63" x="661.13" y="0">t</tspan><tspan x="671.45" y="0">a</tspan><tspan class="cls-20" x="687.59" y="0">n</tspan><tspan class="cls-55" x="704.75" y="0">t</tspan><tspan class="cls-6" x="715.13" y="0">s</tspan><tspan x="729.77" y="0">,</tspan><tspan class="cls-54" x="736.94" y="0"> </tspan><tspan class="cls-64" x="744.95" y="0">par</tspan><tspan class="cls-54" x="789.26" y="0"> </tspan><tspan class="cls-4" x="797.27" y="0">e</tspan><tspan class="cls-48" x="812.84" y="0">x</tspan><tspan class="cls-17" x="827.06" y="0">e</tspan><tspan class="cls-13" x="843.08" y="0">m</tspan><tspan x="868.22" y="0">ple</tspan><tspan class="cls-65" x="909.8" y="0"> </tspan><tspan class="cls-17" x="917.84" y="0">en</tspan><tspan class="cls-54" x="951.29" y="0"> </tspan><tspan x="959.3" y="0">situa</tspan><tspan class="cls-6" x="1025.84" y="0">n</tspan><tspan x="1042.97" y="0">t</tspan><tspan class="cls-7" x="1053.44" y="0"> </tspan><tspan x="1061.48" y="0">les </tspan></text><text class="cls-9" transform="translate(53.99 599.99)">écopoi<tspan class="cls-6" x="90.36" y="0">n</tspan><tspan class="cls-5" x="107.49" y="0">t</tspan><tspan x="117.84" y="0">s sur des chemins de pa</tspan><tspan class="cls-59" x="445.97" y="0">s</tspan><tspan x="460.67" y="0">s</tspan><tspan class="cls-56" x="475.61" y="0">a</tspan><tspan class="cls-48" x="491.54" y="0">g</tspan><tspan x="507.08" y="0">e privilégié</tspan><tspan class="cls-6" x="652.64" y="0">s</tspan><tspan x="667.28" y="0">.</tspan></text><text class="cls-9" transform="translate(35.99 671.99)">•</text><text class="cls-9" transform="translate(45.05 671.99)"> </text><text class="cls-9" transform="translate(53.99 671.99)"><tspan class="cls-16">E</tspan><tspan class="cls-56" x="18.15" y="0">n</tspan><tspan class="cls-51" x="35.37" y="0">cou</tspan><tspan class="cls-42" x="84.48" y="0">r</tspan><tspan class="cls-4" x="94.65" y="0">a</tspan><tspan class="cls-66" x="110.34" y="0">g</tspan><tspan class="cls-67" x="125.64" y="0">e</tspan><tspan class="cls-16" x="141.45" y="0">r</tspan><tspan class="cls-68" x="151.95" y="0"> </tspan><tspan class="cls-56" x="158.91" y="0">l</tspan><tspan class="cls-51" x="166.77" y="0">es</tspan><tspan class="cls-68" x="197.37" y="0"> </tspan><tspan class="cls-56" x="204.33" y="0">é</tspan><tspan class="cls-51" x="220.14" y="0">co</tspan><tspan class="cls-56" x="252.21" y="0">n</tspan><tspan class="cls-51" x="269.43" y="0">omi</tspan><tspan class="cls-67" x="318.51" y="0">e</tspan><tspan class="cls-16" x="334.31" y="0">s</tspan><tspan class="cls-69" x="349.07" y="0"> </tspan><tspan class="cls-51" x="356" y="0">d</tspan><tspan class="cls-70" x="373.46" y="0">’</tspan><tspan class="cls-51" x="378.65" y="0">én</tspan><tspan class="cls-56" x="411.74" y="0">e</tspan><tspan class="cls-71" x="427.55" y="0">r</tspan><tspan class="cls-51" x="437.54" y="0">gie</tspan><tspan class="cls-72" x="476.75" y="0"> </tspan><tspan class="cls-8" x="483.68" y="0">e</tspan><tspan class="cls-16" x="499.43" y="0">t</tspan><tspan class="cls-69" x="509.72" y="0"> </tspan><tspan class="cls-73" x="516.65" y="0">pla</tspan><tspan class="cls-56" x="557.81" y="0">n</tspan><tspan class="cls-73" x="575.03" y="0">iﬁ</tspan><tspan class="cls-56" x="600.44" y="0">e</tspan><tspan class="cls-16" x="616.25" y="0">r</tspan><tspan class="cls-68" x="626.75" y="0"> </tspan><tspan class="cls-16" x="633.71" y="0">d</tspan><tspan class="cls-56" x="651.17" y="0">e</tspan><tspan class="cls-16" x="666.98" y="0">s</tspan><tspan class="cls-72" x="681.74" y="0"> </tspan><tspan class="cls-4" x="688.67" y="0">r</tspan><tspan class="cls-74" x="698.9" y="0">é</tspan><tspan class="cls-73" x="714.71" y="0">s</tspan><tspan class="cls-74" x="729.47" y="0">e</tspan><tspan class="cls-16" x="745.28" y="0">aux</tspan><tspan class="cls-68" x="792.74" y="0"> </tspan><tspan class="cls-56" x="799.7" y="0">é</tspan><tspan class="cls-16" x="815.51" y="0">n</tspan><tspan class="cls-74" x="832.76" y="0">e</tspan><tspan class="cls-75" x="848.57" y="0">r</tspan><tspan class="cls-76" x="858.56" y="0">g</tspan><tspan class="cls-20" x="873.86" y="0">é</tspan><tspan class="cls-16" x="889.61" y="0">tiques</tspan><tspan class="cls-77" x="972.44" y="0"> </tspan><tspan class="cls-16" x="979.37" y="0">du</tspan><tspan class="cls-42" x="1013.87" y="0">r</tspan><tspan class="cls-56" x="1024.04" y="0">a</tspan><tspan class="cls-16" x="1039.97" y="0">b</tspan><tspan class="cls-56" x="1057.43" y="0">l</tspan><tspan class="cls-16" x="1065.29" y="0">e</tspan><tspan class="cls-78" x="1081.13" y="0">s</tspan><tspan x="1095.52" y="0">.</tspan></text></svg>