<svg id="Calque_1" data-name="Calque 1" xmlns="http://www.w3.org/2000/svg" xmlns:xlink="http://www.w3.org/1999/xlink" viewBox="0 0 1190.55 841.89"><defs><style>.cls-1,.cls-101,.cls-102,.cls-103,.cls-93,.cls-94,.cls-96,.cls-97,.cls-99{fill:none;}.cls-2{clip-path:url(#clip-path);}.cls-3{font-size:20px;}.cls-15,.cls-3,.cls-67,.cls-7{font-family:GTAmerica-Medium, GTAmerica Medium;font-weight:500;}.cls-4{letter-spacing:0.01em;}.cls-5{letter-spacing:-0.03em;}.cls-6{letter-spacing:0em;}.cls-15,.cls-7,.cls-80{font-size:12px;}.cls-8{letter-spacing:0em;}.cls-9{letter-spacing:0.03em;}.cls-10{letter-spacing:0em;}.cls-11{letter-spacing:-0.01em;}.cls-12{letter-spacing:-0.02em;}.cls-13{letter-spacing:-0.02em;}.cls-14{letter-spacing:0em;}.cls-15,.cls-17{letter-spacing:0em;}.cls-16{letter-spacing:-0.01em;}.cls-18{letter-spacing:-0.01em;}.cls-19{letter-spacing:-0.05em;}.cls-20{letter-spacing:0.03em;}.cls-21{letter-spacing:-0.01em;}.cls-22{letter-spacing:-0.02em;}.cls-23{letter-spacing:0em;}.cls-24{letter-spacing:-0.02em;}.cls-25{letter-spacing:-0.01em;}.cls-26{letter-spacing:-0.01em;}.cls-27{letter-spacing:-0.03em;}.cls-28{letter-spacing:-0.02em;}.cls-29{letter-spacing:0em;}.cls-30{letter-spacing:0.03em;}.cls-31{letter-spacing:0em;}.cls-32{letter-spacing:-0.01em;}.cls-33{letter-spacing:-0.02em;}.cls-34{letter-spacing:0em;}.cls-35{letter-spacing:-0.02em;}.cls-36{letter-spacing:-0.01em;}.cls-37{letter-spacing:0em;}.cls-38{letter-spacing:0.02em;}.cls-39{letter-spacing:0.07em;}.cls-40{letter-spacing:0.08em;}.cls-41{letter-spacing:0.08em;}.cls-42{letter-spacing:0.06em;}.cls-43{letter-spacing:0.08em;}.cls-44{letter-spacing:0.07em;}.cls-45{letter-spacing:0.15em;}.cls-46{letter-spacing:0.08em;}.cls-47{letter-spacing:0.08em;}.cls-48{letter-spacing:0em;}.cls-49{letter-spacing:0.03em;}.cls-50{letter-spacing:-0.01em;}.cls-51{letter-spacing:-0.05em;}.cls-52{letter-spacing:-0.01em;}.cls-53{letter-spacing:-0.03em;}.cls-54{letter-spacing:-0.01em;}.cls-55{letter-spacing:-0.03em;}.cls-56{letter-spacing:-0.03em;}.cls-57{letter-spacing:-0.05em;}.cls-58{letter-spacing:-0.02em;}.cls-59{letter-spacing:0em;}.cls-60{letter-spacing:-0.03em;}.cls-61{letter-spacing:-0.02em;}.cls-62{letter-spacing:0.01em;}.cls-63{letter-spacing:-0.02em;}.cls-64{letter-spacing:-0.01em;}.cls-65{letter-spacing:0em;}.cls-66{letter-spacing:-0.01em;}.cls-67{font-size:24px;}.cls-68{letter-spacing:0em;}.cls-69{letter-spacing:-0.03em;}.cls-70{letter-spacing:-0.01em;}.cls-71{letter-spacing:-0.01em;}.cls-72{letter-spacing:-0.03em;}.cls-73{letter-spacing:0em;}.cls-74{letter-spacing:-0.01em;}.cls-75{letter-spacing:0em;}.cls-76{letter-spacing:-0.02em;}.cls-77{letter-spacing:-0.02em;}.cls-78{letter-spacing:-0.02em;}.cls-79{letter-spacing:0em;}.cls-80{font-family:GTAmerica-Thin, GTAmerica Thin;font-weight:200;}.cls-81{letter-spacing:-0.02em;}.cls-82{letter-spacing:-0.01em;}.cls-83{letter-spacing:0em;}.cls-84{letter-spacing:-0.04em;}.cls-85{letter-spacing:-0.04em;}.cls-86{letter-spacing:-0.04em;}.cls-87{letter-spacing:-0.04em;}.cls-88{letter-spacing:-0.04em;}.cls-89{letter-spacing:0em;}.cls-90{letter-spacing:-0.01em;}.cls-91{letter-spacing:0em;}.cls-92{letter-spacing:0em;}.cls-93,.cls-94,.cls-96,.cls-97,.cls-99{stroke:#19ccbf;}.cls-93,.cls-94,.cls-96{stroke-linecap:round;stroke-linejoin:round;}.cls-93,.cls-94,.cls-96,.cls-97{stroke-width:5px;}.cls-93{stroke-dasharray:0 10.03;}.cls-95{fill:#19ccbf;}.cls-96{stroke-dasharray:0 10;}.cls-98{clip-path:url(#clip-path-2);}.cls-99{stroke-width:2px;}.cls-100{fill:#120d0d;}.cls-101,.cls-102,.cls-103{stroke:#008ea5;stroke-width:7px;}.cls-101{stroke-dasharray:11.75 11.75;}.cls-102{stroke-dasharray:12.11 12.11;}</style><clipPath id="clip-path"><rect class="cls-1" width="1190.55" height="841.89"/></clipPath><clipPath id="clip-path-2"><rect class="cls-1" width="1190.55" height="841.89"/></clipPath></defs><title>Plan de travail</title><g class="cls-2"><path d="M93.65,49.82c0-7,3.33-11.13,9-11.13s9,4.11,9,11.13S108.29,61,102.62,61,93.65,56.84,93.65,49.82Zm13,0c0-4.8-1.44-7.38-4-7.38s-4,2.58-4,7.38,1.44,7.38,4,7.38S106.64,54.62,106.64,49.82ZM118.76,60.5h-5.13V55.58h5.13ZM147.2,45.89c0,4.23-3,6.87-7.77,6.87h-4.26V60.5H130.1V39.2h9.45C144.17,39.2,147.2,41.84,147.2,45.89Zm-5.31.15c0-2-1.29-3.18-3.57-3.18h-3.15v6.36h3.15C140.57,49.22,141.89,48.05,141.89,46Zm16.05,6.3h-3.06V60.5h-5.07V39.2h9.36c5.4,0,7.8,2.64,7.8,6.54a5.89,5.89,0,0,1-4.17,5.85l4.71,8.91H162Zm-3.06-3.48h3.27c2.46,0,3.54-1.2,3.54-3.12s-1.05-3-3.54-3h-3.27Zm13.86,1c0-6.87,4.11-11.16,10.5-11.16S189.73,43,189.73,49.85,185.63,61,179.24,61,168.74,56.69,168.74,49.85Zm15.78,0c0-4.5-2-7.2-5.28-7.2s-5.31,2.7-5.31,7.2,2,7.2,5.31,7.2S184.52,54.35,184.52,49.85Zm7.35,0c0-6.72,4-11.19,10.44-11.19,5.43,0,8.84,3,9.41,7.65l-5.12.9c-.3-2.82-1.86-4.47-4.41-4.47-3.24,0-5.13,2.73-5.13,7.08s1.92,7,5.28,7c2.37,0,4-1.62,4.38-4.38l5.12,1.11c-1,4.5-4.31,7.38-9.59,7.38C195.5,61,191.87,56.6,191.87,49.88Zm37.64,6.87V60.5H214.73V39.2H229.3V43h-9.5v4.8h9v3.72h-9v5.28Zm1.39-.69,3.75-2.64a6.17,6.17,0,0,0,5.79,3.66c2,0,3.66-.75,3.66-2.43S243.17,52.46,241,52l-2.85-.6c-3.72-.81-5.88-2.82-5.88-6.39,0-3.9,3.18-6.33,8.31-6.33,3.77,0,6.95,1.38,8.45,4.23l-3.3,2.79a6,6,0,0,0-5.48-3.27c-2,0-3.3.84-3.3,2.19s.84,2.07,3.09,2.58l3.09.66c3.77.84,5.81,2.64,5.81,6.3,0,4-3.12,6.84-8.69,6.84C235.67,61,232.37,59.06,230.9,56.06Zm19.07,0,3.75-2.64a6.17,6.17,0,0,0,5.79,3.66c2,0,3.66-.75,3.66-2.43s-.93-2.19-3.09-2.64l-2.85-.6c-3.72-.81-5.88-2.82-5.88-6.39,0-3.9,3.18-6.33,8.31-6.33,3.78,0,7,1.38,8.46,4.23l-3.3,2.79a6,6,0,0,0-5.49-3.27c-2,0-3.3.84-3.3,2.19s.84,2.07,3.09,2.58l3.09.66c3.78.84,5.82,2.64,5.82,6.3,0,4-3.12,6.84-8.7,6.84C254.74,61,251.44,59.06,250,56.06ZM275.74,39.2V52.85a4,4,0,1,0,7.92,0V39.2h5.07V53.06c0,4.86-3.36,7.95-9,7.95s-9-3.09-9-7.95V39.2Zm14.61,16.86,3.75-2.64a6.17,6.17,0,0,0,5.79,3.66c2,0,3.66-.75,3.66-2.43s-.93-2.19-3.09-2.64l-2.85-.6c-3.72-.81-5.88-2.82-5.88-6.39,0-3.9,3.18-6.33,8.31-6.33,3.78,0,7,1.38,8.46,4.23l-3.3,2.79a6,6,0,0,0-5.49-3.27c-2,0-3.3.84-3.3,2.19s.84,2.07,3.09,2.58l3.09.66c3.78.84,5.82,2.64,5.82,6.3,0,4-3.12,6.84-8.7,6.84C295.12,61,291.82,59.06,290.35,56.06Zm27.12-6.18c0-6.72,4-11.19,10.44-11.19,5.43,0,8.85,3,9.42,7.65l-5.13.9c-.3-2.82-1.86-4.47-4.41-4.47-3.24,0-5.13,2.73-5.13,7.08s1.92,7,5.28,7c2.37,0,4-1.62,4.38-4.38l5.13,1.11c-1,4.5-4.32,7.38-9.6,7.38C321.1,61,317.47,56.6,317.47,49.88Zm34.89,5.64H344.5l-1.62,5h-5.07l7.74-21.3h5.79l7.74,21.3H354ZM351.19,52,349.24,46a18.76,18.76,0,0,1-.78-3h-.06a18.76,18.76,0,0,1-.78,3L345.67,52Zm10.5-12.75h5.61l6.84,12.15a22.16,22.16,0,0,1,1.29,2.76h.06c0-.84,0-1.71,0-2.73V39.2h4.65V60.5h-5.4l-7.08-12.27a20.24,20.24,0,0,1-1.26-2.61h-.06c0,.87,0,1.77,0,2.82V60.5h-4.65Zm38.28,4h-6.21V60.5h-5V43.22h-6.18v-4H400Zm-.06,6.63c0-6.87,4.11-11.16,10.5-11.16s10.5,4.29,10.5,11.16S416.8,61,410.41,61,399.91,56.69,399.91,49.85Zm15.78,0c0-4.5-1.95-7.2-5.28-7.2s-5.31,2.7-5.31,7.2,2,7.2,5.31,7.2S415.69,54.35,415.69,49.85ZM424,39.2h5.61l6.84,12.15a22.16,22.16,0,0,1,1.29,2.76h.06c0-.84,0-1.71,0-2.73V39.2h4.65V60.5H437l-7.08-12.27a20.24,20.24,0,0,1-1.26-2.61h-.06c0,.87,0,1.77,0,2.82V60.5H424Zm35.61,16.32h-7.86l-1.62,5h-5.07l7.74-21.3h5.79l7.74,21.3h-5.1ZM458.44,52,456.49,46a18.76,18.76,0,0,1-.78-3h-.06a18.76,18.76,0,0,1-.78,3L452.92,52Zm10.5-12.75H474V56.39h8.64V60.5H468.94Zm36.54,17.55V60.5H490.69V39.2h14.58V43h-9.51v4.8h9v3.72h-9v5.28Zm19.23-13.53H518.5V60.5h-5V43.22h-6.18v-4h17.43Zm7.65-4h8.49c6.39,0,10.53,4.26,10.53,10.53S547.24,60.5,540.79,60.5h-8.43Zm8.22,17.58c3.6,0,5.58-3.24,5.58-7.05s-1.86-6.81-5.52-6.81h-3.21V56.78Zm28.68,0V60.5H554.47V39.2h14.58V43h-9.51v4.8h9v3.72h-9v5.28Zm-5.67-18.84h-3.66l3-3.54h4.17ZM573,39.2h7l3.93,13a14.92,14.92,0,0,1,.51,2.58h.06a16.5,16.5,0,0,1,.54-2.64l3.75-13h7V60.5h-4.62V46a21.43,21.43,0,0,1,.12-2.4h-.09a12.12,12.12,0,0,1-.45,2.07L586.42,60.5h-4.26l-4.47-14.85a10,10,0,0,1-.45-2h-.09c.06.72.12,1.53.12,2.37V60.5H573Zm40,16.32h-7.86l-1.62,5h-5.07l7.74-21.3h5.79l7.74,21.3h-5.1ZM611.77,52,609.82,46a18.76,18.76,0,0,1-.78-3H609a18.76,18.76,0,0,1-.78,3l-2,5.94Zm18.63.39h-3.06V60.5h-5.07V39.2h9.36c5.4,0,7.8,2.64,7.8,6.54a5.89,5.89,0,0,1-4.17,5.85L640,60.5h-5.49Zm-3.06-3.48h3.27c2.46,0,3.54-1.2,3.54-3.12s-1-3-3.54-3h-3.27Zm13.86,1c0-6.72,4-11.19,10.44-11.19,5.43,0,8.85,3,9.42,7.65l-5.13.9c-.3-2.82-1.86-4.47-4.41-4.47-3.24,0-5.13,2.73-5.13,7.08s1.92,7,5.28,7c2.37,0,4-1.62,4.38-4.38l5.13,1.11c-1,4.5-4.32,7.38-9.6,7.38C644.83,61,641.2,56.6,641.2,49.88ZM682.39,60.5h-5.07V51.65h-8.19V60.5h-5.07V39.2h5.07v8.55h8.19V39.2h5.07Zm19.23-3.75V60.5H686.83V39.2h14.58V43H691.9v4.8h9v3.72h-9v5.28Zm9.75-6.87c0-6.72,4-11.19,10.44-11.19,5.43,0,8.85,3,9.42,7.65l-5.13.9c-.3-2.82-1.86-4.47-4.41-4.47-3.24,0-5.13,2.73-5.13,7.08s1.92,7,5.28,7c2.37,0,4-1.62,4.38-4.38l5.13,1.11c-1,4.5-4.32,7.38-9.6,7.38C715,61,711.37,56.6,711.37,49.88Zm21.63,0c0-6.87,4.11-11.16,10.5-11.16S754,43,754,49.85,749.89,61,743.5,61,733,56.69,733,49.85Zm15.78,0c0-4.5-1.95-7.2-5.28-7.2s-5.31,2.7-5.31,7.2,2,7.2,5.31,7.2S748.78,54.35,748.78,49.85Zm8.31-10.65h7l3.93,13a14.92,14.92,0,0,1,.51,2.58h.06a16.5,16.5,0,0,1,.54-2.64l3.75-13h7V60.5h-4.62V46a21.43,21.43,0,0,1,.12-2.4h-.09a12.12,12.12,0,0,1-.45,2.07L770.56,60.5H766.3l-4.47-14.85a10,10,0,0,1-.45-2h-.09c.06.72.12,1.53.12,2.37V60.5h-4.32Zm27.24,0h7l3.93,13a14.92,14.92,0,0,1,.51,2.58h.06a16.5,16.5,0,0,1,.54-2.64l3.75-13h7V60.5h-4.62V46a21.43,21.43,0,0,1,.12-2.4h-.09a12.12,12.12,0,0,1-.45,2.07L797.8,60.5h-4.26l-4.47-14.85a10,10,0,0,1-.45-2h-.09c.06.72.12,1.53.12,2.37V60.5h-4.32Zm31.95,0V52.85a4,4,0,1,0,7.92,0V39.2h5.07V53.06c0,4.86-3.36,7.95-9,7.95s-9-3.09-9-7.95V39.2Zm17.07,0H839l6.84,12.15a22.16,22.16,0,0,1,1.29,2.76h.06c0-.84,0-1.71,0-2.73V39.2h4.65V60.5h-5.4l-7.08-12.27A20.24,20.24,0,0,1,838,45.62H838c0,.87,0,1.77,0,2.82V60.5h-4.65ZM869,55.52H861.1l-1.62,5h-5.07l7.74-21.3h5.79l7.74,21.3h-5.1ZM867.79,52,865.84,46a18.76,18.76,0,0,1-.78-3H865a18.76,18.76,0,0,1-.78,3l-2,5.94Zm10.5-12.75h5.07V56.39H892V60.5H878.29ZM909.7,56.75V60.5H894.91V39.2h14.58V43H900v4.8h9v3.72h-9v5.28Z"/><text class="cls-3" transform="translate(51.02 144)">OP<tspan class="cls-4" x="24.42" y="0">P</tspan><tspan x="35.26" y="0">O</tspan><tspan class="cls-5" x="49.04" y="0">R</tspan><tspan class="cls-6" x="59.24" y="0">TUNITÉ</tspan></text><text class="cls-7" transform="translate(54.93 192)">Op<tspan class="cls-8" x="15.1" y="0">p</tspan><tspan x="21.96" y="0">o</tspan><tspan class="cls-9" x="28.55" y="0">r</tspan><tspan class="cls-10" x="32.87" y="0">tuni</tspan><tspan class="cls-11" x="52.92" y="0">t</tspan><tspan x="56.71" y="0">é de </tspan></text><text class="cls-7" transform="translate(54.93 204)">d<tspan class="cls-12" x="6.77" y="0">é</tspan><tspan class="cls-13" x="12.59" y="0">v</tspan><tspan class="cls-10" x="18.16" y="0">elop</tspan><tspan class="cls-14" x="40.42" y="0">p</tspan><tspan x="47.27" y="0">er</tspan></text><text class="cls-15" transform="translate(54.87 228)">D<tspan class="cls-10" x="8.03" y="0">emande de </tspan></text><text class="cls-7" transform="translate(54.87 240)"><tspan class="cls-16">r</tspan><tspan x="3.78" y="0">en</tspan><tspan class="cls-17" x="16.45" y="0">s</tspan><tspan class="cls-10" x="21.24" y="0">ei</tspan><tspan class="cls-13" x="30.06" y="0">g</tspan><tspan x="36.56" y="0">neme</tspan><tspan class="cls-18" x="65.25" y="0">n</tspan><tspan class="cls-10" x="71.81" y="0">t</tspan></text><text class="cls-7" transform="translate(54.87 252)">(DR)</text><text class="cls-7" transform="translate(54.87 288)">N<tspan class="cls-16" x="7.9" y="0">o</tspan><tspan class="cls-11" x="14.34" y="0">t</tspan><tspan x="18.13" y="0">e </tspan></text><text class="cls-7" transform="translate(54.87 300)">d<tspan class="cls-19" x="6.77" y="0">’</tspan><tspan x="8.63" y="0">op</tspan><tspan class="cls-17" x="22.04" y="0">p</tspan><tspan x="28.91" y="0">o</tspan><tspan class="cls-20" x="35.5" y="0">r</tspan><tspan x="39.82" y="0">tuni</tspan><tspan class="cls-11" x="59.87" y="0">t</tspan><tspan x="63.66" y="0">é </tspan><tspan class="cls-16" x="72.21" y="0">e</tspan><tspan x="78.08" y="0">t </tspan></text><text class="cls-7" transform="translate(54.87 312)">d<tspan class="cls-19" x="6.77" y="0">’</tspan><tspan x="8.63" y="0">o</tspan><tspan class="cls-21" x="15.22" y="0">r</tspan><tspan class="cls-22" x="18.98" y="0">g</tspan><tspan x="25.48" y="0">ani</tspan><tspan class="cls-23" x="40.73" y="0">s</tspan><tspan class="cls-24" x="45.53" y="0">a</tspan><tspan x="51.08" y="0">tion</tspan></text><text class="cls-7" transform="translate(166.9 192)"><tspan class="cls-18">E</tspan><tspan class="cls-13" x="5.8" y="0">v</tspan><tspan class="cls-10" x="11.36" y="0">e</tspan><tspan class="cls-18" x="17.38" y="0">n</tspan><tspan x="23.93" y="0">tuelle</tspan></text><text class="cls-7" transform="translate(166.9 204)"><tspan class="cls-16">r</tspan><tspan x="3.78" y="0">en</tspan><tspan class="cls-17" x="16.45" y="0">c</tspan><tspan class="cls-10" x="21.86" y="0">o</tspan><tspan class="cls-25" x="28.45" y="0">n</tspan><tspan class="cls-10" x="34.99" y="0">t</tspan><tspan class="cls-26" x="38.96" y="0">r</tspan><tspan class="cls-10" x="42.74" y="0">e</tspan><tspan class="cls-27" x="48.76" y="0">(</tspan><tspan class="cls-28" x="51.75" y="0">s</tspan><tspan x="56.28" y="0">)</tspan></text><text class="cls-7" transform="translate(166.9 216)"><tspan class="cls-29">p</tspan><tspan x="6.8" y="0">a</tspan><tspan class="cls-30" x="12.59" y="0">r</tspan><tspan class="cls-11" x="16.92" y="0">t</tspan><tspan x="20.71" y="0">enai</tspan><tspan class="cls-21" x="41.98" y="0">r</tspan><tspan class="cls-31" x="45.74" y="0">e</tspan><tspan x="51.74" y="0">s</tspan></text><text class="cls-7" transform="translate(275.32 192)">Éla<tspan class="cls-8" x="14.52" y="0">b</tspan><tspan x="21.38" y="0">o</tspan><tspan class="cls-32" x="27.97" y="0">r</tspan><tspan class="cls-33" x="31.8" y="0">a</tspan><tspan x="37.37" y="0">tion </tspan></text><text class="cls-7" transform="translate(275.32 204)"><tspan class="cls-8">c</tspan><tspan x="5.41" y="0">on</tspan><tspan class="cls-34" x="18.66" y="0">c</tspan><tspan x="24.06" y="0">e</tspan><tspan class="cls-30" x="30.07" y="0">r</tspan><tspan class="cls-11" x="34.4" y="0">t</tspan><tspan class="cls-8" x="38.2" y="0">é</tspan><tspan class="cls-10" x="44.24" y="0">e</tspan></text><text class="cls-7" transform="translate(275.32 288)">In<tspan class="cls-35" x="9.53" y="0">f</tspan><tspan x="12.78" y="0">orm</tspan><tspan class="cls-24" x="33.3" y="0">a</tspan><tspan x="38.86" y="0">tion</tspan></text><text class="cls-7" transform="translate(606.97 264)"><tspan class="cls-36">A</tspan><tspan x="7.24" y="0">da</tspan><tspan class="cls-21" x="19.79" y="0">p</tspan><tspan class="cls-37" x="26.46" y="0">t</tspan><tspan class="cls-24" x="30.4" y="0">a</tspan><tspan class="cls-10" x="35.95" y="0">tions</tspan></text><text class="cls-7" transform="translate(827.37 348)"><tspan class="cls-36">A</tspan><tspan x="7.24" y="0">da</tspan><tspan class="cls-21" x="19.79" y="0">p</tspan><tspan class="cls-37" x="26.46" y="0">t</tspan><tspan class="cls-24" x="30.4" y="0">a</tspan><tspan class="cls-10" x="35.95" y="0">tions</tspan></text><text class="cls-7" transform="translate(714.69 312)"><tspan class="cls-38">T</tspan><tspan class="cls-39" x="6.17" y="0">r</tspan><tspan class="cls-40" x="10.91" y="0">a</tspan><tspan class="cls-41" x="17.62" y="0">i</tspan><tspan class="cls-42" x="21.36" y="0">t</tspan><tspan class="cls-43" x="26.06" y="0">eme</tspan><tspan class="cls-44" x="50.9" y="0">n</tspan><tspan class="cls-43" x="58.37" y="0">t</tspan><tspan class="cls-45" x="63.28" y="0"> </tspan><tspan class="cls-46" x="67.67" y="0">d</tspan><tspan class="cls-47" x="75.36" y="0">e</tspan><tspan x="82.27" y="0">s </tspan></text><text class="cls-7" transform="translate(714.69 324)">o<tspan class="cls-48" x="6.59" y="0">b</tspan><tspan class="cls-8" x="13.4" y="0">s</tspan><tspan class="cls-10" x="18.19" y="0">e</tspan><tspan class="cls-49" x="24.2" y="0">r</tspan><tspan class="cls-50" x="28.45" y="0">v</tspan><tspan class="cls-24" x="34.09" y="0">a</tspan><tspan x="39.65" y="0">tions</tspan></text><text class="cls-7" transform="translate(932.95 312)"><tspan class="cls-38">T</tspan><tspan class="cls-39" x="6.17" y="0">r</tspan><tspan class="cls-40" x="10.91" y="0">a</tspan><tspan class="cls-41" x="17.62" y="0">i</tspan><tspan class="cls-42" x="21.36" y="0">t</tspan><tspan class="cls-43" x="26.06" y="0">eme</tspan><tspan class="cls-44" x="50.9" y="0">n</tspan><tspan class="cls-43" x="58.37" y="0">t</tspan><tspan class="cls-45" x="63.28" y="0"> </tspan><tspan class="cls-46" x="67.67" y="0">d</tspan><tspan class="cls-47" x="75.36" y="0">e</tspan><tspan x="82.27" y="0">s </tspan></text><text class="cls-7" transform="translate(932.95 324)">op<tspan class="cls-17" x="13.42" y="0">p</tspan><tspan class="cls-31" x="20.28" y="0">o</tspan><tspan x="26.86" y="0">sitions</tspan></text><text class="cls-7" transform="translate(1046.28 312)"><tspan class="cls-51">V</tspan><tspan x="6.16" y="0">oi</tspan><tspan class="cls-31" x="15.55" y="0">e</tspan><tspan x="21.55" y="0">s de </tspan><tspan class="cls-16" x="44.17" y="0">r</tspan><tspan class="cls-14" x="47.95" y="0">ec</tspan><tspan class="cls-10" x="59.39" y="0">ou</tspan><tspan class="cls-52" x="72.59" y="0">r</tspan><tspan x="76.44" y="0">s</tspan></text><text class="cls-7" transform="translate(493.93 264)"><tspan class="cls-26">S</tspan><tspan x="5.77" y="0">y</tspan><tspan class="cls-18" x="11.42" y="0">n</tspan><tspan x="17.98" y="0">th</tspan><tspan class="cls-31" x="28.61" y="0">è</tspan><tspan class="cls-14" x="34.61" y="0">s</tspan><tspan x="39.38" y="0">e </tspan></text><text class="cls-7" transform="translate(493.93 276)">p<tspan class="cls-26" x="6.83" y="0">r</tspan><tspan class="cls-31" x="10.61" y="0">é</tspan><tspan class="cls-28" x="16.61" y="0">a</tspan><tspan x="22.16" y="0">vis</tspan></text><text class="cls-15" transform="translate(826.6 252)">D<tspan class="cls-10" x="8.03" y="0">élais </tspan></text><text class="cls-7" transform="translate(826.6 264)"><tspan class="cls-16">r</tspan><tspan class="cls-21" x="3.78" y="0">é</tspan><tspan class="cls-35" x="9.64" y="0">f</tspan><tspan x="12.89" y="0">é</tspan><tspan class="cls-16" x="18.9" y="0">r</tspan><tspan x="22.68" y="0">endai</tspan><tspan class="cls-16" x="50.71" y="0">r</tspan><tspan x="54.49" y="0">e</tspan></text><text class="cls-7" transform="translate(384.46 192)"><tspan class="cls-53">A</tspan><tspan class="cls-54" x="7.03" y="0">v</tspan><tspan x="12.67" y="0">a</tspan><tspan class="cls-18" x="18.46" y="0">n</tspan><tspan class="cls-55" x="25.01" y="0">t</tspan><tspan class="cls-10" x="28.66" y="0">-p</tspan><tspan class="cls-16" x="39.17" y="0">r</tspan><tspan x="42.95" y="0">oj</tspan><tspan class="cls-16" x="52.45" y="0">e</tspan><tspan x="58.32" y="0">t de </tspan></text><text class="cls-7" transform="translate(384.46 204)">P<tspan class="cls-56" x="6.38" y="0">L</tspan><tspan x="11.7" y="0">Q</tspan></text><text class="cls-7" transform="translate(493.95 192)">Enqu<tspan class="cls-16" x="25.93" y="0">ê</tspan><tspan class="cls-11" x="31.8" y="0">t</tspan><tspan x="35.59" y="0">e </tspan></text><text class="cls-7" transform="translate(493.95 204)"><tspan class="cls-11">t</tspan><tspan class="cls-8" x="3.79" y="0">e</tspan><tspan x="9.84" y="0">chnique</tspan></text><text class="cls-7" transform="translate(606.99 192)">P<tspan class="cls-16" x="6.38" y="0">r</tspan><tspan class="cls-31" x="10.16" y="0">é</tspan><tspan class="cls-24" x="16.16" y="0">a</tspan><tspan x="21.72" y="0">vis de </tspan></text><text class="cls-7" transform="translate(606.99 204)">l<tspan class="cls-57" x="2.83" y="0">’</tspan><tspan class="cls-58" x="4.69" y="0">e</tspan><tspan class="cls-53" x="10.4" y="0">x</tspan><tspan class="cls-8" x="15.65" y="0">é</tspan><tspan x="21.7" y="0">cutif </tspan></text><text class="cls-7" transform="translate(606.99 216)"><tspan class="cls-8">c</tspan><tspan x="5.41" y="0">ommunal</tspan></text><text class="cls-7" transform="translate(714.7 192)">Enqu<tspan class="cls-16" x="25.93" y="0">ê</tspan><tspan class="cls-11" x="31.8" y="0">t</tspan><tspan x="35.59" y="0">e </tspan></text><text class="cls-7" transform="translate(714.7 204)">publique</text><text class="cls-7" transform="translate(823.83 192)">P<tspan class="cls-16" x="6.38" y="0">r</tspan><tspan class="cls-31" x="10.16" y="0">é</tspan><tspan class="cls-24" x="16.16" y="0">a</tspan><tspan x="21.72" y="0">vis </tspan></text><text class="cls-7" transform="translate(823.83 204)"><tspan class="cls-8">c</tspan><tspan x="5.41" y="0">ommunal</tspan></text><text class="cls-7" transform="translate(932.97 192)">P<tspan class="cls-16" x="6.38" y="0">r</tspan><tspan class="cls-8" x="10.16" y="0">oc</tspan><tspan class="cls-34" x="22.2" y="0">é</tspan><tspan class="cls-10" x="28.24" y="0">du</tspan><tspan class="cls-16" x="41.62" y="0">r</tspan><tspan x="45.4" y="0">e</tspan></text><text class="cls-7" transform="translate(932.97 204)">d<tspan class="cls-19" x="6.77" y="0">’</tspan><tspan x="8.63" y="0">op</tspan><tspan class="cls-17" x="22.04" y="0">p</tspan><tspan class="cls-59" x="28.91" y="0">o</tspan><tspan x="35.47" y="0">sition</tspan></text><text class="cls-7" transform="translate(1044.58 192)">Ap<tspan class="cls-16" x="14.17" y="0">r</tspan><tspan x="17.95" y="0">o</tspan><tspan class="cls-29" x="24.54" y="0">b</tspan><tspan class="cls-24" x="31.34" y="0">a</tspan><tspan x="36.9" y="0">tion du P</tspan><tspan class="cls-60" x="81.78" y="0">L</tspan><tspan x="87.08" y="0">Q</tspan></text><path d="M280.41,142v2h-9.36V129.8h9.22v2h-6.64v3.9h6.3v2h-6.3V142Zm-3.88-13h-2l1.86-2.26h2.3Zm6.26.86h2.58v12.08h6.2V144h-8.78Zm18.92,10.46h-5.56L294.87,144h-2.62l5.28-14.2h2.8l5.28,14.2H303Zm-.68-2-1.66-4.8A10.18,10.18,0,0,1,299,132h0a10.18,10.18,0,0,1-.42,1.52l-1.66,4.8Zm16.86,1.76c0,2-1.32,3.94-4.76,3.94h-6V129.8h5.62c3.5,0,4.72,1.86,4.72,3.72a3.11,3.11,0,0,1-2.46,3.1A3.24,3.24,0,0,1,317.89,140.06Zm-8.14-8.3v4h2.62c2,0,2.48-1,2.48-2s-.58-2-2.48-2Zm5.5,8.06c0-1.22-.76-2.12-2.46-2.12h-3V142h2.9C314.55,142,315.25,141,315.25,139.82Zm3.58-2.92c0-4.62,2.64-7.44,6.72-7.44s6.73,2.82,6.73,7.44-2.64,7.44-6.73,7.44S318.83,141.44,318.83,136.9Zm10.77,0c0-3.34-1.48-5.36-4.05-5.36s-4,2-4,5.36,1.5,5.36,4,5.36S329.6,140.24,329.6,136.9Zm9.73,1.4h-2.5V144h-2.58V129.8H340c3.67,0,4.93,1.92,4.93,4.26a3.86,3.86,0,0,1-3,3.9l3.38,6h-2.84Zm-2.5-1.92h2.7c2,0,2.67-1,2.67-2.32s-.72-2.3-2.67-2.3h-2.7Zm18.69,3.88H350L348.67,144h-2.62l5.28-14.2h2.8l5.29,14.2H356.8Zm-.68-2-1.67-4.8a10.18,10.18,0,0,1-.42-1.52h0a10.18,10.18,0,0,1-.42,1.52l-1.66,4.8Zm14.08-6.4h-4.31V144H362V131.9h-4.3v-2.1h11.19Zm1.39,12.1V129.8h2.58V144Zm4.56-7.1c0-4.62,2.64-7.44,6.72-7.44s6.73,2.82,6.73,7.44-2.64,7.44-6.73,7.44S374.87,141.44,374.87,136.9Zm10.77,0c0-3.34-1.49-5.36-4.05-5.36s-4,2-4,5.36,1.5,5.36,4,5.36S385.64,140.24,385.64,136.9Zm4.65-7.1h3l5.35,9.3a10.7,10.7,0,0,1,.88,1.82h0c0-.52,0-1.08,0-1.84V129.8h2.34V144h-2.9l-5.43-9.34a14.26,14.26,0,0,1-.86-1.78h0c0,.54,0,1.1,0,1.88V144h-2.34Zm18.5,0h5.12c4.17,0,6.89,2.84,6.89,7s-2.7,7.16-6.93,7.16h-5.08Zm5,12.18c2.76,0,4.31-2.32,4.31-5.14s-1.49-5-4.27-5h-2.46V142Zm18.33,0v2h-9.37V129.8H432v2h-6.65v3.9h6.31v2h-6.31V142Zm6.37-12.18h2.58v12.08h6.21V144h-8.79Zm8.75,4.64c1.08-.42,1.3-.86,1.3-1.8v-.06h-1.42V129.8H450v2.62a2.85,2.85,0,0,1-2.18,3.1Zm11.94,5.82h-5.56L452.34,144h-2.63L455,129.8h2.8l5.28,14.2h-2.62Zm-.68-2-1.66-4.8a10.18,10.18,0,0,1-.42-1.52h0a10.18,10.18,0,0,1-.42,1.52l-1.66,4.8Zm3.41-8.5h2.75l3,9.84a16.47,16.47,0,0,1,.5,1.94h.08a12.78,12.78,0,0,1,.48-1.94l3-9.84h2.76L469.7,144h-2.94Zm20.93,10.46h-5.56L476,144h-2.62l5.28-14.2h2.8l5.28,14.2h-2.62Zm-.68-2-1.66-4.8a10.18,10.18,0,0,1-.42-1.52h0a10.18,10.18,0,0,1-.42,1.52L478,138.3Zm6.14-8.5h3l5.34,9.3a10.7,10.7,0,0,1,.88,1.82h0c0-.52,0-1.08,0-1.84V129.8h2.34V144h-2.9l-5.42-9.34a14.26,14.26,0,0,1-.86-1.78h0c0,.54,0,1.1,0,1.88V144H488.3Zm24.1,2.1h-4.3V144h-2.58V131.9h-4.31v-2.1H512.4Zm5.26,3.94V138h-6.15v-2.12Zm12.74-1.72c0,2.68-1.92,4.38-5,4.38h-3V144h-2.58V129.8h5.62C528.46,129.8,530.4,131.5,530.4,134.12Zm-2.72,0c0-1.46-1-2.38-2.72-2.38H522.4v4.76H525C526.64,136.54,527.68,135.64,527.68,134.16ZM537,138.3h-2.5V144H532V129.8h5.72c3.66,0,4.92,1.92,4.92,4.26a3.86,3.86,0,0,1-3,3.9l3.38,6h-2.84Zm-2.5-1.92h2.7c1.94,0,2.66-1,2.66-2.32s-.72-2.3-2.66-2.3h-2.7Zm9.05.52c0-4.62,2.65-7.44,6.73-7.44s6.72,2.82,6.72,7.44-2.64,7.44-6.72,7.44S543.59,141.44,543.59,136.9Zm10.77,0c0-3.34-1.48-5.36-4-5.36s-4,2-4,5.36,1.5,5.36,4,5.36S554.36,140.24,554.36,136.9Zm4.4,7.4a8.58,8.58,0,0,1-1.87-.14v-2.24a8.13,8.13,0,0,0,1.53.1c1.22,0,2.14-.5,2.14-2.34V129.8h2.58v10.26C563.14,143.2,561.22,144.3,558.76,144.3ZM575.22,142v2h-9.36V129.8h9.22v2h-6.64v3.9h6.3v2h-6.3V142Zm12.12-10.08H583V144h-2.58V131.9h-4.31v-2.1h11.19Z"/><path d="M277.81,450.6V456H259.17V430.44h18.39v5.4H266.69v4.47H277v5.29H266.69v5Zm-6.51-21.7h-5.22l3.71-4.47h5.9Zm10.12,1.54h7.52V450h9.61V456H281.42Zm36.5,20.34h-8.79L307.51,456H300l9.07-25.56H318L327.06,456h-7.52Zm-1.55-5-1.69-5.54a27.36,27.36,0,0,1-1.12-4.54h-.07a26.4,26.4,0,0,1-1.12,4.54l-1.69,5.54Zm35.28,3c0,4.43-3.35,7.27-8.82,7.27H329.58V430.44h13c5.33,0,8.5,2.34,8.5,6.45,0,2.84-1.77,5-4.79,5.72C349.7,443.11,351.65,445.35,351.65,448.73Zm-14.54-13.25v5.15H340c1.8,0,3-.9,3-2.63s-1.23-2.52-3-2.52Zm6.55,12.6c0-1.76-1.3-2.77-3.31-2.77h-3.24V451h3.24C342.43,451,343.66,449.84,343.66,448.08Zm9.25-4.86c0-8.21,5.11-13.39,13.1-13.39s13.11,5.18,13.11,13.39S374,456.61,366,456.61,352.91,451.43,352.91,443.22Zm18.5,0c0-4.79-2-7.59-5.4-7.59s-5.4,2.8-5.4,7.59,2,7.6,5.4,7.6S371.41,448,371.41,443.22Zm21,3.42h-2.85V456H382V430.44h12.2c6.37,0,9.83,2.85,9.83,8.07a7.33,7.33,0,0,1-4.61,7L404.6,456h-8.06Zm-2.85-4.86h3c2.38,0,3.67-1.15,3.67-3.27s-1.22-3-3.67-3h-3Zm34.45,9h-8.78L413.57,456h-7.52l9.07-25.56h8.93L433.12,456h-7.53Zm-1.54-5-1.7-5.54a27.43,27.43,0,0,1-1.11-4.54h-.07a27.36,27.36,0,0,1-1.12,4.54l-1.69,5.54Zm29.33-9.39h-7.09V456h-7.52V436.35h-7.09v-5.91h21.7ZM454.11,456V430.44h7.52V456Zm10.4-12.78c0-8.21,5.11-13.39,13.1-13.39s13.11,5.18,13.11,13.39-5.12,13.39-13.11,13.39S464.51,451.43,464.51,443.22Zm18.5,0c0-4.79-2-7.59-5.4-7.59s-5.4,2.8-5.4,7.59,2,7.6,5.4,7.6S483,448,483,443.22Zm10.59-12.78h8.13l6.77,12.35a35.48,35.48,0,0,1,1.55,3.31h.07V430.44h7V456h-7.78l-7.2-12.56c-.54-1.08-1.15-2.23-1.47-3.06h-.07V456H493.6Zm36.43,0h11.16c7.85,0,12.92,5.08,12.92,12.57,0,7.81-5.07,13-13,13H530Zm10.73,20.2c3.71,0,5.61-3.53,5.61-7.63s-1.72-7.2-5.54-7.2h-3.28v14.83Zm34.88,0V456H557V430.44h18.39v5.4H564.52v4.47h10.26v5.29H564.52v5Zm12.24-20.16h7.53V450H605V456H587.88Zm17.32,9.87c2.26-.62,2.8-1.44,2.8-3v-.07h-3.16v-6.81H612v6.45c0,3-1.58,5.22-5.47,6.22Zm24,10.47h-8.78L618.84,456h-7.52l9.07-25.56h8.92L638.38,456h-7.52Zm-1.55-5L626,440.2a26.47,26.47,0,0,1-1.11-4.54h-.08a26.47,26.47,0,0,1-1.11,4.54L622,445.74Zm8.18-15.3H644l4,15.19a23.58,23.58,0,0,1,.72,3.57h.15a22.39,22.39,0,0,1,.72-3.57l4-15.19h8.1L653.18,456h-8.85Zm41.18,20.34h-8.78L666.65,456h-7.53l9.08-25.56h8.92L686.19,456h-7.52Zm-1.55-5-1.69-5.54a27.36,27.36,0,0,1-1.12-4.54h-.07a27.43,27.43,0,0,1-1.11,4.54l-1.69,5.54Zm13.22-15.3h8.13l6.77,12.35c.5,1,1.22,2.45,1.55,3.31h.07V430.44h7V456h-7.78l-7.2-12.56c-.54-1.08-1.15-2.23-1.47-3.06h-.08V456h-6.94Zm47.51,5.91h-7.09V456h-7.52V436.35h-7.09v-5.91h21.7Zm11.31,4.14v6H735v-6Zm25.63-1.77c0,5.37-3.64,8.64-9.65,8.64h-4.86V456h-7.52V430.44H763.7C769.43,430.44,773.17,433.72,773.17,438.72Zm-7.88.29c0-2.2-1.26-3.35-3.67-3.35h-3v6.66h3C764,442.32,765.29,441.17,765.29,439Zm20.77,7.63h-2.84V456h-7.53V430.44H787.9c6.37,0,9.82,2.85,9.82,8.07a7.33,7.33,0,0,1-4.61,7L798.3,456h-8.06Zm-2.84-4.86h3c2.38,0,3.68-1.15,3.68-3.27s-1.23-3-3.68-3h-3Zm16,1.44c0-8.21,5.11-13.39,13.1-13.39s13.11,5.18,13.11,13.39-5.12,13.39-13.11,13.39S799.2,451.43,799.2,443.22Zm18.5,0c0-4.79-2-7.59-5.4-7.59s-5.4,2.8-5.4,7.59,2,7.6,5.4,7.6S817.7,448,817.7,443.22Zm12.13,13.21a23.21,23.21,0,0,1-4.24-.36v-5.94a19.72,19.72,0,0,0,2.12.18c2.45,0,3.6-1.26,3.6-4V430.44h7.52v17.61C838.83,453.52,835.7,456.43,829.83,456.43Zm31.61-5.83V456H842.79V430.44h18.4v5.4H850.32v4.47h10.25v5.29H850.32v5Zm23.33-14.25h-7.09V456h-7.53V436.35h-7.09v-5.91h21.71Z"/><text class="cls-3" transform="translate(603.78 144)">P<tspan class="cls-61" x="10.64" y="0">R</tspan><tspan class="cls-62" x="21.02" y="0">O</tspan><tspan x="34.92" y="0">CÉDURE</tspan></text><text class="cls-3" transform="translate(257 504)">15 mois e<tspan class="cls-63" x="79.28" y="0">n</tspan><tspan x="89.92" y="0">vi</tspan><tspan class="cls-64" x="104.22" y="0">r</tspan><tspan x="110.5" y="0">on</tspan></text><text class="cls-3" transform="translate(739.84 636)"><tspan class="cls-65">3</tspan><tspan x="10.22" y="0">0 - 45 jou</tspan><tspan class="cls-66" x="86.72" y="0">r</tspan><tspan x="93.12" y="0">s</tspan></text><text class="cls-67" transform="translate(257.01 564)">Éla<tspan class="cls-14" x="29.04" y="0">b</tspan><tspan x="42.74" y="0">o</tspan><tspan class="cls-32" x="55.92" y="0">r</tspan><tspan class="cls-22" x="63.58" y="0">a</tspan><tspan x="74.71" y="0">tion </tspan></text><text class="cls-67" transform="translate(257.01 600)"><tspan class="cls-68">c</tspan><tspan x="10.8" y="0">on</tspan><tspan class="cls-68" x="37.3" y="0">c</tspan><tspan x="48.1" y="0">e</tspan><tspan class="cls-30" x="60.12" y="0">r</tspan><tspan class="cls-11" x="68.78" y="0">t</tspan><tspan class="cls-8" x="76.37" y="0">é</tspan><tspan x="88.46" y="0">e</tspan></text><text class="cls-67" transform="translate(498.9 564)"><tspan class="cls-69">A</tspan><tspan class="cls-70" x="14.06" y="0">v</tspan><tspan x="25.34" y="0">a</tspan><tspan class="cls-71" x="36.91" y="0">n</tspan><tspan class="cls-72" x="50.02" y="0">t</tspan><tspan class="cls-73" x="57.31" y="0">-p</tspan><tspan class="cls-74" x="78.33" y="0">r</tspan><tspan x="85.89" y="0">oj</tspan><tspan class="cls-74" x="104.9" y="0">e</tspan><tspan class="cls-75" x="116.64" y="0">t de</tspan></text><text class="cls-67" transform="translate(498.9 600)">P<tspan class="cls-56" x="12.77" y="0">L</tspan><tspan x="23.4" y="0">Q</tspan></text><text class="cls-67" transform="translate(739.84 564)">Enqu<tspan class="cls-74" x="51.86" y="0">ê</tspan><tspan class="cls-76" x="63.6" y="0">t</tspan><tspan class="cls-75" x="71.18" y="0">e </tspan></text><text class="cls-67" transform="translate(739.84 600)"><tspan class="cls-11">t</tspan><tspan class="cls-8" x="7.58" y="0">e</tspan><tspan x="19.68" y="0">chnique</tspan></text><text class="cls-67" transform="translate(739.84 696)"><tspan class="cls-74">S</tspan><tspan x="11.54" y="0">y</tspan><tspan class="cls-71" x="22.85" y="0">n</tspan><tspan class="cls-75" x="35.95" y="0">th</tspan><tspan class="cls-31" x="57.21" y="0">è</tspan><tspan class="cls-68" x="69.21" y="0">s</tspan><tspan class="cls-75" x="78.77" y="0">e </tspan></text><text class="cls-67" transform="translate(739.84 732)">p<tspan class="cls-16" x="13.66" y="0">r</tspan><tspan class="cls-31" x="21.22" y="0">é</tspan><tspan class="cls-22" x="33.22" y="0">a</tspan><tspan class="cls-73" x="44.35" y="0">vis</tspan></text><text class="cls-67" transform="translate(257.01 780)">In<tspan class="cls-77" x="19.06" y="0">f</tspan><tspan x="25.58" y="0">orm</tspan><tspan class="cls-78" x="66.62" y="0">a</tspan><tspan x="77.74" y="0">tions</tspan></text><text class="cls-3" transform="translate(1044.57 144)">A<tspan class="cls-62" x="12.24" y="0">D</tspan><tspan x="25.68" y="0">O</tspan><tspan class="cls-79" x="39.46" y="0">P</tspan><tspan x="50.02" y="0">TION</tspan></text><text class="cls-80" transform="translate(1044.57 168)">1 mois e<tspan class="cls-11" x="41.41" y="0">n</tspan><tspan x="47.89" y="0">vi</tspan><tspan class="cls-81" x="56.47" y="0">r</tspan><tspan x="60.19" y="0">on</tspan></text><text class="cls-80" transform="translate(934.01 240)">30 jou<tspan class="cls-82" x="30.97" y="0">r</tspan><tspan x="34.83" y="0">s</tspan></text><text class="cls-80" transform="translate(1044.89 336)">30 jou<tspan class="cls-83" x="30.97" y="0">r</tspan><tspan x="34.85" y="0">s</tspan></text><text class="cls-80" transform="translate(715.74 240)">30 jou<tspan class="cls-83" x="30.97" y="0">r</tspan><tspan x="34.85" y="0">s</tspan></text><text class="cls-80" transform="translate(715.74 348)"><tspan class="cls-84">E</tspan><tspan class="cls-85" x="5.44" y="0">n</tspan><tspan class="cls-84" x="11.62" y="0" xml:space="preserve"> principe 60</tspan><tspan class="cls-86" x="64.64" y="0"> </tspan><tspan class="cls-87" x="66.71" y="0">jou</tspan><tspan class="cls-51" x="81.42" y="0">r</tspan><tspan x="84.8" y="0">s</tspan></text><text class="cls-80" transform="translate(932.89 348)"><tspan class="cls-84">E</tspan><tspan class="cls-85" x="5.44" y="0">n</tspan><tspan class="cls-84" x="11.62" y="0" xml:space="preserve"> principe</tspan><tspan class="cls-85" x="51.19" y="0"> </tspan><tspan class="cls-84" x="53.25" y="0">6</tspan><tspan class="cls-86" x="58.94" y="0">0</tspan><tspan class="cls-87" x="64.62" y="0" xml:space="preserve"> jou</tspan><tspan class="cls-88" x="81.41" y="0">r</tspan><tspan x="84.8" y="0">s</tspan></text><text class="cls-80" transform="translate(826.14 384)"><tspan class="cls-84">E</tspan><tspan class="cls-85" x="5.44" y="0">n</tspan><tspan class="cls-84" x="11.62" y="0" xml:space="preserve"> principe 9</tspan><tspan class="cls-86" x="58.96" y="0">0</tspan><tspan class="cls-84" x="64.63" y="0" xml:space="preserve"> jou</tspan><tspan class="cls-51" x="81.42" y="0">r</tspan><tspan x="84.8" y="0">s</tspan></text><text class="cls-80" transform="translate(608.03 240)"><tspan class="cls-89">2</tspan><tspan x="6.11" y="0">1 jou</tspan><tspan class="cls-83" x="30.92" y="0">r</tspan><tspan x="34.8" y="0">s</tspan></text><text class="cls-80" transform="translate(494.64 240)">30 - <tspan class="cls-90" x="21.08" y="0">4</tspan><tspan x="27.12" y="0">5 jou</tspan><tspan class="cls-91" x="51.93" y="0">r</tspan><tspan x="55.8" y="0">s</tspan></text><text class="cls-80" transform="translate(825.03 228)"><tspan class="cls-90">4</tspan><tspan class="cls-92" x="6.04" y="0">5 jou</tspan><tspan class="cls-83" x="30.85" y="0">r</tspan><tspan x="34.73" y="0">s</tspan></text><text class="cls-80" transform="translate(825.03 288)">40 jou<tspan class="cls-82" x="30.97" y="0">r</tspan><tspan x="34.83" y="0">s</tspan></text><line class="cls-93" x1="253.81" y1="525.83" x2="940.84" y2="525.83"/><path class="cls-94" d="M945.85,525.83h0m-702.07,0h0"/><polygon class="cls-95" points="957.16 525.83 937.69 518.74 937.69 532.91 957.16 525.83"/><line class="cls-96" x1="53.18" y1="175.04" x2="1138.24" y2="175.04"/><path class="cls-94" d="M1143.24,175h0M43.18,175h0"/><polygon class="cls-95" points="1154.55 175.04 1135.07 167.95 1135.07 182.13 1154.55 175.04"/><line class="cls-97" x1="244.79" y1="823.47" x2="244.73" y2="527.32"/><g class="cls-98"><path class="cls-95" d="M244.73,537.32a10,10,0,1,0-10-10,10,10,0,0,0,10,10"/></g><line class="cls-97" x1="486.44" y1="633.54" x2="486.29" y2="527.33"/><g class="cls-98"><path class="cls-95" d="M486.29,537.33a10,10,0,1,0-10-10,10,10,0,0,0,10,10"/></g><line class="cls-99" x1="51.02" y1="322.09" x2="50.87" y2="174.08"/><g class="cls-98"><path class="cls-95" d="M50.87,178.08a4,4,0,1,0-4-4,4,4,0,0,0,4,4"/></g><line class="cls-99" x1="165.11" y1="230.17" x2="164.96" y2="174.08"/><g class="cls-98"><path class="cls-95" d="M165,178.08a4,4,0,1,0-4-4,4,4,0,0,0,4,4"/></g><line class="cls-99" x1="272.13" y1="286.28" x2="271.97" y2="174.08"/><g class="cls-98"><path class="cls-95" d="M272,178.08a4,4,0,1,0-4-4,4,4,0,0,0,4,4"/></g><line class="cls-99" x1="381.96" y1="219.92" x2="381.81" y2="174.08"/><g class="cls-98"><path class="cls-95" d="M381.81,178.08a4,4,0,1,0-4-4,4,4,0,0,0,4,4"/></g><line class="cls-99" x1="491.81" y1="286.28" x2="491.65" y2="174.08"/><g class="cls-98"><path class="cls-95" d="M491.65,178.08a4,4,0,1,0-4-4,4,4,0,0,0,4,4"/></g><line class="cls-99" x1="604.49" y1="286.28" x2="604.33" y2="174.08"/><g class="cls-98"><path class="cls-95" d="M604.33,178.08a4,4,0,1,0-4-4,4,4,0,0,0,4,4"/></g><line class="cls-99" x1="712.92" y1="352.91" x2="712.76" y2="174.08"/><g class="cls-98"><path class="cls-95" d="M712.76,178.08a4,4,0,1,0-4-4,4,4,0,0,0,4,4"/></g><line class="cls-99" x1="822.76" y1="390.24" x2="822.6" y2="174.08"/><g class="cls-98"><path class="cls-95" d="M822.6,178.08a4,4,0,1,0-4-4,4,4,0,0,0,4,4"/></g><line class="cls-99" x1="931.89" y1="352.91" x2="931.73" y2="174.08"/><g class="cls-98"><path class="cls-95" d="M931.73,178.08a4,4,0,1,0-4-4,4,4,0,0,0,4,4"/></g><line class="cls-99" x1="1042.44" y1="340.39" x2="1042.28" y2="174.08"/><g class="cls-98"><path class="cls-95" d="M1042.28,178.08a4,4,0,1,0-4-4,4,4,0,0,0,4,4"/></g><line class="cls-97" x1="728.09" y1="785.67" x2="728.03" y2="527.32"/><g class="cls-98"><path class="cls-95" d="M728,537.32a10,10,0,1,0-10-10,10,10,0,0,0,10,10"/><path class="cls-100" d="M341.75,245.91v-.76c0-1.51,0-1.42-1.5-1.42-2,0-4.09,0-6.14,0-1.6,0-1.63,0-1.62,1.53,0,3.2-.41,2.58,2.57,2.69,1.33.05,2.78-.45,3.94.34s1.57-.51,2.44-.48c.53,0,.23-.85.31-1.32a3.74,3.74,0,0,0,0-.58m-29.28-9.79c0-1.52-.18-3.08,1.87-3.28.49,0,.42-.56.39-.93s-.42-.41-.72-.41c-2.82,0-5.64,0-8.45,0-.66,0-.93.22-.9.88,0,.89,0,1.79,0,2.69,0,.66.08,1.12.9,1.09.27,0,2.51.11,2.85.06a11.9,11.9,0,0,1,1.34-.09h2.73m-4.17,13.43a3,3,0,0,1,2.42.71c1.09.78,1.37-1,2.32-.74a4.39,4.39,0,0,0,1,0c1,0,2.05,0,3.07,0,1.19-.07,2.72.56,3.49-.29s.13-2.33.25-3.52c.08-.91-.23-1.27-1.18-1.24-1.6.06-3.2,0-4.8,0-.44,0-1,.18-1.29-.18-1.22-1.45-2.84-.77-4.31-.92-.79-.09-1,.36-.93,1,0,1.59,0,3.19,0,5.13m19-6c1.08-.47,1.84-1.39,3-1.32.53,0,.57-.37.57-.78a14.1,14.1,0,0,1,0-1.72c.08-.87-.33-1.1-1.13-1.08-1.66,0-3.32,0-5,0-1.4,0-1.91-.59-2-2a3.74,3.74,0,0,1,0-.58c.1-.81-.22-1.13-1.07-1.11-1.92.05-3.84.05-5.75,0-.89,0-1.27.19-1.23,1.16.07,1.66.07,3.32,0,5,0,1,.33,1.17,1.22,1.15,2.68,0,5.37,0,8.05,0,1.34,0,2.52.08,3.27,1.33m11.21-7.21c0-1.88,0-3.73,0-5.58,0-.66-.29-.89-.93-.88-3.91,0-7.81,0-11.72,0-.8,0-.95.39-.94,1.07,0,1.47.05,2.95,0,4.42,0,.83.25,1.13,1.09,1.11,1.67-.05,3.33,0,5,0a5.77,5.77,0,0,1,4.44,1.33c.52-1.54,1.82-1.25,3.05-1.43m-8.13,8.15a12,12,0,0,0-2.84,1.61c-1.12.65-2.26.42-2.55-.79-.23-1-.77-.82-1.38-.82-.8,0-.66.62-.66,1.11,0,1.34,0,2.69,0,4,0,1.53-.55,2.07-2.08,2.1-1.92,0-3.85,0-5.77,0-.67,0-1.25-.13-1.59.86s-1.47,1.08-2.39.52c-1.08-.65-2-1.48-3.46-1.45-.88,0-1.45-.71-1.45-1.7,0-2.37,0-4.75,0-7.12,0-1.1.68-1.68,1.85-1.72a25.33,25.33,0,0,1,3.26,0c1.1.11,1.34-.4,1.23-1.32,0-.32,0-.64,0-1s-.17-.49-.47-.48c-1.51.05-3.08-.36-4.41.8-.43.37-.89.9-1.68.47-1-.51-1.63-1.47-2.8-1.71-.45-.1-.71-.68-.7-1.26,0-1.86,0-3.72,0-5.58a1.72,1.72,0,0,1,1.82-1.78c3.59,0,7.19,0,10.78,0,1.22,0,1.82.65,1.85,1.94,0,1.81.05,1.65,1.72,1.65,1,0,2.06,0,3.08,0,.85,0,1.13-.35,1.09-1.15a22.06,22.06,0,0,1,0-2.3c.06-1.16.63-1.79,1.77-1.79q7.13,0,14.24,0a1.64,1.64,0,0,1,1.77,1.81q.06,3.65,0,7.31a1.7,1.7,0,0,1-1.74,1.85c-.64.08-1.12,0-1.37.91s-1.46,1.14-2.48.55c-.55-.31-1-.81-1.44-.9s-.51.23-.52.39c-.11,1.9-.11,1.91,1.77,1.91h6.73c2,0,2.44.49,2.46,2.52,0,1.34,0,2.69,0,4,0,.52,0,1.07-.46,1.38-1,.67-2.08,1.31-3.16,1.91-.49.28-.88-.16-1.18-.42A4.36,4.36,0,0,0,336,250c-1.15.05-2.31,0-3.46,0-1.66,0-2.11-.5-2.14-2.21,0-1.06,0-2.12,0-3.34"/><path class="cls-100" d="M326.05,266.42a5.35,5.35,0,0,1-2.11,0c0-1.48,0-3,0-4.52a1.58,1.58,0,0,1,1.74-1.6c1.91,0,3.84,0,5.76,0a1.62,1.62,0,0,1,1.81,1.74c.05,1.21,0,2.43,0,3.64.05.92-.52.85-1.11.84s-1.17,0-1.1-.86,0-1.54,0-2.3c0-.52-.12-.88-.74-.86a27.2,27.2,0,0,0-4.29.16Z"/><path class="cls-100" d="M322.69,266.46l-1,.07c-.73.07-1.27-.07-1.13-1s-.23-1.15-1.07-1.11a23.22,23.22,0,0,1-2.89,0c-.83-.05-1.2.27-1.07,1.09.17,1.15-.62,1-1.32,1s-1-.34-.93-1c0-.51,0-1,0-1.53a1.66,1.66,0,0,1,1.66-1.73c2.05-.05,4.11-.05,6.16,0a1.55,1.55,0,0,1,1.56,1.62c.06.82,0,1.64,0,2.6"/><path class="cls-100" d="M337.16,264.29a4.25,4.25,0,0,0,.21,1.93c-.21.32-.55.25-.85.31-1,.2-1.5-.33-1.64-1.29-.05-.37-.17-.74-.24-1.12a1.6,1.6,0,0,1,1.61-2c1.91-.05,3.83-.05,5.74,0a1.63,1.63,0,0,1,1.7,2,2.26,2.26,0,0,1-.09.57c-.57,2,0,2-2.56,1.7,0-.66.43-1.31.2-2.06a23.16,23.16,0,0,0-4.08,0"/><path class="cls-100" d="M312,266.31c-2,.38-2.09.41-2.74-1.44-.4-1.16-1.17-1.05-2.07-1.13s-1.32.41-1.6,1.21c-.59,1.69-.63,1.68-2.68,1.4a22.9,22.9,0,0,1,1.16-3.57,1.85,1.85,0,0,1,1.58-1.22,1.61,1.61,0,0,1,.38,0c4.45.09,4.15-.89,6,4.75"/><path class="cls-100" d="M318,257.66a.62.62,0,0,0-.61.6.61.61,0,1,0,1.21,0,.62.62,0,0,0-.6-.61m-.09,3.53a2.83,2.83,0,0,1-2.77-3A2.91,2.91,0,0,1,318,255.4a3,3,0,0,1,2.89,3,2.87,2.87,0,0,1-3,2.83"/><path class="cls-100" d="M339.8,257.63c-.08-.35-.28-.61-.63-.58a.6.6,0,0,0-.58.79.55.55,0,0,0,.69.48.63.63,0,0,0,.52-.69m-.62-2.84a2.92,2.92,0,0,1,2.87,3,3,3,0,0,1-2.8,2.88,2.91,2.91,0,0,1-2.92-2.9,2.82,2.82,0,0,1,2.85-2.93"/><path class="cls-100" d="M307.31,258.33a.65.65,0,0,0,.73-.5.62.62,0,0,0-.58-.79.6.6,0,0,0-.67.5.63.63,0,0,0,.52.79m2.92-.69a2.86,2.86,0,0,1-2.86,3,2.92,2.92,0,0,1-2.79-2.88,2.82,2.82,0,0,1,2.9-2.93,2.74,2.74,0,0,1,2.75,2.84"/><path class="cls-100" d="M329.23,256.39a.65.65,0,0,0-.52-.63.64.64,0,0,0-.77.59.56.56,0,0,0,.51.65.64.64,0,0,0,.78-.61m-.66,2.88a2.8,2.8,0,0,1-2.83-2.79,3,3,0,0,1,2.86-3,2.9,2.9,0,0,1,2.8,3,2.76,2.76,0,0,1-2.83,2.77"/><path class="cls-100" d="M780.78,270.91v-.77c0-1.51,0-1.42-1.5-1.41h-6.14c-1.6,0-1.64,0-1.62,1.53,0,3.19-.41,2.57,2.57,2.68,1.32.05,2.77-.45,3.94.34s1.56-.5,2.44-.47c.52,0,.22-.86.3-1.32a2.81,2.81,0,0,0,0-.58m-29.29-9.8c0-1.52-.17-3.07,1.88-3.27.49,0,.42-.56.38-.93s-.41-.41-.71-.41c-2.82,0-5.64,0-8.46,0-.65,0-.92.22-.9.88,0,.9,0,1.8,0,2.69,0,.66.07,1.12.9,1.1.26,0,2.51.11,2.85.06a11.88,11.88,0,0,1,1.33-.09h2.73m-4.16,13.44a3,3,0,0,1,2.42.7c1.09.79,1.37-1,2.31-.74a3.84,3.84,0,0,0,1,0c1,0,2.05.05,3.08,0,1.19-.07,2.72.55,3.48-.29s.14-2.33.25-3.53c.09-.9-.23-1.26-1.17-1.23-1.6.06-3.21,0-4.81,0-.44,0-1,.17-1.29-.18-1.21-1.45-2.84-.77-4.3-.93-.8-.08-1,.37-.94,1.05,0,1.6,0,3.2,0,5.14m19-6c1.07-.48,1.83-1.4,3-1.32.54,0,.58-.37.57-.78,0-.58,0-1.15,0-1.72.08-.87-.33-1.1-1.12-1.09-1.66,0-3.33.05-5,0-1.39,0-1.9-.59-2-2a3.62,3.62,0,0,1,0-.57c.09-.81-.23-1.14-1.08-1.12-1.91.05-3.83.06-5.75,0-.89,0-1.27.2-1.23,1.16.07,1.66.08,3.33,0,5,0,1,.33,1.17,1.21,1.16,2.69-.05,5.37,0,8.06,0,1.33,0,2.52.08,3.27,1.33m11.21-7.21c0-1.89,0-3.74,0-5.58,0-.67-.29-.89-.93-.89-3.9,0-7.81,0-11.71,0-.8,0-1,.39-.94,1.07,0,1.47,0,2.94,0,4.41,0,.83.26,1.14,1.1,1.11,1.66,0,3.33.05,5,0a5.76,5.76,0,0,1,4.44,1.34c.53-1.55,1.83-1.26,3.06-1.43m-8.13,8.15a11.64,11.64,0,0,0-2.84,1.61c-1.12.64-2.27.41-2.55-.8-.24-1-.78-.81-1.38-.81-.81,0-.66.62-.67,1.1,0,1.35,0,2.69,0,4,0,1.52-.55,2.07-2.07,2.1-1.93,0-3.85,0-5.78,0-.67,0-1.25-.14-1.59.86s-1.46,1.08-2.38.52c-1.08-.66-2-1.48-3.46-1.45-.88,0-1.45-.71-1.45-1.71,0-2.37,0-4.74,0-7.11,0-1.11.68-1.68,1.84-1.72a25.48,25.48,0,0,1,3.27,0c1.1.1,1.33-.4,1.22-1.33,0-.31,0-.64,0-1a.44.44,0,0,0-.48-.47c-1.5,0-3.07-.37-4.41.79-.43.38-.89.9-1.68.48-1-.52-1.63-1.48-2.8-1.72-.45-.09-.7-.67-.7-1.25,0-1.86,0-3.72,0-5.58a1.73,1.73,0,0,1,1.83-1.79q5.38-.06,10.77,0c1.23,0,1.82.64,1.85,1.94.05,1.81.06,1.65,1.73,1.65,1,0,2.05,0,3.08,0,.85,0,1.12-.35,1.08-1.15a22.25,22.25,0,0,1,0-2.31,1.64,1.64,0,0,1,1.78-1.79q7.11,0,14.24,0a1.65,1.65,0,0,1,1.77,1.81c0,2.43,0,4.87,0,7.3,0,1.15-.56,1.7-1.74,1.86-.63.08-1.11,0-1.36.9s-1.47,1.14-2.49.56c-.54-.32-1-.82-1.44-.9s-.51.22-.51.39c-.12,1.9-.11,1.91,1.76,1.91h6.74c2,0,2.44.5,2.45,2.53,0,1.34,0,2.69,0,4,0,.53,0,1.08-.46,1.39-1,.67-2.09,1.3-3.16,1.91-.49.27-.88-.16-1.19-.43A4.36,4.36,0,0,0,775,275c-1.16.05-2.31,0-3.47,0-1.65,0-2.11-.5-2.14-2.21,0-1.06,0-2.13,0-3.34"/><path class="cls-100" d="M765.07,291.41a5.36,5.36,0,0,1-2.11,0c0-1.49,0-3,0-4.52a1.56,1.56,0,0,1,1.73-1.6q2.88-.06,5.76,0a1.61,1.61,0,0,1,1.81,1.73c.05,1.22,0,2.44,0,3.65,0,.91-.53.84-1.12.84s-1.17,0-1.1-.87,0-1.53,0-2.3c0-.52-.11-.88-.73-.85a26.11,26.11,0,0,0-4.3.15Z"/><path class="cls-100" d="M761.71,291.46c-.5,0-.75,0-1,.07-.74.06-1.28-.07-1.14-1s-.22-1.15-1.07-1.1a27.67,27.67,0,0,1-2.88,0c-.83-.05-1.2.26-1.08,1.09.18,1.15-.61,1-1.31,1s-1-.35-.93-1c0-.51,0-1,0-1.54a1.64,1.64,0,0,1,1.65-1.72q3.09-.09,6.16,0a1.55,1.55,0,0,1,1.57,1.61c.06.82,0,1.65,0,2.61"/><path class="cls-100" d="M776.18,289.29a4.55,4.55,0,0,0,.21,1.93c-.21.31-.54.25-.84.3-1,.21-1.5-.32-1.64-1.28-.06-.38-.18-.74-.24-1.12a1.6,1.6,0,0,1,1.61-2c1.91-.05,3.82-.05,5.74,0a1.62,1.62,0,0,1,1.7,2,3.44,3.44,0,0,1-.09.56c-.58,2,0,2-2.57,1.7,0-.65.44-1.3.2-2.05a23.16,23.16,0,0,0-4.08,0"/><path class="cls-100" d="M751,291.3c-2,.39-2.08.42-2.73-1.43-.41-1.16-1.18-1.05-2.08-1.13s-1.31.41-1.6,1.21c-.59,1.69-.62,1.67-2.68,1.4a24.52,24.52,0,0,1,1.16-3.58,1.85,1.85,0,0,1,1.59-1.21,2.38,2.38,0,0,1,.38,0c4.45.1,4.14-.88,6,4.75"/><path class="cls-100" d="M757,282.66a.62.62,0,0,0-.6.6.61.61,0,1,0,1.21,0c0-.37-.27-.54-.61-.6m-.09,3.53a2.82,2.82,0,0,1-2.76-3A2.89,2.89,0,0,1,757,280.4a3,3,0,0,1,2.88,3,2.87,2.87,0,0,1-3,2.84"/><path class="cls-100" d="M778.82,282.63c-.08-.35-.27-.61-.63-.59a.61.61,0,0,0-.58.8.56.56,0,0,0,.7.48.62.62,0,0,0,.51-.69m-.62-2.84a2.91,2.91,0,0,1,2.87,2.95,3,3,0,0,1-2.8,2.87,2.9,2.9,0,0,1-2.92-2.89,2.82,2.82,0,0,1,2.85-2.93"/><path class="cls-100" d="M746.33,283.32a.65.65,0,0,0,.74-.5.63.63,0,0,0-.58-.78.61.61,0,0,0-.68.5.62.62,0,0,0,.52.78m2.92-.69a2.86,2.86,0,0,1-2.86,3,2.92,2.92,0,0,1-2.78-2.89,2.82,2.82,0,0,1,2.89-2.93,2.74,2.74,0,0,1,2.75,2.84"/><path class="cls-100" d="M768.25,281.38a.63.63,0,0,0-.52-.62.62.62,0,0,0-.77.58.57.57,0,0,0,.51.66.64.64,0,0,0,.78-.62m-.65,2.88a2.79,2.79,0,0,1-2.83-2.79,2.94,2.94,0,0,1,2.85-3,2.89,2.89,0,0,1,2.81,3,2.75,2.75,0,0,1-2.83,2.77"/><path class="cls-100" d="M415.58,672.84c0-.69,0-1.38,0-2.07.06-4.07.05-3.84-4.06-3.82-5.52,0-11,0-16.58,0-4.32,0-4.41,0-4.37,4.12.08,8.63-1.11,6.95,6.94,7.25,3.57.13,7.49-1.21,10.64.91,2.93,2,4.22-1.36,6.58-1.28,1.42.06.61-2.3.83-3.57a8.89,8.89,0,0,0,0-1.55M336.5,646.39c.13-4.11-.47-8.31,5.06-8.84,1.33-.12,1.14-1.51,1.05-2.52-.11-1.23-1.13-1.1-1.93-1.1-7.62,0-15.23,0-22.84,0-1.76,0-2.49.59-2.43,2.38.09,2.41.09,4.84,0,7.25-.07,1.78.19,3,2.42,3,.72,0,6.78.29,7.7.16a28.93,28.93,0,0,1,3.61-.25c2.39,0,4.78,0,7.36,0m-11.24,36.28c2.75-.5,4.68.58,6.53,1.9,2.95,2.11,3.7-2.66,6.26-2a10.58,10.58,0,0,0,2.58,0c2.77,0,5.54.13,8.3,0,3.22-.2,7.35,1.49,9.41-.79s.37-6.28.68-9.52c.24-2.44-.63-3.42-3.18-3.32-4.31.15-8.64.06-13,0-1.19,0-2.68.46-3.49-.51-3.28-3.9-7.67-2.07-11.62-2.49-2.15-.22-2.57,1-2.53,2.84.08,4.31,0,8.62,0,13.87m51.19-16.21c2.9-1.28,4.95-3.77,8.19-3.57,1.45.09,1.55-1,1.54-2.09a45.24,45.24,0,0,1,0-4.66c.21-2.34-.9-3-3-2.92-4.48.1-9,.11-13.46,0-3.76-.09-5.15-1.59-5.36-5.37a8.91,8.91,0,0,1,0-1.55c.26-2.2-.6-3.07-2.9-3-5.17.13-10.36.14-15.53,0-2.39-.07-3.42.54-3.32,3.14.19,4.47.21,9,0,13.44-.13,2.63.88,3.16,3.27,3.12,7.25-.13,14.5.09,21.75-.11,3.6-.1,6.81.22,8.83,3.59M406.72,647c0-5.09,0-10.08,0-15.07,0-1.79-.79-2.39-2.51-2.38q-15.81.06-31.63,0c-2.16,0-2.58,1.05-2.54,2.89.07,4,.12,8,0,11.92-.07,2.23.7,3.06,3,3,4.49-.13,9,.12,13.48-.08,4.26-.19,8.23.3,12,3.6,1.42-4.17,4.93-3.38,8.26-3.86m-22,22c-3.37,1-5.34,3-7.68,4.34-3,1.75-6.11,1.13-6.88-2.14-.64-2.68-2.1-2.21-3.73-2.2-2.18,0-1.77,1.68-1.78,3,0,3.64,0,7.27,0,10.9-.08,4.12-1.5,5.59-5.61,5.67-5.19.09-10.39,0-15.59,0-1.81,0-3.38-.37-4.3,2.32s-3.95,2.91-6.44,1.4c-2.91-1.77-5.47-4-9.34-3.92-2.37,0-3.92-1.9-3.91-4.59,0-6.41-.08-12.81,0-19.21.06-3,1.84-4.55,5-4.66a68.29,68.29,0,0,1,8.82,0c3,.27,3.6-1.08,3.3-3.58-.1-.86,0-1.73-.07-2.59a1.17,1.17,0,0,0-1.28-1.28c-4.06.11-8.3-1-11.9,2.14-1.16,1-2.41,2.43-4.54,1.28-2.61-1.39-4.4-4-7.56-4.63-1.21-.25-1.9-1.81-1.88-3.39.06-5-.08-10,.05-15a4.66,4.66,0,0,1,4.92-4.84q14.55-.15,29.1,0c3.31,0,4.92,1.74,5,5.23.11,4.9.15,4.46,4.65,4.46,2.77,0,5.55-.09,8.31,0,2.31.1,3.05-1,2.93-3.1a61.65,61.65,0,0,1,0-6.23c.15-3.11,1.7-4.81,4.79-4.82q19.21-.12,38.45,0c3,0,4.73,1.81,4.78,4.89q.17,9.85,0,19.73c0,3.09-1.5,4.59-4.7,5-1.7.22-3-.06-3.68,2.44-.74,2.75-3.95,3.07-6.71,1.49-1.46-.84-2.65-2.19-3.88-2.42-1.32-.05-1.37.61-1.4,1-.3,5.14-.29,5.15,4.77,5.16,6.06,0,12.13,0,18.19,0,5.33,0,6.59,1.34,6.62,6.81,0,3.63,0,7.27,0,10.9,0,1.42.05,2.9-1.24,3.75q-4.19,2.7-8.53,5.15c-1.32.74-2.38-.43-3.21-1.14-2.58-2.2-5.52-2.58-8.73-2.44s-6.24.07-9.35,0c-4.48-.08-5.7-1.35-5.78-6,0-2.87,0-5.75,0-9"/><path class="cls-100" d="M373.17,728.2a14.4,14.4,0,0,1-5.7,0c0-4-.11-8.12,0-12.21.1-2.71,1.8-4.26,4.68-4.32q7.77-.16,15.55,0c3.17.06,4.77,1.62,4.9,4.69.13,3.28-.09,6.57.07,9.84.11,2.47-1.43,2.28-3,2.27s-3.16.11-3-2.34c.17-2.06,0-4.14,0-6.21,0-1.4-.31-2.38-2-2.3-3.77.17-7.57-.39-11.6.41Z"/><path class="cls-100" d="M364.09,728.32c-1.35.09-2,.12-2.71.19-2,.18-3.45-.19-3.07-2.71.34-2.21-.6-3.11-2.88-3a69.81,69.81,0,0,1-7.79,0c-2.25-.12-3.24.72-2.9,3,.48,3.1-1.67,2.63-3.55,2.77-2.21.17-2.65-.93-2.51-2.8.1-1.37-.06-2.77,0-4.15.22-2.8,1.78-4.59,4.48-4.66q8.31-.21,16.63,0c2.6.07,4.05,1.81,4.23,4.36.15,2.21,0,4.45,0,7"/><path class="cls-100" d="M403.16,722.46c-.53,1.94.34,3.55.57,5.21-.57.85-1.47.67-2.28.83-2.83.54-4.05-.88-4.42-3.47-.15-1-.48-2-.65-3-.53-3,1.19-5.38,4.34-5.46,5.16-.14,10.33-.13,15.49,0,3.27.08,4.88,2.11,4.6,5.38a8.6,8.6,0,0,1-.24,1.52c-1.56,5.43.12,5.48-6.92,4.6-.1-1.78,1.17-3.52.53-5.55a63.36,63.36,0,0,0-11,0"/><path class="cls-100" d="M335.1,727.91c-5.37,1-5.63,1.12-7.38-3.88-1.1-3.13-3.18-2.84-5.61-3-2.66-.23-3.55,1.1-4.31,3.27-1.61,4.55-1.7,4.52-7.24,3.77.53-3.4,2.1-6.45,3.13-9.65.63-2,2.29-2.91,4.27-3.27a5.15,5.15,0,0,1,1,0c12,.27,11.18-2.39,16.1,12.84"/><path class="cls-100" d="M351.47,704.57a1.65,1.65,0,0,0-1.64,1.61,1.64,1.64,0,1,0,3.26,0c0-1-.71-1.46-1.62-1.62m-.25,9.52a7.63,7.63,0,0,1-7.47-8.12,7.83,7.83,0,0,1,7.67-7.51,8,8,0,0,1,7.79,8,7.74,7.74,0,0,1-8,7.65"/><path class="cls-100" d="M410.29,704.48c-.21-.94-.74-1.64-1.7-1.58A1.62,1.62,0,0,0,407,705a1.5,1.5,0,0,0,1.88,1.3,1.71,1.71,0,0,0,1.39-1.86m-1.67-7.67a7.89,7.89,0,0,1,7.75,8,8.21,8.21,0,0,1-7.56,7.76,7.85,7.85,0,0,1-7.89-7.83,7.63,7.63,0,0,1,7.7-7.9"/><path class="cls-100" d="M322.57,706.35a1.74,1.74,0,0,0,2-1.35,1.69,1.69,0,0,0-1.56-2.11,1.61,1.61,0,0,0-1.82,1.34,1.69,1.69,0,0,0,1.4,2.12m7.88-1.86a7.7,7.7,0,0,1-7.71,8,7.89,7.89,0,0,1-7.53-7.79,7.62,7.62,0,0,1,7.81-7.91,7.4,7.4,0,0,1,7.43,7.67"/><path class="cls-100" d="M381.76,701.12a1.73,1.73,0,0,0-1.41-1.69,1.71,1.71,0,0,0-2.08,1.58,1.54,1.54,0,0,0,1.38,1.77,1.74,1.74,0,0,0,2.11-1.66M380,708.89a7.55,7.55,0,0,1-7.65-7.53,8,8,0,0,1,7.71-8.14,7.82,7.82,0,0,1,7.58,8.19,7.44,7.44,0,0,1-7.64,7.48"/><path class="cls-100" d="M890.26,313.43c0-.25,0-.51,0-.77,0-1.51,0-1.42-1.5-1.41h-6.15c-1.59,0-1.63,0-1.61,1.53,0,3.19-.41,2.57,2.57,2.68,1.32.05,2.77-.45,3.94.34s1.56-.5,2.44-.47c.52,0,.22-.86.3-1.32a3.75,3.75,0,0,0,0-.58M861,303.63c0-1.52-.17-3.07,1.87-3.27.5-.05.43-.56.39-.93s-.42-.41-.71-.41c-2.82,0-5.64,0-8.46,0-.65,0-.92.22-.9.88,0,.9,0,1.8,0,2.69,0,.66.07,1.12.89,1.1.27,0,2.52.11,2.86.06a11.88,11.88,0,0,1,1.33-.09H861m-4.16,13.44a3,3,0,0,1,2.42.7c1.09.79,1.37-1,2.31-.74a3.84,3.84,0,0,0,1,0c1,0,2,0,3.07,0,1.2-.07,2.73.55,3.49-.29s.14-2.33.25-3.53c.09-.9-.23-1.26-1.17-1.23-1.6.06-3.21,0-4.81,0-.44,0-1,.17-1.29-.18-1.21-1.45-2.84-.77-4.3-.93-.8-.08-1,.37-.94,1.05,0,1.6,0,3.2,0,5.14m19-6c1.07-.48,1.83-1.4,3-1.32.54,0,.58-.37.57-.78,0-.58,0-1.15,0-1.72.08-.87-.33-1.1-1.12-1.09-1.66,0-3.33,0-5,0-1.39,0-1.91-.59-2-2a2.71,2.71,0,0,1,0-.57c.09-.81-.23-1.14-1.08-1.12-1.91,0-3.83.06-5.75,0-.89,0-1.27.2-1.23,1.16.07,1.66.08,3.33,0,5-.05,1,.33,1.17,1.21,1.16,2.68,0,5.37,0,8,0,1.34,0,2.53.08,3.28,1.33M887,303.86c0-1.89,0-3.74,0-5.58,0-.67-.29-.89-.93-.89-3.9,0-7.81,0-11.71,0-.8,0-1,.39-.94,1.07,0,1.47,0,2.94,0,4.41,0,.83.26,1.14,1.1,1.11,1.66-.05,3.33,0,5,0a5.76,5.76,0,0,1,4.44,1.34c.53-1.55,1.82-1.26,3.06-1.43M878.85,312a11.64,11.64,0,0,0-2.84,1.61c-1.13.64-2.27.41-2.55-.8-.24-1-.78-.81-1.39-.81-.8,0-.65.62-.66,1.1,0,1.35,0,2.69,0,4,0,1.52-.55,2.07-2.07,2.1-1.93,0-3.85,0-5.78,0-.67,0-1.25-.14-1.59.86s-1.46,1.08-2.38.52c-1.08-.66-2-1.48-3.47-1.45-.87,0-1.45-.71-1.44-1.71,0-2.37,0-4.74,0-7.11,0-1.11.68-1.68,1.84-1.72a25.48,25.48,0,0,1,3.27,0c1.1.1,1.33-.4,1.22-1.33,0-.31,0-.64,0-1a.43.43,0,0,0-.47-.47c-1.5,0-3.07-.37-4.41.79-.43.38-.89.9-1.68.48-1-.52-1.63-1.48-2.8-1.72-.45-.09-.71-.67-.7-1.25,0-1.86,0-3.72,0-5.58a1.73,1.73,0,0,1,1.83-1.79q5.38-.06,10.77,0c1.23,0,1.82.64,1.85,1.94.05,1.81.06,1.65,1.73,1.65,1,0,2,0,3.08,0,.85,0,1.12-.35,1.08-1.15a22.25,22.25,0,0,1,0-2.31,1.64,1.64,0,0,1,1.78-1.79q7.11,0,14.24,0a1.65,1.65,0,0,1,1.77,1.81c0,2.43,0,4.87,0,7.3,0,1.15-.56,1.7-1.74,1.86-.63.08-1.11,0-1.37.9s-1.46,1.14-2.48.56c-.54-.32-1-.82-1.44-.9s-.51.22-.52.39c-.11,1.9-.1,1.91,1.77,1.91H890c2,0,2.44.5,2.45,2.53,0,1.34,0,2.69,0,4,0,.53,0,1.08-.46,1.39-1,.67-2.09,1.3-3.16,1.91-.49.27-.88-.16-1.19-.43a4.38,4.38,0,0,0-3.23-.9c-1.16.05-2.31,0-3.47,0-1.65,0-2.11-.5-2.14-2.21,0-1.06,0-2.13,0-3.34"/><path class="cls-100" d="M874.55,333.93a5.36,5.36,0,0,1-2.11,0c0-1.49,0-3,0-4.52a1.56,1.56,0,0,1,1.73-1.6q2.88-.06,5.76,0a1.62,1.62,0,0,1,1.81,1.73c0,1.22,0,2.44,0,3.65,0,.91-.53.84-1.12.84s-1.17,0-1.1-.87,0-1.53,0-2.3c0-.52-.11-.88-.73-.85a26.11,26.11,0,0,0-4.3.15Z"/><path class="cls-100" d="M871.19,334c-.5,0-.75,0-1,.07-.73.06-1.27-.07-1.13-1s-.22-1.15-1.07-1.1a27.67,27.67,0,0,1-2.88,0c-.84-.05-1.2.26-1.08,1.09.18,1.15-.62,1-1.31,1s-1-.35-.93-1c0-.51,0-1,0-1.54a1.66,1.66,0,0,1,1.66-1.72q3.09-.09,6.16,0a1.55,1.55,0,0,1,1.57,1.61c.05.82,0,1.65,0,2.61"/><path class="cls-100" d="M885.66,331.81a4.25,4.25,0,0,0,.21,1.93c-.21.31-.54.25-.84.3-1,.2-1.5-.32-1.64-1.28-.06-.38-.18-.74-.24-1.12a1.59,1.59,0,0,1,1.6-2c1.92-.05,3.83-.05,5.74,0a1.62,1.62,0,0,1,1.7,2,2.61,2.61,0,0,1-.08.56c-.58,2,0,2-2.57,1.7,0-.66.44-1.3.2-2.05a23.16,23.16,0,0,0-4.08,0"/><path class="cls-100" d="M860.45,333.82c-2,.39-2.09.42-2.73-1.43-.41-1.16-1.18-1.05-2.08-1.13s-1.31.41-1.6,1.21c-.59,1.69-.62,1.67-2.68,1.4a24.52,24.52,0,0,1,1.16-3.58,1.85,1.85,0,0,1,1.58-1.21,2.54,2.54,0,0,1,.39,0c4.44.1,4.14-.88,6,4.75"/><path class="cls-100" d="M866.51,325.18a.62.62,0,0,0-.6.6.58.58,0,0,0,.52.67.58.58,0,0,0,.69-.67c0-.37-.27-.54-.61-.6m-.09,3.53a2.82,2.82,0,0,1-2.76-3,2.89,2.89,0,0,1,2.83-2.78,3,3,0,0,1,2.89,2.95,2.87,2.87,0,0,1-3,2.84"/><path class="cls-100" d="M888.3,325.15c-.08-.35-.28-.61-.63-.59a.6.6,0,0,0-.58.8.56.56,0,0,0,.69.48.63.63,0,0,0,.52-.69m-.62-2.84a2.92,2.92,0,0,1,2.87,2.95,3,3,0,0,1-2.8,2.87,2.9,2.9,0,0,1-2.92-2.89,2.82,2.82,0,0,1,2.85-2.93"/><path class="cls-100" d="M855.81,325.84a.63.63,0,0,0,.73-.5.62.62,0,0,0-.57-.78.61.61,0,0,0-.68.5.63.63,0,0,0,.52.78m2.92-.69a2.86,2.86,0,0,1-2.86,3,2.92,2.92,0,0,1-2.78-2.89,2.82,2.82,0,0,1,2.89-2.93,2.74,2.74,0,0,1,2.75,2.84"/><path class="cls-100" d="M877.73,323.9a.63.63,0,0,0-.52-.62.62.62,0,0,0-.77.58.57.57,0,0,0,.51.66.64.64,0,0,0,.78-.62m-.65,2.88a2.8,2.8,0,0,1-2.84-2.79,3,3,0,0,1,2.86-3,2.89,2.89,0,0,1,2.81,3,2.75,2.75,0,0,1-2.83,2.77"/><path class="cls-100" d="M1005.55,270.91v-.77c0-1.51,0-1.42-1.5-1.41h-6.14c-1.6,0-1.63,0-1.62,1.53,0,3.19-.41,2.57,2.57,2.68,1.32.05,2.78-.45,3.94.34s1.56-.5,2.44-.47c.52,0,.22-.86.31-1.32a3.74,3.74,0,0,0,0-.58m-29.29-9.8c0-1.52-.17-3.07,1.88-3.27.49,0,.42-.56.39-.93s-.42-.41-.72-.41c-2.82,0-5.64,0-8.46,0-.65,0-.92.22-.9.88,0,.9,0,1.8,0,2.69,0,.66.07,1.12.9,1.1.26,0,2.51.11,2.85.06a11.9,11.9,0,0,1,1.34-.09h2.72m-4.16,13.44a3,3,0,0,1,2.42.7c1.09.79,1.37-1,2.32-.74a3.77,3.77,0,0,0,.95,0c1,0,2.06.05,3.08,0,1.19-.07,2.72.55,3.48-.29s.14-2.33.26-3.53c.08-.9-.24-1.26-1.18-1.23-1.6.06-3.2,0-4.8,0-.44,0-1,.17-1.3-.18-1.21-1.45-2.84-.77-4.3-.93-.8-.08-.95.37-.94,1.05,0,1.6,0,3.2,0,5.14m19-6c1.07-.48,1.83-1.4,3-1.32.54,0,.58-.37.57-.78,0-.58,0-1.15,0-1.72.08-.87-.33-1.1-1.12-1.09-1.66,0-3.32.05-5,0-1.39,0-1.9-.59-2-2a3.62,3.62,0,0,1,0-.57c.09-.81-.22-1.14-1.07-1.12-1.92.05-3.84.06-5.76,0-.88,0-1.27.2-1.23,1.16.07,1.66.08,3.33,0,5,0,1,.33,1.17,1.21,1.16,2.69-.05,5.38,0,8.06,0,1.33,0,2.52.08,3.27,1.33m11.21-7.21c0-1.89,0-3.74,0-5.58,0-.67-.3-.89-.93-.89q-5.86,0-11.72,0c-.8,0-1,.39-.94,1.07,0,1.47,0,2.94,0,4.41,0,.83.26,1.14,1.1,1.11,1.66,0,3.33.05,5,0a5.76,5.76,0,0,1,4.44,1.34c.53-1.55,1.83-1.26,3.06-1.43m-8.13,8.15a11.64,11.64,0,0,0-2.84,1.61c-1.12.64-2.26.41-2.55-.8-.24-1-.78-.81-1.38-.81-.81,0-.66.62-.66,1.1,0,1.35,0,2.69,0,4,0,1.52-.56,2.07-2.08,2.1-1.92,0-3.85,0-5.77,0-.67,0-1.26-.14-1.6.86s-1.46,1.08-2.38.52c-1.08-.66-2-1.48-3.46-1.45-.88,0-1.45-.71-1.45-1.71,0-2.37,0-4.74,0-7.11,0-1.11.68-1.68,1.84-1.72a25.48,25.48,0,0,1,3.27,0c1.1.1,1.33-.4,1.22-1.33,0-.31,0-.64,0-1s-.17-.48-.48-.47c-1.5,0-3.07-.37-4.4.79-.44.38-.9.9-1.69.48-1-.52-1.63-1.48-2.8-1.72-.45-.09-.7-.67-.69-1.25,0-1.86,0-3.72,0-5.58a1.72,1.72,0,0,1,1.82-1.79q5.38-.06,10.78,0c1.22,0,1.82.64,1.85,1.94,0,1.81,0,1.65,1.72,1.65,1,0,2.05,0,3.08,0,.85,0,1.13-.35,1.08-1.15s0-1.54,0-2.31a1.65,1.65,0,0,1,1.78-1.79q7.13,0,14.24,0a1.65,1.65,0,0,1,1.77,1.81c0,2.43,0,4.87,0,7.3,0,1.15-.55,1.7-1.74,1.86-.63.08-1.11,0-1.36.9s-1.47,1.14-2.49.56c-.54-.32-1-.82-1.44-.9s-.5.22-.51.39c-.11,1.9-.11,1.91,1.76,1.91h6.74c2,0,2.44.5,2.45,2.53,0,1.34,0,2.69,0,4,0,.53,0,1.08-.46,1.39-1,.67-2.09,1.3-3.16,1.91-.49.27-.88-.16-1.19-.43a4.36,4.36,0,0,0-3.23-.9c-1.15.05-2.31,0-3.46,0-1.66,0-2.12-.5-2.15-2.21,0-1.06,0-2.13,0-3.34"/><path class="cls-100" d="M989.85,291.41a5.41,5.41,0,0,1-2.12,0c0-1.49,0-3,0-4.52a1.56,1.56,0,0,1,1.73-1.6q2.88-.06,5.76,0a1.61,1.61,0,0,1,1.81,1.73c.06,1.22,0,2.44,0,3.65,0,.91-.53.84-1.12.84s-1.17,0-1.1-.87,0-1.53,0-2.3c0-.52-.12-.88-.74-.85a26,26,0,0,0-4.29.15Z"/><path class="cls-100" d="M986.48,291.46c-.5,0-.75,0-1,.07-.74.06-1.28-.07-1.14-1s-.22-1.15-1.06-1.1a27.86,27.86,0,0,1-2.89,0c-.83-.05-1.2.26-1.07,1.09.17,1.15-.62,1-1.32,1s-1-.35-.93-1c0-.51,0-1,0-1.54a1.65,1.65,0,0,1,1.66-1.72q3.07-.09,6.15,0a1.55,1.55,0,0,1,1.57,1.61c.06.82,0,1.65,0,2.61"/><path class="cls-100" d="M1001,289.29a4.55,4.55,0,0,0,.21,1.93c-.21.31-.54.25-.84.3-1.05.21-1.5-.32-1.64-1.28,0-.38-.17-.74-.24-1.12a1.6,1.6,0,0,1,1.61-2c1.91-.05,3.83-.05,5.74,0a1.62,1.62,0,0,1,1.7,2,3.44,3.44,0,0,1-.09.56c-.58,2,0,2-2.56,1.7,0-.65.43-1.3.19-2.05a23.16,23.16,0,0,0-4.08,0"/><path class="cls-100" d="M975.75,291.3c-2,.39-2.09.42-2.74-1.43-.41-1.16-1.18-1.05-2.07-1.13s-1.32.41-1.6,1.21c-.6,1.69-.63,1.67-2.69,1.4a24.52,24.52,0,0,1,1.16-3.58,1.85,1.85,0,0,1,1.59-1.21,2.38,2.38,0,0,1,.38,0c4.45.1,4.14-.88,6,4.75"/><path class="cls-100" d="M981.81,282.66a.62.62,0,0,0-.61.6.61.61,0,1,0,1.21,0,.62.62,0,0,0-.6-.6m-.09,3.53a2.82,2.82,0,0,1-2.77-3,2.89,2.89,0,0,1,2.84-2.78,3,3,0,0,1,2.88,3,2.86,2.86,0,0,1-2.95,2.84"/><path class="cls-100" d="M1003.59,282.63c-.07-.35-.27-.61-.63-.59a.61.61,0,0,0-.58.8.56.56,0,0,0,.7.48.62.62,0,0,0,.51-.69m-.62-2.84a2.93,2.93,0,0,1,2.88,2.95,3,3,0,0,1-2.8,2.87,2.91,2.91,0,0,1-2.93-2.89,2.82,2.82,0,0,1,2.85-2.93"/><path class="cls-100" d="M971.1,283.32a.65.65,0,0,0,.74-.5.63.63,0,0,0-.58-.78.6.6,0,0,0-.67.5.62.62,0,0,0,.51.78m2.92-.69a2.86,2.86,0,0,1-2.85,3,2.93,2.93,0,0,1-2.79-2.89,2.82,2.82,0,0,1,2.89-2.93,2.73,2.73,0,0,1,2.75,2.84"/><path class="cls-100" d="M993,281.38a.64.64,0,0,0-.53-.62.63.63,0,0,0-.77.58.57.57,0,0,0,.51.66.65.65,0,0,0,.79-.62m-.66,2.88a2.79,2.79,0,0,1-2.83-2.79,2.94,2.94,0,0,1,2.85-3,2.88,2.88,0,0,1,2.81,3,2.75,2.75,0,0,1-2.83,2.77"/><path class="cls-100" d="M1120.84,270.91v-.77c0-1.51,0-1.42-1.5-1.41h-6.14c-1.6,0-1.63,0-1.62,1.53,0,3.19-.41,2.57,2.57,2.68,1.33.05,2.78-.45,3.94.34s1.57-.5,2.44-.47c.53,0,.23-.86.31-1.32a3.74,3.74,0,0,0,0-.58m-29.28-9.8c0-1.52-.18-3.07,1.87-3.27.49,0,.42-.56.39-.93s-.42-.41-.72-.41c-2.82,0-5.64,0-8.45,0-.66,0-.93.22-.9.88,0,.9,0,1.8,0,2.69,0,.66.08,1.12.9,1.1.27,0,2.51.11,2.85.06a11.9,11.9,0,0,1,1.34-.09h2.73m-4.17,13.44a3,3,0,0,1,2.42.7c1.09.79,1.37-1,2.32-.74a3.84,3.84,0,0,0,1,0c1,0,2.05.05,3.07,0,1.19-.07,2.72.55,3.49-.29s.13-2.33.25-3.53c.08-.9-.23-1.26-1.18-1.23-1.6.06-3.2,0-4.8,0-.44,0-1,.17-1.29-.18-1.22-1.45-2.84-.77-4.31-.93-.79-.08-1,.37-.93,1.05,0,1.6,0,3.2,0,5.14m19-6c1.08-.48,1.84-1.4,3-1.32.53,0,.57-.37.57-.78a14.09,14.09,0,0,1,0-1.72c.08-.87-.33-1.1-1.13-1.09-1.66,0-3.32.05-5,0-1.4,0-1.91-.59-2-2a3.62,3.62,0,0,1,0-.57c.1-.81-.22-1.14-1.07-1.12-1.92.05-3.84.06-5.75,0-.89,0-1.27.2-1.23,1.16.07,1.66.07,3.33,0,5,0,1,.33,1.17,1.22,1.16,2.68-.05,5.37,0,8,0,1.34,0,2.52.08,3.27,1.33m11.21-7.21c0-1.89,0-3.74,0-5.58,0-.67-.29-.89-.93-.89-3.91,0-7.81,0-11.72,0-.8,0-1,.39-.94,1.07,0,1.47,0,2.94,0,4.41,0,.83.25,1.14,1.09,1.11,1.67,0,3.33.05,5,0a5.78,5.78,0,0,1,4.44,1.34c.52-1.55,1.82-1.26,3-1.43m-8.13,8.15a12,12,0,0,0-2.84,1.61c-1.12.64-2.26.41-2.55-.8-.23-1-.77-.81-1.38-.81-.8,0-.66.62-.66,1.1,0,1.35,0,2.69,0,4,0,1.52-.55,2.07-2.08,2.1-1.92,0-3.85,0-5.77,0-.67,0-1.25-.14-1.59.86s-1.47,1.08-2.39.52c-1.08-.66-2-1.48-3.46-1.45-.88,0-1.45-.71-1.45-1.71,0-2.37,0-4.74,0-7.11,0-1.11.68-1.68,1.85-1.72a25.33,25.33,0,0,1,3.26,0c1.1.1,1.34-.4,1.23-1.33,0-.31,0-.64,0-1a.43.43,0,0,0-.47-.47c-1.51,0-3.08-.37-4.41.79-.43.38-.89.9-1.68.48-1-.52-1.63-1.48-2.8-1.72-.45-.09-.71-.67-.7-1.25,0-1.86,0-3.72,0-5.58a1.72,1.72,0,0,1,1.82-1.79c3.59,0,7.19,0,10.78,0,1.22,0,1.82.64,1.85,1.94,0,1.81,0,1.65,1.72,1.65,1,0,2.06,0,3.08,0,.85,0,1.13-.35,1.09-1.15a22.25,22.25,0,0,1,0-2.31,1.64,1.64,0,0,1,1.77-1.79q7.13,0,14.24,0a1.64,1.64,0,0,1,1.77,1.81c0,2.43,0,4.87,0,7.3,0,1.15-.56,1.7-1.74,1.86-.64.08-1.12,0-1.37.9s-1.46,1.14-2.48.56c-.55-.32-1-.82-1.44-.9s-.51.22-.52.39c-.11,1.9-.11,1.91,1.77,1.91h6.73c2,0,2.44.5,2.46,2.53,0,1.34,0,2.69,0,4,0,.53,0,1.08-.46,1.39-1,.67-2.08,1.3-3.16,1.91-.49.27-.88-.16-1.18-.43a4.4,4.4,0,0,0-3.24-.9c-1.15.05-2.31,0-3.46,0-1.66,0-2.11-.5-2.14-2.21,0-1.06,0-2.13,0-3.34"/><path class="cls-100" d="M1105.14,291.41a5.36,5.36,0,0,1-2.11,0c0-1.49,0-3,0-4.52a1.57,1.57,0,0,1,1.73-1.6c1.92,0,3.85,0,5.77,0a1.62,1.62,0,0,1,1.81,1.73c.05,1.22,0,2.44,0,3.65.05.91-.52.84-1.11.84s-1.17,0-1.1-.87,0-1.53,0-2.3c0-.52-.12-.88-.74-.85a26,26,0,0,0-4.29.15Z"/><path class="cls-100" d="M1101.78,291.46c-.5,0-.76,0-1,.07-.73.06-1.27-.07-1.13-1s-.23-1.15-1.07-1.1a27.86,27.86,0,0,1-2.89,0c-.83-.05-1.2.26-1.07,1.09.17,1.15-.62,1-1.32,1s-1-.35-.93-1c0-.51,0-1,0-1.54a1.65,1.65,0,0,1,1.66-1.72c2-.06,4.11-.06,6.16,0a1.54,1.54,0,0,1,1.56,1.61c.06.82,0,1.65,0,2.61"/><path class="cls-100" d="M1116.25,289.29a4.25,4.25,0,0,0,.21,1.93c-.21.31-.55.25-.85.3-1,.21-1.5-.32-1.64-1.28,0-.38-.17-.74-.24-1.12a1.6,1.6,0,0,1,1.61-2c1.91-.05,3.83-.05,5.74,0a1.62,1.62,0,0,1,1.7,2,2.11,2.11,0,0,1-.09.56c-.57,2,0,2-2.56,1.7,0-.65.43-1.3.2-2.05a23.16,23.16,0,0,0-4.08,0"/><path class="cls-100" d="M1091,291.3c-2,.39-2.09.42-2.74-1.43-.4-1.16-1.17-1.05-2.07-1.13s-1.32.41-1.6,1.21c-.59,1.69-.63,1.67-2.68,1.4a23.37,23.37,0,0,1,1.16-3.58,1.84,1.84,0,0,1,1.58-1.21,2.41,2.41,0,0,1,.38,0c4.45.1,4.15-.88,6,4.75"/><path class="cls-100" d="M1097.1,282.66a.62.62,0,0,0-.61.6.61.61,0,1,0,1.21,0c0-.37-.26-.54-.6-.6m-.09,3.53a2.83,2.83,0,0,1-2.77-3,2.91,2.91,0,0,1,2.84-2.78,3,3,0,0,1,2.89,3,2.87,2.87,0,0,1-3,2.84"/><path class="cls-100" d="M1118.89,282.63c-.08-.35-.28-.61-.63-.59a.6.6,0,0,0-.58.8.55.55,0,0,0,.69.48.63.63,0,0,0,.52-.69m-.62-2.84a2.92,2.92,0,0,1,2.87,2.95,3,3,0,0,1-2.8,2.87,2.9,2.9,0,0,1-2.92-2.89,2.82,2.82,0,0,1,2.85-2.93"/><path class="cls-100" d="M1086.4,283.32a.63.63,0,0,0,.73-.5.62.62,0,0,0-.58-.78.6.6,0,0,0-.67.5.62.62,0,0,0,.52.78m2.92-.69a2.86,2.86,0,0,1-2.86,3,2.93,2.93,0,0,1-2.79-2.89,2.84,2.84,0,0,1,2.9-2.93,2.74,2.74,0,0,1,2.75,2.84"/><path class="cls-100" d="M1108.32,281.38a.63.63,0,0,0-.52-.62.62.62,0,0,0-.77.58.57.57,0,0,0,.51.66.65.65,0,0,0,.78-.62m-.65,2.88a2.8,2.8,0,0,1-2.84-2.79,2.94,2.94,0,0,1,2.86-3,2.88,2.88,0,0,1,2.8,3,2.74,2.74,0,0,1-2.82,2.77"/><line class="cls-101" x1="261.02" y1="142.53" x2="261.02" y2="277.63"/><line class="cls-102" x1="291.18" y1="301.37" x2="575.75" y2="301.37"/><line class="cls-101" x1="599.86" y1="271.75" x2="599.86" y2="136.66"/><line class="cls-102" x1="569.7" y1="112.91" x2="285.13" y2="112.91"/><path class="cls-103" d="M279.07,112.91H273a11.86,11.86,0,0,0-4.59.91m324,0a11.94,11.94,0,0,0-4.6-.91h-6.05m18.05,17.87v-5.87a11.86,11.86,0,0,0-.91-4.59M599,294a11.94,11.94,0,0,0,.91-4.6V283.5m-18.05,17.87h6.05a11.94,11.94,0,0,0,4.6-.91m-324,0a11.86,11.86,0,0,0,4.59.91h6.05M261,283.5v5.87a11.94,11.94,0,0,0,.91,4.6m0-173.65a11.86,11.86,0,0,0-.91,4.59v5.87"/></g></g></svg>