<svg id="Calque_1" data-name="Calque 1" xmlns="http://www.w3.org/2000/svg" xmlns:xlink="http://www.w3.org/1999/xlink" viewBox="0 0 1190.55 841.89"><defs><style>.cls-1,.cls-52,.cls-60,.cls-87{fill:none;}.cls-2{clip-path:url(#clip-path);}.cls-3{clip-path:url(#clip-path-3);}.cls-4{opacity:0.8;}.cls-5{clip-path:url(#clip-path-4);}.cls-47,.cls-6{fill:#f59e00;}.cls-15,.cls-47,.cls-59,.cls-7,.cls-83{font-size:18px;}.cls-15,.cls-7{fill:#fff;}.cls-102,.cls-15,.cls-7{font-family:GTAmerica-Light, GT America;font-weight:300;}.cls-8{letter-spacing:-0.01em;}.cls-9{letter-spacing:-0.01em;}.cls-10{letter-spacing:-0.04em;}.cls-11{letter-spacing:0em;}.cls-12{letter-spacing:0em;}.cls-13{letter-spacing:0em;}.cls-14{letter-spacing:-0.04em;}.cls-15,.cls-34{letter-spacing:-0.02em;}.cls-16{letter-spacing:-0.01em;}.cls-17{letter-spacing:0em;}.cls-18{letter-spacing:-0.01em;}.cls-19{letter-spacing:-0.01em;}.cls-20{letter-spacing:-0.02em;}.cls-21{letter-spacing:-0.01em;}.cls-22{letter-spacing:0.03em;}.cls-23{letter-spacing:-0.04em;}.cls-24{letter-spacing:-0.02em;}.cls-25{letter-spacing:-0.02em;}.cls-26{letter-spacing:-0.01em;}.cls-27{letter-spacing:-0.01em;}.cls-28{letter-spacing:0em;}.cls-29{letter-spacing:-0.01em;}.cls-30{clip-path:url(#clip-path-5);}.cls-31{letter-spacing:-0.04em;}.cls-32{letter-spacing:-0.02em;}.cls-33{letter-spacing:-0.01em;}.cls-35{letter-spacing:-0.01em;}.cls-36{letter-spacing:-0.02em;}.cls-37{letter-spacing:0em;}.cls-38{clip-path:url(#clip-path-6);}.cls-39{letter-spacing:-0.02em;}.cls-40{clip-path:url(#clip-path-7);}.cls-41{letter-spacing:0em;}.cls-42{letter-spacing:-0.01em;}.cls-43{clip-path:url(#clip-path-8);}.cls-44{letter-spacing:0.03em;}.cls-45{letter-spacing:-0.02em;}.cls-46{clip-path:url(#clip-path-9);}.cls-47,.cls-59,.cls-83{font-family:GTAmerica-Bold, GT America;font-weight:700;}.cls-48{letter-spacing:0em;}.cls-49{letter-spacing:-0.08em;}.cls-50{letter-spacing:-0.03em;}.cls-51{letter-spacing:0.01em;}.cls-52{stroke:#f59e00;}.cls-52,.cls-60,.cls-87{stroke-linejoin:round;stroke-width:3px;}.cls-53{clip-path:url(#clip-path-10);}.cls-54{clip-path:url(#clip-path-11);}.cls-55,.cls-59{fill:#a8ba00;}.cls-56{letter-spacing:-0.01em;}.cls-57{letter-spacing:0em;}.cls-58{clip-path:url(#clip-path-12);}.cls-60{stroke:#a8ba00;}.cls-61{clip-path:url(#clip-path-13);}.cls-62{letter-spacing:-0.02em;}.cls-63{letter-spacing:-0.04em;}.cls-64{letter-spacing:-0.04em;}.cls-65{clip-path:url(#clip-path-14);}.cls-66{clip-path:url(#clip-path-15);}.cls-67{clip-path:url(#clip-path-16);}.cls-68{letter-spacing:0.01em;}.cls-69{letter-spacing:0em;}.cls-70{clip-path:url(#clip-path-17);}.cls-71,.cls-83{fill:#008ea5;}.cls-72{letter-spacing:-0.01em;}.cls-73{letter-spacing:0.02em;}.cls-74{clip-path:url(#clip-path-18);}.cls-75{clip-path:url(#clip-path-19);}.cls-76{letter-spacing:-0.02em;}.cls-77{letter-spacing:0.03em;}.cls-78{clip-path:url(#clip-path-20);}.cls-79{letter-spacing:-0.02em;}.cls-80{letter-spacing:0.02em;}.cls-81{clip-path:url(#clip-path-21);}.cls-82{clip-path:url(#clip-path-22);}.cls-84{letter-spacing:0.02em;}.cls-85{letter-spacing:-0.03em;}.cls-86{letter-spacing:-0.02em;}.cls-87{stroke:#008ea5;}.cls-88{clip-path:url(#clip-path-23);}.cls-89{letter-spacing:-0.02em;}.cls-90{fill:url(#Dégradé_sans_nom);}.cls-91{clip-path:url(#clip-path-24);}.cls-92{fill:url(#Dégradé_sans_nom_2);}.cls-93{clip-path:url(#clip-path-25);}.cls-94{fill:url(#Dégradé_sans_nom_4);}.cls-95{clip-path:url(#clip-path-26);}.cls-96{fill:url(#Dégradé_sans_nom_5);}.cls-97{clip-path:url(#clip-path-27);}.cls-98{fill:url(#Dégradé_sans_nom_7);}.cls-99{clip-path:url(#clip-path-28);}.cls-100{fill:url(#Dégradé_sans_nom_8);}.cls-101{clip-path:url(#clip-path-29);}.cls-102{font-size:24px;}.cls-103{letter-spacing:-0.02em;}.cls-104{letter-spacing:-0.01em;}.cls-105{letter-spacing:-0.02em;}.cls-106{letter-spacing:-0.01em;}.cls-107{letter-spacing:0em;}.cls-108{letter-spacing:-0.04em;}.cls-109{letter-spacing:0em;}.cls-110{letter-spacing:-0.02em;}.cls-111{letter-spacing:-0.01em;}.cls-112{letter-spacing:0em;}.cls-113{clip-path:url(#clip-path-31);}</style><clipPath id="clip-path"><rect class="cls-1" width="1190.55" height="841.89"/></clipPath><clipPath id="clip-path-3"><rect class="cls-1" width="1190.55" height="841.89"/></clipPath><clipPath id="clip-path-4"><rect class="cls-1" x="785.65" y="401.83" width="341.15" height="89.91"/></clipPath><clipPath id="clip-path-5"><rect class="cls-1" x="785.65" y="305.76" width="341.15" height="88.31"/></clipPath><clipPath id="clip-path-6"><rect class="cls-1" x="785.65" y="496.79" width="343.38" height="87.2"/></clipPath><clipPath id="clip-path-7"><rect class="cls-1" x="785.65" y="590.64" width="341.15" height="88.32"/></clipPath><clipPath id="clip-path-8"><rect class="cls-1" x="785.65" y="210.8" width="342.1" height="88.31"/></clipPath><clipPath id="clip-path-9"><rect class="cls-1" x="784.15" y="135.12" width="344.15" height="69.97"/></clipPath><clipPath id="clip-path-10"><rect class="cls-1" x="785.65" y="686.54" width="341.15" height="88.31"/></clipPath><clipPath id="clip-path-11"><rect class="cls-1" x="62.81" y="495.68" width="341.15" height="88.32"/></clipPath><clipPath id="clip-path-12"><rect class="cls-1" x="61.31" y="135.12" width="344.15" height="69.97"/></clipPath><clipPath id="clip-path-13"><rect class="cls-1" x="62.81" y="400.72" width="341.15" height="88.32"/></clipPath><clipPath id="clip-path-14"><rect class="cls-1" x="62.81" y="210.8" width="341.15" height="88.31"/></clipPath><clipPath id="clip-path-15"><rect class="cls-1" x="62.81" y="590.64" width="341.15" height="88.32"/></clipPath><clipPath id="clip-path-16"><rect class="cls-1" x="62.81" y="686.54" width="341.15" height="88.31"/></clipPath><clipPath id="clip-path-17"><rect class="cls-1" x="424.7" y="400.72" width="341.15" height="88.32"/></clipPath><clipPath id="clip-path-18"><rect class="cls-1" x="424.7" y="305.76" width="341.15" height="88.31"/></clipPath><clipPath id="clip-path-19"><rect class="cls-1" x="424.7" y="686.54" width="343.28" height="88.32"/></clipPath><clipPath id="clip-path-20"><rect class="cls-1" x="424.7" y="495.68" width="341.15" height="88.32"/></clipPath><clipPath id="clip-path-21"><rect class="cls-1" x="424.7" y="210.8" width="341.15" height="88.31"/></clipPath><clipPath id="clip-path-22"><rect class="cls-1" x="423.2" y="135.12" width="344.15" height="66.97"/></clipPath><clipPath id="clip-path-23"><rect class="cls-1" x="424.7" y="590.64" width="347.56" height="88.32"/></clipPath><linearGradient id="Dégradé_sans_nom" y1="841.87" x2="1" y2="841.87" gradientTransform="matrix(0, -546.14, -546.14, 0, 460919.28, 763.94)" gradientUnits="userSpaceOnUse"><stop offset="0" stop-color="#fff"/><stop offset="0.01" stop-color="#fff"/><stop offset="0.13" stop-color="#fdf7ea"/><stop offset="0.38" stop-color="#f7e1b4"/><stop offset="0.74" stop-color="#edbf5d"/><stop offset="1" stop-color="#e6a51a"/></linearGradient><clipPath id="clip-path-24"><polygon class="cls-1" points="1136.69 217.8 1127.77 242.33 1145.62 242.33 1136.69 217.8"/></clipPath><linearGradient id="Dégradé_sans_nom_2" y1="841.87" x2="1" y2="841.87" gradientTransform="matrix(0, -546.14, -546.14, 0, 460919.03, 763.94)" xlink:href="#Dégradé_sans_nom"/><clipPath id="clip-path-25"><polygon class="cls-1" points="1136.69 763.94 1145.62 739.4 1127.77 739.4 1136.69 763.94"/></clipPath><linearGradient id="Dégradé_sans_nom_4" y1="841.87" x2="1" y2="841.87" gradientTransform="matrix(0, -546.14, -546.14, 0, 460558.34, 763.94)" gradientUnits="userSpaceOnUse"><stop offset="0" stop-color="#fff"/><stop offset="0.67" stop-color="#50b2c1"/><stop offset="1" stop-color="#008ea5"/></linearGradient><clipPath id="clip-path-26"><polygon class="cls-1" points="775.75 217.8 766.82 242.33 784.68 242.33 775.75 217.8"/></clipPath><linearGradient id="Dégradé_sans_nom_5" y1="841.87" x2="1" y2="841.87" gradientTransform="matrix(0, -546.14, -546.14, 0, 460558.08, 763.94)" xlink:href="#Dégradé_sans_nom_4"/><clipPath id="clip-path-27"><polygon class="cls-1" points="775.75 763.94 784.68 739.4 766.82 739.4 775.75 763.94"/></clipPath><linearGradient id="Dégradé_sans_nom_7" y1="841.87" x2="1" y2="841.87" gradientTransform="matrix(0, -546.14, -546.14, 0, 460196.92, 763.94)" gradientUnits="userSpaceOnUse"><stop offset="0" stop-color="#fff"/><stop offset="0.09" stop-color="#fbfbf2"/><stop offset="0.26" stop-color="#eff2d0"/><stop offset="0.48" stop-color="#dce398"/><stop offset="0.75" stop-color="#c2ce4c"/><stop offset="1" stop-color="#a8ba00"/></linearGradient><clipPath id="clip-path-28"><polygon class="cls-1" points="414.33 217.8 405.4 242.33 423.26 242.33 414.33 217.8"/></clipPath><linearGradient id="Dégradé_sans_nom_8" y1="841.87" x2="1" y2="841.87" gradientTransform="matrix(0, -546.14, -546.14, 0, 460196.67, 763.94)" xlink:href="#Dégradé_sans_nom_7"/><clipPath id="clip-path-29"><polygon class="cls-1" points="414.33 763.94 423.26 739.4 405.4 739.4 414.33 763.94"/></clipPath><clipPath id="clip-path-31"><rect class="cls-1" x="62.81" y="305.76" width="341.15" height="88.31"/></clipPath></defs><title>Plan de travail</title><g class="cls-2"><g class="cls-2"><path d="M97.76,45.29a5.39,5.39,0,0,1-3.63,1.17h-.84V42.14h.57a4.54,4.54,0,0,0,4.8-3.39h3.93v21.3H97.76Zm14.58,14.76h-5.13V55.13h5.13Zm11.34,0V38.75h5.07v21.3Zm9.51-21.3h8.49c6.39,0,10.53,4.26,10.53,10.53s-4.14,10.77-10.59,10.77h-8.43Zm8.22,17.58c3.6,0,5.58-3.24,5.58-7s-1.86-6.81-5.52-6.81h-3.21V56.33Zm28.68,0v3.75H155.3V38.75h14.58V42.5h-9.51v4.8h9V51h-9V56.3Zm3.69-17.55h5.61l6.84,12.15a22.16,22.16,0,0,1,1.29,2.76h.06c0-.84,0-1.71,0-2.73V38.75h4.65v21.3h-5.4l-7.08-12.27a20.24,20.24,0,0,1-1.26-2.61h-.06c0,.87,0,1.77,0,2.82V60.05h-4.65Zm38.27,4h-6.2V60.05h-5V42.77h-6.18v-4h17.42Zm2.41,17.28V38.75h5.07v21.3ZM229,42.59v4.92h9v3.78h-9v8.76H224V38.75h14.57v3.84Zm12.54,17.46V38.75h5.07v21.3Zm8.16-10.62c0-6.72,4-11.19,10.44-11.19,5.43,0,8.84,3,9.41,7.65l-5.12.9c-.3-2.82-1.86-4.47-4.41-4.47-3.24,0-5.13,2.73-5.13,7.08s1.92,7.05,5.28,7.05c2.37,0,4-1.62,4.38-4.38l5.12,1.11c-1,4.5-4.31,7.38-9.59,7.38C253.37,60.56,249.74,56.15,249.74,49.43Zm34.88,5.64h-7.86l-1.62,5h-5.07l7.74-21.3h5.79l7.74,21.3h-5.1Zm-1.17-3.57-1.95-5.94a18.76,18.76,0,0,1-.78-3h-.06a18.76,18.76,0,0,1-.78,3l-1.95,5.94Zm23.19-8.73h-6.21V60.05h-5V42.77h-6.18v-4h17.43ZM309,60.05V38.75h5.07v21.3ZM317.2,49.4c0-6.87,4.11-11.16,10.5-11.16s10.5,4.29,10.5,11.16-4.11,11.16-10.5,11.16S317.2,56.24,317.2,49.4Zm15.78,0c0-4.5-2-7.2-5.28-7.2s-5.31,2.7-5.31,7.2,2,7.2,5.31,7.2S333,53.9,333,49.4Zm8.31-10.65h5.61l6.84,12.15A22.16,22.16,0,0,1,355,53.66h.06c0-.84,0-1.71,0-2.73V38.75h4.65v21.3h-5.4l-7.08-12.27A20.24,20.24,0,0,1,346,45.17h-.06c0,.87,0,1.77,0,2.82V60.05h-4.65Zm30.27,0h8.49c6.39,0,10.53,4.26,10.53,10.53S386.44,60.05,380,60.05h-8.43Zm8.22,17.58c3.6,0,5.58-3.24,5.58-7s-1.86-6.81-5.52-6.81h-3.21V56.33Zm28.68,0v3.75H393.67V38.75h14.58V42.5h-9.51v4.8h9V51h-9V56.3Zm1.38-.69L413.59,53a6.17,6.17,0,0,0,5.79,3.66c2,0,3.66-.75,3.66-2.43S422.11,52,420,51.56L417.1,51c-3.72-.81-5.88-2.82-5.88-6.39,0-3.9,3.18-6.33,8.31-6.33,3.78,0,7,1.38,8.46,4.23l-3.3,2.79A6,6,0,0,0,419.2,42c-2,0-3.3.84-3.3,2.19s.84,2.07,3.09,2.58l3.09.66c3.78.84,5.82,2.64,5.82,6.3,0,4.05-3.12,6.84-8.7,6.84C414.61,60.56,411.31,58.61,409.84,55.61Zm41.7-12.84h-6.21V60.05h-5V42.77h-6.18v-4h17.43Zm20.73,17.28H467.2V51.2H459v8.85h-5.07V38.75H459V47.3h8.19V38.75h5.07ZM491.5,56.3v3.75H476.71V38.75h14.58V42.5h-9.51v4.8h9V51h-9V56.3ZM482,37.46l-3.48-3.54h4.17l3,3.54Zm13.17,1.29h7l3.93,13a14.92,14.92,0,0,1,.51,2.58h.06a16.5,16.5,0,0,1,.54-2.64l3.75-13H518v21.3h-4.62V45.53a21.43,21.43,0,0,1,.12-2.4h-.09A12.12,12.12,0,0,1,513,45.2l-4.29,14.85H504.4L499.93,45.2a10,10,0,0,1-.45-2h-.09c.06.72.12,1.53.12,2.37V60.05h-4.32Zm42,17.55v3.75H522.43V38.75H537V42.5H527.5v4.8h9V51h-9V56.3Zm1.38-.69L542.35,53a6.17,6.17,0,0,0,5.79,3.66c2,0,3.66-.75,3.66-2.43s-.93-2.19-3.09-2.64l-2.85-.6c-3.72-.81-5.88-2.82-5.88-6.39,0-3.9,3.18-6.33,8.31-6.33,3.78,0,7,1.38,8.46,4.23l-3.3,2.79A6,6,0,0,0,548,42c-2,0-3.3.84-3.3,2.19s.84,2.07,3.09,2.58l3.09.66c3.78.84,5.82,2.64,5.82,6.3,0,4.05-3.12,6.84-8.7,6.84C543.37,60.56,540.07,58.61,538.6,55.61Zm43.26.69v3.75H567.07V38.75h14.58V42.5h-9.51v4.8h9V51h-9V56.3Zm19.23-13.53h-6.21V60.05h-5V42.77h-6.18v-4h17.43ZM623.53,56.3v3.75H608.74V38.75h14.58V42.5h-9.51v4.8h9V51h-9V56.3Zm3.69-17.55h5.61l6.84,12.15A22.16,22.16,0,0,1,641,53.66H641c0-.84,0-1.71,0-2.73V38.75h4.65v21.3h-5.4l-7.08-12.27a20.24,20.24,0,0,1-1.26-2.61h-.06c0,.87,0,1.77,0,2.82V60.05h-4.65Zm24.3,21.72a16,16,0,0,1-3.15-.27V56.06a15.56,15.56,0,0,0,2,.15c1.92,0,3.09-.9,3.09-3.39V38.75h5.07v15C658.57,58.43,655.81,60.47,651.52,60.47Zm25.92-4.17v3.75H662.65V38.75h14.58V42.5h-9.51v4.8h9V51h-9V56.3Zm8.4-17.55V52.4a4,4,0,1,0,7.92,0V38.75h5.07V52.61c0,4.86-3.36,8-9,8s-9-3.09-9-8V38.75ZM707.71,49l-6.63-10.23h5.61l3.51,6a6.11,6.11,0,0,1,.63,1.35h.06a5.54,5.54,0,0,1,.63-1.35l3.6-6h5.49L714,49.28l7.11,10.77h-5.7l-3.87-6.3a5.73,5.73,0,0,1-.84-1.56h-.06a5.68,5.68,0,0,1-.78,1.53l-3.72,6.33h-5.49Z"/><path d="M98.33,78.62a4.55,4.55,0,0,1-3.66,1.65h-1v-2h.6a4.33,4.33,0,0,0,4.35-3.54h1.86v21.3H98.33Zm11,17.43h-2.82V92.69h2.82Zm6.21-17.43a4.55,4.55,0,0,1-3.66,1.65h-1v-2h.6a4.33,4.33,0,0,0,4.35-3.54h1.86v21.3h-2.19Zm15,11,2.34-.33c.33,2.88,2.13,5.31,6.15,5.31,2.76,0,5.13-1.23,5.13-4s-1.68-3.63-4.32-4.14l-3.15-.63c-3.06-.6-5.25-2.25-5.25-5.7s2.79-5.91,7.23-5.91c4.17,0,7.35,1.86,7.71,6.18l-2.34.45c-.3-3.21-2.1-4.77-5.43-4.77-2.88,0-4.77,1.47-4.77,3.84,0,2.13,1.2,3.36,3.78,3.9l3.15.63c3.27.66,5.79,2.1,5.79,5.91,0,3.48-2.61,6.18-7.62,6.18C133.58,96.56,130.82,93.62,130.52,89.66Zm24.06-2.16-7.35-12.75h2.61L155,84c.33.6.54,1.05.72,1.44h.06a12.69,12.69,0,0,1,.72-1.44l5.16-9.21h2.61L157,87.5v8.55h-2.37Zm12.93-12.75h2.82L180.2,91a19.23,19.23,0,0,1,1.26,2.46h.06c-.06-.72-.09-1.47-.09-2.61V74.75h2.1v21.3h-2.82l-9.87-16.29a16,16,0,0,1-1.26-2.46h-.06c.06.72.09,1.47.09,2.61V96.05h-2.1Zm35.55,2h-6.87V96.05h-2.34V76.73H187v-2h16.08Zm19.65,19.32h-2.34v-9.9H208.82v9.9h-2.31V74.75h2.31v9.42h11.55V74.75h2.34Zm19.47-2v2H229V74.75h13v2H231.29v7.41h10.17v2H231.29v7.95Zm-8.13-20.61L231,70.37h2.37l2.73,3.09Zm10.77,16.2,2.34-.33c.33,2.88,2.13,5.31,6.15,5.31,2.76,0,5.13-1.23,5.13-4s-1.68-3.63-4.32-4.14L251,85.85c-3.06-.6-5.25-2.25-5.25-5.7s2.79-5.91,7.23-5.91c4.17,0,7.35,1.86,7.71,6.18l-2.34.45c-.3-3.21-2.1-4.77-5.43-4.77-2.88,0-4.77,1.47-4.77,3.84,0,2.13,1.2,3.36,3.78,3.9l3.15.63c3.27.66,5.79,2.1,5.79,5.91,0,3.48-2.61,6.18-7.62,6.18C247.88,96.56,245.12,93.62,244.82,89.66Zm33.78,4.41v2H265.4V74.75h13v2H267.71v7.41h10.17v2H267.71v7.95Zm13.08-19.32h6.75c6.12,0,10.1,4.26,10.1,10.62s-4,10.68-10.16,10.68h-6.69Zm6.66,19.32c4.83,0,7.71-3.81,7.71-8.7,0-5.07-2.79-8.64-7.65-8.64H294V94.07Zm28,0v2h-13.2V74.75h13v2H315.47v7.41h10.17v2H315.47v7.95Zm13.08-19.32h2.31V94.07h10.1v2H339.44ZM368,89.84h-9.18l-2.25,6.21h-2.43l8.13-21.3h2.31l8.1,21.3h-2.43Zm-.72-2-3.15-8.73c-.3-.84-.51-1.41-.69-2.07h-.06a18.5,18.5,0,0,1-.69,2.07l-3.15,8.73Zm14.4-2.52c0-6.54,3.33-11.1,9.57-11.1,5.13,0,7.83,3.09,8.37,7.5l-2.37.24c-.45-3.45-2.55-5.73-6.12-5.73-4.47,0-7,3.63-7,9.06,0,5.22,2.37,9.21,7.08,9.21,3.3,0,5.52-2.13,6.18-5.55l2.25.36c-.78,4-3.33,7.23-8.46,7.23C384.64,96.56,381.7,91.52,381.7,85.34Zm20.85.06c0-6.93,3.78-11.16,9.6-11.16s9.6,4.23,9.6,11.16-3.78,11.16-9.6,11.16S402.55,92.18,402.55,85.4Zm16.77,0c0-5.64-2.67-9.18-7.17-9.18S405,79.76,405,85.4s2.7,9.18,7.17,9.18S419.32,91,419.32,85.4Zm7.08-10.65h2.82L439.09,91a19.23,19.23,0,0,1,1.26,2.46h.06c-.06-.72-.09-1.47-.09-2.61V74.75h2.1v21.3H439.6l-9.87-16.29a16,16,0,0,1-1.26-2.46h-.06c.06.72.09,1.47.09,2.61V96.05h-2.1Zm20.67,10.59c0-6.54,3.33-11.1,9.57-11.1,5.13,0,7.83,3.09,8.37,7.5l-2.37.24c-.45-3.45-2.55-5.73-6.12-5.73-4.47,0-7,3.63-7,9.06,0,5.22,2.37,9.21,7.08,9.21,3.3,0,5.52-2.13,6.18-5.55l2.25.36c-.78,4-3.33,7.23-8.46,7.23C450,96.56,447.07,91.52,447.07,85.34Zm35.82,8.73v2h-13.2V74.75h13v2H472v7.41h10.17v2H472v7.95ZM495.22,87h-4.89v9.09H488V74.75h7.62c5.49,0,6.93,3.06,6.93,6.09a5.65,5.65,0,0,1-4.89,5.82l5.55,9.39h-2.64Zm-4.89-2h5.1c3.45,0,4.68-1.83,4.68-4.14s-1.2-4.11-4.68-4.11h-5.1ZM520,76.73H513.1V96.05h-2.34V76.73h-6.87v-2H520ZM532.6,89.84h-9.18l-2.25,6.21h-2.43l8.13-21.3h2.31l8.1,21.3h-2.43Zm-.72-2-3.15-8.73c-.3-.84-.51-1.41-.69-2.07H528a18.5,18.5,0,0,1-.69,2.07l-3.15,8.73Zm20.25-11.13h-6.87V96.05h-2.34V76.73h-6.87v-2h16.08Zm3.45,19.32V74.75h2.31v21.3Zm7-10.65c0-6.93,3.78-11.16,9.6-11.16s9.6,4.23,9.6,11.16-3.78,11.16-9.6,11.16S562.54,92.18,562.54,85.4Zm16.77,0c0-5.64-2.67-9.18-7.17-9.18S565,79.76,565,85.4s2.7,9.18,7.17,9.18S579.31,91,579.31,85.4Zm7.08-10.65h2.82L599.08,91a19.23,19.23,0,0,1,1.26,2.46h.06c-.06-.72-.09-1.47-.09-2.61V74.75h2.1v21.3h-2.82l-9.87-16.29a16,16,0,0,1-1.26-2.46h-.06c.06.72.09,1.47.09,2.61V96.05h-2.1Zm32.82,3.87a4.55,4.55,0,0,1-3.66,1.65h-1v-2h.6a4.33,4.33,0,0,0,4.35-3.54h1.86v21.3h-2.19Z"/><g class="cls-3"><g class="cls-4"><g class="cls-5"><rect class="cls-6" x="794.65" y="408.83" width="323.15" height="79.21" rx="12"/><text class="cls-7" transform="translate(815.32 425.49)">Amén<tspan class="cls-8" x="47.14" y="0">a</tspan><tspan class="cls-9" x="56.7" y="0">g</tspan><tspan x="66.02" y="0">e</tspan><tspan class="cls-10" x="75.64" y="0">r</tspan><tspan class="cls-11" x="81.34" y="0" xml:space="preserve"> des es</tspan><tspan class="cls-12" x="138.62" y="0">p</tspan><tspan class="cls-13" x="149.04" y="0">a</tspan><tspan x="158.67" y="0">ces en plein ai</tspan><tspan class="cls-14" x="275.5" y="0">r</tspan><tspan x="281.19" y="0"> </tspan></text><text class="cls-15" transform="translate(840.83 445.49)">a<tspan class="cls-16" x="9.38" y="0">v</tspan><tspan class="cls-17" x="17.59" y="0">ec une multitude d’us</tspan><tspan class="cls-18" x="193.61" y="0">a</tspan><tspan class="cls-9" x="203.15" y="0">g</tspan><tspan class="cls-17" x="212.47" y="0">es </tspan></text><text class="cls-7" transform="translate(809.27 465.49)"><tspan class="cls-19">(</tspan><tspan x="5.11" y="0">ma</tspan><tspan class="cls-20" x="29.92" y="0">r</tspan><tspan x="36.04" y="0">ch</tspan><tspan class="cls-21" x="56.05" y="0">é</tspan><tspan x="65.48" y="0">, conce</tspan><tspan class="cls-22" x="123.55" y="0">r</tspan><tspan x="130.48" y="0">t, B</tspan><tspan class="cls-8" x="157.68" y="0">B</tspan><tspan class="cls-23" x="169.4" y="0">Q</tspan><tspan x="182.01" y="0">, jeu</tspan><tspan class="cls-24" x="215.62" y="0">x</tspan><tspan x="224.04" y="0" xml:space="preserve"> en</tspan><tspan class="cls-25" x="248.88" y="0">f</tspan><tspan x="254.73" y="0">a</tspan><tspan class="cls-26" x="264.42" y="0">n</tspan><tspan class="cls-12" x="274.71" y="0">t</tspan><tspan class="cls-21" x="280.92" y="0">s</tspan><tspan x="289.71" y="0">, </tspan></text><text class="cls-7" transform="translate(901.83 485.49)"><tspan class="cls-8">a</tspan><tspan class="cls-9" x="9.56" y="0">g</tspan><tspan x="18.88" y="0">o</tspan><tspan class="cls-27" x="28.87" y="0">r</tspan><tspan x="35.05" y="0">a, </tspan><tspan class="cls-28" x="53.8" y="0">b</tspan><tspan class="cls-11" x="64.33" y="0">anc</tspan><tspan class="cls-29" x="93.94" y="0">s</tspan><tspan class="cls-17" x="102.63" y="0">)</tspan></text></g></g><g class="cls-4"><g class="cls-30"><rect class="cls-6" x="794.65" y="312.76" width="323.15" height="80.32" rx="12"/><text class="cls-7" transform="translate(844.01 349.98)">P<tspan class="cls-25" x="10.94" y="0">r</tspan><tspan class="cls-27" x="17.06" y="0">é</tspan><tspan class="cls-16" x="26.44" y="0">v</tspan><tspan class="cls-17" x="34.65" y="0">oi</tspan><tspan class="cls-31" x="49.3" y="0">r</tspan><tspan x="55.01" y="0" xml:space="preserve"> des </tspan><tspan class="cls-32" x="93.71" y="0">r</tspan><tspan class="cls-24" x="99.81" y="0">e</tspan><tspan class="cls-11" x="109.06" y="0">z</tspan><tspan class="cls-21" x="117.25" y="0"> </tspan><tspan x="121.84" y="0">t</tspan><tspan class="cls-27" x="128.12" y="0">r</tspan><tspan x="134.3" y="0">ans</tspan><tspan class="cls-28" x="163.4" y="0">p</tspan><tspan x="173.84" y="0">a</tspan><tspan class="cls-25" x="183.52" y="0">r</tspan><tspan x="189.64" y="0">e</tspan><tspan class="cls-33" x="199.26" y="0">n</tspan><tspan class="cls-12" x="209.53" y="0">t</tspan><tspan x="215.74" y="0">s </tspan></text><text class="cls-7" transform="translate(854.61 369.98)"><tspan class="cls-34">a</tspan><tspan class="cls-16" x="9.38" y="0">v</tspan><tspan class="cls-17" x="17.59" y="0">ec </tspan><tspan class="cls-28" x="41.44" y="0">c</tspan><tspan class="cls-35" x="50.85" y="0">a</tspan><tspan class="cls-36" x="60.41" y="0">f</tspan><tspan class="cls-17" x="66.17" y="0">és </tspan><tspan class="cls-19" x="89.51" y="0">e</tspan><tspan x="98.87" y="0">t co</tspan><tspan class="cls-37" x="129.38" y="0">m</tspan><tspan x="144.47" y="0">me</tspan><tspan class="cls-20" x="169.2" y="0">r</tspan><tspan x="175.32" y="0">ces</tspan></text></g></g><g class="cls-4"><g class="cls-38"><rect class="cls-6" x="794.65" y="503.79" width="323.15" height="79.21" rx="12"/><text class="cls-7" transform="translate(810.41 540.45)">Privil<tspan class="cls-18" x="39.94" y="0">é</tspan><tspan class="cls-17" x="49.41" y="0">gie</tspan><tspan class="cls-10" x="73.26" y="0">r</tspan><tspan class="cls-11" x="78.96" y="0" xml:space="preserve"> des es</tspan><tspan class="cls-13" x="136.24" y="0">p</tspan><tspan class="cls-12" x="146.68" y="0">a</tspan><tspan x="156.29" y="0">ces de </tspan><tspan class="cls-32" x="214.07" y="0">r</tspan><tspan x="220.17" y="0">enco</tspan><tspan class="cls-33" x="259.7" y="0">n</tspan><tspan x="269.98" y="0">t</tspan><tspan class="cls-20" x="276.26" y="0">r</tspan><tspan x="282.38" y="0">e </tspan></text><text class="cls-7" transform="translate(860.65 560.45)"><tspan class="cls-9">e</tspan><tspan class="cls-17" x="9.36" y="0">t des lo</tspan><tspan class="cls-28" x="69.17" y="0">c</tspan><tspan class="cls-11" x="78.59" y="0">au</tspan><tspan class="cls-39" x="98.6" y="0">x</tspan><tspan x="107.04" y="0" xml:space="preserve"> co</tspan><tspan class="cls-37" x="131.27" y="0">m</tspan><tspan x="146.36" y="0">muns</tspan></text></g></g><g class="cls-4"><g class="cls-40"><rect class="cls-6" x="794.65" y="597.64" width="323.15" height="80.32" rx="12"/><text class="cls-7" transform="translate(809.33 634.86)">C<tspan class="cls-25" x="12.65" y="0">r</tspan><tspan x="18.77" y="0">ée</tspan><tspan class="cls-31" x="38" y="0">r</tspan><tspan class="cls-11" x="43.7" y="0" xml:space="preserve"> des es</tspan><tspan class="cls-12" x="100.98" y="0">pa</tspan><tspan x="121.01" y="0">ces ou</tspan><tspan class="cls-16" x="174.15" y="0">v</tspan><tspan class="cls-17" x="182.36" y="0">e</tspan><tspan class="cls-22" x="191.97" y="0">r</tspan><tspan class="cls-13" x="198.9" y="0">t</tspan><tspan x="205.13" y="0">s </tspan><tspan class="cls-9" x="218.86" y="0">e</tspan><tspan class="cls-17" x="228.22" y="0">t</tspan><tspan class="cls-41" x="234.5" y="0"> </tspan><tspan x="239.2" y="0">ﬂuides </tspan></text><text class="cls-7" transform="translate(853.14 654.86)">app<tspan class="cls-20" x="30.67" y="0">r</tspan><tspan x="36.79" y="0">opriables </tspan><tspan class="cls-13" x="116.8" y="0">p</tspan><tspan x="127.24" y="0">a</tspan><tspan class="cls-31" x="136.92" y="0">r</tspan><tspan class="cls-21" x="142.63" y="0"> </tspan><tspan class="cls-32" x="147.22" y="0">t</tspan><tspan x="153.2" y="0">ou</tspan><tspan class="cls-42" x="173.52" y="0">.</tspan><tspan class="cls-34" x="177.67" y="0">t</tspan><tspan class="cls-26" x="183.65" y="0">e</tspan><tspan class="cls-17" x="193.1" y="0">.s</tspan></text></g></g><g class="cls-4"><g class="cls-43"><rect class="cls-6" x="794.65" y="217.8" width="323.15" height="80.32" rx="12"/><text class="cls-7" transform="translate(807.15 245.02)">« Un qua<tspan class="cls-22" x="72.31" y="0">r</tspan><tspan x="79.24" y="0">tie</tspan><tspan class="cls-14" x="99.79" y="0">r</tspan><tspan class="cls-11" x="105.48" y="0" xml:space="preserve"> animé su</tspan><tspan class="cls-31" x="183.85" y="0">r</tspan><tspan x="189.56" y="0" xml:space="preserve"> son pou</tspan><tspan class="cls-44" x="259.32" y="0">r</tspan><tspan class="cls-45" x="266.23" y="0">t</tspan><tspan class="cls-17" x="272.19" y="0">ou</tspan><tspan class="cls-31" x="292.51" y="0">r</tspan><tspan x="298.22" y="0"> </tspan></text><text class="cls-7" transform="translate(833.54 265.02)"><tspan class="cls-34">a</tspan><tspan class="cls-16" x="9.38" y="0">v</tspan><tspan class="cls-17" x="17.59" y="0">ec des es</tspan><tspan class="cls-12" x="93.94" y="0">pa</tspan><tspan x="113.97" y="0">ces plus i</tspan><tspan class="cls-21" x="190.85" y="0">n</tspan><tspan x="201.13" y="0">times </tspan></text><text class="cls-7" transform="translate(852.21 285.01)">au cœu<tspan class="cls-31" x="61.13" y="0">r</tspan><tspan x="66.83" y="0" xml:space="preserve"> des i</tspan><tspan class="cls-37" x="110.19" y="0">m</tspan><tspan x="125.28" y="0">meubles »</tspan></text></g></g><g class="cls-4"><g class="cls-46"><text class="cls-47" transform="translate(875.14 180.17)"><tspan class="cls-48">E</tspan><tspan x="11.07" y="0">S</tspan><tspan class="cls-49" x="22.34" y="0">P</tspan><tspan class="cls-50" x="32.69" y="0">A</tspan><tspan class="cls-11" x="45.36" y="0">CES PUB</tspan><tspan class="cls-51" x="122.25" y="0">L</tspan><tspan x="132.23" y="0">ICS</tspan></text><rect class="cls-52" x="794.65" y="143.62" width="323.15" height="58.97" rx="12"/></g></g><g class="cls-4"><g class="cls-53"><rect class="cls-6" x="794.65" y="693.54" width="323.15" height="80.32" rx="12"/><text class="cls-7" transform="translate(811.4 730.77)">D<tspan class="cls-27" x="12.89" y="0">é</tspan><tspan class="cls-16" x="22.27" y="0">v</tspan><tspan class="cls-17" x="30.47" y="0">eloppe</tspan><tspan class="cls-31" x="85.52" y="0">r</tspan><tspan class="cls-11" x="91.22" y="0" xml:space="preserve"> un qua</tspan><tspan class="cls-44" x="152.06" y="0">r</tspan><tspan x="158.97" y="0">tie</tspan><tspan class="cls-31" x="179.53" y="0">r</tspan><tspan x="185.24" y="0" xml:space="preserve"> co</tspan><tspan class="cls-37" x="209.46" y="0">n</tspan><tspan x="219.88" y="0">ne</tspan><tspan class="cls-9" x="239.95" y="0">c</tspan><tspan class="cls-34" x="249.17" y="0">t</tspan><tspan class="cls-17" x="255.15" y="0">é au </tspan></text><text class="cls-7" transform="translate(867.56 750.76)">pl<tspan class="cls-25" x="15.34" y="0">a</tspan><tspan class="cls-45" x="24.73" y="0">t</tspan><tspan class="cls-12" x="30.69" y="0">e</tspan><tspan x="40.23" y="0">au des Semailles</tspan></text></g></g><g class="cls-4"><g class="cls-54"><rect class="cls-55" x="71.81" y="502.68" width="323.15" height="80.32" rx="12"/><text class="cls-7" transform="translate(96.51 539.9)">Amén<tspan class="cls-8" x="47.14" y="0">a</tspan><tspan class="cls-9" x="56.7" y="0">g</tspan><tspan x="66.02" y="0">e</tspan><tspan class="cls-10" x="75.64" y="0">r</tspan><tspan class="cls-11" x="81.34" y="0" xml:space="preserve"> des p</tspan><tspan class="cls-9" x="130.53" y="0">o</tspan><tspan class="cls-56" x="140.27" y="0">ta</tspan><tspan class="cls-9" x="155.95" y="0">g</tspan><tspan class="cls-17" x="165.27" y="0">e</tspan><tspan class="cls-8" x="174.89" y="0">r</tspan><tspan x="181.17" y="0">s co</tspan><tspan class="cls-57" x="214.36" y="0">m</tspan><tspan x="229.46" y="0">muns </tspan></text><text class="cls-7" transform="translate(151.36 559.9)">pou<tspan class="cls-31" x="30.82" y="0">r</tspan><tspan x="36.52" y="0" xml:space="preserve"> les habi</tspan><tspan class="cls-26" x="104.96" y="0">t</tspan><tspan class="cls-11" x="111.08" y="0">a</tspan><tspan class="cls-26" x="120.76" y="0">n</tspan><tspan class="cls-17" x="131.06" y="0">t</tspan><tspan class="cls-8" x="137.34" y="0">.</tspan><tspan class="cls-33" x="141.5" y="0">e</tspan><tspan x="150.93" y="0">.s</tspan></text></g></g><g class="cls-4"><g class="cls-58"><text class="cls-59" transform="translate(154.53 180.17)">ENVI<tspan class="cls-25" x="42.7" y="0">R</tspan><tspan class="cls-11" x="54.88" y="0">ONNEMENT</tspan></text><rect class="cls-60" x="71.81" y="143.62" width="323.15" height="58.97" rx="12"/></g></g><g class="cls-4"><g class="cls-61"><rect class="cls-55" x="71.81" y="407.72" width="323.15" height="80.32" rx="12"/><text class="cls-7" transform="translate(119.84 444.94)">Co<tspan class="cls-37" x="22.64" y="0">n</tspan><tspan x="33.07" y="0">ne</tspan><tspan class="cls-27" x="53.14" y="0">c</tspan><tspan class="cls-45" x="62.37" y="0">t</tspan><tspan x="68.33" y="0">e</tspan><tspan class="cls-10" x="77.94" y="0">r</tspan><tspan class="cls-11" x="83.64" y="0" xml:space="preserve"> les es</tspan><tspan class="cls-12" x="135.18" y="0">p</tspan><tspan class="cls-13" x="145.6" y="0">a</tspan><tspan x="155.23" y="0">ces</tspan><tspan class="cls-62" x="183.27" y="0"> </tspan><tspan class="cls-16" x="187.61" y="0">v</tspan><tspan class="cls-17" x="195.82" y="0">e</tspan><tspan class="cls-22" x="205.43" y="0">r</tspan><tspan class="cls-13" x="212.36" y="0">t</tspan><tspan x="218.59" y="0">s </tspan></text><text class="cls-7" transform="translate(180.09 464.94)"><tspan class="cls-25">a</tspan><tspan class="cls-16" x="9.4" y="0">v</tspan><tspan x="17.6" y="0">ec le</tspan><tspan class="cls-63" x="55.91" y="0"> </tspan><tspan class="cls-64" x="59.96" y="0">V</tspan><tspan x="70.09" y="0">oi</tspan><tspan class="cls-32" x="84.74" y="0">r</tspan><tspan class="cls-27" x="90.84" y="0">e</tspan><tspan x="100.22" y="0">t</tspan></text></g></g><g class="cls-4"><g class="cls-65"><rect class="cls-55" x="71.81" y="217.8" width="323.15" height="80.32" rx="12"/><text class="cls-7" transform="translate(134.54 255.02)">Pla<tspan class="cls-33" x="25.47" y="0">n</tspan><tspan class="cls-34" x="35.75" y="0">t</tspan><tspan class="cls-17" x="41.72" y="0">e</tspan><tspan class="cls-31" x="51.33" y="0">r</tspan><tspan class="cls-11" x="57.04" y="0" xml:space="preserve"> de </tspan><tspan class="cls-24" x="86.78" y="0">g</tspan><tspan class="cls-27" x="95.99" y="0">r</tspan><tspan x="102.17" y="0">ands arb</tspan><tspan class="cls-32" x="173.3" y="0">r</tspan><tspan x="179.4" y="0">es </tspan></text><text class="cls-7" transform="translate(121.69 275.02)"><tspan class="cls-9">e</tspan><tspan class="cls-17" x="9.36" y="0">t amene</tspan><tspan class="cls-31" x="74.9" y="0">r</tspan><tspan x="80.6" y="0" xml:space="preserve"> de la biodi</tspan><tspan class="cls-27" x="170.12" y="0">v</tspan><tspan x="178.31" y="0">e</tspan><tspan class="cls-8" x="187.92" y="0">r</tspan><tspan class="cls-17" x="194.2" y="0">si</tspan><tspan class="cls-34" x="207.83" y="0">t</tspan><tspan class="cls-17" x="213.8" y="0">é</tspan></text></g></g><g class="cls-4"><g class="cls-66"><rect class="cls-55" x="71.81" y="597.64" width="323.15" height="80.32" rx="12"/><text class="cls-7" transform="translate(159.36 634.86)">Couloi<tspan class="cls-63" x="52.47" y="0">r</tspan><tspan x="58.16" y="0" xml:space="preserve"> de</tspan><tspan class="cls-62" x="83.12" y="0"> </tspan><tspan class="cls-16" x="87.46" y="0">v</tspan><tspan class="cls-17" x="95.67" y="0">e</tspan><tspan class="cls-25" x="105.28" y="0">r</tspan><tspan x="111.4" y="0">du</tspan><tspan class="cls-20" x="132.32" y="0">r</tspan><tspan x="138.44" y="0">e </tspan></text><text class="cls-7" transform="translate(151.58 654.86)">e<tspan class="cls-33" x="9.61" y="0">n</tspan><tspan x="19.89" y="0">t</tspan><tspan class="cls-25" x="26.17" y="0">r</tspan><tspan class="cls-17" x="32.29" y="0">e les i</tspan><tspan class="cls-37" x="79.52" y="0">m</tspan><tspan x="94.61" y="0">meubles</tspan></text></g></g><g class="cls-4"><g class="cls-67"><rect class="cls-55" x="71.81" y="693.54" width="323.15" height="80.32" rx="12"/><text class="cls-7" transform="translate(128.94 730.77)">M<tspan class="cls-27" x="15.82" y="0">e</tspan><tspan class="cls-68" x="25.2" y="0">t</tspan><tspan x="31.75" y="0">t</tspan><tspan class="cls-20" x="38.03" y="0">r</tspan><tspan x="44.15" y="0">e des arb</tspan><tspan class="cls-32" x="119.14" y="0">r</tspan><tspan x="125.24" y="0">es à</tspan><tspan class="cls-69" x="158.27" y="0"> </tspan><tspan x="162.95" y="0">ﬂeu</tspan><tspan class="cls-42" x="193.88" y="0">r</tspan><tspan x="200.16" y="0">s </tspan></text><text class="cls-7" transform="translate(167.28 750.76)">pou<tspan class="cls-31" x="30.82" y="0">r</tspan><tspan x="36.52" y="0" xml:space="preserve"> les abeilles</tspan></text></g></g><g class="cls-4"><g class="cls-70"><rect class="cls-71" x="433.7" y="407.72" width="323.15" height="80.32" rx="12"/><text class="cls-7" transform="translate(461.48 454.94)"><tspan class="cls-72">F</tspan><tspan class="cls-13" x="10.21" y="0">a</tspan><tspan x="19.84" y="0">cili</tspan><tspan class="cls-45" x="43.47" y="0">t</tspan><tspan x="49.43" y="0">e</tspan><tspan class="cls-10" x="59.04" y="0">r</tspan><tspan class="cls-11" x="64.74" y="0" xml:space="preserve"> l</tspan><tspan class="cls-16" x="74.36" y="0">’</tspan><tspan class="cls-41" x="78.44" y="0">a</tspan><tspan x="88.05" y="0">ccès à l’i</tspan><tspan class="cls-21" x="158.59" y="0">n</tspan><tspan class="cls-32" x="168.87" y="0">t</tspan><tspan x="174.85" y="0">e</tspan><tspan class="cls-73" x="184.46" y="0">r</tspan><tspan class="cls-25" x="191.28" y="0">f</tspan><tspan class="cls-12" x="197.13" y="0">a</tspan><tspan x="206.74" y="0">ce</tspan><tspan class="cls-26" x="225.82" y="0"> </tspan><tspan x="230.43" y="0">t</tspan><tspan class="cls-9" x="236.71" y="0">r</tspan><tspan x="242.87" y="0">am</tspan></text></g></g><g class="cls-4"><g class="cls-74"><rect class="cls-71" x="433.7" y="312.76" width="323.15" height="80.32" rx="12"/><text class="cls-7" transform="translate(495.26 359.98)">Privil<tspan class="cls-18" x="39.94" y="0">é</tspan><tspan class="cls-17" x="49.41" y="0">gie</tspan><tspan class="cls-10" x="73.26" y="0">r</tspan><tspan class="cls-11" x="78.96" y="0" xml:space="preserve"> les pi</tspan><tspan class="cls-9" x="127.08" y="0">é</tspan><tspan class="cls-45" x="136.44" y="0">t</tspan><tspan class="cls-17" x="142.4" y="0">on.n</tspan><tspan class="cls-33" x="177.58" y="0">e</tspan><tspan x="187.02" y="0">.s </tspan></text></g></g><g class="cls-4"><g class="cls-75"><rect class="cls-71" x="433.7" y="693.54" width="323.15" height="80.32" rx="12"/><text class="cls-7" transform="translate(445.16 740.77)">Amén<tspan class="cls-8" x="47.14" y="0">a</tspan><tspan class="cls-9" x="56.7" y="0">g</tspan><tspan x="66.02" y="0">e</tspan><tspan class="cls-10" x="75.64" y="0">r</tspan><tspan class="cls-11" x="81.34" y="0" xml:space="preserve"> des</tspan><tspan class="cls-76" x="115.27" y="0"> </tspan><tspan class="cls-16" x="119.59" y="0">v</tspan><tspan class="cls-17" x="127.8" y="0">élo</tspan><tspan class="cls-56" x="152.24" y="0">st</tspan><tspan class="cls-34" x="167.2" y="0">a</tspan><tspan class="cls-17" x="176.58" y="0">tions cou</tspan><tspan class="cls-16" x="251.49" y="0">v</tspan><tspan x="259.7" y="0">e</tspan><tspan class="cls-77" x="269.31" y="0">r</tspan><tspan class="cls-34" x="276.22" y="0">t</tspan><tspan class="cls-17" x="282.2" y="0">es</tspan></text></g></g><g class="cls-4"><g class="cls-78"><rect class="cls-71" x="433.7" y="502.68" width="323.15" height="80.32" rx="12"/><text class="cls-7" transform="translate(455.51 539.9)">Ne <tspan class="cls-13" x="27.77" y="0">p</tspan><tspan x="38.21" y="0">as p</tspan><tspan class="cls-32" x="72.13" y="0">r</tspan><tspan x="78.23" y="0">opose</tspan><tspan class="cls-10" x="127.28" y="0">r</tspan><tspan class="cls-11" x="132.98" y="0" xml:space="preserve"> de </tspan><tspan class="cls-56" x="162.72" y="0">s</tspan><tspan class="cls-26" x="171.54" y="0">t</tspan><tspan class="cls-79" x="177.66" y="0">a</tspan><tspan class="cls-17" x="187.05" y="0">tio</tspan><tspan class="cls-37" x="207.99" y="0">n</tspan><tspan x="218.41" y="0">neme</tspan><tspan class="cls-26" x="263.21" y="0">n</tspan><tspan class="cls-17" x="273.51" y="0">t </tspan></text><text class="cls-7" transform="translate(552.52 559.9)">en su<tspan class="cls-80" x="44.14" y="0">r</tspan><tspan class="cls-25" x="50.94" y="0">f</tspan><tspan class="cls-12" x="56.79" y="0">a</tspan><tspan x="66.4" y="0">ce</tspan></text></g></g><g class="cls-4"><g class="cls-81"><rect class="cls-71" x="433.7" y="217.8" width="323.15" height="80.32" rx="12"/><text class="cls-7" transform="translate(460.32 255.02)">Do<tspan class="cls-37" x="22.88" y="0">n</tspan><tspan x="33.3" y="0">ne</tspan><tspan class="cls-31" x="53.37" y="0">r</tspan><tspan x="59.08" y="0" xml:space="preserve"> d</tspan><tspan class="cls-79" x="74.43" y="0">a</tspan><tspan class="cls-16" x="83.83" y="0">v</tspan><tspan x="92.03" y="0">a</tspan><tspan class="cls-26" x="101.72" y="0">n</tspan><tspan class="cls-56" x="112.01" y="0">t</tspan><tspan class="cls-8" x="118.15" y="0">a</tspan><tspan class="cls-29" x="127.71" y="0">g</tspan><tspan class="cls-17" x="137.01" y="0">e de pl</tspan><tspan class="cls-12" x="191.7" y="0">a</tspan><tspan x="201.31" y="0">ce à une </tspan></text><text class="cls-7" transform="translate(494.02 275.02)">mobili<tspan class="cls-32" x="49.86" y="0">t</tspan><tspan x="55.83" y="0">é douce sécurisée</tspan></text></g></g><g class="cls-4"><g class="cls-82"><text class="cls-83" transform="translate(522.25 178.67)">DÉP<tspan class="cls-84" x="36.18" y="0">L</tspan><tspan class="cls-85" x="46.42" y="0">A</tspan><tspan class="cls-11" x="59.08" y="0">CEMEN</tspan><tspan class="cls-86" x="124.25" y="0">T</tspan><tspan x="134.67" y="0">S</tspan></text><rect class="cls-87" x="433.7" y="143.62" width="323.15" height="55.97" rx="12"/></g></g><g class="cls-4"><g class="cls-88"><rect class="cls-71" x="433.7" y="597.64" width="323.15" height="80.32" rx="12"/><text class="cls-7" transform="translate(501.12 634.86)">Mutualise<tspan class="cls-14" x="80.53" y="0">r</tspan><tspan x="86.22" y="0" xml:space="preserve"> les </tspan><tspan class="cls-13" x="119.18" y="0">p</tspan><tspan x="129.62" y="0">arkin</tspan><tspan class="cls-89" x="170.55" y="0">g</tspan><tspan x="179.71" y="0">s </tspan></text><text class="cls-7" transform="translate(440.31 654.86)"><tspan class="cls-9">e</tspan><tspan class="cls-17" x="9.36" y="0">t </tspan><tspan class="cls-20" x="20.41" y="0">r</tspan><tspan x="26.53" y="0">édui</tspan><tspan class="cls-25" x="61.72" y="0">r</tspan><tspan x="67.84" y="0">e les pl</tspan><tspan class="cls-41" x="125.75" y="0">a</tspan><tspan x="135.36" y="0">ces de </tspan><tspan class="cls-56" x="193.14" y="0">st</tspan><tspan class="cls-32" x="208.1" y="0">a</tspan><tspan x="217.47" y="0">tio</tspan><tspan class="cls-37" x="238.41" y="0">n</tspan><tspan class="cls-17" x="248.83" y="0">neme</tspan><tspan class="cls-21" x="293.63" y="0">n</tspan><tspan x="303.91" y="0">t</tspan></text></g></g></g><polyline class="cls-90" points="1139.69 232.03 1139.69 749.7 1133.69 749.7 1133.69 232.03"/><g class="cls-91"><rect class="cls-92" x="1127.76" y="217.8" width="17.86" height="24.54"/></g><g class="cls-93"><rect class="cls-92" x="1127.76" y="739.4" width="17.86" height="24.54"/></g><polyline class="cls-94" points="778.75 232.03 778.75 749.7 772.75 749.7 772.75 232.03"/><g class="cls-95"><rect class="cls-96" x="766.82" y="217.8" width="17.86" height="24.54"/></g><g class="cls-97"><rect class="cls-96" x="766.82" y="739.4" width="17.86" height="24.54"/></g><polyline class="cls-98" points="417.33 232.03 417.33 749.7 411.33 749.7 411.33 232.03"/><g class="cls-99"><rect class="cls-100" x="405.4" y="217.8" width="17.86" height="24.54"/></g><g class="cls-101"><rect class="cls-100" x="405.4" y="739.4" width="17.86" height="24.54"/></g><text class="cls-102" transform="translate(92.63 124.43)">Enjeu<tspan class="cls-103" x="61.32" y="0">x</tspan><tspan class="cls-104" x="72.58" y="0"> </tspan><tspan x="78.72" y="0">thém</tspan><tspan class="cls-105" x="134.13" y="0">a</tspan><tspan x="146.66" y="0">tique</tspan><tspan class="cls-106" x="201.84" y="0">s</tspan><tspan x="213.53" y="0">, cla</tspan><tspan class="cls-8" x="257.61" y="0">s</tspan><tspan x="269.4" y="0">sés </tspan><tspan class="cls-107" x="312.48" y="0">p</tspan><tspan x="326.37" y="0">a</tspan><tspan class="cls-108" x="339.28" y="0">r</tspan><tspan class="cls-109" x="346.87" y="0" xml:space="preserve"> o</tspan><tspan class="cls-105" x="366.55" y="0">r</tspan><tspan x="374.71" y="0">d</tspan><tspan class="cls-110" x="388.82" y="0">r</tspan><tspan x="396.98" y="0">e de </tspan><tspan class="cls-105" x="449.44" y="0">r</tspan><tspan x="457.6" y="0">écur</tspan><tspan class="cls-110" x="505.36" y="0">r</tspan><tspan x="513.52" y="0">ence lo</tspan><tspan class="cls-111" x="591.86" y="0">r</tspan><tspan x="600.21" y="0">s des discu</tspan><tspan class="cls-111" x="722.44" y="0">s</tspan><tspan class="cls-112" x="734.2" y="0">sions</tspan></text><g class="cls-3"><g class="cls-4"><g class="cls-113"><rect class="cls-55" x="71.81" y="312.76" width="323.15" height="80.32" rx="12"/><text class="cls-7" transform="translate(142.29 359.98)"><tspan class="cls-64">V</tspan><tspan class="cls-8" x="10.13" y="0">é</tspan><tspan class="cls-9" x="19.62" y="0">gé</tspan><tspan class="cls-56" x="38.3" y="0">t</tspan><tspan class="cls-11" x="44.44" y="0">alise</tspan><tspan class="cls-31" x="82.21" y="0">r</tspan><tspan x="87.91" y="0" xml:space="preserve"> les</tspan><tspan class="cls-26" x="116.1" y="0"> </tspan><tspan class="cls-34" x="120.71" y="0">t</tspan><tspan class="cls-17" x="126.68" y="0">oitu</tspan><tspan class="cls-32" x="157.95" y="0">r</tspan><tspan class="cls-17" x="164.05" y="0">es</tspan></text></g></g></g></g></g></svg>