<svg id="Calque_1" data-name="Calque 1" xmlns="http://www.w3.org/2000/svg" xmlns:xlink="http://www.w3.org/1999/xlink" viewBox="0 0 1190.55 841.89"><defs><style>.cls-1,.cls-3{fill:none;}.cls-2{clip-path:url(#clip-path);}.cls-3{stroke:#2f77b0;stroke-miterlimit:10;stroke-width:1.25px;}.cls-4{fill:#2f77b0;}.cls-5{clip-path:url(#clip-path-3);}.cls-6{opacity:0.8;}.cls-7{clip-path:url(#clip-path-4);}.cls-8{fill:#f59e00;}.cls-9{clip-path:url(#clip-path-5);}.cls-10{clip-path:url(#clip-path-6);}.cls-11{fill:#ffce00;}.cls-12{clip-path:url(#clip-path-7);}.cls-13{clip-path:url(#clip-path-8);}.cls-14{fill:#a8ba00;}.cls-15{clip-path:url(#clip-path-9);}.cls-16{clip-path:url(#clip-path-10);}.cls-17{fill:#008ea5;}.cls-18{clip-path:url(#clip-path-11);}.cls-19{fill:#fff;}</style><clipPath id="clip-path"><rect class="cls-1" width="1190.55" height="841.89"/></clipPath><clipPath id="clip-path-3"><rect class="cls-1" width="1190.55" height="841.89"/></clipPath><clipPath id="clip-path-4"><rect class="cls-1" x="218.18" y="107.14" width="320.95" height="210.58"/></clipPath><clipPath id="clip-path-5"><rect class="cls-1" x="722.87" y="523.61" width="147.31" height="82.14"/></clipPath><clipPath id="clip-path-6"><rect class="cls-1" x="646.92" y="188.02" width="320.95" height="210.58"/></clipPath><clipPath id="clip-path-7"><rect class="cls-1" x="787.52" y="616.62" width="182.32" height="109.29"/></clipPath><clipPath id="clip-path-8"><rect class="cls-1" x="430.78" y="358.1" width="320.95" height="210.58"/></clipPath><clipPath id="clip-path-9"><rect class="cls-1" x="497.27" y="293.96" width="103.04" height="66.47"/></clipPath><clipPath id="clip-path-10"><rect class="cls-1" x="218.18" y="515.33" width="320.95" height="210.58"/></clipPath><clipPath id="clip-path-11"><rect class="cls-1" x="616.57" y="107.14" width="124.3" height="82.14"/></clipPath></defs><g class="cls-2"><g class="cls-2"><path d="M97.76,45.29a5.39,5.39,0,0,1-3.63,1.17h-.84V42.14h.57a4.54,4.54,0,0,0,4.8-3.39h3.93v21.3H97.76Zm14.58,14.76h-5.13V55.13h5.13Zm9.06-4.44L125.15,53a6.17,6.17,0,0,0,5.79,3.66c2,0,3.66-.75,3.66-2.43s-.93-2.19-3.09-2.64l-2.85-.6c-3.72-.81-5.88-2.82-5.88-6.39,0-3.9,3.18-6.33,8.31-6.33,3.78,0,7,1.38,8.46,4.23l-3.3,2.79A6,6,0,0,0,130.76,42c-2,0-3.3.84-3.3,2.19s.84,2.07,3.09,2.58l3.09.66c3.78.84,5.82,2.64,5.82,6.3,0,4.05-3.12,6.84-8.7,6.84C126.17,60.56,122.87,58.61,121.4,55.61Zm25.26-3.27-7.08-13.59h5.34l3.75,7.86a7.25,7.25,0,0,1,.51,1.56h.06a7.25,7.25,0,0,1,.51-1.56l3.72-7.86h5.37l-7.08,13.59v7.71h-5.1ZM161,38.75h5.61l6.84,12.15a22.16,22.16,0,0,1,1.29,2.76h.06c0-.84,0-1.71,0-2.73V38.75h4.65v21.3H174l-7.08-12.27a20.24,20.24,0,0,1-1.26-2.61h-.06c0,.87,0,1.77,0,2.82V60.05H161Zm38.28,4H193V60.05h-5V42.77h-6.18v-4h17.43ZM220,60.05h-5.07V51.2h-8.19v8.85h-5.07V38.75h5.07V47.3h8.19V38.75H220Zm19.23-3.75v3.75H224.42V38.75H239V42.5h-9.51v4.8h9V51h-9V56.3Zm-9.48-18.84-3.48-3.54h4.17l3,3.54Zm10.85,18.15L244.33,53a6.17,6.17,0,0,0,5.79,3.66c2,0,3.66-.75,3.66-2.43s-.93-2.19-3.09-2.64l-2.85-.6c-3.72-.81-5.88-2.82-5.88-6.39,0-3.9,3.18-6.33,8.31-6.33,3.78,0,7,1.38,8.46,4.23l-3.3,2.79A6,6,0,0,0,249.94,42c-2,0-3.3.84-3.3,2.19s.84,2.07,3.09,2.58l3.09.66c3.78.84,5.82,2.64,5.82,6.3,0,4.05-3.12,6.84-8.7,6.84C245.35,60.56,242.05,58.61,240.58,55.61Zm35.85.69v3.75H261.64V38.75h14.58V42.5h-9.51v4.8h9V51h-9V56.3Zm11.1-17.55H296c6.39,0,10.53,4.26,10.53,10.53S302.41,60.05,296,60.05h-8.43Zm8.22,17.58c3.6,0,5.58-3.24,5.58-7s-1.86-6.81-5.52-6.81H292.6V56.33Zm28.68,0v3.75H309.64V38.75h14.58V42.5h-9.51v4.8h9V51h-9V56.3Zm11.1-17.55h5.07V55.94h8.64v4.11H335.53Zm29.82,16.32h-7.86l-1.62,5H350.8l7.74-21.3h5.79l7.74,21.3H367Zm-1.17-3.57-1.95-5.94a18.76,18.76,0,0,1-.78-3h-.06a18.76,18.76,0,0,1-.78,3l-1.95,5.94Zm15.18-2.07c0-6.72,4-11.19,10.44-11.19,5.43,0,8.85,3,9.42,7.65l-5.13.9c-.3-2.82-1.86-4.47-4.41-4.47-3.24,0-5.13,2.73-5.13,7.08s1.92,7.05,5.28,7.05c2.37,0,4-1.62,4.38-4.38l5.13,1.11c-1,4.5-4.32,7.38-9.6,7.38C383,60.56,379.36,56.15,379.36,49.43Zm21.63,0c0-6.87,4.11-11.16,10.5-11.16S422,42.53,422,49.4s-4.11,11.16-10.5,11.16S401,56.24,401,49.4Zm15.78,0c0-4.5-1.95-7.2-5.28-7.2s-5.31,2.7-5.31,7.2,2,7.2,5.31,7.2S416.77,53.9,416.77,49.4Zm8.31-10.65h5.61l6.84,12.15a22.16,22.16,0,0,1,1.29,2.76h.06c0-.84,0-1.71,0-2.73V38.75h4.65v21.3h-5.4L431,47.78a20.24,20.24,0,0,1-1.26-2.61h-.06c0,.87,0,1.77,0,2.82V60.05h-4.65Zm21.51,10.68c0-6.72,4-11.19,10.44-11.19,5.43,0,8.85,3,9.42,7.65l-5.13.9c-.3-2.82-1.86-4.47-4.41-4.47-3.24,0-5.13,2.73-5.13,7.08s1.92,7.05,5.28,7.05c2.37,0,4-1.62,4.38-4.38l5.13,1.11c-1,4.5-4.32,7.38-9.6,7.38C450.22,60.56,446.59,56.15,446.59,49.43Zm37.65,6.87v3.75H469.45V38.75H484V42.5h-9.51v4.8h9V51h-9V56.3Zm11.82-4.41H493v8.16h-5.07V38.75h9.36c5.4,0,7.8,2.64,7.8,6.54a5.89,5.89,0,0,1-4.17,5.85l4.71,8.91h-5.49ZM493,48.41h3.27c2.46,0,3.54-1.2,3.54-3.12s-1.05-3-3.54-3H493Zm30.6-5.64h-6.21V60.05h-5V42.77h-6.18v-4H523.6ZM536,55.07h-7.86l-1.62,5h-5.07l7.74-21.3H535l7.74,21.3h-5.1Zm-1.17-3.57-2-5.94a18.76,18.76,0,0,1-.78-3h-.06a18.76,18.76,0,0,1-.78,3l-1.95,5.94ZM558,42.77h-6.21V60.05h-5V42.77h-6.18v-4H558Zm2.4,17.28V38.75h5.07v21.3ZM568.6,49.4c0-6.87,4.11-11.16,10.5-11.16s10.5,4.29,10.5,11.16-4.11,11.16-10.5,11.16S568.6,56.24,568.6,49.4Zm15.78,0c0-4.5-2-7.2-5.28-7.2s-5.31,2.7-5.31,7.2,2,7.2,5.31,7.2S584.38,53.9,584.38,49.4Zm8.31-10.65h5.61l6.84,12.15a22.16,22.16,0,0,1,1.29,2.76h.06c0-.84,0-1.71,0-2.73V38.75h4.65v21.3h-5.4l-7.08-12.27a20.24,20.24,0,0,1-1.26-2.61h-.06c0,.87,0,1.77,0,2.82V60.05h-4.65ZM623,60.05V38.75H628v21.3Z"/><line class="cls-3" x1="591.15" y1="806.5" x2="764.9" y2="806.5"/><path d="M205.72,760.43h-4.08V768h-1.92V750.25h6.34c4.58,0,5.78,2.55,5.78,5.08a4.72,4.72,0,0,1-4.07,4.85l4.62,7.82h-2.2Zm-4.08-1.65h4.25c2.87,0,3.9-1.53,3.9-3.45s-1-3.43-3.9-3.43h-4.25Z"/><path d="M225.16,762.2h-9.07c0,2.83,1.58,4.55,4,4.55a3.49,3.49,0,0,0,3.52-2.67l1.48.6A5.06,5.06,0,0,1,220,768.3c-3.55,0-5.63-2.27-5.63-6.47s2.1-6.63,5.55-6.63,5.27,2,5.27,5.8Zm-1.77-1.65c0-2.57-1.3-3.95-3.52-3.95s-3.73,1.6-3.78,4.18h7.3Z"/><path d="M227.69,764.43l1.78-.3c.3,1.77,1.57,2.72,3.55,2.72,1.82,0,2.84-.87,2.84-2.12s-.7-1.75-2-2l-2.42-.48c-2.08-.4-3.25-1.52-3.25-3.42,0-2.1,1.77-3.63,4.6-3.63s4.57,1.23,4.82,3.45l-1.75.38c-.25-1.53-1.32-2.4-3.15-2.4s-2.82.8-2.82,2.12.77,1.75,2.07,2l2.45.48c2.22.45,3.2,1.52,3.2,3.35,0,2.22-1.68,3.72-4.62,3.72S228.09,766.93,227.69,764.43Z"/><path d="M239.27,755.5h2.3v-3.3l1.75-.75v4h3.22V757h-3.22v7.5c0,1.48.65,2.13,2,2.13a5.08,5.08,0,0,0,1.27-.15V768a5.87,5.87,0,0,1-1.73.22c-2.42,0-3.24-1.47-3.24-3.69V757h-2.3Z"/><path d="M249.72,750.5h2v2.75h-2Zm.12,5h1.72V768h-1.72Z"/><path d="M254.47,755.5h2.3v-3.3l1.75-.75v4h3.22V757h-3.22v7.5c0,1.48.64,2.13,1.94,2.13a5.17,5.17,0,0,0,1.28-.15V768a6,6,0,0,1-1.73.22c-2.42,0-3.24-1.47-3.24-3.69V757h-2.3Z"/><path d="M264.67,763.43V755.5h1.72v7.75c0,2.45,1.15,3.55,2.85,3.55,2.27,0,3.65-1.95,3.65-4.47V755.5h1.75V768H273v-2.57a4.29,4.29,0,0,1-4.05,2.87C265.82,768.3,264.67,766.4,264.67,763.43Z"/><path d="M277.54,755.5h2.3v-3.3l1.75-.75v4h3.22V757h-3.22v7.5c0,1.48.65,2.13,2,2.13a5,5,0,0,0,1.27-.15V768a5.84,5.84,0,0,1-1.72.22c-2.42,0-3.25-1.47-3.25-3.69V757h-2.3Z"/><path d="M288,750.5h2v2.75h-2Zm.12,5h1.73V768h-1.73Z"/><path d="M293.41,761.75c0-4.07,2.28-6.55,5.75-6.55s5.73,2.48,5.73,6.55-2.28,6.55-5.73,6.55S293.41,765.83,293.41,761.75Zm9.63,0c0-3.25-1.48-5-3.88-5s-3.9,1.77-3.9,5,1.48,5,3.9,5S303,765,303,761.75Z"/><path d="M308.46,755.5h1.65v2.75a4.26,4.26,0,0,1,4.28-3c2.8,0,4.25,1.73,4.25,5.08V768h-1.75v-7.62c0-2.43-1.05-3.68-3-3.68-2.25,0-3.67,1.8-3.67,4.73V768h-1.73Z"/><path d="M328.44,761.75c0-3.85,2.17-6.55,5.35-6.55a4,4,0,0,1,3.92,2.58v-7.9h1.75V768h-1.65v-2.65a4.35,4.35,0,0,1-4.22,2.95C330.49,768.3,328.44,765.65,328.44,761.75Zm9.3.28v-.53c0-2.85-1.38-4.75-3.7-4.75s-3.75,1.88-3.75,5,1.4,5,3.72,5S337.74,764.8,337.74,762Z"/><path d="M354,762.2h-9.07c0,2.83,1.57,4.55,4,4.55a3.49,3.49,0,0,0,3.52-2.67l1.48.6a5.07,5.07,0,0,1-5.13,3.62c-3.55,0-5.62-2.27-5.62-6.47s2.1-6.63,5.55-6.63,5.27,2,5.27,5.8Zm-1.77-1.65c0-2.57-1.3-3.95-3.53-3.95s-3.72,1.6-3.77,4.18h7.3Zm-2.78-7h-1.65l2.48-3.57h2.15Z"/><path d="M355.46,755.5h2.3v-3.3l1.75-.75v4h3.23V757h-3.23v7.5c0,1.48.65,2.13,1.95,2.13a5.17,5.17,0,0,0,1.28-.15V768a6,6,0,0,1-1.73.22c-2.42,0-3.25-1.47-3.25-3.69V757h-2.3Z"/><path d="M364.72,764.7a3.16,3.16,0,0,1,1.52-2.8,10.83,10.83,0,0,1,4.1-1.12l2.77-.33v-.2c0-2.57-.9-3.6-3-3.6-1.88,0-3,1-3.13,2.75h-1.87c.15-2.57,2.1-4.2,5-4.2,3.35,0,4.8,1.55,4.8,5.18v3.25a17.79,17.79,0,0,0,.4,4.37h-1.82a17,17,0,0,1-.23-2.5,4.29,4.29,0,0,1-4.35,2.8C366.36,768.3,364.72,766.85,364.72,764.7Zm8.42-2.15v-.8l-3.55.5c-2.13.3-3,1-3,2.4s1,2.2,2.72,2.2C371.59,766.85,373.14,765.1,373.14,762.55Z"/><path d="M379.16,750.5h2v2.75h-2Zm.13,5H381V768h-1.72Z"/><path d="M387.61,768h-1.72V749.88h1.72Z"/><path d="M394.34,768h-1.73V749.88h1.73Z"/><path d="M408.86,762.2h-9.07c0,2.83,1.57,4.55,4,4.55a3.49,3.49,0,0,0,3.52-2.67l1.48.6a5.07,5.07,0,0,1-5.13,3.62c-3.55,0-5.62-2.27-5.62-6.47s2.1-6.63,5.55-6.63,5.27,2,5.27,5.8Zm-1.77-1.65c0-2.57-1.3-3.95-3.53-3.95s-3.72,1.6-3.77,4.18h7.3Zm-2.78-7h-1.65l2.48-3.57h2.15Z"/><path d="M422.21,762.2h-9.07c0,2.83,1.57,4.55,4,4.55a3.49,3.49,0,0,0,3.52-2.67l1.48.6A5.07,5.07,0,0,1,417,768.3c-3.55,0-5.62-2.27-5.62-6.47s2.1-6.63,5.55-6.63,5.27,2,5.27,5.8Zm-1.77-1.65c0-2.57-1.3-3.95-3.53-3.95s-3.72,1.6-3.77,4.18h7.3Z"/><path d="M431.36,761.75c0-3.85,2.18-6.55,5.35-6.55a4,4,0,0,1,3.93,2.58v-7.9h1.75V768h-1.65v-2.65a4.37,4.37,0,0,1-4.23,2.95C433.41,768.3,431.36,765.65,431.36,761.75Zm9.3.28v-.53c0-2.85-1.37-4.75-3.7-4.75s-3.75,1.88-3.75,5,1.4,5,3.73,5S440.66,764.8,440.66,762Z"/><path d="M456.89,762.2h-9.08c0,2.83,1.58,4.55,4,4.55a3.51,3.51,0,0,0,3.53-2.67l1.47.6a5.06,5.06,0,0,1-5.12,3.62c-3.55,0-5.63-2.27-5.63-6.47s2.1-6.63,5.55-6.63,5.28,2,5.28,5.8Zm-1.78-1.65c0-2.57-1.3-3.95-3.52-3.95s-3.73,1.6-3.78,4.18h7.3Z"/><path d="M469.06,768h-1.72V749.88h1.72Z"/><path d="M472.81,764.7a3.16,3.16,0,0,1,1.53-2.8,10.83,10.83,0,0,1,4.1-1.12l2.77-.33v-.2c0-2.57-.9-3.6-3-3.6-1.88,0-3,1-3.13,2.75h-1.87c.15-2.57,2.1-4.2,5-4.2,3.35,0,4.8,1.55,4.8,5.18v3.25a17.79,17.79,0,0,0,.4,4.37h-1.82a17,17,0,0,1-.23-2.5,4.29,4.29,0,0,1-4.35,2.8C474.46,768.3,472.81,766.85,472.81,764.7Zm8.43-2.15v-.8l-3.55.5c-2.13.3-3.05,1-3.05,2.4s1.05,2.2,2.72,2.2C479.69,766.85,481.24,765.1,481.24,762.55Z"/><path d="M492.84,764.43l1.77-.3c.3,1.77,1.58,2.72,3.55,2.72S501,766,501,764.73s-.7-1.75-2-2l-2.43-.48c-2.07-.4-3.25-1.52-3.25-3.42,0-2.1,1.78-3.63,4.6-3.63s4.58,1.23,4.83,3.45L501,759c-.25-1.53-1.33-2.4-3.15-2.4s-2.83.8-2.83,2.12.78,1.75,2.08,2l2.45.48c2.22.45,3.2,1.52,3.2,3.35,0,2.22-1.68,3.72-4.63,3.72S493.24,766.93,492.84,764.43Z"/><path d="M516.11,762.2H507c0,2.83,1.57,4.55,4,4.55a3.49,3.49,0,0,0,3.52-2.67l1.48.6a5.07,5.07,0,0,1-5.13,3.62c-3.55,0-5.62-2.27-5.62-6.47s2.1-6.63,5.55-6.63,5.27,2,5.27,5.8Zm-1.77-1.65c0-2.57-1.3-3.95-3.53-3.95s-3.72,1.6-3.77,4.18h7.3Zm-2.78-7h-1.65l2.48-3.57h2.15Z"/><path d="M518.61,764.7a3.16,3.16,0,0,1,1.53-2.8,10.83,10.83,0,0,1,4.1-1.12l2.77-.33v-.2c0-2.57-.9-3.6-3-3.6-1.88,0-3,1-3.13,2.75H519c.15-2.57,2.1-4.2,5-4.2,3.35,0,4.8,1.55,4.8,5.18v3.25a17.79,17.79,0,0,0,.4,4.37h-1.82a17,17,0,0,1-.23-2.5,4.29,4.29,0,0,1-4.35,2.8C520.26,768.3,518.61,766.85,518.61,764.7Zm8.43-2.15v-.8l-3.55.5c-2.13.3-3,1-3,2.4s1,2.2,2.72,2.2C525.49,766.85,527,765.1,527,762.55Z"/><path d="M533.19,755.5h1.65v2.75a4.26,4.26,0,0,1,4.27-3c2.8,0,4.25,1.73,4.25,5.08V768h-1.75v-7.62c0-2.43-1.05-3.68-3-3.68-2.25,0-3.68,1.8-3.68,4.73V768h-1.72Z"/><path d="M546.54,761.75c0-4.07,2.17-6.55,5.67-6.55a4.73,4.73,0,0,1,5,4.53l-1.77.2c-.25-2.08-1.45-3.2-3.35-3.2-2.33,0-3.75,1.87-3.75,5s1.42,5,3.82,5c1.88,0,3-1.13,3.38-3.2l1.67.25a4.85,4.85,0,0,1-5,4.47C548.74,768.3,546.54,765.78,546.54,761.75Z"/><path d="M570.51,762.2h-9.07c0,2.83,1.57,4.55,4,4.55a3.49,3.49,0,0,0,3.52-2.67l1.48.6a5.07,5.07,0,0,1-5.13,3.62c-3.55,0-5.62-2.27-5.62-6.47s2.1-6.63,5.55-6.63,5.27,2,5.27,5.8Zm-1.78-1.65c0-2.57-1.29-3.95-3.52-3.95s-3.72,1.6-3.77,4.18h7.29Z"/><path d="M579.66,761.75c0-3.85,2.18-6.55,5.35-6.55a4,4,0,0,1,3.93,2.58v-7.9h1.74V768H589v-2.65a4.35,4.35,0,0,1-4.22,2.95C581.71,768.3,579.66,765.65,579.66,761.75Zm9.3.28v-.53c0-2.85-1.37-4.75-3.7-4.75s-3.75,1.88-3.75,5,1.4,5,3.73,5S589,764.8,589,762Z"/><path d="M605.19,762.2h-9.08c0,2.83,1.58,4.55,4,4.55a3.51,3.51,0,0,0,3.53-2.67l1.47.6A5.06,5.06,0,0,1,600,768.3c-3.55,0-5.63-2.27-5.63-6.47s2.1-6.63,5.55-6.63,5.28,2,5.28,5.8Zm-1.78-1.65c0-2.57-1.3-3.95-3.52-3.95s-3.73,1.6-3.78,4.18h7.3Z"/><path d="M614.34,761.75c0-4.07,2.17-6.55,5.67-6.55a4.73,4.73,0,0,1,5,4.53l-1.78.2c-.25-2.08-1.44-3.2-3.34-3.2-2.33,0-3.75,1.87-3.75,5s1.42,5,3.82,5c1.88,0,3-1.13,3.37-3.2l1.68.25a4.85,4.85,0,0,1-5,4.47C616.54,768.3,614.34,765.78,614.34,761.75Z"/><path d="M627.49,761.75c0-4.07,2.27-6.55,5.75-6.55s5.72,2.48,5.72,6.55-2.27,6.55-5.72,6.55S627.49,765.83,627.49,761.75Zm9.62,0c0-3.25-1.47-5-3.87-5s-3.9,1.77-3.9,5,1.47,5,3.9,5S637.11,765,637.11,761.75Z"/><path d="M642.54,755.5h1.65v2.75a4.26,4.26,0,0,1,4.27-3c2.8,0,4.25,1.73,4.25,5.08V768H651v-7.62c0-2.43-1.05-3.68-3-3.68-2.25,0-3.68,1.8-3.68,4.73V768h-1.72Z"/><path d="M655.89,761.75c0-4.07,2.17-6.55,5.67-6.55a4.73,4.73,0,0,1,5.05,4.53l-1.78.2c-.25-2.08-1.44-3.2-3.35-3.2-2.32,0-3.74,1.87-3.74,5s1.42,5,3.82,5c1.88,0,3.05-1.13,3.37-3.2l1.68.25a4.85,4.85,0,0,1-5.05,4.47C658.09,768.3,655.89,765.78,655.89,761.75Z"/><path d="M679.86,762.2h-9.07c0,2.83,1.57,4.55,4,4.55a3.51,3.51,0,0,0,3.53-2.67l1.47.6a5.06,5.06,0,0,1-5.12,3.62c-3.55,0-5.62-2.27-5.62-6.47s2.1-6.63,5.54-6.63,5.28,2,5.28,5.8Zm-1.78-1.65c0-2.57-1.3-3.95-3.52-3.95s-3.72,1.6-3.77,4.18h7.29Z"/><path d="M689.06,755.2a2.48,2.48,0,0,1,.47,0v1.7h-.2a3.64,3.64,0,0,0-2.67,1,6,6,0,0,0-1.38,4.4V768h-1.72V755.5h1.63v3C685.76,756.63,687.13,755.2,689.06,755.2Z"/><path d="M691.34,755.5h2.3v-3.3l1.75-.75v4h3.22V757h-3.22v7.5c0,1.48.64,2.13,1.94,2.13a5.17,5.17,0,0,0,1.28-.15V768a6,6,0,0,1-1.73.22c-2.42,0-3.24-1.47-3.24-3.69V757h-2.3Z"/><path d="M700.59,764.7a3.16,3.16,0,0,1,1.52-2.8,10.83,10.83,0,0,1,4.1-1.12l2.77-.33v-.2c0-2.57-.9-3.6-3-3.6a2.78,2.78,0,0,0-3.12,2.75H701c.15-2.57,2.1-4.2,5-4.2,3.34,0,4.79,1.55,4.79,5.18v3.25a17.79,17.79,0,0,0,.4,4.37h-1.82a17,17,0,0,1-.23-2.5,4.29,4.29,0,0,1-4.35,2.8C702.24,768.3,700.59,766.85,700.59,764.7Zm8.42-2.15v-.8l-3.55.5c-2.12.3-3.05,1-3.05,2.4s1.05,2.2,2.73,2.2C707.46,766.85,709,765.1,709,762.55Z"/><path d="M712.89,755.5h2.3v-3.3l1.75-.75v4h3.22V757h-3.22v7.5c0,1.48.64,2.13,1.94,2.13a5.17,5.17,0,0,0,1.28-.15V768a6,6,0,0,1-1.73.22c-2.42,0-3.24-1.47-3.24-3.69V757h-2.3Z"/><path d="M723.34,750.5h2v2.75h-2Zm.12,5h1.73V768h-1.73Z"/><path d="M728.76,761.75c0-4.07,2.28-6.55,5.75-6.55s5.72,2.48,5.72,6.55-2.27,6.55-5.72,6.55S728.76,765.83,728.76,761.75Zm9.62,0c0-3.25-1.47-5-3.87-5s-3.9,1.77-3.9,5,1.47,5,3.9,5S738.38,765,738.38,761.75Z"/><path d="M743.81,755.5h1.65v2.75a4.26,4.26,0,0,1,4.27-3c2.8,0,4.25,1.73,4.25,5.08V768h-1.75v-7.62c0-2.43-1.05-3.68-3-3.68-2.25,0-3.68,1.8-3.68,4.73V768h-1.72Z"/><path d="M765.21,768V750.25h1.92V768Z"/><path d="M777.58,761.75c0-3.85,2.18-6.55,5.35-6.55a4,4,0,0,1,3.93,2.58v-7.9h1.75V768H787v-2.65a4.37,4.37,0,0,1-4.23,2.95C779.63,768.3,777.58,765.65,777.58,761.75Zm9.3.28v-.53c0-2.85-1.37-4.75-3.7-4.75s-3.75,1.88-3.75,5,1.4,5,3.73,5S786.88,764.8,786.88,762Z"/><path d="M793.08,763.43V755.5h1.73v7.75c0,2.45,1.15,3.55,2.85,3.55,2.27,0,3.65-1.95,3.65-4.47V755.5h1.75V768h-1.65v-2.57a4.29,4.29,0,0,1-4,2.87C794.23,768.3,793.08,766.4,793.08,763.43Z"/><path d="M816.91,753.85a3.85,3.85,0,0,1-3,1.38h-.8v-1.65h.47a3.62,3.62,0,0,0,3.65-3h1.55V768h-1.82Z"/><path d="M823.21,759.3c0-5.55,2.3-9,6.6-9s6.57,3.5,6.57,9.08-2.27,9-6.57,9S823.21,764.88,823.21,759.3Zm11.35,0c0-4.63-1.6-7.53-4.75-7.53s-4.75,2.88-4.75,7.5,1.6,7.53,4.75,7.53S834.56,764,834.56,759.33Z"/><path d="M845.56,761.75c0-4.07,2.27-6.55,5.75-6.55s5.72,2.48,5.72,6.55-2.27,6.55-5.72,6.55S845.56,765.83,845.56,761.75Zm9.62,0c0-3.25-1.47-5-3.87-5s-3.9,1.77-3.9,5,1.47,5,3.9,5S855.18,765,855.18,761.75Z"/><path d="M859.43,761.75c0-4.07,2.18-6.55,5.68-6.55a4.73,4.73,0,0,1,5,4.53l-1.78.2c-.25-2.08-1.45-3.2-3.35-3.2-2.32,0-3.75,1.87-3.75,5s1.43,5,3.83,5c1.87,0,3-1.13,3.37-3.2l1.68.25a4.85,4.85,0,0,1-5,4.47C861.63,768.3,859.43,765.78,859.43,761.75Z"/><path d="M871.58,755.5h2.3v-3.3l1.75-.75v4h3.23V757h-3.23v7.5c0,1.48.65,2.13,2,2.13a5.17,5.17,0,0,0,1.28-.15V768a6,6,0,0,1-1.73.22c-2.42,0-3.25-1.47-3.25-3.69V757h-2.3Z"/><path d="M880.56,761.75c0-4.07,2.27-6.55,5.75-6.55s5.72,2.48,5.72,6.55-2.27,6.55-5.72,6.55S880.56,765.83,880.56,761.75Zm9.62,0c0-3.25-1.47-5-3.87-5s-3.9,1.77-3.9,5,1.47,5,3.9,5S890.18,765,890.18,761.75Z"/><path d="M897.38,765.5l-.32,2.5h-1.33V749.88h1.73v8.17a4.34,4.34,0,0,1,4.2-2.85c3.07,0,5.07,2.68,5.07,6.55s-2.05,6.55-5.2,6.55A4.34,4.34,0,0,1,897.38,765.5Zm7.5-3.75c0-3-1.35-5-3.75-5s-3.7,1.88-3.7,4.75v.6c0,2.78,1.4,4.65,3.65,4.65S904.88,764.8,904.88,761.75Z"/><path d="M915.81,755.2a2.48,2.48,0,0,1,.47,0v1.7h-.2a3.64,3.64,0,0,0-2.67,1,6,6,0,0,0-1.38,4.4V768h-1.72V755.5h1.62v3C912.51,756.63,913.88,755.2,915.81,755.2Z"/><path d="M928.46,762.2h-9.08c0,2.83,1.58,4.55,4,4.55a3.51,3.51,0,0,0,3.53-2.67l1.47.6a5.06,5.06,0,0,1-5.12,3.62c-3.55,0-5.63-2.27-5.63-6.47s2.1-6.63,5.55-6.63,5.28,2,5.28,5.8Zm-1.78-1.65c0-2.57-1.3-3.95-3.52-3.95s-3.73,1.6-3.78,4.18h7.3Z"/><path d="M937.36,766.48a60.8,60.8,0,0,0,6.25-5.3c2.1-2.1,2.9-3.68,2.9-5.73,0-2.27-1.28-3.6-3.48-3.6a3.25,3.25,0,0,0-3.6,3.4,8.8,8.8,0,0,0,.2,1.6l-1.85-.17a6,6,0,0,1-.17-1.45c0-3.05,2.07-5,5.52-5s5.3,1.88,5.3,5.18c0,2.37-1.15,4.45-3.65,6.85a36.79,36.79,0,0,1-4.95,4.07h8.87V768H937.36Z"/><path d="M950.73,759.3c0-5.55,2.3-9,6.6-9s6.57,3.5,6.57,9.08-2.27,9-6.57,9S950.73,764.88,950.73,759.3Zm11.35,0c0-4.63-1.6-7.53-4.75-7.53s-4.75,2.88-4.75,7.5,1.6,7.53,4.75,7.53S962.08,764,962.08,759.33Z"/><path d="M966.21,766.48a60.8,60.8,0,0,0,6.25-5.3c2.1-2.1,2.89-3.68,2.89-5.73,0-2.27-1.27-3.6-3.47-3.6a3.25,3.25,0,0,0-3.6,3.4,8.8,8.8,0,0,0,.2,1.6l-1.85-.17a6,6,0,0,1-.17-1.45c0-3.05,2.07-5,5.52-5s5.3,1.88,5.3,5.18c0,2.37-1.15,4.45-3.65,6.85a36.79,36.79,0,0,1-5,4.07h8.87V768H966.21Z"/><path d="M979.58,759.3c0-5.55,2.3-9,6.6-9s6.57,3.5,6.57,9.08-2.27,9-6.57,9S979.58,764.88,979.58,759.3Zm11.35,0c0-4.63-1.6-7.53-4.75-7.53s-4.75,2.88-4.75,7.5,1.6,7.53,4.75,7.53S990.93,764,990.93,759.33Z"/><path d="M426.84,797.75c0-3.85,2.18-6.55,5.35-6.55a4,4,0,0,1,3.92,2.58v-7.9h1.75V804h-1.65v-2.65A4.35,4.35,0,0,1,432,804.3C428.89,804.3,426.84,801.65,426.84,797.75Zm9.3.28v-.53c0-2.85-1.37-4.75-3.7-4.75s-3.75,1.88-3.75,5,1.4,5,3.73,5S436.14,800.8,436.14,798Z"/><path d="M442.59,786.5h2v2.75h-2Zm.13,5h1.72V804h-1.72Z"/><path d="M448,800.43l1.77-.3c.3,1.77,1.58,2.72,3.55,2.72s2.85-.87,2.85-2.12-.7-1.75-2-2l-2.43-.48c-2.07-.4-3.25-1.52-3.25-3.42,0-2.1,1.78-3.63,4.6-3.63s4.57,1.23,4.82,3.45l-1.75.38c-.25-1.53-1.32-2.4-3.14-2.4s-2.83.8-2.83,2.12.78,1.75,2.08,2l2.45.48c2.22.45,3.19,1.52,3.19,3.35,0,2.22-1.67,3.72-4.62,3.72S448.42,802.93,448,800.43Z"/><path d="M461.64,791.5h1.65v2.65a4.44,4.44,0,0,1,4.27-2.95c3.08,0,5.08,2.63,5.08,6.55s-2.13,6.55-5.2,6.55a4.22,4.22,0,0,1-4.08-2.65v7.22h-1.72Zm9.15,6.25c0-3.1-1.35-5-3.65-5s-3.8,2-3.8,4.7V798c0,2.8,1.4,4.75,3.7,4.75S470.79,800.85,470.79,797.75Z"/><path d="M475,797.75c0-4.07,2.28-6.55,5.75-6.55s5.72,2.48,5.72,6.55-2.27,6.55-5.72,6.55S475,801.83,475,797.75Zm9.62,0c0-3.25-1.47-5-3.87-5s-3.9,1.77-3.9,5,1.47,5,3.9,5S484.66,801,484.66,797.75Z"/><path d="M490.09,791.5h1.65v2.75a4.26,4.26,0,0,1,4.27-3c2.8,0,4.25,1.73,4.25,5.08V804h-1.75v-7.62c0-2.43-1.05-3.68-3-3.68-2.25,0-3.68,1.8-3.68,4.73V804h-1.72Z"/><path d="M504.49,786.5h2v2.75h-2Zm.12,5h1.73V804h-1.73Z"/><path d="M512.86,801.5l-.32,2.5h-1.33V785.88h1.73v8.17a4.34,4.34,0,0,1,4.2-2.85c3.07,0,5.07,2.68,5.07,6.55s-2.05,6.55-5.2,6.55A4.34,4.34,0,0,1,512.86,801.5Zm7.5-3.75c0-3-1.35-5-3.75-5s-3.7,1.88-3.7,4.75v.6c0,2.78,1.4,4.65,3.65,4.65S520.36,800.8,520.36,797.75Z"/><path d="M527.64,804h-1.73V785.88h1.73Z"/><path d="M542.16,798.2h-9.07c0,2.83,1.57,4.55,4,4.55a3.49,3.49,0,0,0,3.52-2.67l1.48.6A5.07,5.07,0,0,1,537,804.3c-3.55,0-5.62-2.27-5.62-6.47s2.1-6.63,5.55-6.63,5.27,2,5.27,5.8Zm-1.77-1.65c0-2.57-1.3-3.95-3.53-3.95s-3.72,1.6-3.77,4.18h7.3Z"/><path d="M551.31,800.43l1.78-.3c.3,1.77,1.57,2.72,3.55,2.72,1.82,0,2.85-.87,2.85-2.12s-.7-1.75-2-2l-2.42-.48c-2.07-.4-3.25-1.52-3.25-3.42,0-2.1,1.77-3.63,4.6-3.63s4.57,1.23,4.82,3.45l-1.75.38c-.25-1.53-1.32-2.4-3.15-2.4s-2.82.8-2.82,2.12.78,1.75,2.07,2l2.45.48c2.23.45,3.2,1.52,3.2,3.35,0,2.22-1.67,3.72-4.62,3.72S551.72,802.93,551.31,800.43Z"/><path d="M564.56,799.43V791.5h1.73v7.75c0,2.45,1.15,3.55,2.85,3.55,2.27,0,3.65-1.95,3.65-4.47V791.5h1.75V804h-1.65v-2.57a4.29,4.29,0,0,1-4,2.87C565.71,804.3,564.56,802.4,564.56,799.43Z"/><path d="M584.79,791.2a2.48,2.48,0,0,1,.47,0v1.7h-.2a3.64,3.64,0,0,0-2.67,1,6,6,0,0,0-1.38,4.4V804h-1.72V791.5h1.62v3C581.49,792.63,582.86,791.2,584.79,791.2Z"/><path class="cls-4" d="M593.51,791.5h1.65v2.65a4.44,4.44,0,0,1,4.28-2.95c3.07,0,5.07,2.63,5.07,6.55s-2.12,6.55-5.2,6.55a4.21,4.21,0,0,1-4.07-2.65v7.22h-1.73Zm9.15,6.25c0-3.1-1.35-5-3.65-5s-3.8,2-3.8,4.7V798c0,2.8,1.4,4.75,3.7,4.75S602.66,800.85,602.66,797.75Z"/><path class="cls-4" d="M606.86,800.7a3.16,3.16,0,0,1,1.53-2.8,10.83,10.83,0,0,1,4.1-1.12l2.77-.33v-.2c0-2.57-.9-3.6-3-3.6-1.88,0-3,1-3.13,2.75h-1.87c.15-2.57,2.1-4.2,5-4.2,3.35,0,4.8,1.55,4.8,5.18v3.25a17.79,17.79,0,0,0,.4,4.37h-1.82a17,17,0,0,1-.23-2.5,4.29,4.29,0,0,1-4.35,2.8C608.51,804.3,606.86,802.85,606.86,800.7Zm8.43-2.15v-.8l-3.55.5c-2.13.3-3,1-3,2.4s1,2.2,2.72,2.2C613.74,802.85,615.29,801.1,615.29,798.55Z"/><path class="cls-4" d="M626.94,791.2a2.48,2.48,0,0,1,.47,0v1.7h-.2a3.64,3.64,0,0,0-2.67,1,6,6,0,0,0-1.38,4.4V804h-1.72V791.5h1.62v3C623.64,792.63,625,791.2,626.94,791.2Z"/><path class="cls-4" d="M629.21,791.5h2.3v-3.3l1.75-.75v4h3.23V793h-3.23v7.5c0,1.48.65,2.13,2,2.13a5.17,5.17,0,0,0,1.28-.15V804a6,6,0,0,1-1.73.22c-2.42,0-3.25-1.47-3.25-3.69V793h-2.3Z"/><path class="cls-4" d="M639.66,786.5h2v2.75h-2Zm.13,5h1.72V804h-1.72Z"/><path class="cls-4" d="M645.09,797.75c0-4.07,2.17-6.55,5.67-6.55a4.73,4.73,0,0,1,5,4.53l-1.77.2c-.25-2.08-1.45-3.2-3.35-3.2-2.33,0-3.75,1.87-3.75,5s1.42,5,3.82,5c1.88,0,3-1.13,3.38-3.2l1.67.25a4.85,4.85,0,0,1-5,4.47C647.29,804.3,645.09,801.78,645.09,797.75Z"/><path class="cls-4" d="M659.29,786.5h2v2.75h-2Zm.12,5h1.73V804h-1.73Z"/><path class="cls-4" d="M665.89,791.5h1.65v2.65a4.44,4.44,0,0,1,4.27-2.95c3.07,0,5.07,2.63,5.07,6.55s-2.12,6.55-5.19,6.55a4.22,4.22,0,0,1-4.08-2.65v7.22h-1.72Zm9.14,6.25c0-3.1-1.34-5-3.64-5s-3.8,2-3.8,4.7V798c0,2.8,1.4,4.75,3.7,4.75S675,800.85,675,797.75Z"/><path class="cls-4" d="M690.11,798.2H681c0,2.83,1.57,4.55,4,4.55a3.5,3.5,0,0,0,3.52-2.67l1.47.6a5,5,0,0,1-5.12,3.62c-3.55,0-5.62-2.27-5.62-6.47s2.1-6.63,5.55-6.63,5.27,2,5.27,5.8Zm-1.78-1.65c0-2.57-1.29-3.95-3.52-3.95s-3.72,1.6-3.77,4.18h7.29Z"/><path class="cls-4" d="M699.31,791.2a2.48,2.48,0,0,1,.47,0v1.7h-.19a3.68,3.68,0,0,0-2.68,1,6,6,0,0,0-1.37,4.4V804h-1.73V791.5h1.63v3C696,792.63,697.39,791.2,699.31,791.2Z"/><path class="cls-4" d="M703.36,804H701v-2.8h2.35Z"/><path class="cls-4" d="M715.41,792.38a4,4,0,0,1,1.25,3c0,2.43-1.73,4.23-4.55,4.23a5.18,5.18,0,0,1-2.4-.55,1.51,1.51,0,0,0-1.07,1.37c0,.8.62,1.43,2.12,1.43H714c2.7,0,4.08,1.22,4.08,3.39,0,2.35-1.85,3.9-6,3.9s-5.6-1.57-5.6-3.47a2.76,2.76,0,0,1,2.1-2.65,2.2,2.2,0,0,1-1.5-2.15,2.5,2.5,0,0,1,1.77-2.4,4.17,4.17,0,0,1-1.3-3.1c0-2.42,1.75-4.2,4.55-4.2a5.31,5.31,0,0,1,2.45.55,2.87,2.87,0,0,1,3-2.25,3.78,3.78,0,0,1,.72.08v1.55a3.41,3.41,0,0,0-.8-.1A2,2,0,0,0,715.41,792.38Zm-4.7,11a9.66,9.66,0,0,1-1,0,2.19,2.19,0,0,0-1.53,2c0,1.67,1.63,2.32,4.07,2.32,3.1,0,4.08-1,4.08-2.34s-.93-2-2.73-2Zm4.3-8a2.9,2.9,0,1,0-2.9,2.85A2.75,2.75,0,0,0,715,795.43Z"/><path class="cls-4" d="M730.51,798.2h-9.07c0,2.83,1.57,4.55,4,4.55a3.5,3.5,0,0,0,3.52-2.67l1.47.6a5.06,5.06,0,0,1-5.12,3.62c-3.55,0-5.62-2.27-5.62-6.47s2.1-6.63,5.54-6.63,5.28,2,5.28,5.8Zm-1.78-1.65c0-2.57-1.29-3.95-3.52-3.95s-3.72,1.6-3.77,4.18h7.29Z"/><path class="cls-4" d="M735.74,804h-2.35v-2.8h2.35Z"/><path class="cls-4" d="M738.56,797.75c0-4.07,2.18-6.55,5.67-6.55a4.73,4.73,0,0,1,5,4.53l-1.77.2c-.25-2.08-1.45-3.2-3.35-3.2-2.32,0-3.75,1.87-3.75,5s1.43,5,3.82,5c1.88,0,3-1.13,3.38-3.2l1.67.25a4.85,4.85,0,0,1-5,4.47C740.76,804.3,738.56,801.78,738.56,797.75Z"/><path class="cls-4" d="M753,785.88h1.72v8.27A4.3,4.3,0,0,1,759,791.2c2.72,0,4.17,1.73,4.17,5V804h-1.75v-7.65c0-2.4-1-3.65-3-3.65-2.27,0-3.7,1.8-3.7,4.73V804H753Z"/><g class="cls-5"><g class="cls-6"><g class="cls-7"><rect class="cls-8" x="227.18" y="114.14" width="302.95" height="202.58" rx="15"/></g></g><g class="cls-6"><g class="cls-9"><rect class="cls-8" x="731.87" y="530.61" width="129.31" height="74.15" rx="15"/></g></g><g class="cls-6"><g class="cls-10"><rect class="cls-11" x="655.92" y="195.02" width="302.95" height="202.58" rx="15"/></g></g><g class="cls-6"><g class="cls-12"><rect class="cls-11" x="796.52" y="623.62" width="164.32" height="101.29" rx="15"/></g></g><g class="cls-6"><g class="cls-13"><rect class="cls-14" x="439.78" y="365.1" width="302.95" height="202.58" rx="15"/></g></g><g class="cls-6"><g class="cls-15"><rect class="cls-14" x="506.27" y="300.96" width="85.04" height="58.47" rx="15"/></g></g><g class="cls-6"><g class="cls-16"><rect class="cls-17" x="227.18" y="522.33" width="302.95" height="202.58" rx="15"/></g></g><g class="cls-6"><g class="cls-18"><rect class="cls-17" x="625.57" y="114.14" width="106.3" height="74.15" rx="15"/></g></g></g><path class="cls-19" d="M274.24,204.81a4.48,4.48,0,0,1-3,1h-.7v-3.6H271a3.78,3.78,0,0,0,4-2.83h3.27v17.75h-4Zm7.3,3.4c0-5.85,2.78-9.27,7.47-9.27s7.5,3.42,7.5,9.27-2.77,9.27-7.5,9.27S281.54,214.06,281.54,208.21Zm10.82,0c0-4-1.2-6.15-3.35-6.15s-3.32,2.15-3.32,6.15,1.2,6.15,3.32,6.15S292.36,212.21,292.36,208.21Zm11.91,0c0-5.73,3.42-9.3,8.74-9.3s8.75,3.57,8.75,9.3-3.42,9.29-8.75,9.29S304.27,213.93,304.27,208.24Zm13.14,0c0-3.75-1.62-6-4.4-6s-4.42,2.25-4.42,6,1.65,6,4.42,6S317.41,212,317.41,208.24Zm6.13,0c0-5.6,3.3-9.32,8.7-9.32,4.52,0,7.37,2.5,7.85,6.37l-4.28.75c-.25-2.35-1.55-3.72-3.67-3.72-2.7,0-4.27,2.27-4.27,5.9s1.6,5.87,4.39,5.87c2,0,3.3-1.35,3.65-3.65l4.28.92c-.85,3.75-3.6,6.15-8,6.15C326.57,217.53,323.54,213.86,323.54,208.26Zm31.55-5.55h-5.18v14.4h-4.19v-14.4h-5.15v-3.35h14.52Zm0,5.53c0-5.73,3.43-9.3,8.75-9.3s8.75,3.57,8.75,9.3-3.43,9.29-8.75,9.29S355,213.93,355,208.24Zm13.15,0c0-3.75-1.63-6-4.4-6s-4.42,2.25-4.42,6,1.64,6,4.42,6S368.19,212,368.19,208.24Zm21.27,3.87c0,2.8-2,5-6,5h-8.32V199.36h8c4.05,0,5.9,2,5.9,4.58a4,4,0,0,1-3.2,3.92A4,4,0,0,1,389.46,212.11Zm-10.12-9.77v4.32H382c1.9,0,2.62-1,2.62-2.17s-.8-2.15-2.62-2.15Zm5.72,9.42c0-1.37-.92-2.3-2.7-2.3h-3v4.67h2.92C384.19,214.13,385.06,213.11,385.06,211.76Zm13.85-1.45h-2.55v6.8h-4.22V199.36h7.8c4.5,0,6.5,2.2,6.5,5.45a4.92,4.92,0,0,1-3.48,4.88l3.93,7.42h-4.58Zm-2.55-2.9h2.73c2.05,0,3-1,3-2.6s-.88-2.47-3-2.47h-2.73ZM421.79,214v3.13H409.47V199.36h12.14v3.13h-7.92v4h7.5v3.1h-7.5V214Zm8.13.18a38.58,38.58,0,0,0,6.27-4.57c1.7-1.68,2.37-3,2.37-4.78s-.8-2.7-2.25-2.7-2.35,1-2.35,2.65a8.56,8.56,0,0,0,.18,1.43l-4.1-.38a6.75,6.75,0,0,1-.15-1.37c0-3.35,2.55-5.5,6.62-5.5s6.35,2,6.35,5.57a8.4,8.4,0,0,1-3.12,6.37,24.15,24.15,0,0,1-4.33,3H443v3.2H429.92Zm14.37-5.95c0-5.85,2.77-9.27,7.47-9.27s7.5,3.42,7.5,9.27-2.77,9.27-7.5,9.27S444.29,214.06,444.29,208.21Zm10.82,0c0-4-1.2-6.15-3.35-6.15s-3.32,2.15-3.32,6.15,1.2,6.15,3.32,6.15S455.11,212.21,455.11,208.21Zm5.58,5.95a38.14,38.14,0,0,0,6.27-4.57c1.7-1.68,2.38-3,2.38-4.78s-.8-2.7-2.25-2.7-2.35,1-2.35,2.65a8.43,8.43,0,0,0,.17,1.43l-4.1-.38a6.75,6.75,0,0,1-.15-1.37c0-3.35,2.55-5.5,6.63-5.5s6.35,2,6.35,5.57a8.41,8.41,0,0,1-3.13,6.37,24,24,0,0,1-4.32,3h7.6v3.2h-13.1Zm14.37-5.95c0-5.85,2.78-9.27,7.48-9.27s7.5,3.42,7.5,9.27-2.78,9.27-7.5,9.27S475.06,214.06,475.06,208.21Zm10.83,0c0-4-1.2-6.15-3.35-6.15s-3.33,2.15-3.33,6.15,1.2,6.15,3.33,6.15S485.89,212.21,485.89,208.21Z"/><path class="cls-19" d="M299.61,244v3.13H287.29V229.36h12.15v3.13h-7.92v4H299v3.1h-7.49V244Z"/><path class="cls-19" d="M302.69,229.36h4.68l5.69,10.13a18.51,18.51,0,0,1,1.08,2.29h.05c0-.7,0-1.42,0-2.27V229.36H318v17.75h-4.5l-5.9-10.22a16.17,16.17,0,0,1-1.05-2.18h0c0,.73,0,1.48,0,2.35v10.05h-3.88Z"/><path class="cls-19" d="M342.16,234.94c0,3.52-2.47,5.72-6.47,5.72h-3.55v6.45h-4.22V229.36h7.87C339.64,229.36,342.16,231.56,342.16,234.94Zm-4.42.12c0-1.67-1.08-2.65-3-2.65h-2.63v5.3h2.63C336.64,237.71,337.74,236.74,337.74,235.06Z"/><path class="cls-19" d="M351.11,240.31h-2.55v6.8h-4.22V229.36h7.8c4.5,0,6.5,2.2,6.5,5.45a4.9,4.9,0,0,1-3.48,4.87l3.93,7.43h-4.58Zm-2.55-2.9h2.73c2,0,2.95-1,2.95-2.6s-.88-2.47-2.95-2.47h-2.73Z"/><path class="cls-19" d="M374,244v3.13H361.67V229.36h12.14v3.13h-7.92v4h7.5v3.1h-7.5V244Zm-4.53-15.69h-3l2.48-2.95h3.47Z"/><path class="cls-19" d="M375.17,243.41l3.12-2.2a5.16,5.16,0,0,0,4.82,3c1.7,0,3.05-.63,3.05-2s-.77-1.82-2.57-2.19l-2.37-.5c-3.1-.68-4.9-2.35-4.9-5.33,0-3.25,2.65-5.27,6.92-5.27,3.15,0,5.8,1.15,7.05,3.52l-2.75,2.33a5,5,0,0,0-4.58-2.73c-1.67,0-2.74.7-2.74,1.83s.69,1.72,2.57,2.15l2.57.55c3.15.7,4.85,2.2,4.85,5.24,0,3.38-2.6,5.7-7.25,5.7C379.14,247.53,376.39,245.91,375.17,243.41Z"/><path class="cls-19" d="M405,244v3.13H392.72V229.36h12.14v3.13h-7.92v4h7.5v3.1h-7.5V244Z"/><path class="cls-19" d="M408.12,229.36h4.67l5.7,10.13a17,17,0,0,1,1.07,2.29h.05c0-.7,0-1.42,0-2.27V229.36h3.87v17.75H419l-5.9-10.22a14.88,14.88,0,0,1-1-2.18H412c0,.73,0,1.48,0,2.35v10.05h-3.87Z"/><path class="cls-19" d="M440,232.71h-5.17v14.4h-4.2v-14.4h-5.15v-3.35H440Z"/><path class="cls-19" d="M442,247.11V229.36h4.22v17.75Z"/><path class="cls-19" d="M462.26,244v3.13H449.94V229.36h12.15v3.13h-7.93v4h7.5v3.1h-7.5V244Z"/><path class="cls-19" d="M465.34,229.36h4.22v14.32h7.2v3.43H465.34Z"/><path class="cls-19" d="M688.87,305.83c0-5.05,2.32-10,6.09-14.09h-8.47v-3.35H699v3.1a19.77,19.77,0,0,0-5.69,14v.62h-4.4Zm14.17,0c0-5.05,2.33-10,6.1-14.09h-8.47v-3.35h12.47v3.1a19.73,19.73,0,0,0-5.7,14v.62H703ZM735.64,294c0,3.53-2.48,5.72-6.48,5.72h-3.55v6.45h-4.22V288.39h7.87C733.11,288.39,735.64,290.59,735.64,294Zm-4.43.13c0-1.68-1.07-2.65-3-2.65h-2.63v5.3h2.63C730.11,296.74,731.21,295.76,731.21,294.09ZM746.36,302h-6.55l-1.34,4.15h-4.23l6.45-17.74h4.82L752,306.13h-4.25Zm-1-3-1.63-4.95a16,16,0,0,1-.65-2.5h-.05a15,15,0,0,1-.65,2.5L740.79,299Zm15.52.33h-2.55v6.79h-4.22V288.39h7.8c4.5,0,6.5,2.2,6.5,5.45a4.91,4.91,0,0,1-3.48,4.87l3.93,7.42h-4.58Zm-2.55-2.9h2.73c2,0,2.95-1,2.95-2.6s-.88-2.48-2.95-2.48h-2.73Zm25.5-4.7h-5.17v14.39h-4.2V291.74h-5.15v-3.35h14.52Zm2,14.39V288.39h4.22v17.74Zm6.8-8.84c0-5.6,3.29-9.33,8.69-9.33,4.53,0,7.38,2.5,7.85,6.38l-4.27.75c-.25-2.35-1.55-3.73-3.68-3.73-2.7,0-4.27,2.28-4.27,5.9s1.6,5.87,4.4,5.87c2,0,3.3-1.35,3.65-3.64l4.27.92c-.85,3.75-3.6,6.15-8,6.15C795.69,306.56,792.67,302.88,792.67,297.29Zm19.05,8.84V288.39h4.22v17.74ZM833.89,294c0,3.53-2.48,5.72-6.48,5.72h-3.55v6.45h-4.22V288.39h7.87C831.36,288.39,833.89,290.59,833.89,294Zm-4.43.13c0-1.68-1.07-2.65-3-2.65h-2.63v5.3h2.63C828.36,296.74,829.46,295.76,829.46,294.09ZM844.61,302h-6.55l-1.35,4.15h-4.22l6.45-17.74h4.82l6.45,17.74H846Zm-1-3L842,294.06a16,16,0,0,1-.65-2.5h-.05a15,15,0,0,1-.65,2.5L839,299Zm8.75-10.62h4.67l5.7,10.12a17.7,17.7,0,0,1,1.07,2.3h0c0-.7,0-1.42,0-2.27V288.39h3.87v17.74h-4.5l-5.89-10.22a15.61,15.61,0,0,1-1.05-2.17h0c0,.72,0,1.47,0,2.35v10h-3.87Zm31.89,3.35h-5.17v14.39h-4.2V291.74h-5.15v-3.35h14.52Zm3.46,14.39h-4.28V302h4.28ZM903.33,303v3.12H891V288.39h12.15v3.12h-7.92v4h7.49v3.1h-7.49V303Zm6.93,3.12H906V302h4.27Zm1.38-3.7,3.12-2.2a5.15,5.15,0,0,0,4.83,3c1.7,0,3-.62,3-2s-.78-1.82-2.58-2.2l-2.37-.5c-3.1-.67-4.9-2.35-4.9-5.32,0-3.25,2.65-5.28,6.92-5.28,3.15,0,5.8,1.15,7,3.53L924,293.81a5,5,0,0,0-4.57-2.72c-1.68,0-2.75.7-2.75,1.82s.7,1.73,2.57,2.15l2.58.55c3.14.7,4.84,2.2,4.84,5.25,0,3.37-2.6,5.7-7.24,5.7C915.61,306.56,912.86,304.93,911.64,302.43Z"/><path class="cls-19" d="M523.74,476.48l4.08-.37a2.67,2.67,0,0,0,2.79,2.92,2.23,2.23,0,0,0,2.53-2.4c0-1.52-1-2.32-3-2.32h-.95v-2.75h.9c1.77,0,2.67-.82,2.67-2.3a2.06,2.06,0,0,0-2.32-2.2c-1.63,0-2.55,1.13-2.55,3.05l-4-.52c0-3.4,2.62-5.58,6.72-5.58s6.27,1.75,6.27,4.78a4.13,4.13,0,0,1-3.47,4c2.55.38,3.92,1.8,3.92,4.15,0,3.2-2.65,5.22-6.77,5.22S523.79,480,523.74,476.48Z"/><path class="cls-19" d="M555.81,477.61h-6.54l-1.35,4.15h-4.23L550.14,464H555l6.45,17.75h-4.25Zm-1-3-1.63-4.95a22.71,22.71,0,0,1-.65-2.5h0a17.53,17.53,0,0,1-.65,2.5l-1.62,4.95Z"/><path class="cls-19" d="M574.19,467.36H569v14.4h-4.2v-14.4h-5.14V464h14.52Z"/><path class="cls-19" d="M588.51,478.63v3.13H576.19V464h12.15v3.13h-7.93v4h7.5v3.09h-7.5v4.4Z"/><path class="cls-19" d="M591.59,464h4.22v14.32H603v3.43H591.59Z"/><path class="cls-19" d="M605.44,481.76V464h4.22v17.75Z"/><path class="cls-19" d="M625.69,478.63v3.13H613.36V464h12.15v3.13h-7.92v4h7.5v3.09h-7.5v4.4Z"/><path class="cls-19" d="M635.54,475H633v6.8h-4.22V464h7.79c4.5,0,6.5,2.2,6.5,5.45a4.91,4.91,0,0,1-3.47,4.88l3.92,7.42h-4.57Zm-2.55-2.9h2.72c2,0,2.95-1,2.95-2.6s-.87-2.47-2.95-2.47H633Z"/><path class="cls-19" d="M643.81,478.06l3.13-2.2a5.14,5.14,0,0,0,4.82,3.05c1.7,0,3-.63,3-2s-.77-1.82-2.57-2.2l-2.38-.5c-3.1-.67-4.9-2.34-4.9-5.32,0-3.25,2.65-5.27,6.93-5.27,3.15,0,5.8,1.15,7.05,3.52l-2.75,2.33a5,5,0,0,0-4.58-2.73c-1.67,0-2.75.7-2.75,1.83s.7,1.72,2.58,2.15l2.57.55c3.15.7,4.85,2.19,4.85,5.24,0,3.38-2.6,5.7-7.25,5.7C647.79,482.18,645,480.56,643.81,478.06Z"/><path class="cls-19" d="M258.54,633.81a39.47,39.47,0,0,0,6.27-4.5c1.71-1.57,2.38-2.87,2.38-4.57s-.8-2.55-2.25-2.55a2.24,2.24,0,0,0-2.35,2.5,7.87,7.87,0,0,0,.18,1.42l-4.1-.4a6.34,6.34,0,0,1-.15-1.35c0-3.25,2.55-5.35,6.62-5.35s6.35,2,6.35,5.43c0,2.32-1,4.29-3.13,6.17a25.65,25.65,0,0,1-4.32,2.95h7.6v3.2h-13.1Z"/><path class="cls-19" d="M294.76,637.38a4.78,4.78,0,0,0,1.4-.2v3.28a11.33,11.33,0,0,1-1.87.15c-3,0-5-1.28-5.8-3.43h-.35c-5.32,0-8.75-3.6-8.75-9.29s3.43-9.3,8.75-9.3,8.75,3.57,8.75,9.3c0,4.19-1.85,7.24-4.93,8.57A4.1,4.1,0,0,0,294.76,637.38Zm-6.62-3.5c2.77,0,4.4-2.25,4.4-6s-1.63-6-4.4-6-4.42,2.25-4.42,6S285.36,633.88,288.14,633.88Z"/><path class="cls-19" d="M303.39,619v11.38a3.3,3.3,0,1,0,6.6,0V619h4.22v11.55c0,4.05-2.8,6.62-7.52,6.62s-7.52-2.57-7.52-6.62V619Z"/><path class="cls-19" d="M329.94,633.63v3.13H317.62V619h12.14v3.13h-7.92v4h7.5v3.09h-7.5v4.4Z"/><path class="cls-19" d="M331.09,633.06l3.13-2.2a5.14,5.14,0,0,0,4.82,3c1.7,0,3-.63,3-2s-.78-1.82-2.58-2.2l-2.37-.5c-3.1-.67-4.9-2.34-4.9-5.32,0-3.25,2.65-5.27,6.92-5.27,3.15,0,5.8,1.15,7,3.52l-2.75,2.33a5,5,0,0,0-4.57-2.73c-1.68,0-2.75.7-2.75,1.83s.7,1.72,2.57,2.15l2.58.55c3.15.7,4.85,2.19,4.85,5.24,0,3.38-2.6,5.7-7.25,5.7C335.06,637.18,332.32,635.56,331.09,633.06Z"/><path class="cls-19" d="M361.44,622.36h-5.18v14.4h-4.2v-14.4h-5.14V619h14.52Z"/><path class="cls-19" d="M363.44,636.76V619h4.22v17.75Z"/><path class="cls-19" d="M370.24,627.89c0-5.73,3.42-9.3,8.75-9.3s8.75,3.57,8.75,9.3-3.43,9.29-8.75,9.29S370.24,633.58,370.24,627.89Zm13.15,0c0-3.75-1.63-6-4.4-6s-4.43,2.25-4.43,6,1.65,6,4.43,6S383.39,631.63,383.39,627.89Z"/><path class="cls-19" d="M390.31,619H395l5.7,10.13a17.62,17.62,0,0,1,1.07,2.29h.05c0-.7,0-1.42,0-2.27V619h3.87v17.75h-4.5l-5.9-10.22a16.17,16.17,0,0,1-1.05-2.18h0c0,.73,0,1.48,0,2.35v10h-3.88Z"/><path class="cls-19" d="M409.36,619H414l5.7,10.13a17.62,17.62,0,0,1,1.07,2.29h.05c0-.7,0-1.42,0-2.27V619h3.87v17.75h-4.5l-5.9-10.22a16.17,16.17,0,0,1-1.05-2.18h-.05c0,.73,0,1.48,0,2.35v10h-3.88Z"/><path class="cls-19" d="M439,632.61h-6.55l-1.35,4.15h-4.23L433.36,619h4.83l6.45,17.75h-4.25Zm-1-3-1.62-4.95a20.67,20.67,0,0,1-.65-2.5h-.05a17.53,17.53,0,0,1-.65,2.5l-1.63,4.95Z"/><path class="cls-19" d="M446.81,636.76V619H451v17.75Z"/><path class="cls-19" d="M461.51,630H459v6.8h-4.22V619h7.8c4.5,0,6.5,2.2,6.5,5.45a4.92,4.92,0,0,1-3.48,4.88l3.92,7.42h-4.57Zm-2.55-2.9h2.73c2.05,0,2.95-1,2.95-2.6s-.88-2.47-2.95-2.47H459Z"/><path class="cls-19" d="M484.39,633.63v3.13H472.06V619h12.15v3.13h-7.92v4h7.5v3.09h-7.5v4.4Z"/><path class="cls-19" d="M485.54,633.06l3.12-2.2a5.16,5.16,0,0,0,4.83,3c1.7,0,3.05-.63,3.05-2s-.78-1.82-2.58-2.2l-2.37-.5c-3.1-.67-4.9-2.34-4.9-5.32,0-3.25,2.65-5.27,6.92-5.27,3.15,0,5.8,1.15,7.05,3.52l-2.75,2.33a5,5,0,0,0-4.57-2.73c-1.68,0-2.75.7-2.75,1.83s.7,1.72,2.57,2.15l2.58.55c3.15.7,4.85,2.19,4.85,5.24,0,3.38-2.6,5.7-7.25,5.7C489.51,637.18,486.76,635.56,485.54,633.06Z"/></g></g></svg>