<svg id="Calque_1" data-name="Calque 1" xmlns="http://www.w3.org/2000/svg" xmlns:xlink="http://www.w3.org/1999/xlink" viewBox="0 0 1190.55 841.89"><defs><style>.cls-1{fill:none;}.cls-2{clip-path:url(#clip-path);}.cls-3{clip-path:url(#clip-path-3);}.cls-4{opacity:0.6;}.cls-5{clip-path:url(#clip-path-4);}.cls-6{fill:#eadfde;}.cls-7{clip-path:url(#clip-path-5);}.cls-8{clip-path:url(#clip-path-6);}.cls-9{clip-path:url(#clip-path-7);}.cls-10,.cls-12,.cls-42,.cls-46{font-size:30px;}.cls-10,.cls-12,.cls-42{font-family:GTAmerica-Light, GT America;font-weight:300;}.cls-11{letter-spacing:-0.03em;}.cls-12{letter-spacing:-0.17em;}.cls-13{letter-spacing:0em;}.cls-14{letter-spacing:-0.02em;}.cls-15{letter-spacing:-0.01em;}.cls-16{letter-spacing:0em;}.cls-17{letter-spacing:-0.01em;}.cls-18{letter-spacing:-0.02em;}.cls-19{letter-spacing:0em;}.cls-20{letter-spacing:0.31em;}.cls-21{letter-spacing:-0.01em;}.cls-22{letter-spacing:-0.02em;}.cls-23{letter-spacing:-0.01em;}.cls-24{letter-spacing:0.15em;}.cls-25{letter-spacing:-0.01em;}.cls-26{letter-spacing:-0.01em;}.cls-27{letter-spacing:-0.04em;}.cls-28{letter-spacing:0.02em;}.cls-29{letter-spacing:-0.02em;}.cls-30{letter-spacing:-0.02em;}.cls-31{letter-spacing:0em;}.cls-32{letter-spacing:-0.01em;}.cls-33{letter-spacing:-0.01em;}.cls-34{letter-spacing:0.93em;}.cls-35{letter-spacing:0.93em;}.cls-36{letter-spacing:0em;}.cls-37{letter-spacing:-0.04em;}.cls-38{letter-spacing:0.03em;}.cls-39{letter-spacing:-0.01em;}.cls-40{letter-spacing:0.03em;}.cls-41{letter-spacing:0em;}.cls-42{letter-spacing:0.15em;}.cls-43{letter-spacing:-0.01em;}.cls-44{letter-spacing:0em;}.cls-45{letter-spacing:-0.02em;}.cls-46{font-family:GTAmerica-Bold, GT America;font-weight:700;}.cls-47{letter-spacing:0.01em;}.cls-48{letter-spacing:-0.02em;}.cls-49{letter-spacing:-0.09em;}.cls-50{letter-spacing:0.02em;}.cls-51{letter-spacing:-0.05em;}.cls-52{letter-spacing:-0.01em;}.cls-53{letter-spacing:0.01em;}</style><clipPath id="clip-path"><rect class="cls-1" width="1190.55" height="841.89"/></clipPath><clipPath id="clip-path-3"><rect class="cls-1" width="1190.55" height="841.89"/></clipPath><clipPath id="clip-path-4"><rect class="cls-1" x="27" y="256.79" width="1136.55" height="58.86"/></clipPath><clipPath id="clip-path-5"><rect class="cls-1" x="27" y="183.79" width="1136.55" height="58.86"/></clipPath><clipPath id="clip-path-6"><rect class="cls-1" x="27" y="328.36" width="1136.55" height="58.86"/></clipPath><clipPath id="clip-path-7"><rect class="cls-1" x="27" y="577.1" width="1136.55" height="58.86"/></clipPath></defs><title>Plan de travail</title><g class="cls-2"><g class="cls-2"><g class="cls-3"><g class="cls-4"><g class="cls-5"><rect class="cls-6" x="36" y="263.79" width="1118.55" height="50.86"/></g></g><g class="cls-4"><g class="cls-7"><rect class="cls-6" x="36" y="190.8" width="1118.55" height="50.86"/></g></g><g class="cls-4"><g class="cls-8"><rect class="cls-6" x="36" y="335.36" width="1118.55" height="50.86"/></g></g><g class="cls-4"><g class="cls-9"><rect class="cls-6" x="36" y="584.1" width="1118.55" height="50.86"/></g></g><path d="M182.32,513.72l.33-1c-.92-3-1.71-5.95-2.78-8.85a9.18,9.18,0,0,1,.5-7.59c5.83-12.61,4.83-24.84-3.43-36-8.1-10.91-19.31-15.57-32.8-13.68-14.09,2-23.85,10-28.33,23.36-4.37,13.07-1.73,25.28,8,35.25,9.9,10.13,22.33,13.65,35.55,8.87,7.94-2.88,15-5,22.94-.42m-62.52-6.88c-7.91-9.49-11.26-20.1-9.28-32.1s8.85-21.06,19.2-27.63c-8.21-12.94-19.39-21.17-34.35-23.26-18.52-2.6-33.86,4-45.08,18.68C39.24,457,37.66,473.19,44.8,490a11,11,0,0,1,.54,8.31c-1.39,4.21-2.69,8.45-4.16,13.11,5.61-.78,10.73-1.62,15.87-2.15a7.47,7.47,0,0,1,4.48,1c6,3.82,12.4,6.69,19.5,7.71,14.52,2.07,27.37-1.66,38.77-11.09m13.58-61.58c12.29-5,24.15-4.28,35.48,2.2,17.09,9.76,23.92,31.73,15.88,49.82a11.25,11.25,0,0,0-.42,6.51c.74,3.48,2.24,6.79,3.24,10.22.31,1.08.53,2.82,0,3.35s-2.31.47-3.43.21c-4.05-.93-8-2.12-12.09-3a5.77,5.77,0,0,0-3.57.25c-16.24,8.28-31.41,6.56-45.86-4.83-1.92,1.37-3.88,2.95-6,4.26-18.45,11.28-37,11.36-55.83.76A10.58,10.58,0,0,0,55,513.72c-5.17.45-10.3,1.37-15.45,2.08-3.13.43-4.12-.64-3.2-3.65,1.59-5.19,3.39-10.31,4.89-15.52a6.67,6.67,0,0,0-.28-4.21,51.55,51.55,0,0,1,45.85-72.88c18.21-.41,32.67,6.9,43.55,21.44,1,1.29,1.87,2.63,3,4.28"/><path d="M71.5,472.72a4.17,4.17,0,1,1-4.17-4.17,4.17,4.17,0,0,1,4.17,4.17"/><path d="M91.52,472.72a4.17,4.17,0,1,1-4.17-4.17,4.17,4.17,0,0,1,4.17,4.17"/><path d="M108.65,472.72a4.17,4.17,0,1,1-4.17-4.17,4.17,4.17,0,0,1,4.17,4.17"/><path d="M136.94,482.35a4.17,4.17,0,1,1-4.17-4.17,4.17,4.17,0,0,1,4.17,4.17"/><path d="M150.83,482.35a4.17,4.17,0,1,1-4.17-4.17,4.17,4.17,0,0,1,4.17,4.17"/><path d="M165.18,482.35a4.17,4.17,0,1,1-4.17-4.17,4.17,4.17,0,0,1,4.17,4.17"/></g><text class="cls-10" transform="translate(36 228)"><tspan class="cls-11">0</tspan><tspan x="18.21" y="0">. </tspan></text><text class="cls-12" transform="translate(69.27 228)"> <tspan class="cls-13" x="2.73" y="0"> </tspan></text><text class="cls-10" transform="translate(108 228)">P<tspan class="cls-14" x="18.24" y="0">r</tspan><tspan x="28.44" y="0">oce</tspan><tspan class="cls-15" x="76.89" y="0">s</tspan><tspan x="91.59" y="0">sus </tspan><tspan class="cls-16" x="146.64" y="0">c</tspan><tspan x="162.33" y="0">a</tspan><tspan class="cls-17" x="178.47" y="0">n</tspan><tspan class="cls-18" x="195.63" y="0">t</tspan><tspan class="cls-19" x="205.56" y="0">onal </tspan></text><text class="cls-10" transform="translate(36 300)">1.</text><text class="cls-10" transform="translate(54.81 300)"><tspan class="cls-20"> </tspan><tspan x="17.16" y="0"> </tspan></text><text class="cls-10" transform="translate(108 300)">Ide<tspan class="cls-21" x="42.27" y="0">n</tspan><tspan x="59.4" y="0">tiﬁ</tspan><tspan class="cls-16" x="95.64" y="0">c</tspan><tspan class="cls-22" x="111.33" y="0">a</tspan><tspan x="126.96" y="0">tion des</tspan><tspan class="cls-21" x="235.83" y="0"> </tspan><tspan x="243.48" y="0">thèmes </tspan><tspan class="cls-23" x="351.66" y="0">e</tspan><tspan x="367.26" y="0">t enjeux</tspan></text><text class="cls-10" transform="translate(36 372)">2.</text><text class="cls-10" transform="translate(59.4 372)"><tspan class="cls-24"> </tspan><tspan x="12.6" y="0"> </tspan></text><text class="cls-10" transform="translate(108 372)">P<tspan class="cls-14" x="18.24" y="0">r</tspan><tspan x="28.44" y="0">ése</tspan><tspan class="cls-25" x="75.42" y="0">nt</tspan><tspan class="cls-14" x="102.78" y="0">a</tspan><tspan x="118.44" y="0">tion </tspan><tspan class="cls-23" x="178.71" y="0">e</tspan><tspan x="194.31" y="0">t discu</tspan><tspan class="cls-26" x="286.08" y="0">s</tspan><tspan class="cls-19" x="300.8" y="0">sion au</tspan><tspan class="cls-18" x="398.9" y="0">t</tspan><tspan class="cls-19" x="408.83" y="0">ou</tspan><tspan class="cls-27" x="442.7" y="0">r</tspan><tspan class="cls-13" x="452.21" y="0" xml:space="preserve"> de 4 scénario</tspan><tspan class="cls-21" x="642.53" y="0">s</tspan><tspan x="657.17" y="0">, di</tspan><tspan class="cls-28" x="697.7" y="0">f</tspan><tspan class="cls-29" x="708.56" y="0">f</tspan><tspan x="718.16" y="0">é</tspan><tspan class="cls-30" x="734.18" y="0">r</tspan><tspan class="cls-19" x="744.38" y="0">e</tspan><tspan class="cls-25" x="760.4" y="0">n</tspan><tspan class="cls-31" x="777.56" y="0">t</tspan><tspan x="787.94" y="0">s </tspan><tspan class="cls-32" x="810.83" y="0">e</tspan><tspan x="826.46" y="0">t co</tspan><tspan class="cls-21" x="877.31" y="0">n</tspan><tspan x="894.44" y="0">t</tspan><tspan class="cls-33" x="904.91" y="0">r</tspan><tspan x="915.2" y="0">a</tspan><tspan class="cls-15" x="931.33" y="0">s</tspan><tspan class="cls-22" x="946.03" y="0">t</tspan><tspan class="cls-19" x="955.99" y="0">és</tspan></text><text class="cls-10" transform="translate(36 444)"><tspan class="cls-34"> </tspan><tspan class="cls-35" x="36" y="0" xml:space="preserve">  </tspan><tspan class="cls-34" x="107.94" y="0"> </tspan><tspan x="143.94" y="0"> </tspan></text><text class="cls-10" transform="translate(216 444)">Scénario « Une esplan<tspan class="cls-36" x="302.73" y="0">a</tspan><tspan x="318.75" y="0">de pou</tspan><tspan class="cls-37" x="411.71" y="0">r</tspan><tspan class="cls-13" x="421.2" y="0" xml:space="preserve"> le qua</tspan><tspan class="cls-38" x="512.03" y="0">r</tspan><tspan x="523.58" y="0">tie</tspan><tspan class="cls-27" x="557.84" y="0">r</tspan><tspan x="567.35" y="0" xml:space="preserve"> »</tspan></text><text class="cls-10" transform="translate(36 480)"><tspan class="cls-34"> </tspan><tspan class="cls-35" x="36" y="0" xml:space="preserve">  </tspan><tspan class="cls-34" x="107.94" y="0"> </tspan><tspan x="143.94" y="0"> </tspan></text><text class="cls-10" transform="translate(216 480)">Scénario « Une pièce de n<tspan class="cls-22" x="352.71" y="0">a</tspan><tspan x="368.34" y="0">tu</tspan><tspan class="cls-22" x="396.03" y="0">r</tspan><tspan x="406.2" y="0">e »</tspan></text><text class="cls-10" transform="translate(36 516)"><tspan class="cls-34"> </tspan><tspan class="cls-35" x="36" y="0" xml:space="preserve">  </tspan><tspan class="cls-34" x="107.94" y="0"> </tspan><tspan x="143.94" y="0"> </tspan></text><text class="cls-10" transform="translate(216 516)">Scénario « Une pl<tspan class="cls-36" x="238.2" y="0">a</tspan><tspan class="cls-19" x="254.22" y="0">ce animée </tspan><tspan class="cls-23" x="400.5" y="0">e</tspan><tspan x="416.1" y="0">t un nou</tspan><tspan class="cls-39" x="528.41" y="0">v</tspan><tspan class="cls-16" x="542.09" y="0">e</tspan><tspan x="558.02" y="0">au </tspan><tspan class="cls-36" x="599.33" y="0">p</tspan><tspan x="616.7" y="0">a</tspan><tspan class="cls-30" x="632.84" y="0">r</tspan><tspan class="cls-19" x="643.04" y="0">c »</tspan></text><text class="cls-10" transform="translate(36 552)"><tspan class="cls-34"> </tspan><tspan class="cls-35" x="36" y="0" xml:space="preserve">  </tspan><tspan class="cls-34" x="107.94" y="0"> </tspan><tspan x="143.94" y="0"> </tspan></text><text class="cls-10" transform="translate(216 552)">Scénario « Un qua<tspan class="cls-40" x="247.47" y="0">r</tspan><tspan class="cls-19" x="258.99" y="0">tie</tspan><tspan class="cls-27" x="293.25" y="0">r</tspan><tspan x="302.76" y="0" xml:space="preserve"> perm</tspan><tspan class="cls-41" x="380.09" y="0">é</tspan><tspan x="396" y="0">able »</tspan></text><text class="cls-10" transform="translate(36 624)"><tspan class="cls-30">3</tspan><tspan x="16.53" y="0">.</tspan></text><text class="cls-42" transform="translate(59.64 624)"> <tspan class="cls-13" x="12.36" y="0"> </tspan></text><text class="cls-10" transform="translate(108 624)">Bilan de la discu<tspan class="cls-15" x="224.22" y="0">s</tspan><tspan x="238.92" y="0">sion </tspan><tspan class="cls-43" x="303.66" y="0">e</tspan><tspan x="319.25" y="0">t que</tspan><tspan class="cls-17" x="388.4" y="0">s</tspan><tspan x="403.07" y="0">tio</tspan><tspan class="cls-44" x="437.96" y="0">n</tspan><tspan x="455.36" y="0">nai</tspan><tspan class="cls-14" x="496.7" y="0">r</tspan><tspan x="506.9" y="0">e en li</tspan><tspan class="cls-45" x="588.11" y="0">g</tspan><tspan class="cls-19" x="603.47" y="0">ne</tspan></text><text class="cls-46" transform="translate(92.64 60.06)">O<tspan class="cls-30" x="22.74" y="0">R</tspan><tspan class="cls-47" x="43.05" y="0">G</tspan><tspan x="65.58" y="0">ANI</tspan><tspan class="cls-48" x="120.03" y="0">S</tspan><tspan class="cls-49" x="138.3" y="0">A</tspan><tspan class="cls-19" x="157.68" y="0">TION DE </tspan><tspan class="cls-50" x="286.02" y="0">L</tspan><tspan class="cls-51" x="303.06" y="0">A</tspan><tspan x="323.76" y="0" xml:space="preserve"> DISC</tspan><tspan class="cls-52" x="403.13" y="0">U</tspan><tspan class="cls-53" x="424.74" y="0">S</tspan><tspan x="443.79" y="0">SION</tspan></text></g></g></svg>