<svg id="Calque_1" data-name="Calque 1" xmlns="http://www.w3.org/2000/svg" xmlns:xlink="http://www.w3.org/1999/xlink" viewBox="0 0 1190.55 841.89"><defs><style>.cls-1{fill:none;}.cls-2{clip-path:url(#clip-path);}.cls-3{clip-path:url(#clip-path-3);}.cls-4{opacity:0.6;}.cls-5{clip-path:url(#clip-path-4);}.cls-6{fill:#eadfde;}.cls-7{clip-path:url(#clip-path-5);}.cls-8{clip-path:url(#clip-path-6);}.cls-9{clip-path:url(#clip-path-7);}.cls-10{clip-path:url(#clip-path-8);}</style><clipPath id="clip-path"><rect class="cls-1" width="1190.55" height="841.89"/></clipPath><clipPath id="clip-path-3"><rect class="cls-1" width="1190.55" height="841.89"/></clipPath><clipPath id="clip-path-4"><rect class="cls-1" x="27" y="256.79" width="1136.55" height="58.86"/></clipPath><clipPath id="clip-path-5"><rect class="cls-1" x="27" y="183.79" width="1136.55" height="58.86"/></clipPath><clipPath id="clip-path-6"><rect class="cls-1" x="27" y="328.36" width="1136.55" height="58.86"/></clipPath><clipPath id="clip-path-7"><rect class="cls-1" x="27" y="399.94" width="1136.55" height="58.86"/></clipPath><clipPath id="clip-path-8"><rect class="cls-1" x="27" y="654.35" width="1136.55" height="58.86"/></clipPath></defs><g class="cls-2"><g class="cls-2"><path d="M93.5,49.4c0-6.87,4.11-11.16,10.5-11.16s10.5,4.29,10.5,11.16S110.39,60.56,104,60.56,93.5,56.24,93.5,49.4Zm15.78,0c0-4.5-2-7.2-5.28-7.2s-5.31,2.7-5.31,7.2,2,7.2,5.31,7.2S109.28,53.9,109.28,49.4Z"/><path d="M125.72,51.89h-3.06v8.16h-5.07V38.75H127c5.4,0,7.8,2.64,7.8,6.54a5.89,5.89,0,0,1-4.17,5.85l4.71,8.91H129.8Zm-3.06-3.48h3.27c2.46,0,3.54-1.2,3.54-3.12s-1.05-3-3.54-3h-3.27Z"/><path d="M136.52,49.43c0-6.69,4-11.19,10.56-11.19,5.58,0,8.61,3,9.27,6.54l-5,.93a4.1,4.1,0,0,0-4.29-3.66c-3.39,0-5.34,2.82-5.34,7.32s1.83,7.29,5.4,7.29a4.48,4.48,0,0,0,4.7-4.38v-.45h-5.24V48.2h9.87V60.05h-3.6l-.21-3.12c-1.08,2.28-3.45,3.63-6.66,3.63C140.09,60.56,136.52,56.18,136.52,49.43Z"/><path d="M173.15,55.07h-7.86l-1.62,5H158.6l7.74-21.3h5.79l7.74,21.3h-5.1ZM172,51.5,170,45.56a25.65,25.65,0,0,1-.78-3h-.06a20.83,20.83,0,0,1-.78,3l-1.95,5.94Z"/><path d="M182.48,38.75h5.61l6.83,12.15a22.16,22.16,0,0,1,1.29,2.76h.06c0-.84,0-1.71,0-2.73V38.75h4.65v21.3h-5.4l-7.07-12.27a18.52,18.52,0,0,1-1.27-2.61h-.05c0,.87,0,1.77,0,2.82V60.05h-4.65Z"/><path d="M205.34,60.05V38.75h5.07v21.3Z"/><path d="M212.57,55.61,216.31,53a6.19,6.19,0,0,0,5.79,3.66c2.05,0,3.67-.75,3.67-2.43s-.93-2.19-3.09-2.64l-2.85-.6c-3.73-.81-5.88-2.82-5.88-6.39,0-3.9,3.18-6.33,8.31-6.33,3.77,0,7,1.38,8.45,4.23l-3.3,2.79A6,6,0,0,0,221.93,42c-2,0-3.3.84-3.3,2.19s.84,2.07,3.09,2.58l3.09.66c3.77.84,5.81,2.64,5.81,6.3,0,4.05-3.11,6.84-8.69,6.84C217.34,60.56,214,58.61,212.57,55.61Z"/><path d="M245.86,55.07H238l-1.61,5h-5.08l7.74-21.3h5.79l7.74,21.3h-5.1Zm-1.17-3.57-1.95-5.94a25.65,25.65,0,0,1-.78-3h-.06a20.83,20.83,0,0,1-.78,3l-2,5.94Z"/><path d="M267.91,42.77H261.7V60.05h-5V42.77h-6.18v-4h17.43Z"/><path d="M270.31,60.05V38.75h5.07v21.3Z"/><path d="M278.47,49.4c0-6.87,4.11-11.16,10.5-11.16s10.5,4.29,10.5,11.16S295.36,60.56,289,60.56,278.47,56.24,278.47,49.4Zm15.78,0c0-4.5-1.95-7.2-5.28-7.2s-5.31,2.7-5.31,7.2,2,7.2,5.31,7.2S294.25,53.9,294.25,49.4Z"/><path d="M302.56,38.75h5.61L315,50.9a22.16,22.16,0,0,1,1.29,2.76h.06c0-.84,0-1.71,0-2.73V38.75H321v21.3h-5.4L308.5,47.78a18.35,18.35,0,0,1-1.26-2.61h-.06c0,.87,0,1.77,0,2.82V60.05h-4.65Z"/><path d="M332.83,38.75h8.49c6.39,0,10.53,4.26,10.53,10.53s-4.14,10.77-10.59,10.77h-8.43Zm8.22,17.58c3.6,0,5.58-3.24,5.58-7s-1.86-6.81-5.52-6.81H337.9V56.33Z"/><path d="M369.73,56.3v3.75H354.94V38.75h14.58V42.5H360v4.8h9V51h-9V56.3Z"/><path d="M380.83,38.75h5.07V55.94h8.64v4.11H380.83Z"/><path d="M410.65,55.07h-7.86l-1.62,5H396.1l7.74-21.3h5.79l7.74,21.3h-5.1Zm-1.17-3.57-2-5.94a25.65,25.65,0,0,1-.78-3h-.06a20.83,20.83,0,0,1-.78,3l-2,5.94Z"/><path d="M426,38.75h8.49c6.39,0,10.53,4.26,10.53,10.53s-4.14,10.77-10.59,10.77H426Zm8.22,17.58c3.6,0,5.58-3.24,5.58-7s-1.86-6.81-5.52-6.81h-3.21V56.33Z"/><path d="M448.15,60.05V38.75h5.07v21.3Z"/><path d="M455.38,55.61,459.13,53a6.17,6.17,0,0,0,5.79,3.66c2,0,3.66-.75,3.66-2.43s-.93-2.19-3.09-2.64l-2.85-.6c-3.72-.81-5.88-2.82-5.88-6.39,0-3.9,3.18-6.33,8.31-6.33,3.78,0,7,1.38,8.46,4.23l-3.3,2.79A6,6,0,0,0,464.74,42c-2,0-3.3.84-3.3,2.19s.84,2.07,3.09,2.58l3.09.66c3.78.84,5.82,2.64,5.82,6.3,0,4.05-3.12,6.84-8.7,6.84C460.15,60.56,456.85,58.61,455.38,55.61Z"/><path d="M475.09,49.43c0-6.72,4-11.19,10.44-11.19,5.43,0,8.85,3,9.42,7.65l-5.13.9c-.3-2.82-1.86-4.47-4.41-4.47-3.24,0-5.13,2.73-5.13,7.08s1.92,7.05,5.28,7.05c2.37,0,4-1.62,4.38-4.38l5.13,1.11c-1,4.5-4.32,7.38-9.6,7.38C478.72,60.56,475.09,56.15,475.09,49.43Z"/><path d="M502.72,38.75V52.4a4,4,0,1,0,7.92,0V38.75h5.07V52.61c0,4.86-3.36,8-9,8s-9-3.09-9-8V38.75Z"/><path d="M517.33,55.61,521.08,53a6.17,6.17,0,0,0,5.79,3.66c2,0,3.66-.75,3.66-2.43s-.93-2.19-3.09-2.64l-2.85-.6c-3.72-.81-5.88-2.82-5.88-6.39,0-3.9,3.18-6.33,8.31-6.33,3.78,0,7,1.38,8.46,4.23l-3.3,2.79A6,6,0,0,0,526.69,42c-2,0-3.3.84-3.3,2.19s.84,2.07,3.09,2.58l3.09.66c3.78.84,5.82,2.64,5.82,6.3,0,4.05-3.12,6.84-8.7,6.84C522.1,60.56,518.8,58.61,517.33,55.61Z"/><path d="M536.41,55.61,540.16,53A6.17,6.17,0,0,0,546,56.63c2,0,3.66-.75,3.66-2.43s-.93-2.19-3.09-2.64l-2.85-.6c-3.72-.81-5.88-2.82-5.88-6.39,0-3.9,3.18-6.33,8.31-6.33,3.78,0,7,1.38,8.46,4.23l-3.3,2.79A6,6,0,0,0,545.77,42c-2,0-3.3.84-3.3,2.19s.84,2.07,3.09,2.58l3.09.66c3.78.84,5.82,2.64,5.82,6.3,0,4.05-3.12,6.84-8.7,6.84C541.18,60.56,537.88,58.61,536.41,55.61Z"/><path d="M557.47,60.05V38.75h5.07v21.3Z"/><path d="M565.63,49.4c0-6.87,4.11-11.16,10.5-11.16s10.5,4.29,10.5,11.16-4.11,11.16-10.5,11.16S565.63,56.24,565.63,49.4Zm15.78,0c0-4.5-1.95-7.2-5.28-7.2s-5.31,2.7-5.31,7.2,2,7.2,5.31,7.2S581.41,53.9,581.41,49.4Z"/><path d="M589.72,38.75h5.61l6.84,12.15a22.16,22.16,0,0,1,1.29,2.76h.06c0-.84,0-1.71,0-2.73V38.75h4.65v21.3h-5.4l-7.08-12.27a18.35,18.35,0,0,1-1.26-2.61h-.06c0,.87,0,1.77,0,2.82V60.05h-4.65Z"/><g class="cls-3"><g class="cls-4"><g class="cls-5"><rect class="cls-6" x="36" y="263.79" width="1118.55" height="50.86"/></g></g><g class="cls-4"><g class="cls-7"><rect class="cls-6" x="36" y="190.8" width="1118.55" height="50.86"/></g></g><g class="cls-4"><g class="cls-8"><rect class="cls-6" x="36" y="335.36" width="1118.55" height="50.86"/></g></g><g class="cls-4"><g class="cls-9"><rect class="cls-6" x="36" y="406.94" width="1118.55" height="50.86"/></g></g><g class="cls-4"><g class="cls-10"><rect class="cls-6" x="36" y="661.35" width="1118.55" height="50.86"/></g></g></g><path d="M37.59,217.56c0-6.66,2.76-10.86,7.92-10.86s7.89,4.2,7.89,10.89-2.73,10.86-7.89,10.86S37.59,224.25,37.59,217.56Zm13.62,0c0-5.55-1.92-9-5.7-9s-5.7,3.45-5.7,9,1.92,9,5.7,9S51.21,223.14,51.21,217.59Z"/><path d="M59.19,228H56.37v-3.36h2.82Z"/><path d="M125.58,212.79c0,3.81-2.73,6.24-7,6.24h-5.1v9h-2.31V206.7h7.41C122.85,206.7,125.58,209.07,125.58,212.79Zm-2.46,0c0-2.52-1.86-4.11-4.77-4.11h-4.89v8.37h4.89C121.26,217.05,123.12,215.4,123.12,212.79Z"/><path d="M135.69,212.64a3.63,3.63,0,0,1,.57,0v2H136a4.39,4.39,0,0,0-3.21,1.14c-1.38,1.38-1.65,3.39-1.65,5.28V228h-2.07V213H131v3.66C131.73,214.35,133.38,212.64,135.69,212.64Z"/><path d="M137.88,220.5c0-4.89,2.73-7.86,6.9-7.86s6.87,3,6.87,7.86-2.73,7.86-6.87,7.86S137.88,225.39,137.88,220.5Zm11.55,0c0-3.9-1.77-6-4.65-6s-4.68,2.13-4.68,6,1.77,6,4.68,6S149.43,224.4,149.43,220.5Z"/><path d="M154.53,220.5c0-4.89,2.61-7.86,6.81-7.86a5.67,5.67,0,0,1,6.06,5.43l-2.13.24c-.3-2.49-1.74-3.84-4-3.84-2.79,0-4.5,2.25-4.5,6s1.71,6.06,4.59,6.06c2.25,0,3.66-1.35,4-3.84l2,.3c-.54,3.39-2.76,5.37-6.06,5.37C157.17,228.36,154.53,225.33,154.53,220.5Z"/><path d="M183.3,221H172.41c0,3.39,1.89,5.46,4.8,5.46a4.21,4.21,0,0,0,4.23-3.21l1.77.72a6.07,6.07,0,0,1-6.15,4.35c-4.26,0-6.75-2.73-6.75-7.77s2.52-8,6.66-8,6.33,2.4,6.33,7Zm-2.13-2c0-3.09-1.56-4.74-4.23-4.74s-4.47,1.92-4.53,5h8.76Z"/><path d="M186.33,223.71l2.13-.36c.36,2.13,1.89,3.27,4.26,3.27,2.19,0,3.42-1.05,3.42-2.55s-.84-2.1-2.43-2.4l-2.91-.57c-2.49-.48-3.9-1.83-3.9-4.11,0-2.52,2.13-4.35,5.52-4.35s5.49,1.47,5.79,4.14l-2.1.45c-.3-1.83-1.59-2.88-3.78-2.88s-3.39,1-3.39,2.55c0,1.41.93,2.1,2.49,2.4l2.94.57c2.67.54,3.84,1.83,3.84,4,0,2.67-2,4.47-5.55,4.47S186.81,226.71,186.33,223.71Z"/><path d="M201,223.71l2.13-.36c.36,2.13,1.89,3.27,4.26,3.27,2.19,0,3.42-1.05,3.42-2.55s-.84-2.1-2.43-2.4l-2.91-.57c-2.49-.48-3.9-1.83-3.9-4.11,0-2.52,2.13-4.35,5.52-4.35s5.49,1.47,5.79,4.14l-2.1.45c-.3-1.83-1.59-2.88-3.78-2.88s-3.39,1-3.39,2.55c0,1.41.93,2.1,2.49,2.4l2.94.57c2.67.54,3.84,1.83,3.84,4,0,2.67-2,4.47-5.55,4.47S201.51,226.71,201,223.71Z"/><path d="M216.93,222.51V213H219v9.3c0,2.94,1.38,4.26,3.42,4.26,2.73,0,4.38-2.34,4.38-5.37V213h2.1v15h-2v-3.09a5.14,5.14,0,0,1-4.86,3.45C218.31,228.36,216.93,226.08,216.93,222.51Z"/><path d="M233.19,223.71l2.13-.36c.36,2.13,1.89,3.27,4.26,3.27,2.19,0,3.42-1.05,3.42-2.55s-.84-2.1-2.43-2.4l-2.91-.57c-2.49-.48-3.9-1.83-3.9-4.11,0-2.52,2.13-4.35,5.52-4.35s5.49,1.47,5.79,4.14l-2.1.45c-.3-1.83-1.59-2.88-3.78-2.88s-3.39,1-3.39,2.55c0,1.41.93,2.1,2.49,2.4l2.94.57c2.67.54,3.84,1.83,3.84,4,0,2.67-2,4.47-5.55,4.47S233.67,226.71,233.19,223.71Z"/><path d="M256.08,220.5c0-4.89,2.61-7.86,6.81-7.86a5.67,5.67,0,0,1,6.06,5.43l-2.13.24c-.3-2.49-1.74-3.84-4-3.84-2.79,0-4.5,2.25-4.5,6s1.71,6.06,4.59,6.06c2.25,0,3.66-1.35,4.05-3.84l2,.3c-.54,3.39-2.76,5.37-6.06,5.37C258.72,228.36,256.08,225.33,256.08,220.5Z"/><path d="M271.83,224a3.79,3.79,0,0,1,1.83-3.36,12.9,12.9,0,0,1,4.92-1.35l3.32-.39v-.24c0-3.09-1.07-4.32-3.63-4.32-2.24,0-3.62,1.17-3.74,3.3h-2.25c.18-3.09,2.52-5,6-5,4,0,5.76,1.86,5.76,6.21v3.9a21.23,21.23,0,0,0,.47,5.25H282.3a21.94,21.94,0,0,1-.28-3,5.12,5.12,0,0,1-5.21,3.36C273.81,228.36,271.83,226.62,271.83,224Zm10.11-2.58v-1l-4.26.6c-2.55.36-3.66,1.23-3.66,2.88s1.26,2.64,3.27,2.64C280.08,226.62,281.94,224.52,281.94,221.46Z"/><path d="M289.31,213h2v3.3a5.1,5.1,0,0,1,5.13-3.66c3.35,0,5.09,2.07,5.09,6.09V228h-2.09v-9.15c0-2.91-1.27-4.41-3.63-4.41-2.7,0-4.41,2.16-4.41,5.67V228h-2.08Z"/><path d="M304.26,213H307v-4l2.1-.9V213H313v1.74h-3.86v9c0,1.77.78,2.55,2.34,2.55a6,6,0,0,0,1.52-.18V228a7,7,0,0,1-2.06.27c-2.91,0-3.9-1.77-3.9-4.44v-9.09h-2.76Z"/><path d="M315,220.5c0-4.89,2.73-7.86,6.9-7.86s6.86,3,6.86,7.86-2.73,7.86-6.86,7.86S315,225.39,315,220.5Zm11.54,0c0-3.9-1.77-6-4.64-6s-4.68,2.13-4.68,6,1.76,6,4.68,6S326.54,224.4,326.54,220.5Z"/><path d="M333.06,213h2v3.3a5.11,5.11,0,0,1,5.13-3.66c3.35,0,5.1,2.07,5.1,6.09V228h-2.1v-9.15c0-2.91-1.27-4.41-3.63-4.41-2.7,0-4.41,2.16-4.41,5.67V228h-2.07Z"/><path d="M349.14,224a3.79,3.79,0,0,1,1.83-3.36,12.9,12.9,0,0,1,4.92-1.35l3.32-.39v-.24c0-3.09-1.07-4.32-3.63-4.32-2.24,0-3.63,1.17-3.74,3.3h-2.25c.18-3.09,2.51-5,6-5,4,0,5.75,1.86,5.75,6.21v3.9a21.14,21.14,0,0,0,.48,5.25H359.6a20.58,20.58,0,0,1-.27-3,5.14,5.14,0,0,1-5.22,3.36C351.11,228.36,349.14,226.62,349.14,224Zm10.1-2.58v-1l-4.26.6c-2.54.36-3.66,1.23-3.66,2.88s1.27,2.64,3.28,2.64C357.39,226.62,359.24,224.52,359.24,221.46Z"/><path d="M368.84,228h-2.07V206.25h2.07Z"/><path d="M394.22,221H383.33c0,3.39,1.89,5.46,4.8,5.46a4.21,4.21,0,0,0,4.23-3.21l1.77.72a6.07,6.07,0,0,1-6.15,4.35c-4.26,0-6.75-2.73-6.75-7.77s2.52-8,6.66-8,6.33,2.4,6.33,7Zm-2.13-2c0-3.09-1.56-4.74-4.23-4.74s-4.47,1.92-4.53,5h8.76Z"/><path d="M396.05,213h2.76v-4l2.1-.9V213h3.87v1.74h-3.87v9c0,1.77.78,2.55,2.34,2.55a6.12,6.12,0,0,0,1.53-.18V228a7.07,7.07,0,0,1-2.07.27c-2.91,0-3.9-1.77-3.9-4.44v-9.09h-2.76Z"/><path d="M415.28,220.5c0-4.62,2.62-7.86,6.42-7.86a4.77,4.77,0,0,1,4.71,3.09v-9.48h2.1V228h-2v-3.18a5.23,5.23,0,0,1-5.06,3.54C417.74,228.36,415.28,225.18,415.28,220.5Zm11.16.33v-.63c0-3.42-1.65-5.7-4.43-5.7s-4.5,2.25-4.5,6,1.68,6,4.47,6S426.44,224.16,426.44,220.83Z"/><path d="M445.91,221H435c0,3.39,1.89,5.46,4.8,5.46a4.21,4.21,0,0,0,4.23-3.21l1.77.72a6.07,6.07,0,0,1-6.15,4.35c-4.26,0-6.74-2.73-6.74-7.77s2.51-8,6.65-8,6.33,2.4,6.33,7Zm-2.13-2c0-3.09-1.56-4.74-4.23-4.74s-4.47,1.92-4.53,5h8.76Zm-3.33-8.46h-2l3-4.29H444Z"/><path d="M452.3,213v2.91a4.47,4.47,0,0,1,4.44-3.27,4.23,4.23,0,0,1,4.32,3.21,4.76,4.76,0,0,1,4.62-3.21c2.94,0,4.62,2,4.62,5.55V228h-2.1v-9.63c0-2.55-1.08-3.93-3.15-3.93-2.28,0-3.69,1.68-3.69,4.44V228h-2.07v-9.75c0-2.43-1.14-3.81-3.12-3.81-2.28,0-3.75,1.86-3.75,4.8V228h-2.07V213Z"/><path d="M474.2,224a3.79,3.79,0,0,1,1.83-3.36,12.9,12.9,0,0,1,4.92-1.35l3.33-.39v-.24c0-3.09-1.08-4.32-3.63-4.32-2.25,0-3.63,1.17-3.75,3.3h-2.25c.18-3.09,2.52-5,6-5,4,0,5.76,1.86,5.76,6.21v3.9a21.14,21.14,0,0,0,.48,5.25h-2.19a20.58,20.58,0,0,1-.27-3,5.14,5.14,0,0,1-5.22,3.36C476.18,228.36,474.2,226.62,474.2,224Zm10.11-2.58v-1l-4.26.6c-2.55.36-3.66,1.23-3.66,2.88s1.26,2.64,3.27,2.64C482.45,226.62,484.31,224.52,484.31,221.46Z"/><path d="M498.29,212.64a3.63,3.63,0,0,1,.57,0v2h-.24a4.39,4.39,0,0,0-3.21,1.14c-1.38,1.38-1.65,3.39-1.65,5.28V228h-2.07V213h1.95v3.66C494.33,214.35,496,212.64,498.29,212.64Z"/><path d="M500.48,220.5c0-4.89,2.61-7.86,6.81-7.86a5.67,5.67,0,0,1,6.06,5.43l-2.13.24c-.3-2.49-1.74-3.84-4-3.84-2.79,0-4.5,2.25-4.5,6s1.71,6.06,4.59,6.06c2.25,0,3.66-1.35,4-3.84l2,.3c-.54,3.39-2.76,5.37-6.06,5.37C503.12,228.36,500.48,225.33,500.48,220.5Z"/><path d="M517.82,206.25h2.07v9.93a5.14,5.14,0,0,1,5.13-3.54c3.27,0,5,2.07,5,6.06V228h-2.1v-9.18c0-2.88-1.23-4.38-3.6-4.38-2.73,0-4.44,2.16-4.44,5.67V228h-2.07Z"/><path d="M546.83,221H535.94c0,3.39,1.89,5.46,4.8,5.46a4.21,4.21,0,0,0,4.23-3.21l1.77.72a6.07,6.07,0,0,1-6.15,4.35c-4.26,0-6.75-2.73-6.75-7.77s2.52-8,6.66-8,6.33,2.4,6.33,7Zm-2.13-2c0-3.09-1.56-4.74-4.23-4.74s-4.47,1.92-4.53,5h8.76Z"/><path d="M557.81,220.5c0-4.89,2.61-7.86,6.81-7.86a5.67,5.67,0,0,1,6.06,5.43l-2.13.24c-.3-2.49-1.74-3.84-4-3.84-2.79,0-4.5,2.25-4.5,6s1.71,6.06,4.59,6.06c2.25,0,3.66-1.35,4-3.84l2,.3c-.54,3.39-2.76,5.37-6.06,5.37C560.45,228.36,557.81,225.33,557.81,220.5Z"/><path d="M573.59,220.5c0-4.89,2.73-7.86,6.9-7.86s6.87,3,6.87,7.86-2.73,7.86-6.87,7.86S573.59,225.39,573.59,220.5Zm11.55,0c0-3.9-1.77-6-4.65-6s-4.68,2.13-4.68,6,1.77,6,4.68,6S585.14,224.4,585.14,220.5Z"/><path d="M593.6,213v2.91a4.47,4.47,0,0,1,4.44-3.27,4.23,4.23,0,0,1,4.32,3.21,4.76,4.76,0,0,1,4.62-3.21c2.94,0,4.62,2,4.62,5.55V228h-2.1v-9.63c0-2.55-1.08-3.93-3.15-3.93-2.28,0-3.69,1.68-3.69,4.44V228h-2.07v-9.75c0-2.43-1.14-3.81-3.12-3.81-2.28,0-3.75,1.86-3.75,4.8V228h-2.07V213Z"/><path d="M618.77,213v2.91a4.47,4.47,0,0,1,4.44-3.27,4.23,4.23,0,0,1,4.32,3.21,4.76,4.76,0,0,1,4.62-3.21c2.94,0,4.62,2,4.62,5.55V228h-2.1v-9.63c0-2.55-1.08-3.93-3.15-3.93-2.28,0-3.69,1.68-3.69,4.44V228h-2.07v-9.75c0-2.43-1.14-3.81-3.12-3.81-2.28,0-3.75,1.86-3.75,4.8V228h-2.07V213Z"/><path d="M641.57,222.51V213h2.07v9.3c0,2.94,1.38,4.26,3.42,4.26,2.73,0,4.38-2.34,4.38-5.37V213h2.1v15h-2v-3.09a5.14,5.14,0,0,1-4.86,3.45C643,228.36,641.57,226.08,641.57,222.51Z"/><path d="M659.24,213h2v3.3a5.11,5.11,0,0,1,5.13-3.66c3.36,0,5.1,2.07,5.1,6.09V228h-2.1v-9.15c0-2.91-1.26-4.41-3.63-4.41-2.7,0-4.41,2.16-4.41,5.67V228h-2.07Z"/><path d="M675.32,224a3.79,3.79,0,0,1,1.83-3.36,12.9,12.9,0,0,1,4.92-1.35l3.33-.39v-.24c0-3.09-1.08-4.32-3.63-4.32-2.25,0-3.63,1.17-3.75,3.3h-2.25c.18-3.09,2.52-5,6-5,4,0,5.76,1.86,5.76,6.21v3.9A21.14,21.14,0,0,0,688,228h-2.19a20.58,20.58,0,0,1-.27-3,5.14,5.14,0,0,1-5.22,3.36C677.3,228.36,675.32,226.62,675.32,224Zm10.11-2.58v-1l-4.26.6c-2.55.36-3.66,1.23-3.66,2.88s1.26,2.64,3.27,2.64C683.57,226.62,685.43,224.52,685.43,221.46Z"/><path d="M695,228H693V206.25H695Z"/><path d="M712.46,221H701.57c0,3.39,1.89,5.46,4.8,5.46a4.21,4.21,0,0,0,4.23-3.21l1.77.72a6.07,6.07,0,0,1-6.15,4.35c-4.26,0-6.75-2.73-6.75-7.77s2.52-8,6.66-8,6.33,2.4,6.33,7Zm-2.13-2c0-3.09-1.56-4.74-4.23-4.74s-4.47,1.92-4.53,5h8.76Z"/><path d="M41.82,283a4.59,4.59,0,0,1-3.66,1.65h-1v-2h.57a4.34,4.34,0,0,0,4.38-3.54H44V300H41.82Z"/><path d="M52.77,300H50v-3.36h2.82Z"/><path d="M118.35,290.91h-4.89V300h-2.31V278.7h7.62c5.49,0,6.93,3.06,6.93,6.09a5.65,5.65,0,0,1-4.89,5.82l5.55,9.39h-2.64Zm-4.89-2h5.1c3.45,0,4.68-1.83,4.68-4.14s-1.2-4.11-4.68-4.11h-5.1Z"/><path d="M141.69,293H130.8c0,3.39,1.89,5.46,4.8,5.46a4.21,4.21,0,0,0,4.23-3.21l1.77.72a6.07,6.07,0,0,1-6.15,4.35c-4.26,0-6.75-2.73-6.75-7.77s2.52-7.95,6.66-7.95,6.33,2.4,6.33,7Zm-2.13-2c0-3.09-1.56-4.74-4.23-4.74s-4.47,1.92-4.53,5h8.76Z"/><path d="M144.72,295.71l2.13-.36c.36,2.13,1.89,3.27,4.26,3.27,2.19,0,3.42-1.05,3.42-2.55s-.84-2.1-2.43-2.4l-2.91-.57c-2.49-.48-3.9-1.83-3.9-4.11,0-2.52,2.13-4.35,5.52-4.35s5.49,1.47,5.79,4.14l-2.1.45c-.3-1.83-1.59-2.88-3.78-2.88s-3.39,1-3.39,2.55c0,1.41.93,2.1,2.49,2.4l2.94.57c2.67.54,3.84,1.83,3.84,4,0,2.67-2,4.47-5.55,4.47S145.2,298.71,144.72,295.71Z"/><path d="M158.61,285h2.76v-4l2.1-.9V285h3.87v1.74h-3.87v9c0,1.77.78,2.55,2.34,2.55a6.12,6.12,0,0,0,1.53-.18V300a7.07,7.07,0,0,1-2.07.27c-2.91,0-3.9-1.77-3.9-4.44v-9.09h-2.76Z"/><path d="M171.15,279h2.37v3.3h-2.37Zm.15,6h2.07v15H171.3Z"/><path d="M176.85,285h2.76v-4l2.1-.9V285h3.87v1.74h-3.87v9c0,1.77.78,2.55,2.34,2.55a6.12,6.12,0,0,0,1.53-.18V300a7.07,7.07,0,0,1-2.07.27c-2.91,0-3.9-1.77-3.9-4.44v-9.09h-2.76Z"/><path d="M189.09,294.51V285h2.07v9.3c0,2.94,1.38,4.26,3.42,4.26,2.73,0,4.38-2.34,4.38-5.37V285h2.1v15h-2v-3.09a5.14,5.14,0,0,1-4.86,3.45C190.47,300.36,189.09,298.08,189.09,294.51Z"/><path d="M204.54,285h2.76v-4l2.1-.9V285h3.87v1.74H209.4v9c0,1.77.78,2.55,2.34,2.55a6.12,6.12,0,0,0,1.53-.18V300a7.07,7.07,0,0,1-2.07.27c-2.91,0-3.9-1.77-3.9-4.44v-9.09h-2.76Z"/><path d="M217.08,279h2.37v3.3h-2.37Zm.15,6h2.07v15h-2.07Z"/><path d="M223.59,292.5c0-4.89,2.73-7.86,6.9-7.86s6.87,3,6.87,7.86-2.73,7.86-6.87,7.86S223.59,297.39,223.59,292.5Zm11.55,0c0-3.9-1.77-6-4.65-6s-4.68,2.13-4.68,6,1.77,6,4.68,6S235.14,296.4,235.14,292.5Z"/><path d="M241.65,285h2v3.3a5.11,5.11,0,0,1,5.13-3.66c3.36,0,5.1,2.07,5.1,6.09V300h-2.1v-9.15c0-2.91-1.26-4.41-3.63-4.41-2.7,0-4.41,2.16-4.41,5.67V300h-2.07Z"/><path d="M265.62,292.5c0-4.62,2.61-7.86,6.42-7.86a4.78,4.78,0,0,1,4.71,3.09v-9.48h2.1V300h-2v-3.18a5.23,5.23,0,0,1-5.07,3.54C268.08,300.36,265.62,297.18,265.62,292.5Zm11.16.33v-.63c0-3.42-1.65-5.7-4.44-5.7s-4.5,2.25-4.5,6,1.68,6,4.47,6S276.78,296.16,276.78,292.83Z"/><path d="M296.25,293H285.36c0,3.39,1.89,5.46,4.8,5.46a4.21,4.21,0,0,0,4.23-3.21l1.77.72a6.07,6.07,0,0,1-6.15,4.35c-4.26,0-6.75-2.73-6.75-7.77s2.52-7.95,6.66-7.95,6.33,2.4,6.33,7Zm-2.13-2c0-3.09-1.56-4.74-4.23-4.74s-4.47,1.92-4.53,5h8.76Z"/><path d="M310.86,300h-2.07V278.25h2.07Z"/><path d="M315.36,296a3.79,3.79,0,0,1,1.83-3.36,12.9,12.9,0,0,1,4.92-1.35l3.33-.39v-.24c0-3.09-1.08-4.32-3.63-4.32-2.25,0-3.63,1.17-3.75,3.3h-2.25c.18-3.09,2.52-5,6-5,4,0,5.76,1.86,5.76,6.21v3.9A21.14,21.14,0,0,0,328,300h-2.19a20.58,20.58,0,0,1-.27-3,5.14,5.14,0,0,1-5.22,3.36C317.34,300.36,315.36,298.62,315.36,296Zm10.11-2.58v-1l-4.26.6c-2.55.36-3.66,1.23-3.66,2.88s1.26,2.64,3.27,2.64C323.61,298.62,325.47,296.52,325.47,293.46Z"/><path d="M339.39,295.71l2.13-.36c.36,2.13,1.89,3.27,4.26,3.27,2.19,0,3.42-1.05,3.42-2.55s-.84-2.1-2.43-2.4l-2.91-.57c-2.49-.48-3.9-1.83-3.9-4.11,0-2.52,2.13-4.35,5.52-4.35s5.49,1.47,5.79,4.14l-2.1.45c-.3-1.83-1.59-2.88-3.78-2.88s-3.39,1-3.39,2.55c0,1.41.93,2.1,2.49,2.4l2.94.57c2.67.54,3.84,1.83,3.84,4,0,2.67-2,4.47-5.55,4.47S339.87,298.71,339.39,295.71Z"/><path d="M367.32,293H356.43c0,3.39,1.89,5.46,4.8,5.46a4.21,4.21,0,0,0,4.23-3.21l1.77.72a6.07,6.07,0,0,1-6.15,4.35c-4.26,0-6.75-2.73-6.75-7.77s2.52-7.95,6.66-7.95,6.33,2.4,6.33,7Zm-2.13-2c0-3.09-1.56-4.74-4.23-4.74s-4.47,1.92-4.53,5h8.76Zm-3.33-8.46h-2l3-4.29h2.58Z"/><path d="M370.29,296a3.79,3.79,0,0,1,1.83-3.36,12.9,12.9,0,0,1,4.92-1.35l3.32-.39v-.24c0-3.09-1.07-4.32-3.63-4.32-2.24,0-3.63,1.17-3.74,3.3h-2.25c.18-3.09,2.52-5,6-5,4,0,5.76,1.86,5.76,6.21v3.9a21.23,21.23,0,0,0,.47,5.25h-2.18a20.46,20.46,0,0,1-.28-3,5.12,5.12,0,0,1-5.21,3.36C372.27,300.36,370.29,298.62,370.29,296Zm10.11-2.58v-1l-4.26.6c-2.55.36-3.66,1.23-3.66,2.88s1.26,2.64,3.27,2.64C378.54,298.62,380.4,296.52,380.4,293.46Z"/><path d="M387.78,285h2v3.3a5.11,5.11,0,0,1,5.13-3.66c3.36,0,5.1,2.07,5.1,6.09V300h-2.1v-9.15c0-2.91-1.26-4.41-3.63-4.41-2.7,0-4.41,2.16-4.41,5.67V300h-2.07Z"/><path d="M403.8,292.5c0-4.89,2.61-7.86,6.81-7.86a5.67,5.67,0,0,1,6.06,5.43l-2.13.24c-.3-2.49-1.74-3.84-4-3.84-2.79,0-4.5,2.25-4.5,6s1.71,6.06,4.59,6.06c2.25,0,3.66-1.35,4.05-3.84l2,.3c-.54,3.39-2.76,5.37-6.06,5.37C406.44,300.36,403.8,297.33,403.8,292.5Z"/><path d="M432.56,293H421.68c0,3.39,1.88,5.46,4.8,5.46a4.21,4.21,0,0,0,4.22-3.21l1.78.72a6.09,6.09,0,0,1-6.16,4.35c-4.26,0-6.74-2.73-6.74-7.77s2.52-7.95,6.65-7.95,6.33,2.4,6.33,7Zm-2.12-2c0-3.09-1.57-4.74-4.24-4.74s-4.47,1.92-4.52,5h8.76Z"/><path d="M443.54,292.5c0-4.62,2.61-7.86,6.42-7.86a4.78,4.78,0,0,1,4.71,3.09v-9.48h2.1V300h-2v-3.18a5.23,5.23,0,0,1-5.06,3.54C446,300.36,443.54,297.18,443.54,292.5Zm11.16.33v-.63c0-3.42-1.65-5.7-4.43-5.7s-4.5,2.25-4.5,6,1.67,6,4.46,6S454.7,296.16,454.7,292.83Z"/><path d="M474.17,293H463.28c0,3.39,1.89,5.46,4.8,5.46a4.21,4.21,0,0,0,4.23-3.21l1.77.72a6.07,6.07,0,0,1-6.15,4.35c-4.26,0-6.74-2.73-6.74-7.77s2.51-7.95,6.65-7.95,6.33,2.4,6.33,7Zm-2.13-2c0-3.09-1.56-4.74-4.23-4.74s-4.47,1.92-4.53,5H472Z"/><path d="M485.16,292.5c0-4.89,2.61-7.86,6.81-7.86a5.66,5.66,0,0,1,6,5.43l-2.12.24c-.3-2.49-1.75-3.84-4-3.84-2.78,0-4.49,2.25-4.49,6s1.71,6.06,4.59,6.06c2.25,0,3.65-1.35,4-3.84l2,.3c-.54,3.39-2.75,5.37-6,5.37C487.8,300.36,485.16,297.33,485.16,292.5Z"/><path d="M500.94,292.5c0-4.89,2.72-7.86,6.89-7.86s6.87,3,6.87,7.86-2.73,7.86-6.87,7.86S500.94,297.39,500.94,292.5Zm11.54,0c0-3.9-1.77-6-4.65-6s-4.68,2.13-4.68,6,1.77,6,4.68,6S512.48,296.4,512.48,292.5Z"/><path d="M519,285h2v3.3a5.11,5.11,0,0,1,5.13-3.66c3.36,0,5.1,2.07,5.1,6.09V300h-2.1v-9.15c0-2.91-1.26-4.41-3.63-4.41-2.7,0-4.41,2.16-4.41,5.67V300H519Z"/><path d="M535,292.5c0-4.89,2.61-7.86,6.81-7.86a5.67,5.67,0,0,1,6.06,5.43l-2.13.24c-.3-2.49-1.74-3.84-4-3.84-2.79,0-4.5,2.25-4.5,6s1.71,6.06,4.59,6.06c2.25,0,3.66-1.35,4-3.84l2,.3c-.54,3.39-2.76,5.37-6.06,5.37C537.65,300.36,535,297.33,535,292.5Z"/><path d="M563.78,293H552.89c0,3.39,1.89,5.46,4.8,5.46a4.21,4.21,0,0,0,4.23-3.21l1.77.72a6.07,6.07,0,0,1-6.15,4.35c-4.26,0-6.75-2.73-6.75-7.77s2.52-7.95,6.66-7.95,6.33,2.4,6.33,7Zm-2.13-2c0-3.09-1.56-4.74-4.23-4.74s-4.47,1.92-4.53,5h8.76Z"/><path d="M574.82,284.64a3.63,3.63,0,0,1,.57,0v2h-.24a4.39,4.39,0,0,0-3.21,1.14c-1.38,1.38-1.65,3.39-1.65,5.28V300h-2.07V285h1.95v3.66C570.86,286.35,572.51,284.64,574.82,284.64Z"/><path d="M577.55,285h2.76v-4l2.1-.9V285h3.87v1.74h-3.87v9c0,1.77.78,2.55,2.34,2.55a6.12,6.12,0,0,0,1.53-.18V300a7.07,7.07,0,0,1-2.07.27c-2.91,0-3.9-1.77-3.9-4.44v-9.09h-2.76Z"/><path d="M588.62,296a3.79,3.79,0,0,1,1.83-3.36,12.9,12.9,0,0,1,4.92-1.35l3.33-.39v-.24c0-3.09-1.08-4.32-3.63-4.32-2.25,0-3.63,1.17-3.75,3.3h-2.25c.18-3.09,2.52-5,6-5,4,0,5.76,1.86,5.76,6.21v3.9a21.14,21.14,0,0,0,.48,5.25h-2.19a20.58,20.58,0,0,1-.27-3,5.14,5.14,0,0,1-5.22,3.36C590.6,300.36,588.62,298.62,588.62,296Zm10.11-2.58v-1l-4.26.6c-2.55.36-3.66,1.23-3.66,2.88s1.26,2.64,3.27,2.64C596.87,298.62,598.73,296.52,598.73,293.46Z"/><path d="M603.38,285h2.76v-4l2.1-.9V285h3.87v1.74h-3.87v9c0,1.77.78,2.55,2.34,2.55a6.12,6.12,0,0,0,1.53-.18V300a7.07,7.07,0,0,1-2.07.27c-2.91,0-3.9-1.77-3.9-4.44v-9.09h-2.76Z"/><path d="M615.92,279h2.37v3.3h-2.37Zm.15,6h2.07v15h-2.07Z"/><path d="M622.43,292.5c0-4.89,2.73-7.86,6.9-7.86s6.87,3,6.87,7.86-2.73,7.86-6.87,7.86S622.43,297.39,622.43,292.5Zm11.55,0c0-3.9-1.77-6-4.65-6s-4.68,2.13-4.68,6,1.77,6,4.68,6S634,296.4,634,292.5Z"/><path d="M640.49,285h2v3.3a5.11,5.11,0,0,1,5.13-3.66c3.36,0,5.1,2.07,5.1,6.09V300h-2.1v-9.15c0-2.91-1.26-4.41-3.63-4.41-2.7,0-4.41,2.16-4.41,5.67V300h-2.07Z"/><path d="M666.17,300V278.7h2.31V300Z"/><path d="M681,292.5c0-4.62,2.61-7.86,6.42-7.86a4.78,4.78,0,0,1,4.71,3.09v-9.48h2.1V300h-2v-3.18a5.23,5.23,0,0,1-5.07,3.54C683.48,300.36,681,297.18,681,292.5Zm11.16.33v-.63c0-3.42-1.65-5.7-4.44-5.7s-4.5,2.25-4.5,6,1.68,6,4.47,6S692.18,296.16,692.18,292.83Z"/><path d="M699.62,294.51V285h2.07v9.3c0,2.94,1.38,4.26,3.42,4.26,2.73,0,4.38-2.34,4.38-5.37V285h2.1v15h-2v-3.09a5.14,5.14,0,0,1-4.86,3.45C701,300.36,699.62,298.08,699.62,294.51Z"/><path d="M728.21,283a4.59,4.59,0,0,1-3.66,1.65h-1v-2h.57a4.34,4.34,0,0,0,4.38-3.54h1.86V300h-2.19Z"/><path d="M735.77,289.56c0-6.66,2.76-10.86,7.92-10.86s7.89,4.2,7.89,10.89-2.73,10.86-7.89,10.86S735.77,296.25,735.77,289.56Zm13.62,0c0-5.55-1.92-9-5.7-9s-5.7,3.45-5.7,9,1.92,9,5.7,9S749.39,295.14,749.39,289.59Z"/><path d="M762.59,292.5c0-4.89,2.73-7.86,6.9-7.86s6.87,3,6.87,7.86-2.73,7.86-6.87,7.86S762.59,297.39,762.59,292.5Zm11.55,0c0-3.9-1.77-6-4.65-6s-4.68,2.13-4.68,6,1.77,6,4.68,6S774.14,296.4,774.14,292.5Z"/><path d="M779.24,292.5c0-4.89,2.61-7.86,6.81-7.86a5.67,5.67,0,0,1,6.06,5.43l-2.13.24c-.3-2.49-1.74-3.84-4-3.84-2.79,0-4.5,2.25-4.5,6s1.71,6.06,4.59,6.06c2.25,0,3.66-1.35,4.05-3.84l2,.3c-.54,3.39-2.76,5.37-6.06,5.37C781.88,300.36,779.24,297.33,779.24,292.5Z"/><path d="M793.82,285h2.76v-4l2.1-.9V285h3.87v1.74h-3.87v9c0,1.77.78,2.55,2.34,2.55a6.12,6.12,0,0,0,1.53-.18V300a7.07,7.07,0,0,1-2.07.27c-2.91,0-3.9-1.77-3.9-4.44v-9.09h-2.76Z"/><path d="M804.59,292.5c0-4.89,2.73-7.86,6.9-7.86s6.87,3,6.87,7.86-2.73,7.86-6.87,7.86S804.59,297.39,804.59,292.5Zm11.55,0c0-3.9-1.77-6-4.65-6s-4.68,2.13-4.68,6,1.77,6,4.68,6S816.14,296.4,816.14,292.5Z"/><path d="M824.78,297l-.39,3H822.8V278.25h2.07v9.81a5.2,5.2,0,0,1,5-3.42c3.69,0,6.09,3.21,6.09,7.86s-2.46,7.86-6.24,7.86A5.2,5.2,0,0,1,824.78,297Zm9-4.5c0-3.63-1.62-6-4.5-6s-4.44,2.25-4.44,5.7v.72c0,3.33,1.68,5.58,4.38,5.58S833.78,296.16,833.78,292.5Z"/><path d="M846.89,284.64a3.63,3.63,0,0,1,.57,0v2h-.24a4.39,4.39,0,0,0-3.21,1.14c-1.38,1.38-1.65,3.39-1.65,5.28V300h-2.07V285h2v3.66C842.93,286.35,844.58,284.64,846.89,284.64Z"/><path d="M862.07,293H851.18c0,3.39,1.89,5.46,4.8,5.46a4.21,4.21,0,0,0,4.23-3.21L862,296a6.07,6.07,0,0,1-6.15,4.35c-4.26,0-6.75-2.73-6.75-7.77s2.52-7.95,6.66-7.95,6.33,2.4,6.33,7Zm-2.13-2c0-3.09-1.56-4.74-4.23-4.74s-4.47,1.92-4.53,5h8.76Z"/><path d="M872.75,298.17a71,71,0,0,0,7.5-6.36c2.52-2.52,3.48-4.41,3.48-6.87,0-2.73-1.53-4.32-4.17-4.32s-4.32,1.59-4.32,4.08a10.11,10.11,0,0,0,.24,1.92l-2.22-.21a6.9,6.9,0,0,1-.21-1.74c0-3.66,2.49-6,6.63-6S886,281,886,284.91c0,2.85-1.38,5.34-4.38,8.22a44.1,44.1,0,0,1-5.94,4.89h10.65v2H872.75Z"/><path d="M888.8,289.56c0-6.66,2.76-10.86,7.92-10.86s7.89,4.2,7.89,10.89-2.73,10.86-7.89,10.86S888.8,296.25,888.8,289.56Zm13.62,0c0-5.55-1.92-9-5.7-9s-5.7,3.45-5.7,9,1.92,9,5.7,9S902.42,295.14,902.42,289.59Z"/><path d="M907.37,298.17a71,71,0,0,0,7.5-6.36c2.52-2.52,3.48-4.41,3.48-6.87,0-2.73-1.53-4.32-4.17-4.32s-4.32,1.59-4.32,4.08a10.11,10.11,0,0,0,.24,1.92l-2.22-.21a6.9,6.9,0,0,1-.21-1.74c0-3.66,2.49-6,6.63-6s6.36,2.25,6.36,6.21c0,2.85-1.38,5.34-4.38,8.22a44.1,44.1,0,0,1-5.94,4.89H921v2H907.37Z"/><path d="M923.42,289.56c0-6.66,2.76-10.86,7.92-10.86s7.89,4.2,7.89,10.89-2.73,10.86-7.89,10.86S923.42,296.25,923.42,289.56Zm13.62,0c0-5.55-1.92-9-5.7-9s-5.7,3.45-5.7,9,1.92,9,5.7,9S937,295.14,937,289.59Z"/><path d="M37.14,370.17a71,71,0,0,0,7.5-6.36c2.52-2.52,3.48-4.41,3.48-6.87,0-2.73-1.53-4.32-4.17-4.32s-4.32,1.59-4.32,4.08a10.11,10.11,0,0,0,.24,1.92l-2.22-.21a6.9,6.9,0,0,1-.21-1.74c0-3.66,2.49-6,6.63-6s6.36,2.25,6.36,6.21c0,2.85-1.38,5.34-4.38,8.22A44.1,44.1,0,0,1,40.11,370H50.76v2H37.14Z"/><path d="M57.24,372H54.42v-3.36h2.82Z"/><path d="M111.15,372V350.7h2.31V372Z"/><path d="M118.05,364.5c0-4.62,2.61-7.86,6.42-7.86a4.78,4.78,0,0,1,4.71,3.09v-9.48h2.1V372h-2v-3.18a5.23,5.23,0,0,1-5.07,3.54C120.51,372.36,118.05,369.18,118.05,364.5Zm11.16.33v-.63c0-3.42-1.65-5.7-4.44-5.7s-4.5,2.25-4.5,6,1.68,6,4.47,6S129.21,368.16,129.21,364.83Z"/><path d="M148.68,365H137.79c0,3.39,1.89,5.46,4.8,5.46a4.21,4.21,0,0,0,4.23-3.21l1.77.72a6.07,6.07,0,0,1-6.15,4.35c-4.26,0-6.75-2.73-6.75-7.77s2.52-7.95,6.66-7.95,6.33,2.4,6.33,7Zm-2.13-2c0-3.09-1.56-4.74-4.23-4.74s-4.47,1.92-4.53,5h8.76Z"/><path d="M153.12,357h2v3.3a5.11,5.11,0,0,1,5.13-3.66c3.36,0,5.1,2.07,5.1,6.09V372h-2.1v-9.15c0-2.91-1.26-4.41-3.63-4.41-2.7,0-4.41,2.16-4.41,5.67V372h-2.07Z"/><path d="M168,357h2.76v-4l2.1-.9V357h3.87v1.74h-3.87v9c0,1.77.78,2.55,2.34,2.55a6.12,6.12,0,0,0,1.53-.18V372a7.07,7.07,0,0,1-2.07.27c-2.91,0-3.9-1.77-3.9-4.44v-9.09H168Z"/><path d="M180.57,351h2.37v3.3h-2.37Zm.15,6h2.07v15h-2.07Z"/><path d="M195.12,358.74h-3.9V372h-2.07V358.74h-2.82V357h2.82v-2.49c0-2.7,1.59-4.44,4.2-4.44a6.37,6.37,0,0,1,1.77.21v1.8a8.76,8.76,0,0,0-1.5-.15c-1.68,0-2.4.9-2.4,2.85V357h3.9Zm3.45-7.74h2.37v3.3h-2.37Zm.15,6h2.07v15h-2.07Z"/><path d="M205.08,364.5c0-4.89,2.61-7.86,6.81-7.86a5.67,5.67,0,0,1,6.06,5.43l-2.13.24c-.3-2.49-1.74-3.84-4-3.84-2.79,0-4.5,2.25-4.5,6s1.71,6.06,4.59,6.06c2.25,0,3.66-1.35,4.05-3.84l2,.3c-.54,3.39-2.76,5.37-6.06,5.37C207.72,372.36,205.08,369.33,205.08,364.5Z"/><path d="M220.83,368a3.79,3.79,0,0,1,1.83-3.36,12.9,12.9,0,0,1,4.92-1.35l3.33-.39v-.24c0-3.09-1.08-4.32-3.63-4.32-2.25,0-3.63,1.17-3.75,3.3h-2.25c.18-3.09,2.52-5,6-5,4,0,5.76,1.86,5.76,6.21v3.9a21.14,21.14,0,0,0,.48,5.25H231.3a20.58,20.58,0,0,1-.27-3,5.14,5.14,0,0,1-5.22,3.36C222.81,372.36,220.83,370.62,220.83,368Zm10.11-2.58v-1l-4.26.6c-2.55.36-3.66,1.23-3.66,2.88s1.26,2.64,3.27,2.64C229.08,370.62,230.94,368.52,230.94,365.46Z"/><path d="M235.59,357h2.76v-4l2.1-.9V357h3.87v1.74h-3.87v9c0,1.77.78,2.55,2.34,2.55a6.12,6.12,0,0,0,1.53-.18V372a7.07,7.07,0,0,1-2.07.27c-2.91,0-3.9-1.77-3.9-4.44v-9.09h-2.76Z"/><path d="M248.13,351h2.37v3.3h-2.37Zm.15,6h2.07v15h-2.07Z"/><path d="M254.64,364.5c0-4.89,2.73-7.86,6.9-7.86s6.87,3,6.87,7.86-2.73,7.86-6.87,7.86S254.64,369.39,254.64,364.5Zm11.55,0c0-3.9-1.77-6-4.65-6s-4.68,2.13-4.68,6,1.77,6,4.68,6S266.19,368.4,266.19,364.5Z"/><path d="M272.7,357h2v3.3a5.11,5.11,0,0,1,5.13-3.66c3.36,0,5.1,2.07,5.1,6.09V372h-2.1v-9.15c0-2.91-1.26-4.41-3.63-4.41-2.7,0-4.41,2.16-4.41,5.67V372H272.7Z"/><path d="M296.67,364.5c0-4.62,2.61-7.86,6.42-7.86a4.78,4.78,0,0,1,4.71,3.09v-9.48h2.1V372h-2v-3.18a5.23,5.23,0,0,1-5.07,3.54C299.13,372.36,296.67,369.18,296.67,364.5Zm11.16.33v-.63c0-3.42-1.65-5.7-4.44-5.7s-4.5,2.25-4.5,6,1.68,6,4.47,6S307.83,368.16,307.83,364.83Z"/><path d="M327.3,365H316.41c0,3.39,1.89,5.46,4.8,5.46a4.21,4.21,0,0,0,4.23-3.21l1.77.72a6.07,6.07,0,0,1-6.15,4.35c-4.26,0-6.75-2.73-6.75-7.77s2.52-7.95,6.66-7.95,6.33,2.4,6.33,7Zm-2.13-2c0-3.09-1.56-4.74-4.23-4.74s-4.47,1.92-4.53,5h8.76Z"/><path d="M330.33,367.71l2.13-.36c.36,2.13,1.89,3.27,4.26,3.27,2.19,0,3.42-1.05,3.42-2.55s-.84-2.1-2.43-2.4l-2.91-.57c-2.49-.48-3.9-1.83-3.9-4.11,0-2.52,2.13-4.35,5.52-4.35s5.49,1.47,5.79,4.14l-2.1.45c-.3-1.83-1.59-2.88-3.78-2.88s-3.39,1-3.39,2.55c0,1.41.93,2.1,2.49,2.4l2.94.57c2.67.54,3.84,1.83,3.84,4,0,2.67-2,4.47-5.55,4.47S330.81,370.71,330.33,367.71Z"/><path d="M352.11,357h2.76v-4l2.1-.9V357h3.87v1.74H357v9c0,1.77.78,2.55,2.34,2.55a6.12,6.12,0,0,0,1.53-.18V372a7.07,7.07,0,0,1-2.07.27c-2.91,0-3.9-1.77-3.9-4.44v-9.09h-2.76Z"/><path d="M365,350.25H367v9.93a5.14,5.14,0,0,1,5.13-3.54c3.27,0,5,2.07,5,6.06V372h-2.09v-9.18c0-2.88-1.23-4.38-3.6-4.38-2.73,0-4.44,2.16-4.44,5.67V372H365Z"/><path d="M394,365H383.07c0,3.39,1.89,5.46,4.8,5.46a4.21,4.21,0,0,0,4.23-3.21l1.77.72a6.07,6.07,0,0,1-6.15,4.35c-4.26,0-6.75-2.73-6.75-7.77s2.52-7.95,6.66-7.95,6.33,2.4,6.33,7Zm-7.53-10.44-3.57-4.29h2.58l3,4.29Zm5.4,8.46c0-3.09-1.56-4.74-4.23-4.74s-4.47,1.92-4.53,5h8.76Z"/><path d="M400.35,357v2.91a4.46,4.46,0,0,1,4.43-3.27,4.23,4.23,0,0,1,4.32,3.21,4.77,4.77,0,0,1,4.63-3.21c2.93,0,4.61,2,4.61,5.55V372h-2.1v-9.63c0-2.55-1.08-3.93-3.15-3.93-2.28,0-3.69,1.68-3.69,4.44V372h-2.07v-9.75c0-2.43-1.14-3.81-3.11-3.81-2.28,0-3.75,1.86-3.75,4.8V372H398.4V357Z"/><path d="M435.18,365H424.29c0,3.39,1.89,5.46,4.8,5.46a4.19,4.19,0,0,0,4.22-3.21l1.78.72a6.08,6.08,0,0,1-6.15,4.35c-4.26,0-6.75-2.73-6.75-7.77s2.52-7.95,6.66-7.95,6.33,2.4,6.33,7Zm-2.13-2c0-3.09-1.57-4.74-4.24-4.74s-4.46,1.92-4.52,5h8.76Z"/><path d="M438.2,367.71l2.14-.36c.35,2.13,1.89,3.27,4.26,3.27,2.18,0,3.42-1.05,3.42-2.55s-.85-2.1-2.44-2.4l-2.9-.57c-2.49-.48-3.91-1.83-3.91-4.11,0-2.52,2.13-4.35,5.52-4.35s5.49,1.47,5.79,4.14l-2.1.45c-.29-1.83-1.58-2.88-3.78-2.88s-3.39,1-3.39,2.55c0,1.41.93,2.1,2.5,2.4l2.93.57c2.67.54,3.84,1.83,3.84,4,0,2.67-2,4.47-5.55,4.47S438.69,370.71,438.2,367.71Z"/><path d="M474.08,365H463.19c0,3.39,1.89,5.46,4.8,5.46a4.21,4.21,0,0,0,4.23-3.21L474,368a6.07,6.07,0,0,1-6.15,4.35c-4.26,0-6.74-2.73-6.74-7.77s2.51-7.95,6.65-7.95,6.33,2.4,6.33,7Zm-2.13-2c0-3.09-1.56-4.74-4.23-4.74s-4.47,1.92-4.53,5H472Z"/><path d="M475.89,357h2.76v-4l2.1-.9V357h3.86v1.74h-3.86v9c0,1.77.77,2.55,2.34,2.55a6,6,0,0,0,1.52-.18V372a7,7,0,0,1-2.06.27c-2.91,0-3.9-1.77-3.9-4.44v-9.09h-2.76Z"/><path d="M508.1,365H497.22c0,3.39,1.88,5.46,4.8,5.46a4.21,4.21,0,0,0,4.22-3.21L508,368a6.08,6.08,0,0,1-6.16,4.35c-4.26,0-6.75-2.73-6.75-7.77s2.53-7.95,6.66-7.95,6.33,2.4,6.33,7Zm-2.12-2c0-3.09-1.57-4.74-4.24-4.74s-4.47,1.92-4.52,5H506Z"/><path d="M512.54,357h2v3.3a5.11,5.11,0,0,1,5.13-3.66c3.36,0,5.1,2.07,5.1,6.09V372h-2.1v-9.15c0-2.91-1.26-4.41-3.63-4.41-2.7,0-4.41,2.16-4.41,5.67V372h-2.07Z"/><path d="M526.52,377.88v-1.8c.78.06,1.14.09,1.44.09,1.2,0,1.89-.57,1.89-2.61V357H532v16.8c0,2.34-1,4.26-3.69,4.26A8.15,8.15,0,0,1,526.52,377.88ZM529.7,351h2.37v3.3H529.7Z"/><path d="M549.2,365H538.31c0,3.39,1.89,5.46,4.8,5.46a4.21,4.21,0,0,0,4.23-3.21l1.77.72a6.07,6.07,0,0,1-6.15,4.35c-4.26,0-6.75-2.73-6.75-7.77s2.52-7.95,6.66-7.95,6.33,2.4,6.33,7Zm-2.13-2c0-3.09-1.56-4.74-4.23-4.74s-4.47,1.92-4.53,5h8.76Z"/><path d="M553.19,366.51V357h2.07v9.3c0,2.94,1.38,4.26,3.42,4.26,2.73,0,4.38-2.34,4.38-5.37V357h2.1v15h-2v-3.09a5.14,5.14,0,0,1-4.86,3.45C554.57,372.36,553.19,370.08,553.19,366.51Z"/><path d="M574.07,364.23,568.94,357h2.49l2.91,4.32c.51.78.81,1.29,1,1.68h0a15.43,15.43,0,0,1,1-1.68l2.76-4.32h2.58l-5,7.38,5.43,7.62h-2.49l-3.33-4.83a13.89,13.89,0,0,1-.93-1.62h0c-.18.33-.48.87-1,1.65L571,372h-2.49Z"/><path d="M37.2,438.06l2.16-.24c.12,3,2.07,4.77,5.13,4.77s4.71-1.53,4.71-4.38c0-2.61-1.71-4.14-4.89-4.14H43v-1.83h1.14c2.88,0,4.35-1.47,4.35-3.84s-1.56-3.84-4.26-3.84c-2.91,0-4.59,1.77-4.59,5l-2.1-.42c0-4,2.58-6.42,6.81-6.42,4,0,6.36,2.07,6.36,5.49a4.72,4.72,0,0,1-3.9,4.8c2.91.42,4.62,2.19,4.62,5.16,0,4-2.67,6.3-7,6.3S37.32,442,37.2,438.06Z"/><path d="M57.51,444H54.69v-3.36h2.82Z"/><path d="M125.58,428.79c0,3.81-2.73,6.24-7,6.24h-5.1v9h-2.31V422.7h7.41C122.85,422.7,125.58,425.07,125.58,428.79Zm-2.46,0c0-2.52-1.86-4.11-4.77-4.11h-4.89v8.37h4.89C121.26,433.05,123.12,431.4,123.12,428.79Z"/><path d="M135.69,428.64a3.63,3.63,0,0,1,.57,0v2H136a4.39,4.39,0,0,0-3.21,1.14c-1.38,1.38-1.65,3.39-1.65,5.28V444h-2.07V429H131v3.66C131.73,430.35,133.38,428.64,135.69,428.64Z"/><path d="M150.87,437H140c0,3.39,1.89,5.46,4.8,5.46a4.21,4.21,0,0,0,4.23-3.21l1.77.72a6.07,6.07,0,0,1-6.15,4.35c-4.26,0-6.75-2.73-6.75-7.77s2.52-7.95,6.66-7.95,6.33,2.4,6.33,7Zm-2.13-2c0-3.09-1.56-4.74-4.23-4.74s-4.47,1.92-4.53,5h8.76Zm-3.33-8.46h-2l3-4.29H149Z"/><path d="M153.9,439.71l2.13-.36c.36,2.13,1.89,3.27,4.26,3.27,2.19,0,3.42-1.05,3.42-2.55s-.84-2.1-2.43-2.4l-2.91-.57c-2.49-.48-3.9-1.83-3.9-4.11,0-2.52,2.13-4.35,5.52-4.35s5.49,1.47,5.79,4.14l-2.1.45c-.3-1.83-1.59-2.88-3.78-2.88s-3.39,1-3.39,2.55c0,1.41.93,2.1,2.49,2.4l2.94.57c2.67.54,3.84,1.83,3.84,4,0,2.67-2,4.47-5.55,4.47S154.38,442.71,153.9,439.71Z"/><path d="M181.83,437H170.94c0,3.39,1.89,5.46,4.8,5.46a4.21,4.21,0,0,0,4.23-3.21l1.77.72a6.07,6.07,0,0,1-6.15,4.35c-4.26,0-6.75-2.73-6.75-7.77s2.52-7.95,6.66-7.95,6.33,2.4,6.33,7Zm-2.13-2c0-3.09-1.56-4.74-4.23-4.74s-4.47,1.92-4.53,5h8.76Z"/><path d="M186.27,429h2v3.3a5.11,5.11,0,0,1,5.13-3.66c3.36,0,5.1,2.07,5.1,6.09V444h-2.1v-9.15c0-2.91-1.26-4.41-3.63-4.41-2.7,0-4.41,2.16-4.41,5.67V444h-2.07Z"/><path d="M201.21,429H204v-4l2.1-.9V429h3.87v1.74h-3.87v9c0,1.77.78,2.55,2.34,2.55a6.12,6.12,0,0,0,1.53-.18V444a7.07,7.07,0,0,1-2.07.27c-2.91,0-3.9-1.77-3.9-4.44v-9.09h-2.76Z"/><path d="M212.28,440a3.79,3.79,0,0,1,1.83-3.36,12.9,12.9,0,0,1,4.92-1.35l3.33-.39v-.24c0-3.09-1.08-4.32-3.63-4.32-2.25,0-3.63,1.17-3.75,3.3h-2.25c.18-3.09,2.52-5,6-5,4,0,5.76,1.86,5.76,6.21v3.9a21.14,21.14,0,0,0,.48,5.25h-2.19a20.58,20.58,0,0,1-.27-3,5.14,5.14,0,0,1-5.22,3.36C214.26,444.36,212.28,442.62,212.28,440Zm10.11-2.58v-1l-4.26.6c-2.55.36-3.66,1.23-3.66,2.88s1.26,2.64,3.27,2.64C220.53,442.62,222.39,440.52,222.39,437.46Z"/><path d="M227.07,429h2.76v-4l2.1-.9V429h3.87v1.74h-3.87v9c0,1.77.78,2.55,2.34,2.55a6.12,6.12,0,0,0,1.53-.18V444a7.07,7.07,0,0,1-2.07.27c-2.91,0-3.9-1.77-3.9-4.44v-9.09h-2.76Z"/><path d="M239.61,423H242v3.3h-2.37Zm.15,6h2.07v15h-2.07Z"/><path d="M246.12,436.5c0-4.89,2.73-7.86,6.9-7.86s6.87,3,6.87,7.86-2.73,7.86-6.87,7.86S246.12,441.39,246.12,436.5Zm11.55,0c0-3.9-1.77-6-4.65-6s-4.68,2.13-4.68,6,1.77,6,4.68,6S257.67,440.4,257.67,436.5Z"/><path d="M264.18,429h2v3.3a5.11,5.11,0,0,1,5.13-3.66c3.36,0,5.1,2.07,5.1,6.09V444h-2.1v-9.15c0-2.91-1.26-4.41-3.63-4.41-2.7,0-4.41,2.16-4.41,5.67V444h-2.07Z"/><path d="M301.14,437H290.25c0,3.39,1.89,5.46,4.8,5.46a4.21,4.21,0,0,0,4.23-3.21l1.77.72a6.07,6.07,0,0,1-6.15,4.35c-4.26,0-6.75-2.73-6.75-7.77s2.52-7.95,6.66-7.95,6.33,2.4,6.33,7Zm-2.13-2c0-3.09-1.56-4.74-4.23-4.74s-4.47,1.92-4.53,5H299Z"/><path d="M302.94,429h2.76v-4l2.1-.9V429h3.87v1.74H307.8v9c0,1.77.78,2.55,2.34,2.55a6.12,6.12,0,0,0,1.53-.18V444a7.07,7.07,0,0,1-2.07.27c-2.91,0-3.9-1.77-3.9-4.44v-9.09h-2.76Z"/><path d="M322.17,436.5c0-4.62,2.61-7.86,6.42-7.86a4.78,4.78,0,0,1,4.71,3.09v-9.48h2.1V444h-2v-3.18a5.23,5.23,0,0,1-5.07,3.54C324.63,444.36,322.17,441.18,322.17,436.5Zm11.16.33v-.63c0-3.42-1.65-5.7-4.44-5.7s-4.5,2.25-4.5,6,1.68,6,4.47,6S333.33,440.16,333.33,436.83Z"/><path d="M341.07,423h2.37v3.3h-2.37Zm.15,6h2.07v15h-2.07Z"/><path d="M347.58,439.71l2.13-.36c.36,2.13,1.89,3.27,4.26,3.27,2.19,0,3.42-1.05,3.42-2.55s-.84-2.1-2.43-2.4l-2.91-.57c-2.49-.48-3.9-1.83-3.9-4.11,0-2.52,2.13-4.35,5.52-4.35s5.49,1.47,5.79,4.14l-2.1.45c-.3-1.83-1.59-2.88-3.78-2.88s-3.39,1-3.39,2.55c0,1.41.93,2.1,2.49,2.4l2.94.57c2.67.54,3.84,1.83,3.84,4,0,2.67-2,4.47-5.55,4.47S348.06,442.71,347.58,439.71Z"/><path d="M362.52,436.5c0-4.89,2.61-7.86,6.81-7.86a5.68,5.68,0,0,1,6.06,5.43l-2.13.24c-.3-2.49-1.74-3.84-4-3.84-2.79,0-4.5,2.25-4.5,6s1.71,6.06,4.59,6.06c2.25,0,3.65-1.35,4.05-3.84l2,.3c-.54,3.39-2.76,5.37-6.06,5.37C365.16,444.36,362.52,441.33,362.52,436.5Z"/><path d="M379.26,438.51V429h2.06v9.3c0,2.94,1.38,4.26,3.42,4.26,2.73,0,4.38-2.34,4.38-5.37V429h2.1v15h-2v-3.09a5.14,5.14,0,0,1-4.86,3.45C380.64,444.36,379.26,442.08,379.26,438.51Z"/><path d="M395.52,439.71l2.13-.36c.35,2.13,1.88,3.27,4.25,3.27,2.19,0,3.42-1.05,3.42-2.55s-.84-2.1-2.43-2.4L400,437.1c-2.49-.48-3.9-1.83-3.9-4.11,0-2.52,2.13-4.35,5.52-4.35s5.49,1.47,5.79,4.14l-2.1.45c-.3-1.83-1.59-2.88-3.78-2.88s-3.39,1-3.39,2.55c0,1.41.93,2.1,2.49,2.4l2.94.57c2.67.54,3.84,1.83,3.84,4,0,2.67-2,4.47-5.55,4.47S396,442.71,395.52,439.71Z"/><path d="M410.24,439.71l2.13-.36c.36,2.13,1.89,3.27,4.26,3.27,2.19,0,3.42-1.05,3.42-2.55s-.84-2.1-2.43-2.4l-2.91-.57c-2.49-.48-3.9-1.83-3.9-4.11,0-2.52,2.13-4.35,5.52-4.35s5.49,1.47,5.79,4.14l-2.1.45c-.3-1.83-1.59-2.88-3.78-2.88s-3.39,1-3.39,2.55c0,1.41.93,2.1,2.49,2.4l2.94.57c2.67.54,3.84,1.83,3.84,4,0,2.67-2,4.47-5.55,4.47S410.72,442.71,410.24,439.71Z"/><path d="M426.44,423h2.37v3.3h-2.37Zm.15,6h2.07v15h-2.07Z"/><path d="M433,436.5c0-4.89,2.73-7.86,6.9-7.86s6.87,3,6.87,7.86-2.73,7.86-6.87,7.86S433,441.39,433,436.5Zm11.55,0c0-3.9-1.77-6-4.65-6s-4.68,2.13-4.68,6,1.77,6,4.68,6S444.5,440.4,444.5,436.5Z"/><path d="M451,429h2v3.3a5.11,5.11,0,0,1,5.13-3.66c3.36,0,5.1,2.07,5.1,6.09V444h-2.1v-9.15c0-2.91-1.26-4.41-3.63-4.41-2.7,0-4.41,2.16-4.41,5.67V444H451Z"/><path d="M475,440a3.79,3.79,0,0,1,1.83-3.36,12.9,12.9,0,0,1,4.92-1.35l3.33-.39v-.24c0-3.09-1.08-4.32-3.63-4.32-2.25,0-3.63,1.17-3.75,3.3h-2.25c.18-3.09,2.52-5,6-5,4,0,5.76,1.86,5.76,6.21v3.9a21.14,21.14,0,0,0,.48,5.25h-2.19a20.58,20.58,0,0,1-.27-3,5.14,5.14,0,0,1-5.22,3.36C477,444.36,475,442.62,475,440Zm10.11-2.58v-1l-4.26.6c-2.55.36-3.66,1.23-3.66,2.88s1.26,2.64,3.27,2.64C483.29,442.62,485.15,440.52,485.15,437.46Z"/><path d="M492.08,438.51V429h2.07v9.3c0,2.94,1.38,4.26,3.42,4.26,2.73,0,4.38-2.34,4.38-5.37V429h2.1v15h-2v-3.09a5.14,5.14,0,0,1-4.86,3.45C493.46,444.36,492.08,442.08,492.08,438.51Z"/><path d="M507.53,429h2.76v-4l2.1-.9V429h3.87v1.74h-3.87v9c0,1.77.78,2.55,2.34,2.55a6.12,6.12,0,0,0,1.53-.18V444a7.07,7.07,0,0,1-2.07.27c-2.91,0-3.9-1.77-3.9-4.44v-9.09h-2.76Z"/><path d="M518.27,436.5c0-4.89,2.73-7.86,6.9-7.86s6.87,3,6.87,7.86-2.73,7.86-6.87,7.86S518.27,441.39,518.27,436.5Zm11.55,0c0-3.9-1.77-6-4.65-6s-4.68,2.13-4.68,6,1.77,6,4.68,6S529.82,440.4,529.82,436.5Z"/><path d="M535.88,438.51V429H538v9.3c0,2.94,1.38,4.26,3.42,4.26,2.73,0,4.38-2.34,4.38-5.37V429h2.1v15h-2v-3.09a5.14,5.14,0,0,1-4.86,3.45C537.26,444.36,535.88,442.08,535.88,438.51Z"/><path d="M560.15,428.64a3.63,3.63,0,0,1,.57,0v2h-.24a4.39,4.39,0,0,0-3.21,1.14c-1.38,1.38-1.65,3.39-1.65,5.28V444h-2.07V429h2v3.66C556.19,430.35,557.84,428.64,560.15,428.64Z"/><path d="M569.6,436.5c0-4.62,2.61-7.86,6.42-7.86a4.78,4.78,0,0,1,4.71,3.09v-9.48h2.1V444h-2v-3.18a5.23,5.23,0,0,1-5.07,3.54C572.06,444.36,569.6,441.18,569.6,436.5Zm11.16.33v-.63c0-3.42-1.65-5.7-4.44-5.7s-4.5,2.25-4.5,6,1.68,6,4.47,6S580.76,440.16,580.76,436.83Z"/><path d="M600.23,437H589.34c0,3.39,1.89,5.46,4.8,5.46a4.21,4.21,0,0,0,4.23-3.21l1.77.72a6.07,6.07,0,0,1-6.15,4.35c-4.26,0-6.75-2.73-6.75-7.77s2.52-7.95,6.66-7.95,6.33,2.4,6.33,7Zm-2.13-2c0-3.09-1.56-4.74-4.23-4.74s-4.47,1.92-4.53,5h8.76Z"/><path d="M622.52,438.54V444h-2.07v-5.46h-10V437l9.6-13.86h2.43V436.8H626v1.74Zm-2-13.17h-.06a11.71,11.71,0,0,1-1.32,2.34l-4.74,6.81a16.7,16.7,0,0,1-1.68,2.28h7.74v-8.67C620.45,426.72,620.45,426.33,620.51,425.37Z"/><path d="M636.56,439.71l2.13-.36c.36,2.13,1.89,3.27,4.26,3.27,2.19,0,3.42-1.05,3.42-2.55s-.84-2.1-2.43-2.4L641,437.1c-2.49-.48-3.9-1.83-3.9-4.11,0-2.52,2.13-4.35,5.52-4.35s5.49,1.47,5.79,4.14l-2.1.45c-.3-1.83-1.59-2.88-3.78-2.88s-3.39,1-3.39,2.55c0,1.41.93,2.1,2.49,2.4l2.94.57c2.67.54,3.84,1.83,3.84,4,0,2.67-2,4.47-5.55,4.47S637,442.71,636.56,439.71Z"/><path d="M651.5,436.5c0-4.89,2.61-7.86,6.81-7.86a5.67,5.67,0,0,1,6.06,5.43l-2.13.24c-.3-2.49-1.74-3.84-4-3.84-2.79,0-4.5,2.25-4.5,6s1.71,6.06,4.59,6.06c2.25,0,3.66-1.35,4.05-3.84l2,.3c-.54,3.39-2.76,5.37-6.06,5.37C654.14,444.36,651.5,441.33,651.5,436.5Z"/><path d="M680.27,437H669.38c0,3.39,1.89,5.46,4.8,5.46a4.21,4.21,0,0,0,4.23-3.21l1.77.72a6.07,6.07,0,0,1-6.15,4.35c-4.26,0-6.75-2.73-6.75-7.77s2.52-7.95,6.66-7.95,6.33,2.4,6.33,7Zm-2.13-2c0-3.09-1.56-4.74-4.23-4.74s-4.47,1.92-4.53,5h8.76Zm-3.33-8.46h-2l3-4.29h2.58Z"/><path d="M684.71,429h2v3.3a5.11,5.11,0,0,1,5.13-3.66c3.36,0,5.1,2.07,5.1,6.09V444h-2.1v-9.15c0-2.91-1.26-4.41-3.63-4.41-2.7,0-4.41,2.16-4.41,5.67V444h-2.07Z"/><path d="M700.79,440a3.79,3.79,0,0,1,1.83-3.36,12.9,12.9,0,0,1,4.92-1.35l3.33-.39v-.24c0-3.09-1.08-4.32-3.63-4.32-2.25,0-3.63,1.17-3.75,3.3h-2.25c.18-3.09,2.52-5,6-5,4,0,5.76,1.86,5.76,6.21v3.9a21.14,21.14,0,0,0,.48,5.25h-2.19a20.58,20.58,0,0,1-.27-3,5.14,5.14,0,0,1-5.22,3.36C702.77,444.36,700.79,442.62,700.79,440Zm10.11-2.58v-1l-4.26.6c-2.55.36-3.66,1.23-3.66,2.88s1.26,2.64,3.27,2.64C709,442.62,710.9,440.52,710.9,437.46Z"/><path d="M724.88,428.64a3.63,3.63,0,0,1,.57,0v2h-.24a4.39,4.39,0,0,0-3.21,1.14c-1.38,1.38-1.65,3.39-1.65,5.28V444h-2.07V429h2v3.66C720.92,430.35,722.57,428.64,724.88,428.64Z"/><path d="M728.81,423h2.37v3.3h-2.37Zm.15,6H731v15H729Z"/><path d="M735.32,436.5c0-4.89,2.73-7.86,6.9-7.86s6.87,3,6.87,7.86-2.73,7.86-6.87,7.86S735.32,441.39,735.32,436.5Zm11.55,0c0-3.9-1.77-6-4.65-6s-4.68,2.13-4.68,6,1.77,6,4.68,6S746.87,440.4,746.87,436.5Z"/><path d="M752,439.71l2.13-.36c.36,2.13,1.89,3.27,4.26,3.27,2.19,0,3.42-1.05,3.42-2.55s-.84-2.1-2.43-2.4l-2.91-.57c-2.49-.48-3.9-1.83-3.9-4.11,0-2.52,2.13-4.35,5.52-4.35s5.49,1.47,5.79,4.14l-2.1.45c-.3-1.83-1.59-2.88-3.78-2.88s-3.39,1-3.39,2.55c0,1.41.93,2.1,2.49,2.4l2.94.57c2.67.54,3.84,1.83,3.84,4,0,2.67-2,4.47-5.55,4.47S752.45,442.71,752,439.71Z"/><path d="M767.27,446.88a2.55,2.55,0,0,0,1.59-2.79V444h-1.5v-3.36h2.85v3.18c0,2.22-.57,3.3-2.37,4.14Z"/><path d="M781.73,436.5c0-4.62,2.61-7.86,6.42-7.86a4.78,4.78,0,0,1,4.71,3.09v-9.48H795V444h-2v-3.18a5.23,5.23,0,0,1-5.07,3.54C784.19,444.36,781.73,441.18,781.73,436.5Zm11.16.33v-.63c0-3.42-1.65-5.7-4.44-5.7s-4.5,2.25-4.5,6,1.68,6,4.47,6S792.89,440.16,792.89,436.83Z"/><path d="M800.63,423H803v3.3h-2.37Zm.15,6h2.07v15h-2.07Z"/><path d="M815.18,430.74h-3.9V444h-2.07V430.74h-2.82V429h2.82v-2.49c0-2.7,1.59-4.44,4.2-4.44a6.37,6.37,0,0,1,1.77.21v1.8a8.76,8.76,0,0,0-1.5-.15c-1.68,0-2.4.9-2.4,2.85V429h3.9Z"/><path d="M826,430.74h-3.9V444h-2.07V430.74h-2.82V429h2.82v-2.49c0-2.7,1.59-4.44,4.2-4.44a6.37,6.37,0,0,1,1.77.21v1.8a8.76,8.76,0,0,0-1.5-.15c-1.68,0-2.4.9-2.4,2.85V429H826Z"/><path d="M840.59,437H829.7c0,3.39,1.89,5.46,4.8,5.46a4.21,4.21,0,0,0,4.23-3.21l1.77.72a6.07,6.07,0,0,1-6.15,4.35c-4.26,0-6.75-2.73-6.75-7.77s2.52-7.95,6.66-7.95,6.33,2.4,6.33,7Zm-2.13-2c0-3.09-1.56-4.74-4.23-4.74s-4.47,1.92-4.53,5h8.76Zm-3.33-8.46h-2l3-4.29h2.58Z"/><path d="M851.63,428.64a3.63,3.63,0,0,1,.57,0v2H852a4.39,4.39,0,0,0-3.21,1.14c-1.38,1.38-1.65,3.39-1.65,5.28V444H845V429h2v3.66C847.67,430.35,849.32,428.64,851.63,428.64Z"/><path d="M866.81,437H855.92c0,3.39,1.89,5.46,4.8,5.46a4.21,4.21,0,0,0,4.23-3.21l1.77.72a6.07,6.07,0,0,1-6.15,4.35c-4.26,0-6.75-2.73-6.75-7.77s2.52-7.95,6.66-7.95,6.33,2.4,6.33,7Zm-2.13-2c0-3.09-1.56-4.74-4.23-4.74s-4.47,1.92-4.53,5h8.76Z"/><path d="M871.25,429h2v3.3a5.11,5.11,0,0,1,5.13-3.66c3.36,0,5.1,2.07,5.1,6.09V444h-2.1v-9.15c0-2.91-1.26-4.41-3.63-4.41-2.7,0-4.41,2.16-4.41,5.67V444h-2.07Z"/><path d="M886.19,429H889v-4l2.1-.9V429h3.87v1.74h-3.87v9c0,1.77.78,2.55,2.34,2.55a6.12,6.12,0,0,0,1.53-.18V444a7.07,7.07,0,0,1-2.07.27c-2.91,0-3.9-1.77-3.9-4.44v-9.09h-2.76Z"/><path d="M897.38,439.71l2.13-.36c.36,2.13,1.89,3.27,4.26,3.27,2.19,0,3.42-1.05,3.42-2.55s-.84-2.1-2.43-2.4l-2.91-.57c-2.49-.48-3.9-1.83-3.9-4.11,0-2.52,2.13-4.35,5.52-4.35s5.49,1.47,5.79,4.14l-2.1.45c-.3-1.83-1.59-2.88-3.78-2.88s-3.39,1-3.39,2.55c0,1.41.93,2.1,2.49,2.4l2.94.57c2.67.54,3.84,1.83,3.84,4,0,2.67-2,4.47-5.55,4.47S897.86,442.71,897.38,439.71Z"/><path d="M933.26,437H922.37c0,3.39,1.89,5.46,4.8,5.46a4.21,4.21,0,0,0,4.23-3.21l1.77.72a6.08,6.08,0,0,1-6.15,4.35c-4.26,0-6.75-2.73-6.75-7.77s2.52-7.95,6.66-7.95,6.33,2.4,6.33,7Zm-2.13-2c0-3.09-1.57-4.74-4.23-4.74s-4.47,1.92-4.53,5h8.76Z"/><path d="M935.09,429h2.76v-4l2.1-.9V429h3.87v1.74H940v9c0,1.77.78,2.55,2.34,2.55a6.12,6.12,0,0,0,1.53-.18V444a7.07,7.07,0,0,1-2.07.27c-2.91,0-3.9-1.77-3.9-4.44v-9.09h-2.76Z"/><path d="M954.32,436.5c0-4.89,2.61-7.86,6.81-7.86a5.67,5.67,0,0,1,6.06,5.43l-2.13.24c-.3-2.49-1.74-3.84-4-3.84-2.79,0-4.5,2.25-4.5,6s1.71,6.06,4.59,6.06c2.25,0,3.66-1.35,4-3.84l2,.3c-.54,3.39-2.76,5.37-6.06,5.37C957,444.36,954.32,441.33,954.32,436.5Z"/><path d="M970.1,436.5c0-4.89,2.73-7.86,6.9-7.86s6.86,3,6.86,7.86-2.72,7.86-6.86,7.86S970.1,441.39,970.1,436.5Zm11.55,0c0-3.9-1.77-6-4.65-6s-4.68,2.13-4.68,6,1.77,6,4.68,6S981.65,440.4,981.65,436.5Z"/><path d="M988.15,429h2v3.3a5.09,5.09,0,0,1,5.13-3.66c3.35,0,5.09,2.07,5.09,6.09V444h-2.09v-9.15c0-2.91-1.27-4.41-3.63-4.41-2.7,0-4.41,2.16-4.41,5.67V444h-2.08Z"/><path d="M1003.06,429h2.76v-4l2.11-.9V429h3.86v1.74h-3.86v9c0,1.77.77,2.55,2.34,2.55a6.09,6.09,0,0,0,1.52-.18V444a7,7,0,0,1-2.06.27c-2.92,0-3.91-1.77-3.91-4.44v-9.09h-2.76Z"/><path d="M1022.35,428.64a3.63,3.63,0,0,1,.57,0v2h-.24a4.39,4.39,0,0,0-3.21,1.14c-1.38,1.38-1.65,3.39-1.65,5.28V444h-2.07V429h2v3.66C1018.4,430.35,1020,428.64,1022.35,428.64Z"/><path d="M1024.69,440a3.79,3.79,0,0,1,1.83-3.36,12.9,12.9,0,0,1,4.92-1.35l3.33-.39v-.24c0-3.09-1.08-4.32-3.63-4.32-2.24,0-3.62,1.17-3.74,3.3h-2.25c.17-3.09,2.51-5,6-5,4,0,5.76,1.86,5.76,6.21v3.9a21.14,21.14,0,0,0,.48,5.25h-2.19a20.58,20.58,0,0,1-.27-3,5.14,5.14,0,0,1-5.22,3.36C1026.67,444.36,1024.69,442.62,1024.69,440Zm10.11-2.58v-1l-4.26.6c-2.55.36-3.66,1.23-3.66,2.88s1.27,2.64,3.27,2.64C1032.94,442.62,1034.8,440.52,1034.8,437.46Z"/><path d="M1040.77,439.71l2.13-.36c.36,2.13,1.89,3.27,4.26,3.27,2.19,0,3.42-1.05,3.42-2.55s-.84-2.1-2.43-2.4l-2.91-.57c-2.49-.48-3.9-1.83-3.9-4.11,0-2.52,2.13-4.35,5.52-4.35s5.49,1.47,5.79,4.14l-2.1.45c-.3-1.83-1.59-2.88-3.78-2.88s-3.39,1-3.39,2.55c0,1.41.93,2.1,2.49,2.4l2.94.57c2.67.54,3.84,1.83,3.84,4,0,2.67-2,4.47-5.55,4.47S1041.25,442.71,1040.77,439.71Z"/><path d="M1054.66,429h2.76v-4l2.1-.9V429h3.87v1.74h-3.87v9c0,1.77.78,2.55,2.34,2.55a6.12,6.12,0,0,0,1.53-.18V444a7.07,7.07,0,0,1-2.07.27c-2.91,0-3.9-1.77-3.9-4.44v-9.09h-2.76Z"/><path d="M1078.42,437h-10.89c0,3.39,1.89,5.46,4.8,5.46a4.21,4.21,0,0,0,4.23-3.21l1.77.72a6.07,6.07,0,0,1-6.15,4.35c-4.26,0-6.75-2.73-6.75-7.77s2.52-7.95,6.66-7.95,6.33,2.4,6.33,7Zm-2.13-2c0-3.09-1.56-4.74-4.23-4.74s-4.47,1.92-4.53,5h8.76ZM1073,426.6h-2l3-4.29h2.58Z"/><path d="M1081.45,439.71l2.13-.36c.36,2.13,1.89,3.27,4.26,3.27,2.19,0,3.42-1.05,3.42-2.55s-.84-2.1-2.43-2.4l-2.91-.57c-2.49-.48-3.9-1.83-3.9-4.11,0-2.52,2.13-4.35,5.52-4.35s5.49,1.47,5.79,4.14l-2.1.45c-.3-1.83-1.59-2.88-3.78-2.88s-3.39,1-3.39,2.55c0,1.41.93,2.1,2.49,2.4l2.94.57c2.67.54,3.84,1.83,3.84,4,0,2.67-2,4.47-5.55,4.47S1081.93,442.71,1081.45,439.71Z"/><path d="M217.11,509.61l2.34-.33c.33,2.88,2.13,5.31,6.15,5.31,2.76,0,5.13-1.23,5.13-4s-1.68-3.63-4.32-4.14l-3.15-.63c-3.06-.6-5.25-2.25-5.25-5.7s2.79-5.91,7.23-5.91c4.17,0,7.35,1.86,7.71,6.18l-2.34.45c-.3-3.21-2.1-4.77-5.43-4.77-2.88,0-4.77,1.47-4.77,3.84,0,2.13,1.2,3.36,3.78,3.9l3.15.63c3.27.66,5.79,2.1,5.79,5.91,0,3.48-2.61,6.18-7.62,6.18C220.17,516.51,217.41,513.57,217.11,509.61Z"/><path d="M236,508.5c0-4.89,2.61-7.86,6.81-7.86a5.67,5.67,0,0,1,6.06,5.43l-2.13.24c-.3-2.49-1.74-3.84-4-3.84-2.79,0-4.5,2.25-4.5,6s1.71,6.06,4.59,6.06c2.25,0,3.66-1.35,4.05-3.84l2,.3c-.54,3.39-2.76,5.37-6.06,5.37C238.62,516.36,236,513.33,236,508.5Z"/><path d="M264.75,509H253.86c0,3.39,1.89,5.46,4.8,5.46a4.21,4.21,0,0,0,4.23-3.21l1.77.72a6.07,6.07,0,0,1-6.15,4.35c-4.26,0-6.75-2.73-6.75-7.77s2.52-7.95,6.66-7.95,6.33,2.4,6.33,7Zm-2.13-2c0-3.09-1.56-4.74-4.23-4.74s-4.47,1.92-4.53,5h8.76Zm-3.33-8.46h-2l3-4.29h2.58Z"/><path d="M269.19,501h2v3.3a5.11,5.11,0,0,1,5.13-3.66c3.36,0,5.1,2.07,5.1,6.09V516h-2.1v-9.15c0-2.91-1.26-4.41-3.63-4.41-2.7,0-4.41,2.16-4.41,5.67V516h-2.07Z"/><path d="M285.27,512a3.79,3.79,0,0,1,1.83-3.36,12.9,12.9,0,0,1,4.92-1.35l3.33-.39v-.24c0-3.09-1.08-4.32-3.63-4.32-2.25,0-3.63,1.17-3.75,3.3h-2.25c.18-3.09,2.52-5,6-5,4,0,5.76,1.86,5.76,6.21v3.9a21.14,21.14,0,0,0,.48,5.25h-2.19a20.58,20.58,0,0,1-.27-3,5.14,5.14,0,0,1-5.22,3.36C287.25,516.36,285.27,514.62,285.27,512Zm10.11-2.58v-1l-4.26.6c-2.55.36-3.66,1.23-3.66,2.88s1.26,2.64,3.27,2.64C293.52,514.62,295.38,512.52,295.38,509.46Z"/><path d="M309.36,500.64a3.63,3.63,0,0,1,.57,0v2h-.24a4.39,4.39,0,0,0-3.21,1.14c-1.38,1.38-1.65,3.39-1.65,5.28V516h-2.07V501h1.95v3.66C305.4,502.35,307.05,500.64,309.36,500.64Z"/><path d="M313.29,495h2.37v3.3h-2.37Zm.15,6h2.07v15h-2.07Z"/><path d="M319.8,508.5c0-4.89,2.73-7.86,6.9-7.86s6.87,3,6.87,7.86-2.73,7.86-6.87,7.86S319.8,513.39,319.8,508.5Zm11.55,0c0-3.9-1.77-6-4.65-6s-4.68,2.13-4.68,6,1.77,6,4.68,6S331.35,512.4,331.35,508.5Z"/><path d="M344.07,507.75l5.13-6.24h2.22l-5,6.24,5,6.24h-2.25Zm5.61,0,5.13-6.24H357l-5,6.24L357,514h-2.22Z"/><path d="M370.92,494.7v13.8c0,3.63,2,5.94,5.64,5.94s5.67-2.31,5.67-5.94V494.7h2.34v13.95c0,4.71-2.85,7.86-8,7.86s-7.95-3.15-7.95-7.86V494.7Z"/><path d="M390.09,501h2v3.3a5.11,5.11,0,0,1,5.13-3.66c3.36,0,5.1,2.07,5.1,6.09V516h-2.1v-9.15c0-2.91-1.26-4.41-3.63-4.41-2.7,0-4.41,2.16-4.41,5.67V516h-2.07Z"/><path d="M419.1,509H408.21c0,3.39,1.89,5.46,4.8,5.46a4.21,4.21,0,0,0,4.23-3.21L419,512a6.07,6.07,0,0,1-6.15,4.35c-4.26,0-6.75-2.73-6.75-7.77s2.52-7.95,6.66-7.95,6.33,2.4,6.33,7Zm-2.13-2c0-3.09-1.56-4.74-4.23-4.74s-4.47,1.92-4.53,5H417Z"/><path d="M443.07,509H432.18c0,3.39,1.89,5.46,4.8,5.46a4.21,4.21,0,0,0,4.23-3.21L443,512a6.07,6.07,0,0,1-6.15,4.35c-4.26,0-6.75-2.73-6.75-7.77s2.52-7.95,6.66-7.95,6.33,2.4,6.33,7Zm-2.13-2c0-3.09-1.56-4.74-4.23-4.74s-4.47,1.92-4.53,5h8.76Z"/><path d="M446.1,511.71l2.13-.36c.36,2.13,1.89,3.27,4.26,3.27,2.19,0,3.42-1,3.42-2.55s-.84-2.1-2.43-2.4l-2.91-.57c-2.49-.48-3.9-1.83-3.9-4.11,0-2.52,2.13-4.35,5.52-4.35s5.49,1.47,5.79,4.14l-2.1.45c-.3-1.83-1.59-2.88-3.78-2.88s-3.39,1-3.39,2.55c0,1.41.93,2.1,2.49,2.4l2.94.57c2.67.54,3.84,1.83,3.84,4,0,2.67-2,4.47-5.55,4.47S446.58,514.71,446.1,511.71Z"/><path d="M462.45,501h2v3.18a5.32,5.32,0,0,1,5.13-3.54c3.69,0,6.09,3.15,6.09,7.86s-2.55,7.86-6.24,7.86a5.06,5.06,0,0,1-4.89-3.18v8.67h-2.07Zm11,7.5c0-3.72-1.62-6-4.38-6s-4.56,2.34-4.56,5.64v.66c0,3.36,1.68,5.7,4.44,5.7S473.43,512.22,473.43,508.5Z"/><path d="M482.16,516h-2.07V494.25h2.07Z"/><path d="M486.66,512a3.79,3.79,0,0,1,1.83-3.36,12.9,12.9,0,0,1,4.92-1.35l3.33-.39v-.24c0-3.09-1.08-4.32-3.63-4.32-2.25,0-3.63,1.17-3.75,3.3h-2.25c.18-3.09,2.52-5,6-5,4,0,5.76,1.86,5.76,6.21v3.9a21.14,21.14,0,0,0,.48,5.25h-2.19a20.58,20.58,0,0,1-.27-3,5.14,5.14,0,0,1-5.22,3.36C488.64,516.36,486.66,514.62,486.66,512Zm10.11-2.58v-1l-4.26.6c-2.55.36-3.66,1.23-3.66,2.88s1.26,2.64,3.27,2.64C494.91,514.62,496.77,512.52,496.77,509.46Z"/><path d="M504.15,501h2v3.3a5.11,5.11,0,0,1,5.13-3.66c3.36,0,5.1,2.07,5.1,6.09V516h-2.1v-9.15c0-2.91-1.26-4.41-3.63-4.41-2.7,0-4.41,2.16-4.41,5.67V516h-2.07Z"/><path d="M520.23,512a3.79,3.79,0,0,1,1.83-3.36,12.9,12.9,0,0,1,4.92-1.35l3.33-.39v-.24c0-3.09-1.08-4.32-3.63-4.32-2.25,0-3.63,1.17-3.75,3.3h-2.25c.18-3.09,2.52-5,6-5,4,0,5.76,1.86,5.76,6.21v3.9a21.14,21.14,0,0,0,.48,5.25H530.7a20.58,20.58,0,0,1-.27-3,5.14,5.14,0,0,1-5.22,3.36C522.21,516.36,520.23,514.62,520.23,512Zm10.11-2.58v-1l-4.26.6c-2.55.36-3.66,1.23-3.66,2.88s1.26,2.64,3.27,2.64C528.48,514.62,530.34,512.52,530.34,509.46Z"/><path d="M536.19,508.5c0-4.62,2.61-7.86,6.41-7.86a4.76,4.76,0,0,1,4.71,3.09v-9.48h2.1V516h-2v-3.18a5.24,5.24,0,0,1-5.07,3.54C538.65,516.36,536.19,513.18,536.19,508.5Zm11.16.33v-.63c0-3.42-1.66-5.7-4.44-5.7s-4.5,2.25-4.5,6,1.68,6,4.47,6S547.35,512.16,547.35,508.83Z"/><path d="M566.81,509H555.93c0,3.39,1.88,5.46,4.8,5.46a4.21,4.21,0,0,0,4.22-3.21l1.78.72a6.09,6.09,0,0,1-6.16,4.35c-4.26,0-6.74-2.73-6.74-7.77s2.52-7.95,6.65-7.95,6.33,2.4,6.33,7Zm-2.12-2c0-3.09-1.57-4.74-4.24-4.74s-4.47,1.92-4.52,5h8.76Z"/><path d="M579.21,501h2v3.18a5.32,5.32,0,0,1,5.13-3.54c3.69,0,6.09,3.15,6.09,7.86s-2.56,7.86-6.24,7.86a5.06,5.06,0,0,1-4.89-3.18v8.67h-2.07Zm11,7.5c0-3.72-1.62-6-4.38-6s-4.56,2.34-4.56,5.64v.66c0,3.36,1.68,5.7,4.44,5.7S590.19,512.22,590.19,508.5Z"/><path d="M595.28,508.5c0-4.89,2.74-7.86,6.91-7.86s6.86,3,6.86,7.86-2.73,7.86-6.86,7.86S595.28,513.39,595.28,508.5Zm11.55,0c0-3.9-1.77-6-4.64-6s-4.68,2.13-4.68,6,1.76,6,4.68,6S606.83,512.4,606.83,508.5Z"/><path d="M612.9,510.51V501H615v9.3c0,2.94,1.38,4.26,3.42,4.26,2.72,0,4.38-2.34,4.38-5.37V501h2.09v15h-2v-3.09a5.16,5.16,0,0,1-4.87,3.45C614.28,516.36,612.9,514.08,612.9,510.51Z"/><path d="M637.16,500.64a3.63,3.63,0,0,1,.57,0v2h-.24a4.39,4.39,0,0,0-3.21,1.14c-1.38,1.38-1.65,3.39-1.65,5.28V516h-2.07V501h2v3.66C633.2,502.35,634.85,500.64,637.16,500.64Z"/><path d="M650.21,516h-2.07V494.25h2.07Z"/><path d="M667.64,509H656.75c0,3.39,1.89,5.46,4.8,5.46a4.21,4.21,0,0,0,4.23-3.21l1.77.72a6.07,6.07,0,0,1-6.15,4.35c-4.26,0-6.75-2.73-6.75-7.77s2.52-7.95,6.66-7.95,6.33,2.4,6.33,7Zm-2.13-2c0-3.09-1.56-4.74-4.23-4.74s-4.47,1.92-4.53,5h8.76Z"/><path d="M689.75,513a5.1,5.1,0,0,1-5,3.36c-3.69,0-6.18-3.09-6.18-7.86s2.67-7.86,6.39-7.86a4.81,4.81,0,0,1,4.83,3.18l.45-2.82h1.56v20.85h-2.1Zm0-4.11v-.75c0-3.36-1.65-5.64-4.47-5.64s-4.47,2.25-4.47,6,1.65,6,4.44,6S689.78,512.22,689.78,508.89Z"/><path d="M697.07,510.51V501h2.07v9.3c0,2.94,1.38,4.26,3.42,4.26,2.73,0,4.38-2.34,4.38-5.37V501H709v15h-2v-3.09a5.14,5.14,0,0,1-4.86,3.45C698.45,516.36,697.07,514.08,697.07,510.51Z"/><path d="M713.39,512a3.79,3.79,0,0,1,1.83-3.36,12.9,12.9,0,0,1,4.92-1.35l3.33-.39v-.24c0-3.09-1.08-4.32-3.63-4.32-2.25,0-3.63,1.17-3.75,3.3h-2.25c.18-3.09,2.52-5,6-5,4,0,5.76,1.86,5.76,6.21v3.9a21.14,21.14,0,0,0,.48,5.25h-2.19a20.58,20.58,0,0,1-.27-3,5.14,5.14,0,0,1-5.22,3.36C715.37,516.36,713.39,514.62,713.39,512Zm10.11-2.58v-1l-4.26.6c-2.55.36-3.66,1.23-3.66,2.88s1.26,2.64,3.27,2.64C721.64,514.62,723.5,512.52,723.5,509.46Z"/><path d="M737.48,500.64a3.63,3.63,0,0,1,.57,0v2h-.24a4.39,4.39,0,0,0-3.21,1.14c-1.38,1.38-1.65,3.39-1.65,5.28V516h-2.07V501h2v3.66C733.52,502.35,735.17,500.64,737.48,500.64Z"/><path d="M740.21,501H743v-4l2.1-.9V501h3.87v1.74h-3.87v9c0,1.77.78,2.55,2.34,2.55a6.12,6.12,0,0,0,1.53-.18V516a7.07,7.07,0,0,1-2.07.27c-2.91,0-3.9-1.77-3.9-4.44v-9.09h-2.76Z"/><path d="M752.75,495h2.37v3.3h-2.37Zm.15,6H755v15H752.9Z"/><path d="M772.25,509H761.36c0,3.39,1.89,5.46,4.8,5.46a4.21,4.21,0,0,0,4.23-3.21l1.77.72a6.07,6.07,0,0,1-6.15,4.35c-4.26,0-6.75-2.73-6.75-7.77s2.52-7.95,6.66-7.95,6.33,2.4,6.33,7Zm-2.13-2c0-3.09-1.56-4.74-4.23-4.74s-4.47,1.92-4.53,5h8.76Z"/><path d="M783.29,500.64a3.63,3.63,0,0,1,.57,0v2h-.24a4.39,4.39,0,0,0-3.21,1.14c-1.38,1.38-1.65,3.39-1.65,5.28V516h-2.07V501h1.95v3.66C779.33,502.35,781,500.64,783.29,500.64Z"/><path d="M792.26,514l5-6.24-5-6.24h2.22l5.16,6.24-5.1,6.24Zm5.61,0,5-6.24-5-6.24h2.22l5.16,6.24L800.09,514Z"/><path d="M824.48,506.67v2h-8.67v-2Z"/><path d="M839.84,499a4.59,4.59,0,0,1-3.66,1.65h-1v-2h.57a4.34,4.34,0,0,0,4.38-3.54H842V516h-2.19Z"/><path d="M847.37,511l2.28-.24a4.45,4.45,0,0,0,4.65,3.84c3,0,4.8-2.07,4.8-5.4s-1.62-5.46-4.68-5.46a4.55,4.55,0,0,0-4.59,3.75l-2.13-.21,1.23-12.09H860.3v1.92h-9.72l-.81,7.83a5.43,5.43,0,0,1,5.19-3.06c4,0,6.36,2.76,6.36,7.23s-2.79,7.38-7.14,7.38C850.52,516.45,847.91,514.32,847.37,511Z"/><path d="M867.53,501v2.91a4.47,4.47,0,0,1,4.44-3.27,4.23,4.23,0,0,1,4.32,3.21,4.76,4.76,0,0,1,4.62-3.21c2.94,0,4.62,2,4.62,5.55V516h-2.1v-9.63c0-2.55-1.08-3.93-3.15-3.93-2.28,0-3.69,1.68-3.69,4.44V516h-2.07v-9.75c0-2.43-1.14-3.81-3.12-3.81-2.28,0-3.75,1.86-3.75,4.8V516h-2.07V501Z"/><path d="M890.75,501h2v3.3a5.11,5.11,0,0,1,5.13-3.66c3.36,0,5.1,2.07,5.1,6.09V516h-2.1v-9.15c0-2.91-1.26-4.41-3.63-4.41-2.7,0-4.41,2.16-4.41,5.67V516h-2.07Z"/><path d="M217.11,545.61l2.34-.33c.33,2.88,2.13,5.31,6.15,5.31,2.76,0,5.13-1.23,5.13-4s-1.68-3.63-4.32-4.14l-3.15-.63c-3.06-.6-5.25-2.25-5.25-5.7s2.79-5.91,7.23-5.91c4.17,0,7.35,1.86,7.71,6.18l-2.34.45c-.3-3.21-2.1-4.77-5.43-4.77-2.88,0-4.77,1.47-4.77,3.84,0,2.13,1.2,3.36,3.78,3.9l3.15.63c3.27.66,5.79,2.1,5.79,5.91,0,3.48-2.61,6.18-7.62,6.18C220.17,552.51,217.41,549.57,217.11,545.61Z"/><path d="M236,544.5c0-4.89,2.61-7.86,6.81-7.86a5.67,5.67,0,0,1,6.06,5.43l-2.13.24c-.3-2.49-1.74-3.84-4-3.84-2.79,0-4.5,2.25-4.5,6s1.71,6.06,4.59,6.06c2.25,0,3.66-1.35,4.05-3.84l2,.3c-.54,3.39-2.76,5.37-6.06,5.37C238.62,552.36,236,549.33,236,544.5Z"/><path d="M264.75,545H253.86c0,3.39,1.89,5.46,4.8,5.46a4.21,4.21,0,0,0,4.23-3.21l1.77.72a6.07,6.07,0,0,1-6.15,4.35c-4.26,0-6.75-2.73-6.75-7.77s2.52-8,6.66-8,6.33,2.4,6.33,7Zm-2.13-2c0-3.09-1.56-4.74-4.23-4.74s-4.47,1.92-4.53,5h8.76Zm-3.33-8.46h-2l3-4.29h2.58Z"/><path d="M269.19,537h2v3.3a5.11,5.11,0,0,1,5.13-3.66c3.36,0,5.1,2.07,5.1,6.09V552h-2.1v-9.15c0-2.91-1.26-4.41-3.63-4.41-2.7,0-4.41,2.16-4.41,5.67V552h-2.07Z"/><path d="M285.27,548a3.79,3.79,0,0,1,1.83-3.36,12.9,12.9,0,0,1,4.92-1.35l3.33-.39v-.24c0-3.09-1.08-4.32-3.63-4.32-2.25,0-3.63,1.17-3.75,3.3h-2.25c.18-3.09,2.52-5,6-5,4,0,5.76,1.86,5.76,6.21v3.9a21.14,21.14,0,0,0,.48,5.25h-2.19a20.58,20.58,0,0,1-.27-3,5.14,5.14,0,0,1-5.22,3.36C287.25,552.36,285.27,550.62,285.27,548Zm10.11-2.58v-1l-4.26.6c-2.55.36-3.66,1.23-3.66,2.88s1.26,2.64,3.27,2.64C293.52,550.62,295.38,548.52,295.38,545.46Z"/><path d="M309.36,536.64a3.63,3.63,0,0,1,.57,0v2h-.24a4.39,4.39,0,0,0-3.21,1.14c-1.38,1.38-1.65,3.39-1.65,5.28V552h-2.07V537h1.95v3.66C305.4,538.35,307.05,536.64,309.36,536.64Z"/><path d="M313.29,531h2.37v3.3h-2.37Zm.15,6h2.07v15h-2.07Z"/><path d="M319.8,544.5c0-4.89,2.73-7.86,6.9-7.86s6.87,3,6.87,7.86-2.73,7.86-6.87,7.86S319.8,549.39,319.8,544.5Zm11.55,0c0-3.9-1.77-6-4.65-6s-4.68,2.13-4.68,6,1.77,6,4.68,6S331.35,548.4,331.35,544.5Z"/><path d="M344.07,543.75l5.13-6.24h2.22l-5,6.24,5,6.24h-2.25Zm5.61,0,5.13-6.24H357l-5,6.24L357,550h-2.22Z"/><path d="M370.92,530.7v13.8c0,3.63,2,5.94,5.64,5.94s5.67-2.31,5.67-5.94V530.7h2.34v13.95c0,4.71-2.85,7.86-8,7.86s-7.95-3.15-7.95-7.86V530.7Z"/><path d="M390.09,537h2v3.3a5.11,5.11,0,0,1,5.13-3.66c3.36,0,5.1,2.07,5.1,6.09V552h-2.1v-9.15c0-2.91-1.26-4.41-3.63-4.41-2.7,0-4.41,2.16-4.41,5.67V552h-2.07Z"/><path d="M419.1,545H408.21c0,3.39,1.89,5.46,4.8,5.46a4.21,4.21,0,0,0,4.23-3.21L419,548a6.07,6.07,0,0,1-6.15,4.35c-4.26,0-6.75-2.73-6.75-7.77s2.52-8,6.66-8,6.33,2.4,6.33,7Zm-2.13-2c0-3.09-1.56-4.74-4.23-4.74s-4.47,1.92-4.53,5H417Z"/><path d="M431.49,537h2v3.18a5.32,5.32,0,0,1,5.13-3.54c3.69,0,6.09,3.15,6.09,7.86s-2.55,7.86-6.24,7.86a5.06,5.06,0,0,1-4.89-3.18v8.67h-2.07Zm11,7.5c0-3.72-1.62-6-4.38-6s-4.56,2.34-4.56,5.64v.66c0,3.36,1.68,5.7,4.44,5.7S442.47,548.22,442.47,544.5Z"/><path d="M448.83,531h2.37v3.3h-2.37Zm.15,6h2.07v15H449Z"/><path d="M468.33,545H457.44c0,3.39,1.89,5.46,4.8,5.46a4.21,4.21,0,0,0,4.23-3.21l1.77.72a6.07,6.07,0,0,1-6.15,4.35c-4.26,0-6.75-2.73-6.75-7.77s2.52-8,6.66-8,6.33,2.4,6.33,7ZM460.8,534.6l-3.57-4.29h2.58l3,4.29Zm5.4,8.46c0-3.09-1.56-4.74-4.23-4.74s-4.47,1.92-4.53,5h8.76Z"/><path d="M471.36,544.5c0-4.89,2.61-7.86,6.81-7.86a5.67,5.67,0,0,1,6.06,5.43l-2.13.24c-.3-2.49-1.74-3.84-4-3.84-2.79,0-4.5,2.25-4.5,6s1.71,6.06,4.59,6.06c2.25,0,3.66-1.35,4.05-3.84l2,.3c-.54,3.39-2.76,5.37-6.06,5.37C474,552.36,471.36,549.33,471.36,544.5Z"/><path d="M500.13,545H489.24c0,3.39,1.89,5.46,4.8,5.46a4.21,4.21,0,0,0,4.23-3.21L500,548a6.08,6.08,0,0,1-6.15,4.35c-4.26,0-6.75-2.73-6.75-7.77s2.52-8,6.66-8,6.33,2.4,6.33,7Zm-2.13-2c0-3.09-1.56-4.74-4.23-4.74s-4.47,1.92-4.53,5H498Z"/><path d="M511.1,544.5c0-4.62,2.62-7.86,6.42-7.86a4.76,4.76,0,0,1,4.71,3.09v-9.48h2.1V552h-2v-3.18a5.22,5.22,0,0,1-5.06,3.54C513.56,552.36,511.1,549.18,511.1,544.5Zm11.17.33v-.63c0-3.42-1.66-5.7-4.44-5.7s-4.5,2.25-4.5,6,1.68,6,4.47,6S522.27,548.16,522.27,544.83Z"/><path d="M541.74,545H530.85c0,3.39,1.89,5.46,4.8,5.46a4.21,4.21,0,0,0,4.23-3.21l1.77.72a6.07,6.07,0,0,1-6.15,4.35c-4.26,0-6.75-2.73-6.75-7.77s2.52-8,6.66-8,6.33,2.4,6.33,7Zm-2.13-2c0-3.09-1.56-4.74-4.23-4.74s-4.47,1.92-4.53,5h8.76Z"/><path d="M554.13,537h2v3.3a5.11,5.11,0,0,1,5.13-3.66c3.36,0,5.1,2.07,5.1,6.09V552h-2.1v-9.15c0-2.91-1.26-4.41-3.63-4.41-2.7,0-4.41,2.16-4.41,5.67V552h-2.07Z"/><path d="M570.21,548a3.79,3.79,0,0,1,1.83-3.36,12.9,12.9,0,0,1,4.92-1.35l3.32-.39v-.24c0-3.09-1.07-4.32-3.63-4.32-2.24,0-3.63,1.17-3.74,3.3h-2.25c.18-3.09,2.52-5,6-5,4,0,5.76,1.86,5.76,6.21v3.9a21.23,21.23,0,0,0,.47,5.25h-2.18a20.46,20.46,0,0,1-.28-3,5.12,5.12,0,0,1-5.21,3.36C572.19,552.36,570.21,550.62,570.21,548Zm10.1-2.58v-1l-4.25.6c-2.55.36-3.66,1.23-3.66,2.88s1.26,2.64,3.27,2.64C578.46,550.62,580.31,548.52,580.31,545.46Z"/><path d="M585,537h2.76v-4l2.1-.9V537h3.86v1.74h-3.86v9c0,1.77.77,2.55,2.34,2.55a6,6,0,0,0,1.52-.18V552a7,7,0,0,1-2.06.27c-2.91,0-3.9-1.77-3.9-4.44v-9.09H585Z"/><path d="M597.2,546.51V537h2.07v9.3c0,2.94,1.38,4.26,3.42,4.26,2.73,0,4.38-2.34,4.38-5.37V537h2.1v15h-2v-3.09a5.14,5.14,0,0,1-4.86,3.45C598.59,552.36,597.2,550.08,597.2,546.51Z"/><path d="M621.47,536.64a3.63,3.63,0,0,1,.57,0v2h-.24a4.39,4.39,0,0,0-3.21,1.14c-1.38,1.38-1.65,3.39-1.65,5.28V552h-2.07V537h2v3.66C617.52,538.35,619.16,536.64,621.47,536.64Z"/><path d="M636.62,545H625.73c0,3.39,1.89,5.46,4.8,5.46a4.21,4.21,0,0,0,4.23-3.21l1.77.72a6.07,6.07,0,0,1-6.15,4.35c-4.26,0-6.75-2.73-6.75-7.77s2.52-8,6.66-8,6.33,2.4,6.33,7Zm-2.13-2c0-3.09-1.56-4.74-4.23-4.74s-4.47,1.92-4.53,5h8.76Z"/><path d="M647.12,550l5-6.24-5-6.24h2.22l5.16,6.24-5.1,6.24Zm5.61,0,5-6.24-5-6.24h2.22l5.16,6.24L655,550Z"/><path d="M679.34,542.67v2h-8.67v-2Z"/><path d="M694.7,535a4.59,4.59,0,0,1-3.66,1.65h-1v-2h.57a4.34,4.34,0,0,0,4.38-3.54h1.86V552H694.7Z"/><path d="M702.23,547l2.28-.24a4.45,4.45,0,0,0,4.65,3.84c3,0,4.8-2.07,4.8-5.4s-1.62-5.46-4.68-5.46a4.55,4.55,0,0,0-4.59,3.75l-2.13-.21,1.23-12.09h11.37v1.92h-9.72l-.81,7.83a5.43,5.43,0,0,1,5.19-3.06c4,0,6.36,2.76,6.36,7.23s-2.79,7.38-7.14,7.38C705.38,552.45,702.77,550.32,702.23,547Z"/><path d="M722.39,537v2.91a4.47,4.47,0,0,1,4.44-3.27,4.23,4.23,0,0,1,4.32,3.21,4.76,4.76,0,0,1,4.62-3.21c2.94,0,4.62,2,4.62,5.55V552h-2.1v-9.63c0-2.55-1.08-3.93-3.15-3.93-2.28,0-3.69,1.68-3.69,4.44V552h-2.07v-9.75c0-2.43-1.14-3.81-3.12-3.81-2.28,0-3.75,1.86-3.75,4.8V552h-2.07V537Z"/><path d="M745.58,537h2v3.3a5.11,5.11,0,0,1,5.13-3.66c3.36,0,5.1,2.07,5.1,6.09V552h-2.1v-9.15c0-2.91-1.26-4.41-3.63-4.41-2.7,0-4.41,2.16-4.41,5.67V552h-2.07Z"/><path d="M217.11,581.61l2.34-.33c.33,2.88,2.13,5.31,6.15,5.31,2.76,0,5.13-1.23,5.13-4s-1.68-3.63-4.32-4.14l-3.15-.63c-3.06-.6-5.25-2.25-5.25-5.7s2.79-5.91,7.23-5.91c4.17,0,7.35,1.86,7.71,6.18l-2.34.45c-.3-3.21-2.1-4.77-5.43-4.77-2.88,0-4.77,1.47-4.77,3.84,0,2.13,1.2,3.36,3.78,3.9l3.15.63c3.27.66,5.79,2.1,5.79,5.91,0,3.48-2.61,6.18-7.62,6.18C220.17,588.51,217.41,585.57,217.11,581.61Z"/><path d="M236,580.5c0-4.89,2.61-7.86,6.81-7.86a5.67,5.67,0,0,1,6.06,5.43l-2.13.24c-.3-2.49-1.74-3.84-4-3.84-2.79,0-4.5,2.25-4.5,6s1.71,6.06,4.59,6.06c2.25,0,3.66-1.35,4.05-3.84l2,.3c-.54,3.39-2.76,5.37-6.06,5.37C238.62,588.36,236,585.33,236,580.5Z"/><path d="M264.75,581H253.86c0,3.39,1.89,5.46,4.8,5.46a4.21,4.21,0,0,0,4.23-3.21l1.77.72a6.07,6.07,0,0,1-6.15,4.35c-4.26,0-6.75-2.73-6.75-7.77s2.52-8,6.66-8,6.33,2.4,6.33,7Zm-2.13-2c0-3.09-1.56-4.74-4.23-4.74s-4.47,1.92-4.53,5h8.76Zm-3.33-8.46h-2l3-4.29h2.58Z"/><path d="M269.19,573h2v3.3a5.11,5.11,0,0,1,5.13-3.66c3.36,0,5.1,2.07,5.1,6.09V588h-2.1v-9.15c0-2.91-1.26-4.41-3.63-4.41-2.7,0-4.41,2.16-4.41,5.67V588h-2.07Z"/><path d="M285.27,584a3.79,3.79,0,0,1,1.83-3.36,12.9,12.9,0,0,1,4.92-1.35l3.33-.39v-.24c0-3.09-1.08-4.32-3.63-4.32-2.25,0-3.63,1.17-3.75,3.3h-2.25c.18-3.09,2.52-5,6-5,4,0,5.76,1.86,5.76,6.21v3.9a21.14,21.14,0,0,0,.48,5.25h-2.19a20.58,20.58,0,0,1-.27-3,5.14,5.14,0,0,1-5.22,3.36C287.25,588.36,285.27,586.62,285.27,584Zm10.11-2.58v-1l-4.26.6c-2.55.36-3.66,1.23-3.66,2.88s1.26,2.64,3.27,2.64C293.52,586.62,295.38,584.52,295.38,581.46Z"/><path d="M309.36,572.64a3.63,3.63,0,0,1,.57,0v2h-.24a4.39,4.39,0,0,0-3.21,1.14c-1.38,1.38-1.65,3.39-1.65,5.28V588h-2.07V573h1.95v3.66C305.4,574.35,307.05,572.64,309.36,572.64Z"/><path d="M313.29,567h2.37v3.3h-2.37Zm.15,6h2.07v15h-2.07Z"/><path d="M319.8,580.5c0-4.89,2.73-7.86,6.9-7.86s6.87,3,6.87,7.86-2.73,7.86-6.87,7.86S319.8,585.39,319.8,580.5Zm11.55,0c0-3.9-1.77-6-4.65-6s-4.68,2.13-4.68,6,1.77,6,4.68,6S331.35,584.4,331.35,580.5Z"/><path d="M344.07,579.75l5.13-6.24h2.22l-5,6.24,5,6.24h-2.25Zm5.61,0,5.13-6.24H357l-5,6.24L357,586h-2.22Z"/><path d="M370.92,566.7v13.8c0,3.63,2,5.94,5.64,5.94s5.67-2.31,5.67-5.94V566.7h2.34v13.95c0,4.71-2.85,7.86-8,7.86s-7.95-3.15-7.95-7.86V566.7Z"/><path d="M390.09,573h2v3.3a5.11,5.11,0,0,1,5.13-3.66c3.36,0,5.1,2.07,5.1,6.09V588h-2.1v-9.15c0-2.91-1.26-4.41-3.63-4.41-2.7,0-4.41,2.16-4.41,5.67V588h-2.07Z"/><path d="M419.1,581H408.21c0,3.39,1.89,5.46,4.8,5.46a4.21,4.21,0,0,0,4.23-3.21L419,584a6.07,6.07,0,0,1-6.15,4.35c-4.26,0-6.75-2.73-6.75-7.77s2.52-8,6.66-8,6.33,2.4,6.33,7Zm-2.13-2c0-3.09-1.56-4.74-4.23-4.74s-4.47,1.92-4.53,5H417Z"/><path d="M431.49,573h2v3.18a5.32,5.32,0,0,1,5.13-3.54c3.69,0,6.09,3.15,6.09,7.86s-2.55,7.86-6.24,7.86a5.06,5.06,0,0,1-4.89-3.18v8.67h-2.07Zm11,7.5c0-3.72-1.62-6-4.38-6s-4.56,2.34-4.56,5.64v.66c0,3.36,1.68,5.7,4.44,5.7S442.47,584.22,442.47,580.5Z"/><path d="M451.2,588h-2.07V566.25h2.07Z"/><path d="M455.7,584a3.79,3.79,0,0,1,1.83-3.36,12.9,12.9,0,0,1,4.92-1.35l3.33-.39v-.24c0-3.09-1.08-4.32-3.63-4.32-2.25,0-3.63,1.17-3.75,3.3h-2.25c.18-3.09,2.52-5,6-5,4,0,5.76,1.86,5.76,6.21v3.9a21.14,21.14,0,0,0,.48,5.25h-2.19a20.58,20.58,0,0,1-.27-3,5.14,5.14,0,0,1-5.22,3.36C457.68,588.36,455.7,586.62,455.7,584Zm10.11-2.58v-1l-4.26.6c-2.55.36-3.66,1.23-3.66,2.88s1.26,2.64,3.27,2.64C464,586.62,465.81,584.52,465.81,581.46Z"/><path d="M471.66,580.5c0-4.89,2.61-7.86,6.81-7.86a5.67,5.67,0,0,1,6.06,5.43l-2.13.24c-.3-2.49-1.74-3.84-4-3.84-2.79,0-4.5,2.25-4.5,6s1.71,6.06,4.59,6.06c2.25,0,3.66-1.35,4-3.84l2,.3c-.54,3.39-2.76,5.37-6.06,5.37C474.3,588.36,471.66,585.33,471.66,580.5Z"/><path d="M500.43,581H489.54c0,3.39,1.89,5.46,4.8,5.46a4.21,4.21,0,0,0,4.23-3.21l1.77.72a6.07,6.07,0,0,1-6.15,4.35c-4.26,0-6.75-2.73-6.75-7.77s2.52-8,6.66-8,6.33,2.4,6.33,7Zm-2.13-2c0-3.09-1.56-4.74-4.23-4.74s-4.47,1.92-4.53,5h8.76Z"/><path d="M511.47,584a3.79,3.79,0,0,1,1.83-3.36,12.9,12.9,0,0,1,4.92-1.35l3.33-.39v-.24c0-3.09-1.08-4.32-3.63-4.32-2.25,0-3.63,1.17-3.75,3.3h-2.25c.18-3.09,2.52-5,6-5,4,0,5.76,1.86,5.76,6.21v3.9a21.14,21.14,0,0,0,.48,5.25h-2.19a20.58,20.58,0,0,1-.27-3,5.14,5.14,0,0,1-5.22,3.36C513.45,588.36,511.47,586.62,511.47,584Zm10.11-2.58v-1l-4.26.6c-2.55.36-3.66,1.23-3.66,2.88s1.26,2.64,3.27,2.64C519.72,586.62,521.58,584.52,521.58,581.46Z"/><path d="M529,573h2v3.3a5.11,5.11,0,0,1,5.13-3.66c3.36,0,5.1,2.07,5.1,6.09V588h-2.1v-9.15c0-2.91-1.26-4.41-3.63-4.41-2.7,0-4.41,2.16-4.41,5.67V588H529Z"/><path d="M546.24,567h2.36v3.3h-2.36Zm.15,6h2.07v15h-2.07Z"/><path d="M556.1,573v2.91a4.47,4.47,0,0,1,4.44-3.27,4.23,4.23,0,0,1,4.32,3.21,4.76,4.76,0,0,1,4.62-3.21c2.94,0,4.62,2,4.62,5.55V588H572v-9.63c0-2.55-1.08-3.93-3.15-3.93-2.28,0-3.69,1.68-3.69,4.44V588h-2.07v-9.75c0-2.43-1.14-3.81-3.11-3.81-2.29,0-3.75,1.86-3.75,4.8V588h-2.08V573Z"/><path d="M590.94,581H580.05c0,3.39,1.89,5.46,4.8,5.46a4.21,4.21,0,0,0,4.22-3.21l1.78.72a6.08,6.08,0,0,1-6.16,4.35c-4.25,0-6.75-2.73-6.75-7.77s2.53-8,6.66-8,6.34,2.4,6.34,7Zm-2.13-2c0-3.09-1.57-4.74-4.24-4.74s-4.47,1.92-4.52,5h8.76Zm-3.33-8.46h-2l3-4.29H589Z"/><path d="M607,581H596.06c0,3.39,1.89,5.46,4.8,5.46a4.21,4.21,0,0,0,4.23-3.21l1.77.72a6.07,6.07,0,0,1-6.15,4.35c-4.26,0-6.75-2.73-6.75-7.77s2.52-8,6.66-8,6.33,2.4,6.33,7Zm-2.13-2c0-3.09-1.56-4.74-4.23-4.74s-4.47,1.92-4.53,5h8.76Z"/><path d="M630.92,581H620c0,3.39,1.89,5.46,4.8,5.46a4.21,4.21,0,0,0,4.23-3.21l1.77.72a6.07,6.07,0,0,1-6.15,4.35c-4.26,0-6.74-2.73-6.74-7.77s2.51-8,6.65-8,6.33,2.4,6.33,7Zm-2.13-2c0-3.09-1.56-4.74-4.23-4.74s-4.47,1.92-4.53,5h8.76Z"/><path d="M632.73,573h2.75v-4l2.11-.9V573h3.86v1.74h-3.86v9c0,1.77.77,2.55,2.34,2.55a6.09,6.09,0,0,0,1.52-.18V588a7,7,0,0,1-2.06.27c-2.91,0-3.91-1.77-3.91-4.44v-9.09h-2.75Z"/><path d="M652.92,582.51V573H655v9.3c0,2.94,1.38,4.26,3.42,4.26,2.73,0,4.38-2.34,4.38-5.37V573h2.1v15h-2v-3.09a5.14,5.14,0,0,1-4.86,3.45C654.3,588.36,652.92,586.08,652.92,582.51Z"/><path d="M670.58,573h2v3.3a5.11,5.11,0,0,1,5.13-3.66c3.36,0,5.1,2.07,5.1,6.09V588h-2.1v-9.15c0-2.91-1.26-4.41-3.63-4.41-2.7,0-4.41,2.16-4.41,5.67V588h-2.07Z"/><path d="M696,573h2v3.3a5.11,5.11,0,0,1,5.13-3.66c3.36,0,5.1,2.07,5.1,6.09V588h-2.1v-9.15c0-2.91-1.26-4.41-3.63-4.41-2.7,0-4.41,2.16-4.41,5.67V588H696Z"/><path d="M712,580.5c0-4.89,2.73-7.86,6.9-7.86s6.87,3,6.87,7.86-2.73,7.86-6.87,7.86S712,585.39,712,580.5Zm11.55,0c0-3.9-1.77-6-4.65-6s-4.68,2.13-4.68,6,1.77,6,4.68,6S723.53,584.4,723.53,580.5Z"/><path d="M729.59,582.51V573h2.07v9.3c0,2.94,1.38,4.26,3.42,4.26,2.73,0,4.38-2.34,4.38-5.37V573h2.1v15h-2v-3.09a5.14,5.14,0,0,1-4.86,3.45C731,588.36,729.59,586.08,729.59,582.51Z"/><path d="M744.74,573H747l3.72,10.62c.27.84.48,1.53.63,2.22h.09c.15-.69.39-1.38.66-2.22L755.84,573h2.28l-5.55,15h-2.28Z"/><path d="M772.52,581H761.63c0,3.39,1.89,5.46,4.8,5.46a4.21,4.21,0,0,0,4.23-3.21l1.77.72a6.07,6.07,0,0,1-6.15,4.35c-4.26,0-6.75-2.73-6.75-7.77s2.52-8,6.66-8,6.33,2.4,6.33,7Zm-2.13-2c0-3.09-1.56-4.74-4.23-4.74s-4.47,1.92-4.53,5h8.76Z"/><path d="M775.52,584a3.79,3.79,0,0,1,1.83-3.36,12.9,12.9,0,0,1,4.92-1.35l3.33-.39v-.24c0-3.09-1.08-4.32-3.63-4.32-2.25,0-3.63,1.17-3.75,3.3H776c.18-3.09,2.52-5,6-5,4,0,5.76,1.86,5.76,6.21v3.9a21.14,21.14,0,0,0,.48,5.25H786a20.58,20.58,0,0,1-.27-3,5.14,5.14,0,0,1-5.22,3.36C777.5,588.36,775.52,586.62,775.52,584Zm10.11-2.58v-1l-4.26.6c-2.55.36-3.66,1.23-3.66,2.88s1.26,2.64,3.27,2.64C783.77,586.62,785.63,584.52,785.63,581.46Z"/><path d="M792.56,582.51V573h2.07v9.3c0,2.94,1.38,4.26,3.42,4.26,2.73,0,4.38-2.34,4.38-5.37V573h2.1v15h-2v-3.09a5.14,5.14,0,0,1-4.86,3.45C793.94,588.36,792.56,586.08,792.56,582.51Z"/><path d="M818.18,573h2v3.18a5.32,5.32,0,0,1,5.13-3.54c3.69,0,6.09,3.15,6.09,7.86s-2.55,7.86-6.24,7.86a5.06,5.06,0,0,1-4.89-3.18v8.67h-2.07Zm11,7.5c0-3.72-1.62-6-4.38-6s-4.56,2.34-4.56,5.64v.66c0,3.36,1.68,5.7,4.44,5.7S829.16,584.22,829.16,580.5Z"/><path d="M834.2,584a3.79,3.79,0,0,1,1.83-3.36,12.9,12.9,0,0,1,4.92-1.35l3.33-.39v-.24c0-3.09-1.08-4.32-3.63-4.32-2.25,0-3.63,1.17-3.75,3.3h-2.25c.18-3.09,2.52-5,6-5,4,0,5.76,1.86,5.76,6.21v3.9a21.14,21.14,0,0,0,.48,5.25h-2.19a20.58,20.58,0,0,1-.27-3,5.14,5.14,0,0,1-5.22,3.36C836.18,588.36,834.2,586.62,834.2,584Zm10.11-2.58v-1l-4.26.6c-2.55.36-3.66,1.23-3.66,2.88s1.26,2.64,3.27,2.64C842.45,586.62,844.31,584.52,844.31,581.46Z"/><path d="M858.29,572.64a3.63,3.63,0,0,1,.57,0v2h-.24a4.39,4.39,0,0,0-3.21,1.14c-1.38,1.38-1.65,3.39-1.65,5.28V588h-2.07V573h1.95v3.66C854.33,574.35,856,572.64,858.29,572.64Z"/><path d="M860.48,580.5c0-4.89,2.61-7.86,6.81-7.86a5.67,5.67,0,0,1,6.06,5.43l-2.13.24c-.3-2.49-1.74-3.84-4-3.84-2.79,0-4.5,2.25-4.5,6s1.71,6.06,4.59,6.06c2.25,0,3.66-1.35,4.05-3.84l2,.3c-.54,3.39-2.76,5.37-6.06,5.37C863.12,588.36,860.48,585.33,860.48,580.5Z"/><path d="M883.73,586l5-6.24-5-6.24h2.22l5.16,6.24L886,586Zm5.61,0,5-6.24-5-6.24h2.22l5.16,6.24L891.56,586Z"/><path d="M916,578.67v2h-8.67v-2Z"/><path d="M931.31,571a4.59,4.59,0,0,1-3.66,1.65h-1v-2h.57a4.34,4.34,0,0,0,4.38-3.54h1.86V588h-2.19Z"/><path d="M938.84,583l2.28-.24a4.45,4.45,0,0,0,4.65,3.84c3,0,4.8-2.07,4.8-5.4s-1.62-5.46-4.68-5.46a4.55,4.55,0,0,0-4.59,3.75l-2.13-.21,1.23-12.09h11.37v1.92h-9.72l-.81,7.83a5.43,5.43,0,0,1,5.19-3.06c4,0,6.36,2.76,6.36,7.23s-2.79,7.38-7.14,7.38C942,588.45,939.38,586.32,938.84,583Z"/><path d="M959,573v2.91a4.47,4.47,0,0,1,4.44-3.27,4.23,4.23,0,0,1,4.32,3.21,4.76,4.76,0,0,1,4.62-3.21c2.94,0,4.62,2,4.62,5.55V588h-2.1v-9.63c0-2.55-1.08-3.93-3.15-3.93-2.28,0-3.69,1.68-3.69,4.44V588H966v-9.75c0-2.43-1.14-3.81-3.12-3.81-2.28,0-3.75,1.86-3.75,4.8V588h-2.07V573Z"/><path d="M982.19,573h2v3.3a5.11,5.11,0,0,1,5.13-3.66c3.36,0,5.1,2.07,5.1,6.09V588h-2.1v-9.15c0-2.91-1.26-4.41-3.63-4.41-2.7,0-4.41,2.16-4.41,5.67V588h-2.07Z"/><path d="M217.11,617.61l2.34-.33c.33,2.88,2.13,5.31,6.15,5.31,2.76,0,5.13-1.23,5.13-4s-1.68-3.63-4.32-4.14l-3.15-.63c-3.06-.6-5.25-2.25-5.25-5.7s2.79-5.91,7.23-5.91c4.17,0,7.35,1.86,7.71,6.18l-2.34.45c-.3-3.21-2.1-4.77-5.43-4.77-2.88,0-4.77,1.47-4.77,3.84,0,2.13,1.2,3.36,3.78,3.9l3.15.63c3.27.66,5.79,2.1,5.79,5.91,0,3.48-2.61,6.18-7.62,6.18C220.17,624.51,217.41,621.57,217.11,617.61Z"/><path d="M236,616.5c0-4.89,2.61-7.86,6.81-7.86a5.67,5.67,0,0,1,6.06,5.43l-2.13.24c-.3-2.49-1.74-3.84-4-3.84-2.79,0-4.5,2.25-4.5,6s1.71,6.06,4.59,6.06c2.25,0,3.66-1.35,4.05-3.84l2,.3c-.54,3.39-2.76,5.37-6.06,5.37C238.62,624.36,236,621.33,236,616.5Z"/><path d="M264.75,617H253.86c0,3.39,1.89,5.46,4.8,5.46a4.21,4.21,0,0,0,4.23-3.21l1.77.72a6.07,6.07,0,0,1-6.15,4.35c-4.26,0-6.75-2.73-6.75-7.77s2.52-8,6.66-8,6.33,2.4,6.33,7Zm-2.13-2c0-3.09-1.56-4.74-4.23-4.74s-4.47,1.92-4.53,5h8.76Zm-3.33-8.46h-2l3-4.29h2.58Z"/><path d="M269.19,609h2v3.3a5.11,5.11,0,0,1,5.13-3.66c3.36,0,5.1,2.07,5.1,6.09V624h-2.1v-9.15c0-2.91-1.26-4.41-3.63-4.41-2.7,0-4.41,2.16-4.41,5.67V624h-2.07Z"/><path d="M285.27,620a3.79,3.79,0,0,1,1.83-3.36,12.9,12.9,0,0,1,4.92-1.35l3.33-.39v-.24c0-3.09-1.08-4.32-3.63-4.32-2.25,0-3.63,1.17-3.75,3.3h-2.25c.18-3.09,2.52-5,6-5,4,0,5.76,1.86,5.76,6.21v3.9a21.14,21.14,0,0,0,.48,5.25h-2.19a20.58,20.58,0,0,1-.27-3,5.14,5.14,0,0,1-5.22,3.36C287.25,624.36,285.27,622.62,285.27,620Zm10.11-2.58v-1l-4.26.6c-2.55.36-3.66,1.23-3.66,2.88s1.26,2.64,3.27,2.64C293.52,622.62,295.38,620.52,295.38,617.46Z"/><path d="M309.36,608.64a3.63,3.63,0,0,1,.57,0v2h-.24a4.39,4.39,0,0,0-3.21,1.14c-1.38,1.38-1.65,3.39-1.65,5.28V624h-2.07V609h1.95v3.66C305.4,610.35,307.05,608.64,309.36,608.64Z"/><path d="M313.29,603h2.37v3.3h-2.37Zm.15,6h2.07v15h-2.07Z"/><path d="M319.8,616.5c0-4.89,2.73-7.86,6.9-7.86s6.87,3,6.87,7.86-2.73,7.86-6.87,7.86S319.8,621.39,319.8,616.5Zm11.55,0c0-3.9-1.77-6-4.65-6s-4.68,2.13-4.68,6,1.77,6,4.68,6S331.35,620.4,331.35,616.5Z"/><path d="M344.07,615.75l5.13-6.24h2.22l-5,6.24,5,6.24h-2.25Zm5.61,0,5.13-6.24H357l-5,6.24L357,622h-2.22Z"/><path d="M370.92,602.7v13.8c0,3.63,2,5.94,5.64,5.94s5.67-2.31,5.67-5.94V602.7h2.34v13.95c0,4.71-2.85,7.86-8,7.86s-7.95-3.15-7.95-7.86V602.7Z"/><path d="M390.09,609h2v3.3a5.11,5.11,0,0,1,5.13-3.66c3.36,0,5.1,2.07,5.1,6.09V624h-2.1v-9.15c0-2.91-1.26-4.41-3.63-4.41-2.7,0-4.41,2.16-4.41,5.67V624h-2.07Z"/><path d="M425.19,621a5.1,5.1,0,0,1-4.95,3.36c-3.69,0-6.18-3.09-6.18-7.86s2.67-7.86,6.39-7.86a4.81,4.81,0,0,1,4.83,3.18l.45-2.82h1.56v20.85h-2.1Zm0-4.11v-.75c0-3.36-1.65-5.64-4.47-5.64s-4.47,2.25-4.47,6,1.65,6,4.44,6S425.22,620.22,425.22,616.89Z"/><path d="M432.51,618.51V609h2.07v9.3c0,2.94,1.38,4.26,3.42,4.26,2.73,0,4.38-2.34,4.38-5.37V609h2.1v15h-2v-3.09a5.14,5.14,0,0,1-4.86,3.45C433.89,624.36,432.51,622.08,432.51,618.51Z"/><path d="M448.83,620a3.79,3.79,0,0,1,1.83-3.36,12.9,12.9,0,0,1,4.92-1.35l3.33-.39v-.24c0-3.09-1.08-4.32-3.63-4.32-2.25,0-3.63,1.17-3.75,3.3h-2.25c.18-3.09,2.52-5,6-5,4,0,5.76,1.86,5.76,6.21v3.9a21.14,21.14,0,0,0,.48,5.25H459.3a20.58,20.58,0,0,1-.27-3,5.14,5.14,0,0,1-5.22,3.36C450.81,624.36,448.83,622.62,448.83,620Zm10.11-2.58v-1l-4.26.6c-2.55.36-3.66,1.23-3.66,2.88s1.26,2.64,3.27,2.64C457.08,622.62,458.94,620.52,458.94,617.46Z"/><path d="M472.92,608.64a3.63,3.63,0,0,1,.57,0v2h-.24a4.39,4.39,0,0,0-3.21,1.14c-1.38,1.38-1.65,3.39-1.65,5.28V624h-2.07V609h1.95v3.66C469,610.35,470.61,608.64,472.92,608.64Z"/><path d="M475.62,609h2.76v-4l2.1-.9V609h3.87v1.74h-3.87v9c0,1.77.78,2.55,2.34,2.55a6.12,6.12,0,0,0,1.53-.18V624a7.07,7.07,0,0,1-2.07.27c-2.91,0-3.9-1.77-3.9-4.44v-9.09h-2.76Z"/><path d="M488.16,603h2.37v3.3h-2.37Zm.15,6h2.07v15h-2.07Z"/><path d="M507.66,617H496.77c0,3.39,1.89,5.46,4.8,5.46a4.21,4.21,0,0,0,4.23-3.21l1.77.72a6.07,6.07,0,0,1-6.15,4.35c-4.26,0-6.75-2.73-6.75-7.77s2.52-8,6.66-8,6.33,2.4,6.33,7Zm-2.13-2c0-3.09-1.56-4.74-4.23-4.74s-4.47,1.92-4.53,5h8.76Z"/><path d="M518.69,608.64a3.76,3.76,0,0,1,.58,0v2H519a4.41,4.41,0,0,0-3.21,1.14c-1.37,1.38-1.64,3.39-1.64,5.28V624H512.1V609h1.95v3.66C514.74,610.35,516.39,608.64,518.69,608.64Z"/><path d="M529.56,609h2v3.18a5.32,5.32,0,0,1,5.13-3.54c3.68,0,6.09,3.15,6.09,7.86s-2.56,7.86-6.24,7.86a5.05,5.05,0,0,1-4.89-3.18v8.67h-2.07Zm11,7.5c0-3.72-1.61-6-4.38-6s-4.55,2.34-4.55,5.64v.66c0,3.36,1.67,5.7,4.44,5.7S540.53,620.22,540.53,616.5Z"/><path d="M558.62,617H547.73c0,3.39,1.89,5.46,4.8,5.46a4.21,4.21,0,0,0,4.23-3.21l1.77.72a6.07,6.07,0,0,1-6.15,4.35c-4.26,0-6.75-2.73-6.75-7.77s2.52-8,6.66-8,6.33,2.4,6.33,7Zm-2.13-2c0-3.09-1.56-4.74-4.23-4.74s-4.47,1.92-4.53,5h8.76Z"/><path d="M569.66,608.64a3.63,3.63,0,0,1,.57,0v2H570a4.41,4.41,0,0,0-3.21,1.14c-1.38,1.38-1.64,3.39-1.64,5.28V624h-2.08V609h2v3.66C565.71,610.35,567.35,608.64,569.66,608.64Z"/><path d="M575.69,609v2.91a4.47,4.47,0,0,1,4.44-3.27,4.23,4.23,0,0,1,4.32,3.21,4.76,4.76,0,0,1,4.62-3.21c2.94,0,4.62,2,4.62,5.55V624h-2.1v-9.63c0-2.55-1.08-3.93-3.15-3.93-2.28,0-3.69,1.68-3.69,4.44V624h-2.07v-9.75c0-2.43-1.14-3.81-3.12-3.81-2.28,0-3.75,1.86-3.75,4.8V624h-2.07V609Z"/><path d="M610.52,617H599.63c0,3.39,1.89,5.46,4.8,5.46a4.21,4.21,0,0,0,4.23-3.21l1.77.72a6.07,6.07,0,0,1-6.15,4.35c-4.26,0-6.75-2.73-6.75-7.77s2.52-8,6.66-8,6.33,2.4,6.33,7Zm-2.13-2c0-3.09-1.56-4.74-4.23-4.74s-4.47,1.92-4.53,5h8.76Zm-3.33-8.46h-2l3-4.29h2.58Z"/><path d="M613.49,620a3.79,3.79,0,0,1,1.83-3.36,12.9,12.9,0,0,1,4.92-1.35l3.33-.39v-.24c0-3.09-1.08-4.32-3.63-4.32-2.25,0-3.63,1.17-3.75,3.3h-2.25c.18-3.09,2.52-5,6-5,4,0,5.76,1.86,5.76,6.21v3.9a21.14,21.14,0,0,0,.48,5.25H624a20.58,20.58,0,0,1-.27-3,5.14,5.14,0,0,1-5.22,3.36C615.47,624.36,613.49,622.62,613.49,620Zm10.11-2.58v-1l-4.26.6c-2.55.36-3.66,1.23-3.66,2.88s1.26,2.64,3.27,2.64C621.74,622.62,623.6,620.52,623.6,617.46Z"/><path d="M633.11,621l-.39,3h-1.59V602.25h2.07v9.81a5.2,5.2,0,0,1,5-3.42c3.69,0,6.09,3.21,6.09,7.86s-2.46,7.86-6.24,7.86A5.2,5.2,0,0,1,633.11,621Zm9-4.5c0-3.63-1.62-6-4.5-6s-4.44,2.25-4.44,5.7v.72c0,3.33,1.68,5.58,4.38,5.58C640.4,622.5,642.11,620.16,642.11,616.5Z"/><path d="M650.84,624h-2.07V602.25h2.07Z"/><path d="M668.27,617H657.38c0,3.39,1.89,5.46,4.8,5.46a4.21,4.21,0,0,0,4.23-3.21l1.77.72a6.07,6.07,0,0,1-6.15,4.35c-4.26,0-6.75-2.73-6.75-7.77s2.52-8,6.66-8,6.33,2.4,6.33,7Zm-2.13-2c0-3.09-1.56-4.74-4.23-4.74s-4.47,1.92-4.53,5h8.76Z"/><path d="M678.77,622l5-6.24-5-6.24H681l5.16,6.24L681,622Zm5.61,0,5-6.24-5-6.24h2.22l5.16,6.24L686.6,622Z"/><path d="M711,614.67v2h-8.67v-2Z"/><path d="M726.35,607a4.59,4.59,0,0,1-3.66,1.65h-1v-2h.57a4.34,4.34,0,0,0,4.38-3.54h1.86V624h-2.19Z"/><path d="M733.88,619l2.28-.24a4.45,4.45,0,0,0,4.65,3.84c3,0,4.8-2.07,4.8-5.4s-1.62-5.46-4.68-5.46a4.55,4.55,0,0,0-4.59,3.75l-2.13-.21,1.23-12.09h11.37v1.92h-9.72l-.81,7.83a5.43,5.43,0,0,1,5.19-3.06c4,0,6.36,2.76,6.36,7.23s-2.79,7.38-7.14,7.38C737,624.45,734.42,622.32,733.88,619Z"/><path d="M754,609v2.91a4.47,4.47,0,0,1,4.44-3.27,4.23,4.23,0,0,1,4.32,3.21,4.76,4.76,0,0,1,4.62-3.21c2.94,0,4.62,2,4.62,5.55V624h-2.1v-9.63c0-2.55-1.08-3.93-3.15-3.93-2.28,0-3.69,1.68-3.69,4.44V624H761v-9.75c0-2.43-1.14-3.81-3.12-3.81-2.28,0-3.75,1.86-3.75,4.8V624h-2.07V609Z"/><path d="M777.23,609h2v3.3a5.11,5.11,0,0,1,5.13-3.66c3.36,0,5.1,2.07,5.1,6.09V624h-2.1v-9.15c0-2.91-1.26-4.41-3.63-4.41-2.7,0-4.41,2.16-4.41,5.67V624h-2.07Z"/><path d="M48.75,690.54V696H46.68v-5.46h-10V689l9.6-13.86h2.43V688.8h3.48v1.74Zm-2-13.17h-.06a11.71,11.71,0,0,1-1.32,2.34l-4.74,6.81a16.7,16.7,0,0,1-1.68,2.28h7.74v-8.67C46.68,678.72,46.68,678.33,46.74,677.37Z"/><path d="M58.11,696H55.29v-3.36h2.82Z"/><path d="M125.91,690.18c0,2.76-1.59,5.82-7,5.82h-7.8V674.7h7.23c5.52,0,7,3.06,7,5.58a4.6,4.6,0,0,1-3.75,4.71A4.84,4.84,0,0,1,125.91,690.18Zm-12.45-13.5v7.44h5c3.93,0,4.56-2.07,4.56-3.66,0-1.83-.87-3.78-4.65-3.78ZM123.6,690c0-2.16-1.2-3.9-4.53-3.9h-5.61V694h5.34C122.52,694,123.6,692.1,123.6,690Z"/><path d="M130.44,675h2.37v3.3h-2.37Zm.15,6h2.07v15h-2.07Z"/><path d="M140.58,696h-2.07V674.25h2.07Z"/><path d="M145.08,692a3.79,3.79,0,0,1,1.83-3.36,12.9,12.9,0,0,1,4.92-1.35l3.33-.39v-.24c0-3.09-1.08-4.32-3.63-4.32-2.25,0-3.63,1.17-3.75,3.3h-2.25c.18-3.09,2.52-5,6-5,4,0,5.76,1.86,5.76,6.21v3.9a21.14,21.14,0,0,0,.48,5.25h-2.19a20.58,20.58,0,0,1-.27-3,5.14,5.14,0,0,1-5.22,3.36C147.06,696.36,145.08,694.62,145.08,692Zm10.11-2.58v-1l-4.26.6c-2.55.36-3.66,1.23-3.66,2.88s1.26,2.64,3.27,2.64C153.33,694.62,155.19,692.52,155.19,689.46Z"/><path d="M162.57,681h2v3.3a5.11,5.11,0,0,1,5.13-3.66c3.36,0,5.1,2.07,5.1,6.09V696h-2.1v-9.15c0-2.91-1.26-4.41-3.63-4.41-2.7,0-4.41,2.16-4.41,5.67V696h-2.07Z"/><path d="M186.54,688.5c0-4.62,2.61-7.86,6.42-7.86a4.78,4.78,0,0,1,4.71,3.09v-9.48h2.1V696h-2v-3.18a5.23,5.23,0,0,1-5.07,3.54C189,696.36,186.54,693.18,186.54,688.5Zm11.16.33v-.63c0-3.42-1.65-5.7-4.44-5.7s-4.5,2.25-4.5,6,1.68,6,4.47,6S197.7,692.16,197.7,688.83Z"/><path d="M217.17,689H206.28c0,3.39,1.89,5.46,4.8,5.46a4.21,4.21,0,0,0,4.23-3.21l1.77.72a6.07,6.07,0,0,1-6.15,4.35c-4.26,0-6.75-2.73-6.75-7.77s2.52-8,6.66-8,6.33,2.4,6.33,7Zm-2.13-2c0-3.09-1.56-4.74-4.23-4.74s-4.47,1.92-4.53,5H215Z"/><path d="M231.78,696h-2.07V674.25h2.07Z"/><path d="M236.28,692a3.79,3.79,0,0,1,1.83-3.36,12.9,12.9,0,0,1,4.92-1.35l3.33-.39v-.24c0-3.09-1.08-4.32-3.63-4.32-2.25,0-3.63,1.17-3.75,3.3h-2.25c.18-3.09,2.52-5,6-5,4,0,5.76,1.86,5.76,6.21v3.9a21.14,21.14,0,0,0,.48,5.25h-2.19a20.58,20.58,0,0,1-.27-3,5.14,5.14,0,0,1-5.22,3.36C238.26,696.36,236.28,694.62,236.28,692Zm10.11-2.58v-1l-4.26.6c-2.55.36-3.66,1.23-3.66,2.88s1.26,2.64,3.27,2.64C244.53,694.62,246.39,692.52,246.39,689.46Z"/><path d="M260.31,688.5c0-4.62,2.61-7.86,6.42-7.86a4.78,4.78,0,0,1,4.71,3.09v-9.48h2.1V696h-2v-3.18a5.23,5.23,0,0,1-5.07,3.54C262.77,696.36,260.31,693.18,260.31,688.5Zm11.16.33v-.63c0-3.42-1.65-5.7-4.44-5.7s-4.5,2.25-4.5,6,1.68,6,4.47,6S271.47,692.16,271.47,688.83Z"/><path d="M279.21,675h2.37v3.3h-2.37Zm.15,6h2.07v15h-2.07Z"/><path d="M285.72,691.71l2.13-.36c.36,2.13,1.89,3.27,4.26,3.27,2.19,0,3.42-1,3.42-2.55s-.84-2.1-2.43-2.4l-2.91-.57c-2.49-.48-3.9-1.83-3.9-4.11,0-2.52,2.13-4.35,5.52-4.35s5.49,1.47,5.79,4.14l-2.1.45c-.3-1.83-1.59-2.88-3.78-2.88s-3.39,1-3.39,2.55c0,1.41.93,2.1,2.49,2.4l2.94.57c2.67.54,3.84,1.83,3.84,4,0,2.67-2,4.47-5.55,4.47S286.2,694.71,285.72,691.71Z"/><path d="M300.66,688.5c0-4.89,2.61-7.86,6.81-7.86a5.67,5.67,0,0,1,6.06,5.43l-2.13.24c-.3-2.49-1.74-3.84-4-3.84-2.79,0-4.5,2.25-4.5,6s1.71,6.06,4.59,6.06c2.25,0,3.66-1.35,4-3.84l2,.3c-.54,3.39-2.76,5.37-6.06,5.37C303.3,696.36,300.66,693.33,300.66,688.5Z"/><path d="M317.4,690.51V681h2.07v9.3c0,2.94,1.38,4.26,3.42,4.26,2.73,0,4.38-2.34,4.38-5.37V681h2.1v15h-2v-3.09a5.14,5.14,0,0,1-4.86,3.45C318.78,696.36,317.4,694.08,317.4,690.51Z"/><path d="M333.66,691.71l2.13-.36c.36,2.13,1.89,3.27,4.26,3.27,2.19,0,3.42-1,3.42-2.55s-.84-2.1-2.43-2.4l-2.91-.57c-2.49-.48-3.9-1.83-3.9-4.11,0-2.52,2.13-4.35,5.52-4.35s5.49,1.47,5.79,4.14l-2.1.45c-.3-1.83-1.59-2.88-3.78-2.88s-3.39,1-3.39,2.55c0,1.41.93,2.1,2.49,2.4l2.94.57c2.67.54,3.84,1.83,3.84,4,0,2.67-2,4.47-5.55,4.47S334.14,694.71,333.66,691.71Z"/><path d="M348.35,691.71l2.14-.36c.36,2.13,1.89,3.27,4.26,3.27,2.19,0,3.42-1,3.42-2.55s-.85-2.1-2.44-2.4l-2.9-.57c-2.49-.48-3.9-1.83-3.9-4.11,0-2.52,2.13-4.35,5.51-4.35s5.5,1.47,5.79,4.14l-2.09.45c-.3-1.83-1.59-2.88-3.79-2.88s-3.38,1-3.38,2.55c0,1.41.93,2.1,2.49,2.4l2.94.57c2.66.54,3.83,1.83,3.83,4,0,2.67-2,4.47-5.54,4.47S348.84,694.71,348.35,691.71Z"/><path d="M364.56,675h2.36v3.3h-2.36Zm.14,6h2.07v15H364.7Z"/><path d="M371.07,688.5c0-4.89,2.73-7.86,6.9-7.86s6.86,3,6.86,7.86-2.73,7.86-6.86,7.86S371.07,693.39,371.07,688.5Zm11.54,0c0-3.9-1.76-6-4.64-6s-4.68,2.13-4.68,6,1.77,6,4.68,6S382.61,692.4,382.61,688.5Z"/><path d="M389.12,681h2v3.3a5.11,5.11,0,0,1,5.13-3.66c3.36,0,5.1,2.07,5.1,6.09V696h-2.1v-9.15c0-2.91-1.26-4.41-3.63-4.41-2.7,0-4.41,2.16-4.41,5.67V696h-2.07Z"/><path d="M426.08,689H415.19c0,3.39,1.89,5.46,4.8,5.46a4.21,4.21,0,0,0,4.23-3.21L426,692a6.07,6.07,0,0,1-6.15,4.35c-4.26,0-6.74-2.73-6.74-7.77s2.51-8,6.65-8,6.33,2.4,6.33,7Zm-2.13-2c0-3.09-1.56-4.74-4.23-4.74s-4.47,1.92-4.53,5H424Z"/><path d="M427.88,681h2.76v-4l2.1-.9V681h3.87v1.74h-3.87v9c0,1.77.78,2.55,2.34,2.55a6.12,6.12,0,0,0,1.53-.18V696a7.07,7.07,0,0,1-2.07.27c-2.91,0-3.9-1.77-3.9-4.44v-9.09h-2.76Z"/><path d="M458.24,693a5.1,5.1,0,0,1-4.95,3.36c-3.69,0-6.18-3.09-6.18-7.86s2.67-7.86,6.39-7.86a4.81,4.81,0,0,1,4.83,3.18l.45-2.82h1.56v20.85h-2.1Zm0-4.11v-.75c0-3.36-1.65-5.64-4.47-5.64s-4.47,2.25-4.47,6,1.65,6,4.44,6S458.27,692.22,458.27,688.89Z"/><path d="M465.56,690.51V681h2.07v9.3c0,2.94,1.38,4.26,3.42,4.26,2.73,0,4.38-2.34,4.38-5.37V681h2.1v15h-2v-3.09a5.14,5.14,0,0,1-4.86,3.45C466.94,696.36,465.56,694.08,465.56,690.51Z"/><path d="M494.81,689H483.92c0,3.39,1.89,5.46,4.8,5.46a4.21,4.21,0,0,0,4.23-3.21l1.77.72a6.07,6.07,0,0,1-6.15,4.35c-4.26,0-6.75-2.73-6.75-7.77s2.52-8,6.66-8,6.33,2.4,6.33,7Zm-2.13-2c0-3.09-1.56-4.74-4.23-4.74s-4.47,1.92-4.53,5h8.76Z"/><path d="M497.84,691.71l2.13-.36c.36,2.13,1.89,3.27,4.26,3.27,2.19,0,3.42-1,3.42-2.55s-.84-2.1-2.43-2.4l-2.91-.57c-2.49-.48-3.9-1.83-3.9-4.11,0-2.52,2.13-4.35,5.52-4.35s5.49,1.47,5.79,4.14l-2.1.45c-.3-1.83-1.59-2.88-3.78-2.88s-3.39,1-3.39,2.55c0,1.41.93,2.1,2.49,2.4l2.94.57c2.67.54,3.84,1.83,3.84,4,0,2.67-2,4.47-5.55,4.47S498.32,694.71,497.84,691.71Z"/><path d="M511.7,681h2.76v-4l2.1-.9V681h3.87v1.74h-3.87v9c0,1.77.78,2.55,2.34,2.55a6.12,6.12,0,0,0,1.53-.18V696a7.07,7.07,0,0,1-2.07.27c-2.91,0-3.9-1.77-3.9-4.44v-9.09H511.7Z"/><path d="M524.24,675h2.37v3.3h-2.37Zm.15,6h2.07v15h-2.07Z"/><path d="M530.75,688.5c0-4.89,2.73-7.86,6.9-7.86s6.87,3,6.87,7.86-2.73,7.86-6.87,7.86S530.75,693.39,530.75,688.5Zm11.55,0c0-3.9-1.77-6-4.65-6s-4.68,2.13-4.68,6,1.77,6,4.68,6S542.3,692.4,542.3,688.5Z"/><path d="M548.81,681h2v3.3a5.11,5.11,0,0,1,5.13-3.66c3.36,0,5.1,2.07,5.1,6.09V696h-2.1v-9.15c0-2.91-1.26-4.41-3.63-4.41-2.7,0-4.41,2.16-4.41,5.67V696h-2.07Z"/><path d="M566.21,681h2v3.3a5.11,5.11,0,0,1,5.13-3.66c3.36,0,5.1,2.07,5.1,6.09V696h-2.1v-9.15c0-2.91-1.26-4.41-3.63-4.41-2.7,0-4.41,2.16-4.41,5.67V696h-2.07Z"/><path d="M582.29,692a3.79,3.79,0,0,1,1.83-3.36,12.9,12.9,0,0,1,4.92-1.35l3.33-.39v-.24c0-3.09-1.08-4.32-3.63-4.32-2.25,0-3.63,1.17-3.75,3.3h-2.25c.18-3.09,2.52-5,6-5,4,0,5.76,1.86,5.76,6.21v3.9A21.14,21.14,0,0,0,595,696h-2.19a20.58,20.58,0,0,1-.27-3,5.14,5.14,0,0,1-5.22,3.36C584.27,696.36,582.29,694.62,582.29,692Zm10.11-2.58v-1l-4.26.6c-2.55.36-3.66,1.23-3.66,2.88s1.26,2.64,3.27,2.64C590.54,694.62,592.4,692.52,592.4,689.46Z"/><path d="M599.63,675H602v3.3h-2.37Zm.15,6h2.07v15h-2.07Z"/><path d="M614.15,680.64a3.63,3.63,0,0,1,.57,0v2h-.24a4.39,4.39,0,0,0-3.21,1.14c-1.38,1.38-1.65,3.39-1.65,5.28V696h-2.07V681h2v3.66C610.19,682.35,611.84,680.64,614.15,680.64Z"/><path d="M629.33,689H618.44c0,3.39,1.89,5.46,4.8,5.46a4.21,4.21,0,0,0,4.23-3.21l1.77.72a6.07,6.07,0,0,1-6.15,4.35c-4.26,0-6.75-2.73-6.75-7.77s2.52-8,6.66-8,6.33,2.4,6.33,7Zm-2.13-2c0-3.09-1.56-4.74-4.23-4.74s-4.47,1.92-4.53,5h8.76Z"/><path d="M653.3,689H642.41c0,3.39,1.89,5.46,4.8,5.46a4.21,4.21,0,0,0,4.23-3.21l1.77.72a6.07,6.07,0,0,1-6.15,4.35c-4.26,0-6.75-2.73-6.75-7.77s2.52-8,6.66-8,6.33,2.4,6.33,7Zm-2.13-2c0-3.09-1.56-4.74-4.23-4.74s-4.47,1.92-4.53,5h8.76Z"/><path d="M657.74,681h2v3.3a5.11,5.11,0,0,1,5.13-3.66c3.36,0,5.1,2.07,5.1,6.09V696h-2.1v-9.15c0-2.91-1.26-4.41-3.63-4.41-2.7,0-4.41,2.16-4.41,5.67V696h-2.07Z"/><path d="M685.34,696h-2.07V674.25h2.07Z"/><path d="M691,675h2.37v3.3H691Zm.15,6h2.07v15h-2.07Z"/><path d="M708,682.05a4.86,4.86,0,0,1,1.5,3.63c0,2.91-2.07,5.07-5.46,5.07a6.18,6.18,0,0,1-2.88-.66,1.81,1.81,0,0,0-1.29,1.65c0,1,.75,1.71,2.55,1.71h3.93c3.24,0,4.89,1.47,4.89,4.08,0,2.82-2.22,4.68-7.23,4.68s-6.72-1.89-6.72-4.17a3.31,3.31,0,0,1,2.52-3.18,2.65,2.65,0,0,1-1.8-2.58,3,3,0,0,1,2.13-2.88,5,5,0,0,1-1.56-3.72c0-2.91,2.1-5,5.46-5a6.35,6.35,0,0,1,2.94.66,3.45,3.45,0,0,1,3.54-2.7,4.51,4.51,0,0,1,.87.09v1.86a4.18,4.18,0,0,0-1-.12A2.4,2.4,0,0,0,708,682.05Zm-5.64,13.23c-.42,0-.81,0-1.17-.06a2.63,2.63,0,0,0-1.83,2.46c0,2,1.95,2.79,4.89,2.79,3.72,0,4.89-1.17,4.89-2.82s-1.11-2.37-3.27-2.37Zm5.16-9.57a3.48,3.48,0,1,0-3.48,3.42A3.3,3.3,0,0,0,707.48,685.71Z"/><path d="M714.32,681h2v3.3a5.11,5.11,0,0,1,5.13-3.66c3.36,0,5.1,2.07,5.1,6.09V696h-2.1v-9.15c0-2.91-1.26-4.41-3.63-4.41-2.7,0-4.41,2.16-4.41,5.67V696h-2.07Z"/><path d="M743.33,689H732.44c0,3.39,1.89,5.46,4.8,5.46a4.21,4.21,0,0,0,4.23-3.21l1.77.72a6.07,6.07,0,0,1-6.15,4.35c-4.26,0-6.75-2.73-6.75-7.77s2.52-8,6.66-8,6.33,2.4,6.33,7Zm-2.13-2c0-3.09-1.56-4.74-4.23-4.74s-4.47,1.92-4.53,5h8.76Z"/><g class="cls-3"><path d="M182.32,578.91l.33-1c-.92-3-1.71-6-2.78-8.86a9.18,9.18,0,0,1,.5-7.59c5.83-12.6,4.83-24.83-3.43-36-8.1-10.9-19.31-15.56-32.8-13.67-14.09,2-23.85,10-28.33,23.36-4.37,13.07-1.73,25.27,8,35.25,9.9,10.13,22.33,13.64,35.55,8.86,7.94-2.87,15-5,22.94-.42M119.8,572c-7.91-9.48-11.26-20.09-9.28-32.1s8.85-21,19.2-27.62c-8.21-12.94-19.39-21.17-34.35-23.27-18.52-2.59-33.86,4-45.08,18.69-11,14.47-12.63,30.66-5.49,47.45a11,11,0,0,1,.54,8.31C44,567.7,42.65,572,41.18,576.61c5.61-.79,10.73-1.62,15.87-2.15a7.54,7.54,0,0,1,4.48.95c6,3.83,12.4,6.7,19.5,7.71,14.52,2.07,27.37-1.65,38.77-11.09m13.58-61.58c12.29-5,24.15-4.27,35.48,2.2,17.09,9.77,23.92,31.74,15.88,49.83a11.24,11.24,0,0,0-.42,6.51c.74,3.48,2.24,6.79,3.24,10.22.31,1.08.53,2.82,0,3.35s-2.31.46-3.43.21c-4.05-.93-8-2.12-12.09-3a5.7,5.7,0,0,0-3.57.25c-16.24,8.27-31.41,6.56-45.86-4.83-1.92,1.37-3.88,3-6,4.25-18.45,11.29-37,11.37-55.83.76A10.57,10.57,0,0,0,55,578.92c-5.17.45-10.3,1.36-15.45,2.08-3.13.43-4.12-.65-3.2-3.65,1.59-5.19,3.39-10.31,4.89-15.53a6.68,6.68,0,0,0-.28-4.21,51.55,51.55,0,0,1,45.85-72.87c18.21-.42,32.67,6.9,43.55,21.43,1,1.3,1.87,2.64,3,4.28"/><path d="M71.5,537.92a4.17,4.17,0,1,1-4.17-4.17,4.17,4.17,0,0,1,4.17,4.17"/><path d="M91.52,537.92a4.17,4.17,0,1,1-4.17-4.17,4.17,4.17,0,0,1,4.17,4.17"/><path d="M108.65,537.92a4.17,4.17,0,1,1-4.17-4.17,4.17,4.17,0,0,1,4.17,4.17"/><path d="M136.94,547.55a4.17,4.17,0,1,1-4.17-4.17,4.17,4.17,0,0,1,4.17,4.17"/><path d="M150.83,547.55a4.17,4.17,0,1,1-4.17-4.17,4.17,4.17,0,0,1,4.17,4.17"/><path d="M165.18,547.55a4.17,4.17,0,1,1-4.17-4.17,4.17,4.17,0,0,1,4.17,4.17"/></g></g></g></svg>