<svg id="Calque_1" data-name="Calque 1" xmlns="http://www.w3.org/2000/svg" xmlns:xlink="http://www.w3.org/1999/xlink" viewBox="0 0 1190.55 841.89"><defs><style>.cls-1,.cls-7{fill:none;}.cls-2{clip-path:url(#clip-path);}.cls-3{clip-path:url(#clip-path-3);}.cls-4{opacity:0.6;}.cls-5{clip-path:url(#clip-path-4);}.cls-6{fill:#eadfde;}.cls-7{stroke:#283583;stroke-miterlimit:10;stroke-width:1.5px;}.cls-36,.cls-44,.cls-45,.cls-8{font-size:30px;}.cls-36,.cls-44,.cls-8{font-family:GTAmerica-Light, GT America;font-weight:300;}.cls-38,.cls-8{letter-spacing:0em;}.cls-9{letter-spacing:-0.02em;}.cls-10{letter-spacing:0.01em;}.cls-11{letter-spacing:-0.02em;}.cls-12{letter-spacing:0em;}.cls-13{letter-spacing:-0.03em;}.cls-14{letter-spacing:-0.02em;}.cls-15{letter-spacing:0em;}.cls-16{letter-spacing:-0.01em;}.cls-17{letter-spacing:-0.01em;}.cls-18{letter-spacing:0em;}.cls-19{letter-spacing:-0.03em;}.cls-20{letter-spacing:-0.01em;}.cls-21{letter-spacing:0em;}.cls-22{letter-spacing:-0.02em;}.cls-23{letter-spacing:0.01em;}.cls-24{letter-spacing:-0.02em;}.cls-25{letter-spacing:0em;}.cls-26{letter-spacing:0em;}.cls-27{letter-spacing:-0.03em;}.cls-28{letter-spacing:-0.01em;}.cls-29{letter-spacing:-0.01em;}.cls-30{letter-spacing:0em;}.cls-31{letter-spacing:-0.01em;}.cls-32{letter-spacing:-0.03em;}.cls-33{letter-spacing:-0.02em;}.cls-34{letter-spacing:-0.04em;}.cls-35{letter-spacing:0em;}.cls-36{fill:#283583;}.cls-37{letter-spacing:-0.01em;}.cls-39{letter-spacing:0.03em;}.cls-40{letter-spacing:0em;}.cls-41{letter-spacing:-0.05em;}.cls-42{letter-spacing:-0.02em;}.cls-43{letter-spacing:-0.01em;}.cls-45{font-family:GTAmerica-Bold, GT America;font-weight:700;}.cls-46{letter-spacing:-0.01em;}.cls-47{letter-spacing:-0.04em;}.cls-48{letter-spacing:-0.01em;}.cls-49{letter-spacing:0em;}.cls-50{letter-spacing:-0.04em;}.cls-51{letter-spacing:-0.01em;}.cls-52{letter-spacing:-0.01em;}.cls-53{letter-spacing:0.01em;}.cls-54{letter-spacing:-0.02em;}.cls-55{letter-spacing:-0.01em;}.cls-56{letter-spacing:0em;}.cls-57{letter-spacing:-0.02em;}.cls-58{letter-spacing:0em;}.cls-59{letter-spacing:-0.04em;}.cls-60{letter-spacing:0em;}.cls-61{letter-spacing:-0.02em;}.cls-62{letter-spacing:-0.01em;}.cls-63{letter-spacing:0.03em;}.cls-64{letter-spacing:-0.01em;}.cls-65{letter-spacing:-0.02em;}.cls-66{letter-spacing:-0.01em;}.cls-67{letter-spacing:-0.04em;}.cls-68{letter-spacing:-0.02em;}.cls-69{letter-spacing:-0.04em;}.cls-70{letter-spacing:0em;}.cls-71{letter-spacing:-0.02em;}</style><clipPath id="clip-path"><rect class="cls-1" width="1190.55" height="841.89"/></clipPath><clipPath id="clip-path-3"><rect class="cls-1" width="1190.55" height="841.89"/></clipPath><clipPath id="clip-path-4"><rect class="cls-1" x="27" y="158.83" width="1136.55" height="387.84"/></clipPath></defs><title>Plan de travail</title><g class="cls-2"><g class="cls-2"><g class="cls-3"><g class="cls-4"><g class="cls-5"><rect class="cls-6" x="36" y="165.83" width="1118.55" height="379.84"/></g></g></g><line class="cls-7" x1="947.6" y1="207" x2="1154.55" y2="207"/><text class="cls-8" transform="translate(50.17 204)">C<tspan class="cls-9" x="21.03" y="0">e</tspan><tspan class="cls-10" x="36.54" y="0">t</tspan><tspan class="cls-11" x="47.34" y="0">t</tspan><tspan class="cls-12" x="57.18" y="0">e</tspan><tspan class="cls-13" x="73.11" y="0"> </tspan><tspan x="80.19" y="0">p</tspan><tspan class="cls-14" x="97.62" y="0">r</tspan><tspan class="cls-15" x="107.7" y="0">ése</tspan><tspan class="cls-16" x="154.5" y="0">n</tspan><tspan class="cls-17" x="171.54" y="0">t</tspan><tspan class="cls-14" x="181.65" y="0">a</tspan><tspan class="cls-12" x="197.19" y="0">t</tspan><tspan class="cls-15" x="207.57" y="0">i</tspan><tspan class="cls-18" x="215.28" y="0">on</tspan><tspan class="cls-19" x="249.18" y="0"> </tspan><tspan class="cls-9" x="256.26" y="0">e</tspan><tspan class="cls-12" x="271.77" y="0">t</tspan><tspan class="cls-13" x="282.15" y="0"> </tspan><tspan x="289.23" y="0">le</tspan><tspan class="cls-18" x="313.2" y="0">s</tspan><tspan class="cls-13" x="328.05" y="0"> </tspan><tspan x="335.13" y="0">m</tspan><tspan class="cls-20" x="360.27" y="0">a</tspan><tspan class="cls-21" x="376.2" y="0">q</tspan><tspan class="cls-18" x="393.63" y="0">u</tspan><tspan class="cls-22" x="410.76" y="0">e</tspan><tspan class="cls-23" x="426.27" y="0">t</tspan><tspan class="cls-24" x="437.07" y="0">t</tspan><tspan class="cls-25" x="446.91" y="0">e</tspan><tspan class="cls-26" x="462.83" y="0">s</tspan><tspan class="cls-27" x="477.71" y="0"> </tspan><tspan class="cls-18" x="484.76" y="0">se</tspan><tspan class="cls-14" x="515.54" y="0">r</tspan><tspan class="cls-18" x="525.62" y="0">o</tspan><tspan class="cls-28" x="542.18" y="0">n</tspan><tspan x="559.22" y="0">t</tspan><tspan class="cls-27" x="569.63" y="0"> </tspan><tspan class="cls-29" x="576.68" y="0">a</tspan><tspan class="cls-30" x="592.61" y="0">c</tspan><tspan class="cls-18" x="608.33" y="0">ce</tspan><tspan class="cls-31" x="639.95" y="0">s</tspan><tspan class="cls-18" x="654.56" y="0">s</tspan><tspan class="cls-26" x="669.41" y="0">i</tspan><tspan class="cls-25" x="677.12" y="0">bl</tspan><tspan x="702.65" y="0">e</tspan><tspan class="cls-25" x="718.61" y="0">s</tspan><tspan class="cls-19" x="733.46" y="0"> </tspan><tspan class="cls-18" x="740.54" y="0">en</tspan><tspan class="cls-32" x="773.81" y="0"> </tspan><tspan class="cls-18" x="780.89" y="0">li</tspan><tspan class="cls-33" x="796.55" y="0">g</tspan><tspan class="cls-18" x="811.79" y="0">ne</tspan><tspan class="cls-19" x="845.06" y="0"> </tspan><tspan x="852.14" y="0">s</tspan><tspan class="cls-18" x="867.02" y="0">u</tspan><tspan class="cls-34" x="884.15" y="0">r</tspan><tspan class="cls-35" x="893.54" y="0"> </tspan></text><text class="cls-36" transform="translate(947.87 204)"><tspan class="cls-37">p</tspan><tspan class="cls-38" x="17.28" y="0">a</tspan><tspan class="cls-39" x="33.36" y="0">r</tspan><tspan class="cls-40" x="44.79" y="0">t</tspan><tspan class="cls-38" x="55.17" y="0">i</tspan><tspan class="cls-25" x="62.88" y="0">c</tspan><tspan class="cls-38" x="78.57" y="0">ip</tspan><tspan class="cls-25" x="103.71" y="0">e</tspan><tspan class="cls-41" x="119.64" y="0">r</tspan><tspan class="cls-10" x="128.85" y="0">.</tspan><tspan class="cls-42" x="136.32" y="0">g</tspan><tspan class="cls-28" x="151.74" y="0">e</tspan><tspan class="cls-43" x="167.37" y="0">.</tspan><tspan class="cls-25" x="174.18" y="0">c</tspan><tspan x="189.87" y="0">h</tspan></text><text class="cls-44" transform="translate(50.17 276)">ainsi que des </text><text class="cls-45" transform="translate(237.04 276)">qu<tspan class="cls-18" x="36.39" y="0">e</tspan><tspan class="cls-10" x="53.16" y="0">s</tspan><tspan x="68.79" y="0">tionnai</tspan><tspan class="cls-46" x="169.41" y="0">r</tspan><tspan class="cls-38" x="181.53" y="0">e</tspan><tspan x="198.33" y="0">s</tspan></text><text class="cls-44" transform="translate(450.46 276)"><tspan xml:space="preserve"> pou</tspan><tspan class="cls-47" x="59.31" y="0">r</tspan><tspan x="68.82" y="0"> </tspan><tspan class="cls-28" x="76.77" y="0">é</tspan><tspan class="cls-48" x="92.4" y="0">v</tspan><tspan class="cls-49" x="106.08" y="0">alue</tspan><tspan class="cls-50" x="163.53" y="0">r</tspan><tspan x="173.04" y="0" xml:space="preserve"> les 4 scénario</tspan><tspan class="cls-51" x="368.72" y="0">s</tspan><tspan class="cls-49" x="383.36" y="0">.</tspan></text><text class="cls-44" transform="translate(50.17 348)">Ils perm<tspan class="cls-52" x="108.96" y="0">e</tspan><tspan class="cls-53" x="124.56" y="0">t</tspan><tspan x="135.45" y="0">t</tspan><tspan class="cls-54" x="145.92" y="0">r</tspan><tspan x="156.12" y="0">o</tspan><tspan class="cls-55" x="172.77" y="0">n</tspan><tspan x="189.93" y="0">t de co</tspan><tspan class="cls-56" x="282.39" y="0">m</tspan><tspan x="307.56" y="0">pl</tspan><tspan class="cls-52" x="333.12" y="0">é</tspan><tspan class="cls-57" x="348.72" y="0">t</tspan><tspan class="cls-58" x="358.68" y="0">e</tspan><tspan class="cls-59" x="374.7" y="0">r</tspan><tspan class="cls-60" x="384.21" y="0" xml:space="preserve"> les discu</tspan><tspan class="cls-37" x="512.48" y="0">s</tspan><tspan x="527.21" y="0">sions d</tspan><tspan class="cls-17" x="624.53" y="0">’</tspan><tspan x="631.34" y="0">aujou</tspan><tspan class="cls-61" x="706.22" y="0">r</tspan><tspan x="716.42" y="0">d’hui : </tspan></text><text class="cls-44" transform="translate(88.87 384)">•</text><text class="cls-44" transform="translate(97.93 384)"> </text><text class="cls-44" transform="translate(106.87 384)"><tspan class="cls-62">év</tspan><tspan class="cls-60" x="29.34" y="0">alue</tspan><tspan class="cls-47" x="86.79" y="0">r</tspan><tspan x="96.3" y="0" xml:space="preserve"> les scénarios</tspan></text><text class="cls-44" transform="translate(88.87 420)">•</text><text class="cls-44" transform="translate(97.93 420)"> </text><text class="cls-44" transform="translate(106.87 420)">ajou<tspan class="cls-42" x="57.66" y="0">t</tspan><tspan class="cls-58" x="67.59" y="0">e</tspan><tspan class="cls-59" x="83.61" y="0">r</tspan><tspan x="93.12" y="0" xml:space="preserve"> des obse</tspan><tspan class="cls-63" x="222.87" y="0">r</tspan><tspan class="cls-62" x="234.42" y="0">v</tspan><tspan class="cls-57" x="248.1" y="0">a</tspan><tspan x="263.73" y="0">tion</tspan><tspan class="cls-64" x="316.05" y="0">s</tspan><tspan class="cls-58" x="330.68" y="0">, des </tspan><tspan class="cls-65" x="402.35" y="0">r</tspan><tspan x="412.55" y="0">ema</tspan><tspan class="cls-22" x="469.91" y="0">r</tspan><tspan x="480.08" y="0">que</tspan><tspan class="cls-66" x="530.81" y="0">s</tspan><tspan x="545.45" y="0">, des p</tspan><tspan class="cls-65" x="634.61" y="0">r</tspan><tspan x="644.81" y="0">opositions</tspan></text><text class="cls-44" transform="translate(88.87 456)">•</text><text class="cls-44" transform="translate(97.93 456)"> </text><text class="cls-44" transform="translate(106.87 456)"><tspan class="cls-65">r</tspan><tspan class="cls-60" x="10.2" y="0">ecueilli</tspan><tspan class="cls-67" x="106.92" y="0">r</tspan><tspan class="cls-68" x="116.4" y="0"> </tspan><tspan class="cls-62" x="123.63" y="0">v</tspan><tspan class="cls-58" x="137.31" y="0">os </tspan><tspan class="cls-22" x="176.85" y="0">a</tspan><tspan class="cls-58" x="192.48" y="0">vis pe</tspan><tspan class="cls-37" x="270.68" y="0">r</tspan><tspan x="281.15" y="0">so</tspan><tspan class="cls-38" x="312.74" y="0">n</tspan><tspan x="330.11" y="0">nels</tspan></text><text class="cls-44" transform="translate(50.17 528)"><tspan class="cls-69">À</tspan><tspan x="18.81" y="0"> </tspan><tspan class="cls-65" x="26.76" y="0">r</tspan><tspan class="cls-60" x="36.96" y="0">e</tspan><tspan class="cls-38" x="52.98" y="0">m</tspan><tspan x="78.12" y="0">pli</tspan><tspan class="cls-47" x="111.45" y="0">r</tspan><tspan x="120.96" y="0" xml:space="preserve"> d’ici au plus</tspan><tspan class="cls-64" x="292.02" y="0"> </tspan><tspan class="cls-46" x="299.67" y="0">t</tspan><tspan x="309.9" y="0">a</tspan><tspan class="cls-57" x="326.03" y="0">r</tspan><tspan x="336.2" y="0">d le 7</tspan><tspan class="cls-70" x="408.77" y="0"> </tspan><tspan class="cls-24" x="416.6" y="0">f</tspan><tspan class="cls-17" x="426.2" y="0">é</tspan><tspan x="441.86" y="0">vrie</tspan><tspan class="cls-47" x="490.37" y="0">r</tspan><tspan class="cls-35" x="499.88" y="0"> </tspan><tspan class="cls-71" x="507.83" y="0">2</tspan><tspan x="523.43" y="0">0</tspan><tspan class="cls-37" x="542.45" y="0">2</tspan><tspan x="558.5" y="0">1</tspan></text><path d="M93.28,54l4.89-.48c0,2.34,1.32,3.72,3.36,3.72a2.71,2.71,0,0,0,3-3c0-1.92-1.14-2.91-3.6-2.91H99.82V48h1.08c2.1,0,3.18-1.08,3.18-2.91a2.5,2.5,0,0,0-2.76-2.73c-1.95,0-3.06,1.41-3.06,3.78l-4.77-.63c0-4.17,3.12-6.81,8.07-6.81,4.8,0,7.5,2.16,7.5,5.82a5,5,0,0,1-4.17,4.89c3.09.48,4.74,2.22,4.74,5.13,0,4-3.18,6.42-8.13,6.42S93.34,58.26,93.28,54Zm24,6.51h-5.13V55.59h5.13ZM120.52,57a45.06,45.06,0,0,0,7.53-5.49c2-2,2.85-3.6,2.85-5.73s-1-3.24-2.7-3.24-2.82,1.2-2.82,3.18a10.13,10.13,0,0,0,.21,1.71L120.67,47a8.15,8.15,0,0,1-.18-1.65c0-4,3.06-6.6,8-6.6s7.62,2.43,7.62,6.69c0,2.88-1.23,5.31-3.75,7.65a28.91,28.91,0,0,1-5.19,3.63h9.12v3.84H120.52ZM164,61.26a6,6,0,0,0,1.68-.24V65a13.67,13.67,0,0,1-2.25.18c-3.6,0-5.94-1.53-7-4.11H156c-6.39,0-10.5-4.32-10.5-11.16S149.65,38.7,156,38.7s10.5,4.29,10.5,11.16c0,5-2.22,8.7-5.91,10.29A4.89,4.89,0,0,0,164,61.26Zm-8-4.2c3.33,0,5.28-2.7,5.28-7.2s-1.95-7.2-5.28-7.2-5.31,2.7-5.31,7.2S152.71,57.06,156,57.06Zm18.3-17.85V52.86a4,4,0,1,0,7.92,0V39.21h5.07V53.07c0,4.86-3.36,8-9,8s-9-3.09-9-8V39.21ZM206.2,56.76v3.75H191.41V39.21H206V43h-9.51v4.8h9v3.72h-9v5.28Zm1.38-.69,3.75-2.64a6.17,6.17,0,0,0,5.79,3.66c2,0,3.66-.75,3.66-2.43s-.93-2.19-3.09-2.64l-2.85-.6C211.12,50.61,209,48.6,209,45c0-3.9,3.18-6.33,8.31-6.33,3.78,0,7,1.38,8.46,4.23l-3.3,2.79a6,6,0,0,0-5.49-3.27c-2,0-3.3.84-3.3,2.19s.84,2.07,3.09,2.58l3.09.66c3.78.84,5.82,2.64,5.82,6.3,0,4-3.12,6.84-8.7,6.84C212.35,61,209.05,59.07,207.58,56.07ZM244,43.23h-6.21V60.51h-5V43.23h-6.18v-4H244Zm2.4,17.28V39.21h5.07v21.3Zm8.16-10.65c0-6.87,4.11-11.16,10.5-11.16s10.5,4.29,10.5,11.16S271.42,61,265,61,254.53,56.7,254.53,49.86Zm15.78,0c0-4.5-1.95-7.2-5.28-7.2s-5.31,2.7-5.31,7.2,2,7.2,5.31,7.2S270.31,54.36,270.31,49.86Zm8.31-10.65h5.61l6.84,12.15a22.16,22.16,0,0,1,1.29,2.76h.06c0-.84,0-1.71,0-2.73V39.21H297v21.3h-5.4l-7.08-12.27a20.24,20.24,0,0,1-1.26-2.61h-.06c0,.87,0,1.77,0,2.82V60.51h-4.65Zm22.86,0h5.61l6.84,12.15a22.16,22.16,0,0,1,1.29,2.76h.06c0-.84,0-1.71,0-2.73V39.21h4.65v21.3h-5.4l-7.08-12.27a20.24,20.24,0,0,1-1.26-2.61h-.06c0,.87,0,1.77,0,2.82V60.51h-4.65Zm35.61,16.32h-7.86l-1.62,5h-5.07l7.74-21.3h5.79l7.74,21.3h-5.1ZM335.92,52,334,46a18.76,18.76,0,0,1-.78-3h-.06a18.76,18.76,0,0,1-.78,3l-2,5.94Zm10.5,8.55V39.21h5.07v21.3Zm17.64-8.16H361v8.16h-5.07V39.21h9.36c5.4,0,7.8,2.64,7.8,6.54a5.89,5.89,0,0,1-4.17,5.85l4.71,8.91h-5.49ZM361,48.87h3.27c2.46,0,3.54-1.2,3.54-3.12s-1.05-3-3.54-3H361Zm30.51,7.89v3.75H376.72V39.21H391.3V43h-9.51v4.8h9v3.72h-9v5.28Zm25.89,0v3.75H402.61V39.21h14.58V43h-9.51v4.8h9v3.72h-9v5.28Zm3.69-17.55h5.61l6.84,12.15a22.16,22.16,0,0,1,1.29,2.76h.06c0-.84,0-1.71,0-2.73V39.21h4.65v21.3h-5.4L427,48.24a20.24,20.24,0,0,1-1.26-2.61h-.06c0,.87,0,1.77,0,2.82V60.51h-4.65Zm30.27,0h5.07V56.4h8.64v4.11H451.36ZM468,60.51V39.21h5.07v21.3Zm8.16-10.62c0-6.69,4-11.19,10.56-11.19,5.58,0,8.61,3,9.27,6.54l-5,.93a4.1,4.1,0,0,0-4.29-3.66c-3.39,0-5.34,2.82-5.34,7.32s1.83,7.29,5.4,7.29a4.49,4.49,0,0,0,4.71-4.38v-.45h-5.25V48.66h9.87V60.51h-3.6l-.21-3.12c-1.08,2.28-3.45,3.63-6.66,3.63C479.71,61,476.14,56.64,476.14,49.89Zm23.67-10.68h5.61l6.84,12.15a22.16,22.16,0,0,1,1.29,2.76h.06c0-.84,0-1.71,0-2.73V39.21h4.65v21.3h-5.4l-7.08-12.27a20.24,20.24,0,0,1-1.26-2.61h-.06c0,.87,0,1.77,0,2.82V60.51h-4.65Zm37.65,17.55v3.75H522.67V39.21h14.58V43h-9.51v4.8h9v3.72h-9v5.28Z"/></g></g></svg>