<svg id="Calque_1" data-name="Calque 1" xmlns="http://www.w3.org/2000/svg" xmlns:xlink="http://www.w3.org/1999/xlink" viewBox="0 0 1190.55 841.89"><defs><style>.cls-1{fill:none;}.cls-2{clip-path:url(#clip-path);}</style><clipPath id="clip-path"><rect class="cls-1" width="1190.55" height="841.89"/></clipPath></defs><g class="cls-2"><path d="M279.9,425.33a45.06,45.06,0,0,0,7.53-5.49c2-2,2.85-3.6,2.85-5.73s-1-3.24-2.7-3.24-2.82,1.2-2.82,3.18a10.13,10.13,0,0,0,.21,1.71l-4.92-.45a8.15,8.15,0,0,1-.18-1.65c0-4,3.06-6.6,7.95-6.6s7.62,2.43,7.62,6.69c0,2.88-1.23,5.31-3.75,7.65A28.91,28.91,0,0,1,286.5,425h9.12v3.84H279.9Zm24,3.54h-5.13V424h5.13Zm11.34,0v-21.3h5.07v21.3Zm9.51-21.3h8.49c6.39,0,10.53,4.26,10.53,10.53s-4.14,10.77-10.59,10.77h-8.43Zm8.22,17.58c3.6,0,5.58-3.24,5.58-7s-1.86-6.81-5.52-6.81h-3.21v13.86Zm28.68,0v3.75H346.83v-21.3h14.58v3.75H351.9v4.8h9v3.72h-9v5.28Zm3.69-17.55h5.61l6.84,12.15a22.16,22.16,0,0,1,1.29,2.76h.06c0-.84,0-1.71,0-2.73V407.57h4.65v21.3h-5.4l-7.08-12.27A20.24,20.24,0,0,1,370,414h-.06c0,.87,0,1.77,0,2.82v12.06h-4.65Zm38.28,4h-6.21v17.28h-5V411.59h-6.18v-4h17.43Zm2.4,17.28v-21.3h5.07v21.3Zm14.58-17.46v4.92h9v3.78h-9v8.76H415.5v-21.3h14.58v3.84Zm12.54,17.46v-21.3h5.07v21.3Zm8.16-10.62c0-6.72,4-11.19,10.44-11.19,5.43,0,8.85,3,9.42,7.65l-5.13.9c-.3-2.82-1.86-4.47-4.41-4.47-3.24,0-5.13,2.73-5.13,7.08s1.92,7,5.28,7c2.37,0,4-1.62,4.38-4.38l5.13,1.11c-1,4.5-4.32,7.38-9.6,7.38C444.9,429.38,441.27,425,441.27,418.25Zm34.89,5.64H468.3l-1.62,5h-5.07l7.74-21.3h5.79l7.74,21.3h-5.1ZM475,420.32,473,414.38a18.76,18.76,0,0,1-.78-3h-.06a18.76,18.76,0,0,1-.78,3l-1.95,5.94Zm23.19-8.73H492v17.28h-5V411.59h-6.18v-4h17.43Zm2.4,17.28v-21.3h5.07v21.3Zm8.16-10.65c0-6.87,4.11-11.16,10.5-11.16s10.5,4.29,10.5,11.16-4.11,11.16-10.5,11.16S508.74,425.06,508.74,418.22Zm15.78,0c0-4.5-1.95-7.2-5.28-7.2s-5.31,2.7-5.31,7.2,2,7.2,5.31,7.2S524.52,422.72,524.52,418.22Zm8.31-10.65h5.61l6.84,12.15a22.16,22.16,0,0,1,1.29,2.76h.06c0-.84,0-1.71,0-2.73V407.57h4.65v21.3h-5.4l-7.08-12.27a20.24,20.24,0,0,1-1.26-2.61h-.06c0,.87,0,1.77,0,2.82v12.06h-4.65Zm30.27,0h8.49c6.39,0,10.53,4.26,10.53,10.53s-4.14,10.77-10.59,10.77H563.1Zm8.22,17.58c3.6,0,5.58-3.24,5.58-7s-1.86-6.81-5.52-6.81h-3.21v13.86Zm28.68,0v3.75H585.21v-21.3h14.58v3.75h-9.51v4.8h9v3.72h-9v5.28Zm1.38-.69,3.75-2.64a6.17,6.17,0,0,0,5.79,3.66c2,0,3.66-.75,3.66-2.43s-.93-2.19-3.09-2.64l-2.85-.6c-3.72-.81-5.88-2.82-5.88-6.39,0-3.9,3.18-6.33,8.31-6.33,3.78,0,7,1.38,8.46,4.23l-3.3,2.79a6,6,0,0,0-5.49-3.27c-2,0-3.3.84-3.3,2.19s.84,2.07,3.09,2.58l3.09.66c3.78.84,5.82,2.64,5.82,6.3,0,4-3.12,6.84-8.7,6.84C606.15,429.38,602.85,427.43,601.38,424.43Zm41.7-12.84h-6.21v17.28h-5V411.59h-6.18v-4h17.43Zm20.73,17.28h-5.07V420h-8.19v8.85h-5.07v-21.3h5.07v8.55h8.19v-8.55h5.07ZM683,425.12v3.75H668.25v-21.3h14.58v3.75h-9.51v4.8h9v3.72h-9v5.28Zm-9.48-18.84-3.48-3.54h4.17l3,3.54Zm13.17,1.29h7l3.93,13.05a14.92,14.92,0,0,1,.51,2.58h.06a16.5,16.5,0,0,1,.54-2.64l3.75-13h7v21.3h-4.62V414.35A21.43,21.43,0,0,1,705,412h-.09a12.12,12.12,0,0,1-.45,2.07l-4.29,14.85h-4.26L691.47,414a10,10,0,0,1-.45-2h-.09c.06.72.12,1.53.12,2.37v14.52h-4.32Zm42,17.55v3.75H714v-21.3h14.58v3.75H719v4.8h9v3.72h-9v5.28Zm1.38-.69,3.75-2.64a6.17,6.17,0,0,0,5.79,3.66c2,0,3.66-.75,3.66-2.43s-.93-2.19-3.09-2.64l-2.85-.6c-3.72-.81-5.88-2.82-5.88-6.39,0-3.9,3.18-6.33,8.31-6.33,3.78,0,7,1.38,8.46,4.23l-3.3,2.79a6,6,0,0,0-5.49-3.27c-2,0-3.3.84-3.3,2.19s.84,2.07,3.09,2.58l3.09.66c3.78.84,5.82,2.64,5.82,6.3,0,4-3.12,6.84-8.7,6.84C734.91,429.38,731.61,427.43,730.14,424.43Zm43.26.69v3.75H758.61v-21.3h14.58v3.75h-9.51v4.8h9v3.72h-9v5.28Zm19.23-13.53h-6.21v17.28h-5V411.59H775.2v-4h17.43Zm22.44,13.53v3.75H800.28v-21.3h14.58v3.75h-9.51v4.8h9v3.72h-9v5.28Zm3.69-17.55h5.61l6.84,12.15a22.16,22.16,0,0,1,1.29,2.76h.06c0-.84,0-1.71,0-2.73V407.57h4.64v21.3h-5.39L824.7,416.6a20.24,20.24,0,0,1-1.26-2.61h-.06c0,.87,0,1.77,0,2.82v12.06h-4.65Zm24.3,21.72a16,16,0,0,1-3.15-.27v-4.14a15.56,15.56,0,0,0,2,.15c1.92,0,3.09-.9,3.09-3.39V407.57h5.07v15C850.11,427.25,847.35,429.29,843.06,429.29ZM869,425.12v3.75H854.19v-21.3h14.58v3.75h-9.51v4.8h9v3.72h-9v5.28Zm8.4-17.55v13.65a4,4,0,1,0,7.92,0V407.57h5.06v13.86c0,4.86-3.35,7.95-9,7.95s-9-3.09-9-7.95V407.57Zm21.87,10.23-6.63-10.23h5.61l3.51,6a6.11,6.11,0,0,1,.63,1.35h.06a5.54,5.54,0,0,1,.63-1.35l3.6-6h5.48l-6.59,10.53,7.1,10.77H907l-3.87-6.3a5.73,5.73,0,0,1-.84-1.56h-.06a5.68,5.68,0,0,1-.78,1.53l-3.72,6.33H892.2Z"/></g></svg>